<svg width="512" height="512" viewBox="0 0 512 512" xmlns="http://www.w3.org/2000/svg"><title>atlanta-falcons</title><g fill="none" fill-rule="evenodd"><path d="M413.104 220.955s21.762-3.297 25.718-23.738c3.952-20.438-9.96-36.773-34.948-48.13-36.264-16.485-79.778-32.308-171.428-52.747-49.488-11.038-63.294-14.506-63.294-14.506L71.57 186.01l83.735-2.638S127.612 225.57 132.228 294.8c4.614 69.23 34.08 103.818 57.362 119.34 15.828 10.55 37.585 15.164 37.585 15.164s-11.21-15.824-7.915-35.604c3.3-19.78 11.21-30.328 17.147-40.88 5.934-10.55 44.177-85.713 44.177-85.713s13.845 0 19.778.66c5.936.66 9.89 3.297 9.89 6.596 0 3.295-3.955 7.91-3.955 7.91s19.78 1.322 45.493-8.57c25.715-9.89 34.284-26.374 34.284-26.374s-11.208-13.85-24.394-24.4c-13.19-10.55-23.737-17.14-23.737-17.14h58.023s11.206 0 15.164 3.29c3.956 3.29 1.976 11.87 1.976 11.87h-.002" fill="#A5ACAF"/><path d="M419.37 212.712s12.528-3.956 14.178-16.812c1.647-12.857-5.606-22.088-9.56-26.045-3.958-3.957-21.43-16.485-52.09-27.363-25.25-8.96-63.628-19.12-132.53-34.615-44.72-10.058-63.625-11.538-63.625-11.538l-71.868 77.47 74.177-.33s-30.67 37.61-33.298 112.08c-3.955 112.09 71.868 135.82 71.868 135.82s-7.252-13.19-5.275-28.35c1.977-15.17 8.57-27.03 15.822-40.22 7.25-13.19 46.81-91.65 46.81-91.65h27.69c4.94 0 11.87 2.63 14.5 6.26 2.64 3.63 1.32 6.59 1.32 6.59s19.13 1.35 31.97-4.28c18.79-8.248 28.68-20.778 28.68-20.778s-13.19-15.82-32.638-28.02c-19.45-12.2-35.937-20.44-35.937-20.44h91.98s11.203 0 14.5 2.965c3.3 2.967 3.3 9.23 3.3 9.23l.003.004" fill="#FFF"/><path d="M423.325 204.473s5.935-3.29 5.935-13.19c0-7.582-7.253-16.484-13.186-20.767-5.937-4.286-18.79-12.2-39.89-19.12-21.1-6.925-65.606-17.803-103.848-25.713-38.24-7.914-100.547-18.135-100.547-18.135l5.6 8.243-41.21 44.18 146.37 11.54-1.32 1.65h-97.91l7.25 7.26-15.83 28.02 82.42-17.14-2.31 2.31-96.26 32.64 8.24 5.273s-2.97 5.605-4.95 17.474c-1.978 11.87-3.297 23.077-3.297 23.077l82.42-50.436-.33 1.98-90.99 72.527 8.57 2.308s.33 15.497 1.977 24.726c1.648 9.23 4.29 19.78 4.29 19.78l74.506-87.69v2.964l-73.52 108.13h7.253s3.952 11.54 13.18 23.405c9.23 11.87 22.75 21.43 22.75 21.43s-5.01-10.353-2.97-27.69c1.318-11.21 12.53-29.673 17.805-40.22 5.27-10.55 72.522-143.406 72.522-143.406l-12.855-6.93h124.95s7.583.99 11.21 3.96c3.622 2.966 3.953 7.582 3.953 7.582l-.004.003" fill="#000"/><path d="M424.316 196.23s1.65-6.264-1.32-11.54c-2.966-5.273-9.56-8.9-9.56-8.9l1.32 6.593-34.286 4.287-1.318 1.976h33.297s3.45.166 7.25 2.473c3.2 1.95 4.61 5.11 4.61 5.11" fill="#FFF"/><path d="M408.162 178.758s-3.626-4.946-9.562-8.57c-5.935-3.63-16.482-8.573-16.482-8.573s7.252 6.098 10.877 10.384c3.626 4.28 4.616 6.42 4.616 6.42l10.56.33" fill="#FFF"/><path d="M368.932 167.877s-43.967-11.89-94.948-21.758c-51.098-9.89-88.68-15.83-88.68-15.83l-11.54 13.51L368.6 170.18l.332-2.31" fill="#A71930"/><path d="M250.58 182.713l-52.747.99-6.76 11.868 58.85-11.2.657-1.65" fill="#A71930"/><path d="M232.613 213.537l-57.198 20.603-3.79 15.164 60-33.46.99-2.307h-.002" fill="#A71930"/><path d="M224.537 252.108l-55.55 46.98s.165 6.095.657 9.065c.495 2.964 1.318 6.592 1.318 6.592l53.735-60-.16-2.637" fill="#A71930"/><path d="M234.59 289.852s-15.988 23.574-26.867 40.223c-10.88 16.644-21.592 32.635-21.592 32.635s2.48 4.945 4.12 7.584c1.65 2.636 4.29 5.934 4.29 5.934l41.21-84.89-1.15-1.486" fill="#A71930"/><path d="M300.687 202.492s29.177 14.34 44.836 24.89c15.66 10.55 26.374 21.923 26.374 21.923s-3.297 4.947-11.21 10.055c-7.91 5.112-16.153 6.427-16.153 6.427s6.263-5.6 6.758-8.405c.494-2.804-.657-3.462-2.31-3.462h-18.13s-2.966 2.14-2.804 6.593c.17 4.45 2.31 7.25 2.31 7.25s-5.77-.82-9.89-5.603c-4.12-4.78-4.12-8.242-4.12-8.242h-37.583l23.572-46.316-1.65-5.113" fill="#000"/><path d="M296.735 239.25l42.03 6.427-.988 1.982h-45.66l4.618-8.41" fill="#A71930"/></g></svg>