<svg width="512" height="512" viewBox="0 0 512 512" xmlns="http://www.w3.org/2000/svg"><title>baltimore-ravens</title><g fill="none" fill-rule="evenodd"><path d="M370.898 182.56c0 9.204-3.72 14.88-3.72 14.88-4.102-15.04-25.254-34.848-25.254-34.848 3.72 4.7 2.545 14.097 2.545 14.097-1.38-1.18-11.78-8.02-11.78-8.02-20.59-14.71-54.45-29.96-106.35-29.96-131.26 0-186.74 84.4-189.04 88 0 0-12.79 18.34-16.22 28.63l27.98-16.74c.22-.15 23.25-14.14 58.92-14.14 2.77 0 9.36.32 10.84 3.34 3.512 7.2-7.45 29.15-19.89 45.13l-26.71 34.31L110 285.63c.15-.08 15.26-8.56 40.297-8.56 5.06 0 7.23.82 7.967 1.197-.083 1.37-1.378 4.29-2.82 6.24l-18.514 25.03 28.71-11.99c.176-.07 17.81-7.33 42.98-7.33 14.816 0 24.954 2.89 27.82 7.93 2.646 4.664-.635 12.22-1.996 14.5l-5.916 9.914 11.175 2.85c1.256.32 2.853.7 9.31-.61-.058.92-.136 1.84-.136 2.74 0 14.494 7.01 25.59 7.42 26.227l11.305 17.52 4.294-20.4c3.8-18.053 18.255-25.87 27.256-29.043l2.584 9.67 8.98-3.59c8.064-3.225 21.335-12.91 26.12-16.497 3.9-.71 14.177-2.33 26.722-2.33 7.413 0 16.094.7 25.283 1.44 11.55.93 24.63 1.99 38.75 1.99 20.17 0 38.64-3.464 46.34-5.116l16.39 10.93.73-15.12c.07-1.28.1-2.544.1-3.787 0-31.665-19.59-51.698-40.826-63.23l1.334-.075-22.94-14.35c-3.18-1.98-9.39-3.51-15.594-4.624l1.132-2.265-10.19-2.7c-10.045-2.66-18.66-2.98-25.126-2.54 3.126-16.326-8.03-27.09-8.03-27.09" fill="#9E7C0C"/><path d="M226.34 147.294c94.335 0 125.782 52.597 125.782 52.597s1.715-8-.574-12c0 0 10.865 11.44 11.435 25.16 0 0 6.29-6.29 6.29-8.57 0 0 2.858 9.72 0 15.44 0 0 13.15-4.57 32.588.57l-1.71 3.43s19.44 2.29 24.01 5.15c0 0-10.86.576-10.86 3.43 0 0 72.04 10.87 69.18 70.327l-6.86-4.575s-22.87 5.72-48.02 5.72c-25.15 0-46.88-3.43-64.03-3.43s-30.3 2.86-30.3 2.86-17.15 13.15-25.73 16.58l-2.29-8.576s-34.87 5.145-41.73 37.734c0 0-11.434-17.724-2.86-36.02 0 0-16.576 4.574-18.864 4.002 0 0 21.74-35.45-33.16-35.45-27.442 0-46.31 8.003-46.31 8.003s16.01-21.16-12.005-21.16l-44.596 9.72s48.63-62.317 2.287-62.317c-38.874-.003-63.46 15.433-63.46 15.433s53.74-84.04 181.81-84.04z" fill="#000"/><path d="M331.54 238.198s-37.733-6.86-54.03 2.574c0 0 42.024 0 58.317 9.433 0 0-74.61-10.292-105.483 14.58 0 0 45.452-11.15 80.614-7.72 0 0-12.865 5.146.858 13.722 13.72 8.575 22.296 10.29 18.867 24.87l7.145-10.577 8.006 8.005s20.58-1.715 34.873 0c14.293 1.714 33.733 3.43 44.595 3.43 10.864 0 40.596-4 40.596-4S403.58 267.93 347.55 267.93c-6.292 0-13.154 1.142-9.15 8.003 0 0-19.44-9.583-19.44-14.728s14.866-2.424 14.866-2.424c6.86 0 130.354 12.58 142.93 34.88 0 0 0-50.88-102.338-61.17l11.435 9.73-18.293-1.712 10.864 9.72c-.002-.002-28.59-9.72-46.885-12.01" fill="#FFF"/><path d="M226.055 155.87c84.045 0 120.062 47.166 120.062 47.166s15.438 23.157 6.862 31.733c-8.58 8.57-10.3-21.45-31.74-28.31l18.01 6s-19.73-25.73-53.17-19.73c0 0 18.86 4.29 24.01 10.29 0 0-42.03 4.29-43.74 7.72 0 0 32.59 6.86 34.3 12 0 0-30.88.86-39.45 8.58 0 0 57.452 2.573 70.32 6.86 0 0-37.74-6.86-54.03 2.575 0 0 42.02 0 58.312 9.432 0 0-74.61-10.293-105.483 14.58 0 0 45.45-11.15 80.61-7.72 0 0-12.864 5.145.86 13.72 13.72 8.574 22.296 10.29 18.866 24.87 0 0-6.864 10.29-17.154 14.58l-.86-12.01s-32.59 2.576-47.17 32.59c0 0 2.574-24.87 9.435-30.872l-18.868 6s18.87-30.87-28.3-33.446L178 277.626s6.005-23.155-47.167-13.72c0-.003 50.6-83.19-57.455-51.46 0 0 56.6-56.6 152.65-56.6z" fill="#241773"/><path d="M266.05 176.626c-5.212-7.62-18.014-11.322-39.137-11.322-59.73 0-93.557 16.995-94.967 17.717l-22.993 12.66 26.456-3.05c.44-.1 37.52-8.25 67.01-9.01-39.68 5.02-53.7 70.36-54.3 73.27l-1.35 6.51 61.38-3.02 1.48-2c2.51-2.8 20.37-11.06 35.48-17.1l1.91-.77 5.46-12.01.1-.75c.08-.623.12-1.244.12-1.855 0-3.2-1.13-6.193-3.327-8.74-2.738-3.176-7.04-5.4-11.716-6.966 23.11-5.74 29.733-21.63 30.03-22.37.24-.61 2.06-5.733-1.658-11.17zM188.945 246.4c3.108-8.54 9.75-23.402 11.37-27.846 3.25 0 19.907-.94 19.907 8.782 0 4.573-7.647 19.156-31.276 19.065zm16.697-40.39c3-5.995 8.53-20.26 9.748-22.698 3.974.556 19.032 2.062 18.1 8.575-1.144 8.006-9.386 14.21-11.434 15.15l-16.413-1.026z" fill="#FFF"/><path d="M214.05 211.612l-15.3-.856 9.295-22.298c-40.306-.856-54.885 69.465-54.885 69.465l52.314-2.572c3.43-5.14 37.733-18.86 37.733-18.86l4.29-9.43c1.978-14.87-33.447-15.43-33.447-15.43zm11.15 18.01c-8.207 22.255-38.594 22.298-43.74 22.298l16.476-38.493s33.788-1.5 27.263 16.195zm1.713-59.173c-59.174 0-92.62 17.15-92.62 17.15s54.03-12.01 84.9-8.58c40.288 4.47 10.292 27.44 10.292 27.44 26.586-3.43 33.448-20.59 33.448-20.59s6.002-15.44-36.02-15.44z" fill="#9E7C0C"/><path d="M317.82 211.71c5.398 0 9.774 4.032 9.774 9.005 0 4.974-4.376 9.005-9.775 9.005-5.4 0-9.78-4.03-9.78-9.005 0-4.973 4.38-9.005 9.77-9.005" fill="#C60C30"/><path d="M319.82 213.044c4.895 0 8.862 4.096 8.862 9.147 0 5.06-3.967 9.15-8.862 9.15s-8.864-4.09-8.864-9.14c0-5.05 3.97-9.14 8.864-9.14" fill="#FFF"/><path d="M321.535 215.9c3.947 0 7.147 3.073 7.147 6.86 0 3.792-3.2 6.862-7.147 6.862s-7.147-3.07-7.147-6.86c0-3.79 3.2-6.86 7.147-6.86" fill="#C60C30"/><path d="M323.25 215.9c3.315 0 6.002 2.944 6.002 6.575 0 3.63-2.687 6.575-6.003 6.575-3.32 0-6.01-2.944-6.01-6.575 0-3.63 2.69-6.575 6-6.575" fill="#000"/></g></svg>