<svg width="512" height="512" viewBox="0 0 512 512" xmlns="http://www.w3.org/2000/svg"><title>buffalo-bills</title><g fill="none" fill-rule="evenodd"><path d="M457.367 158.674c-5.987-11.012-28.27-15.035-44.22-13.884-10.334-14.29-23.923-27-41.545-34.766-.397.994-1.018 2.54-1.343 3.732-5.09-1.496-16.68-4.325-26.24-4.454l-.07 3.302c-10.34 1.334-24.89 3.21-29.75 4.2.72 2.475.94 3.634 1.55 5.237-35.19 9.7-67.29 28.27-96.13 53.17 1.26.39 2.13.95 2.57 1-31.447 11.87-54.447 30.3-74.48 49.07-23.69 3.67-66.22 9.19-66.22 9.19l-31.23 61.87 82.612-17.424c-6.89 19.523-25.735 36.95-43.085 48.69-2.298 11.99-8.55 23.346-19.524 30.617 5.132 5.746-1.183 13.003-2.08 19.123 7.02 9.063 21.347 26.423 21.347 26.423l8.804-36.74 17.725-18.065c-1.13 3.04-.71 6.49-.367 7.82-1.587 3.29-5.996 7.34-6.33 13.03 6.71 8.72 19.595 24.52 19.595 24.52s9.31-24.752 13.53-37.38l71.567-66.12c5.414-.79 18.64-.63 28.21-.36l4.08-3.953 20.16-1.53c1.66 2.71 2.604 4.42 3.7 6.51-3.65 2.094-6.815 3.735-10.3 5.46l-9.1 32.51s17.44-9.41 26.414-14.112c3.254.514 10.83.31 14.753-.54-1.92 9.19-5.254 28.264-5.254 28.264s15.497-8.315 22.766-12.147c19.825.085 39.76-7.86 45.208-10.61 15.2-6.05 10.716-43.743 10.716-43.743 3.06-.39 6.87-1.308 9.81-.4 8.6 2.196 2.95 34.56 2.95 34.56l19.9-18.966 2.15 2.79s12-14.95 17.35-22.87c14.636.14 18.066-9.13 19.886-15.42 7.327-25.226 15.83-23.47 19.023-37.25 1.93-5.596 8.702-47.043.89-60.334zM60.453 288.422l24.215-48.845 327.234-47.87c-10.147 5.295-11.037 16.774-6.188 22.837-86.062 18.822-345.26 73.878-345.26 73.878zm79.613 63.923c-4.59 10.46-12.412 32.394-12.412 32.394s-9.023-10.46-12.72-15.56c-.068-3.84 4.082-7.78 6.122-11.62-.38-1.15-.507-2.68-.25-3.7 7.27-5.36 11.865-13.02 13.392-21.44 24.744-38.865 71.394-40.71 71.394-40.71l-65.526 60.613zm211.476-36.406c-20.102 9.97-43.806 10.12-43.806 10.12l-14.075 7.45s2.75-13.1 3.9-19.22c15.53-2.6 37.35-6.7 45.57-19.05 2.69-4.04 4.51-10.82 6.32-16.03 3.58-.51 6.64-1.04 10.34-1.55 0 0 4.13 32.08-8.23 38.26zm103.666-124.63c-.89 12.79-2.672 28.53-9.344 36.13-6.47 7.38-11.41 18.14-15.112 29.33-1.95 6.62-4.51 9.66-16.478 10.2-4.465 6.51-8.788 13.41-14.162 19.27l-1.53-2.18c-5.235 4.96-7.936 7.84-13.547 12.91.6-6.518.91-15.415-1.232-20.086-3.193-5.234-8.57-6.485-13.93-5.71L344.87 275c-1.583 5.23-3.208 12.62-7.044 17.976-5.723 13.408-52.475 18.124-60.838 16.86-5.87 2.935-11.61 6.64-17.736 9.447 1.683-6.27 5.54-19.495 5.54-19.495s8.196-4.17 12.125-6.36c-.593-1.305-.857-1.86-1.716-3.876 7.28-1.784 15.49-5.33 21.24-10.82 0 0-36.16 2.4-53.13 3.55-1.03 1.295-2.04 2.553-3.32 3.315-38.66-1.657-75.28 3.57-102.33 30.88-8.67 8.676-18.11 18.05-23.73 28.003-6.91 7.175-12.82 13.26-20.03 20.477l-7.66 27.75-12-15.75c-1.61-2.23 5.66-12.14 1.93-17.23 8.68-6.25 15.7-18.44 17.75-28.61 17.53-11.814 39.24-32.64 45.68-53.63 0 0 268.32-58.246 272.147-59-1.782 5.105-.764 12.12 4.976 14.8 2.806.64 5.87-.26 8.29-1.91-1.255-1.177-3.7-2.807-4.332-5.23-1.15-3.068.51-5.744 2.427-7.917-3.448-7.658-.64-16.458 3.96-22.71 3.184-4.21 8.28-9.034 11.85-12.86l-282.28 41.06s36.942-34.53 77.92-46.856c-1.237-.525-4.267-1.79-6.485-2.59 29.17-23.838 61.907-41.4 94.076-49.057-.473-1.61-.93-2.83-1.49-4.653.98-.123 27.42-4.026 27.42-4.026l-.16-2.14c6.414-.03 19.93 3.49 25.044 5.2l.982-2.252c19.77 8.81 35.92 32.46 35.92 32.46 13.015-1.42 26.644.16 37.1 5.65 9.717 5.07 9.15 23.236 8.27 35.843z" fill="#FFF"/><path d="M411.898 191.708l-327.233 47.87-24.212 48.844s259.2-55.056 345.26-73.876c-4.848-6.065-3.958-17.544 6.185-22.838" fill="#C60C30"/><path d="M446.937 155.472c-10.458-5.49-24.087-7.072-37.1-5.65 0 0-16.146-23.652-35.918-32.463l-.99 2.25c-5.12-1.71-18.64-5.24-25.05-5.2l.16 2.14s-26.44 3.9-27.42 4.02c.56 1.82 1.02 3.04 1.49 4.65-32.17 7.65-64.907 25.22-94.08 49.05 2.215.8 5.247 2.065 6.48 2.59-40.974 12.322-77.92 46.853-77.92 46.853l282.28-41.06c-3.576 3.83-8.67 8.65-11.855 12.86-4.597 6.256-7.406 15.056-3.956 22.71-1.92 2.176-3.578 4.85-2.425 7.92.633 2.424 3.077 4.054 4.334 5.23-2.42 1.652-5.486 2.55-8.293 1.91-5.74-2.68-6.76-9.695-4.972-14.8-3.83.755-272.147 59.003-272.147 59.003-6.44 20.99-28.15 41.814-45.68 53.63-2.05 10.17-9.07 22.36-17.75 28.61 3.724 5.09-3.545 15-1.926 17.23l12.01 15.75 7.654-27.75c7.2-7.213 13.12-13.3 20.03-20.476 5.615-9.954 15.057-19.327 23.73-28 27.05-27.31 63.673-32.54 102.33-30.88 1.276-.764 2.286-2.02 3.317-3.317 16.97-1.15 53.127-3.55 53.127-3.55-5.746 5.49-13.96 9.035-21.23 10.817.856 2.018 1.12 2.57 1.712 3.877-3.927 2.19-12.125 6.36-12.125 6.36s-3.857 13.23-5.54 19.5c6.12-2.806 11.86-6.513 17.73-9.445 8.367 1.26 55.12-3.456 60.84-16.86 3.835-5.358 5.46-12.748 7.044-17.98l25.004-3.82c5.36-.772 10.734.48 13.93 5.71 2.14 4.67 1.83 13.57 1.23 20.085 5.61-5.07 8.313-7.95 13.546-12.912l1.53 2.175c5.375-5.853 9.696-12.755 14.16-19.27 11.97-.53 14.53-3.57 16.48-10.2 3.7-11.19 8.643-21.943 15.11-29.325 6.67-7.605 8.456-23.344 9.347-36.136.885-12.61 1.45-30.77-8.266-35.845zm-97.497 123.75c-1.802 5.205-3.63 11.99-6.314 16.025-8.23 12.354-30.04 16.448-45.572 19.05-1.15 6.123-3.893 19.22-3.893 19.22l14.08-7.452s23.71-.15 43.81-10.126c12.37-6.19 8.24-38.27 8.24-38.27-3.7.51-6.76 1.04-10.33 1.55zm-215.242 53.215c-1.53 8.42-6.12 16.077-13.393 21.437-.256 1.016-.13 2.55.25 3.696-2.04 3.835-6.19 7.775-6.122 11.613 3.698 5.105 12.72 15.556 12.72 15.556s7.822-21.94 12.413-32.4l65.526-60.62s-46.65 1.84-71.394 40.7z" fill="#00338D"/></g></svg>