<svg width="512" height="512" viewBox="0 0 512 512" xmlns="http://www.w3.org/2000/svg"><title>chicago-bears</title><g fill="none" fill-rule="evenodd"><path d="M367.91 264.443h65.714c-18.364 122.815-257.2 152.872-328.084 26.186-11.894-21.26-26.294-30.65-38.044-36.08 13.012-5.11 32.22-22.72 38.535-39.53 43.22-115.02 259.3-113.41 318.7-10.38h-78.06c-63.07-50.41-189.24-27.17-189.24 49.9 0 54.01 149.9 115.4 210.49 9.882zm51.878 9.882h-44.472c-60.584 105.517-229.258 49.508-229.258-19.762 0-85.477 140.496-110.69 203.57-60.285h54.348c-61.382-71.894-235.756-89.01-289.543 26.19-4.613 12.68-13.174 24.048-25.694 34.09 11.75 5.428 20.19 15.833 26.68 29.155 70.05 127.8 286 78.84 304.36-9.388z" fill="#FFF"/><path d="M375.316 274.325h44.472c-18.364 88.23-234.315 137.19-304.367 9.388-6.49-13.322-14.92-23.727-26.68-29.155 12.52-10.042 21.08-21.41 25.7-34.09 53.79-115.2 228.16-98.084 289.55-26.19h-54.35c-63.07-50.404-203.57-25.192-203.57 60.285 0 69.27 168.68 125.28 229.26 19.762" fill="#C83803"/><path d="M424.73 204.656h-.004.005zm-.004 0c-59.404-103.028-275.48-104.642-318.695 10.377-6.31 16.807-25.52 34.42-38.53 39.525 11.75 5.428 26.15 14.818 38.05 36.07 70.89 126.687 309.72 96.63 328.09-26.185h-65.72c-60.59 105.518-210.49 44.126-210.49-9.885 0-77.07 126.18-100.31 189.248-49.902h78.064z" stroke="#0B162A" stroke-width="11.34" stroke-linecap="square" stroke-linejoin="round"/></g></svg>