<svg width="512" height="512" viewBox="0 0 512 512" xmlns="http://www.w3.org/2000/svg"><title>cincinnati-bengals</title><g fill="none" fill-rule="evenodd"><path d="M81.825 299.242l44.566 76.552 205.83-.02c66.42 0 95.14-34.663 95.14-71.857 0-24.622-17.48-44.602-35.27-53.64-1.83-.952-1.59-2.602-.29-3.573 15.58-11.53 26.05-26.306 26.05-49.13 0-27.01-19.32-64.93-94.86-64.93H128.27l-44.116 76.83h32.402c3.602 0 6.534 2.93 6.534 6.535v76.7c0 3.59-2.933 6.52-6.535 6.52h-34.73" fill="#FFF"/><path d="M81.825 299.242l44.566 76.552 205.83-.02c66.42 0 95.14-34.663 95.14-71.857 0-24.622-17.48-44.602-35.27-53.64-1.83-.952-1.59-2.602-.29-3.573 15.58-11.53 26.05-26.306 26.05-49.13 0-27.01-19.32-64.93-94.86-64.93H128.27l-44.116 76.83h32.402c3.602 0 6.534 2.93 6.534 6.535v76.7c0 3.59-2.933 6.52-6.535 6.52h-34.73" stroke="#000" stroke-width="3"/><path d="M276.782 237.255h-32.015v-30.798c.035-3.235 2.65-5.82 5.874-5.82h26.15c15.31 0 21.01 7.81 21.01 18 0 10.807-5.7 18.618-21.01 18.618zm0 70.82h-26.14c-3.246 0-5.875-2.617-5.875-5.863v-30.76h32.015c15.307 0 21.01 7.533 21.01 18.038 0 10.816-5.703 18.586-21.01 18.586zm91.272-56.073c-2.345-.568-1.962-3.428-.24-4.08 21.12-8 33.438-22.225 33.438-47.285.294-33.62-29.422-56.727-77.743-56.727H140.39l-32.116 56.763h22.118c4.352 0 7.883 3.53 7.883 7.882v91.603c0 4.363-3.532 7.9-7.884 7.9h-21.87l32.36 56.48 191.34-.038c54.62 0 77.14-36.296 77.14-63.004 0-23.48-17.3-43.756-41.3-49.494z" fill="#FB4F14"/><path d="M202.695 348.498c-33.95-63.81-42.867-137.2-30.238-204.588h-32.063l-32.116 56.763h22.118c4.352 0 7.883 3.53 7.883 7.882v70.282c16.47 26.747 40.35 52.376 64.41 69.66zM362.83 150.215c-38.864 57.625-59.926 131.097-50.485 198.01 11.585-56.318 41.795-108.287 88.835-145.92.035-.56.072-1.11.072-1.67.202-23.178-13.858-41.353-38.423-50.42zm-65.17-6.305c-6.068 15.948-12.483 35.215-17.87 56.837-.953-.074-1.962-.11-3.008-.11h-26.14c-3.226 0-5.84 2.585-5.875 5.82v30.796h27.47c-1.797 11.046-3.3 22.484-4.25 34.198h-23.22v30.76c0 3.25 2.63 5.87 5.874 5.87h16.03c.26 18.44 1.91 37.35 5.35 56.43h-23.87c-18.82-45.46-44.75-122.4-18.98-220.59h68.5z" fill="#000"/></g></svg>