<svg width="512" height="512" viewBox="0 0 512 512" xmlns="http://www.w3.org/2000/svg"><title>cleveland-browns</title><g fill="none" fill-rule="evenodd"><path d="M102.88 336.486c-1.353 7.695.44 15.996 3.744 22.127 1.97 3.657 3.41 6.884 3.484 10.54.427 20.81 45.117 4.25 47.98-2.7" fill="#FFF"/><path d="M101.886 336.31c-.32 1.823-.47 3.672-.47 5.517.003 6.22 1.69 12.38 4.32 17.265 1.956 3.628 3.295 6.692 3.36 10.083.043 2 .47 3.737 1.248 5.196 1.162 2.2 3.093 3.71 5.414 4.63 2.325.93 5.053 1.31 7.99 1.31 6.97 0 15.17-2.13 21.93-4.82 3.38-1.34 6.39-2.83 8.712-4.29 1.16-.73 2.147-1.45 2.93-2.16.78-.71 1.372-1.41 1.703-2.19l-1.867-.77c-.128.33-.533.88-1.193 1.47-1.153 1.05-3.046 2.29-5.39 3.51-7.04 3.68-18.21 7.257-26.824 7.24-3.69.008-6.88-.654-9.07-2.092-1.1-.72-1.96-1.62-2.56-2.763-.61-1.142-.97-2.544-1.01-4.29-.09-3.92-1.62-7.31-3.61-11-2.47-4.57-4.08-10.45-4.08-16.303 0-1.734.14-3.47.44-5.164l-1.99-.35" fill="#000"/><path d="M332.908 189.968c1.485 2.818-7.836 2.33-15.343 1.844-3.43-.223-6.48-.446-7.95-.353-2.325.14-7.59.68-4.243 8.82 2.77 6.74 3.076 9.98 5.153 14.58 5.62 12.44 1.198 17.55-6.76 18.34-41.577 4.11-58.316 32.41-41.105 78.43 35.067 93.522-73.172 76.51-95.39 56.34-8.593-7.8-18.91-11.8-30.783-7.45-8.862 3.25-13.07 1.386-16.404-4.06C-7.564 148.08 262.365 55.98 332.908 189.963" fill="#FB4F14"/><path d="M332.908 189.968l-1.786.942.73-.386h-.805c0 .24.07.376.075.386l.73-.386h-.805 1.216l-1.017-.67c-.113.16-.205.444-.2.67h1.217l-1.017-.67.665.438-.46-.66c-.02.015-.1.077-.2.22l.67.44-.46-.66.08.106-.065-.11-.006.005.074.105-.066-.11c0 .006-.172.09-.46.164-.426.115-1.1.218-1.905.28-.81.065-1.756.094-2.785.093-2.615 0-5.735-.183-8.608-.37-2.88-.185-5.49-.376-7.26-.377-.34 0-.653.006-.95.025h.004c-.474.03-1.116.077-1.83.21-1.07.204-2.36.588-3.496 1.583-.56.495-1.06 1.15-1.39 1.932-.336.78-.5 1.667-.5 2.623 0 1.53.4 3.23 1.232 5.27 1.35 3.29 2.09 5.69 2.773 7.92.68 2.22 1.307 4.3 2.405 6.73 1.678 3.7 2.35 6.62 2.35 8.75 0 1.183-.2 2.12-.52 2.88-.49 1.136-1.247 1.943-2.394 2.603-1.15.65-2.7 1.095-4.56 1.277-15.627 1.54-28.045 6.46-36.59 14.632-4.27 4.08-7.547 8.965-9.736 14.553-2.193 5.586-3.3 11.87-3.3 18.77 0 9.834 2.243 20.93 6.83 33.193 4.76 12.693 6.805 23.236 6.803 31.876 0 7.19-1.402 13.06-3.823 17.85-1.813 3.597-4.21 6.6-7.08 9.11-4.3 3.764-9.68 6.42-15.73 8.13-6.043 1.71-12.74 2.47-19.573 2.47-10.76 0-21.866-1.88-31.33-4.76-4.73-1.44-9.056-3.125-12.71-4.932-3.66-1.803-6.65-3.74-8.697-5.602-3.21-2.91-6.68-5.34-10.43-7.06-3.742-1.713-7.78-2.7-12.03-2.7-3.346 0-6.82.61-10.38 1.918-2.82 1.035-5.05 1.48-6.773 1.475-1.723-.003-2.94-.393-4.052-1.13-1.11-.74-2.14-1.902-3.154-3.563-23.686-38.67-33.51-73.163-33.51-102.797 0-19.524 4.256-36.954 11.664-52.156 11.114-22.8 29.35-40.61 51.084-52.73 21.727-12.12 46.94-18.535 71.875-18.533 21.725 0 43.226 4.86 62.054 14.996 18.825 10.136 34.995 25.524 46.145 46.696l3.573-1.883c-11.526-21.89-28.327-37.89-47.81-48.37-19.487-10.488-41.64-15.48-63.966-15.48-34.16.006-68.75 11.68-94.893 33.46-13.07 10.89-24.017 24.32-31.695 40.07-7.677 15.747-12.075 33.814-12.074 53.926 0 30.536 10.124 65.755 34.105 104.904 1.205 1.964 2.585 3.63 4.36 4.816 1.77 1.19 3.91 1.82 6.296 1.81 2.403 0 5.06-.59 8.168-1.723 3.147-1.155 6.13-1.67 8.985-1.67 3.63 0 7.06.83 10.352 2.336 3.29 1.5 6.43 3.69 9.39 6.375 2.45 2.224 5.727 4.308 9.62 6.234 5.84 2.88 13.08 5.4 20.976 7.21 7.892 1.8 16.432 2.9 24.852 2.9 6.34 0 12.61-.62 18.49-2.05 8.8-2.14 16.76-6.11 22.532-12.58 2.886-3.235 5.206-7.086 6.79-11.576 1.586-4.488 2.44-9.61 2.44-15.395 0-9.273-2.18-20.27-7.06-33.29-4.46-11.92-6.57-22.56-6.57-31.78 0-6.47 1.034-12.232 3.02-17.29 2.98-7.588 8.07-13.62 15.24-18.12 7.17-4.494 16.46-7.41 27.72-8.526 3-.302 5.736-1.16 7.825-2.962 1.034-.9 1.88-2.032 2.44-3.36.56-1.323.84-2.82.84-4.454-.006-2.954-.88-6.364-2.705-10.406-.975-2.164-1.54-4.01-2.223-6.245-.687-2.23-1.48-4.82-2.9-8.27-.707-1.706-.94-2.94-.93-3.725 0-.662.133-1 .272-1.226.11-.175.24-.306.43-.438.28-.198.72-.368 1.22-.47.497-.11 1.035-.156 1.51-.187h.003c.17-.01.406-.02.687-.02 1.495 0 4.12.18 7 .37 2.894.188 6.073.38 8.867.38 1.99-.004 3.76-.09 5.236-.392.74-.165 1.42-.36 2.106-.79.34-.22.69-.517.98-.95.285-.428.47-1.005.464-1.55 0-.58-.173-1.086-.39-1.5l-1.787.94" fill="#000"/><path d="M309.845 191.503l12.386.197c-21.18-40.357-64.87-67.494-125.27-61.405 50.54-.52 91.05 22.806 112.89 61.21v-.002" fill="#22150C"/><path d="M336.157 193.084c1.316-.72 11.24-4.786 11.24-4.786l13.038 24.167c8.573 15.897-11.228 17.737-14.35 8.854l-9.927-28.24" fill="#7F8180"/><path d="M336.157 193.084l.483.886c.113-.062.408-.203.793-.378 1.366-.62 3.963-1.713 6.206-2.647 1.12-.467 2.15-.896 2.91-1.207l1.22-.505-.38-.935-.89.48 13.03 24.167c1.45 2.686 2.01 4.89 2.01 6.61-.01 2.128-.81 3.543-2.05 4.543-1.243.992-2.995 1.514-4.823 1.513-1.644.01-3.328-.42-4.7-1.21-1.38-.8-2.435-1.94-2.955-3.41l-10.163-28.91h-.717v1.01l.483.89-.48-.88v1.01-1.01l-.95.34 9.924 28.235c.7 1.99 2.134 3.503 3.85 4.49 1.72.99 3.728 1.483 5.71 1.485 2.2 0 4.386-.61 6.08-1.95 1.694-1.334 2.823-3.453 2.81-6.126-.002-2.165-.7-4.675-2.256-7.57l-13.47-24.968-.84.345s-2.485 1.018-5.134 2.126c-1.325.552-2.69 1.13-3.813 1.614-.56.24-1.06.46-1.463.644-.41.186-.71.328-.926.446l.487 1.894v-1.01" fill="#000"/><path d="M319.654 291.91c-3.82-14.605-6.275-41.566 15.07-48.817 11.03-3.747 15.914-8.313 10.523-23.928l-9.02-26.123-25.663-1.634c-5.104-.325-6.935 3.042-5.263 7.658l7.9 21.774c2.64 7.27-2.38 12.055-7.89 12.682-50 5.69-56.01 39.327-42.37 77.527 7.48 20.88 9.81 37.97 2.15 52.88 28.82 3.04 72.4-4.06 54.58-72.03z" fill="#000"/><path d="M265.077 363.933l-.106 1.003c3.39.36 6.97.578 10.64.578 11.4-.004 23.65-2.102 33.14-8.862 4.75-3.38 8.78-7.934 11.61-13.923 2.83-5.99 4.46-13.4 4.46-22.49 0-8.12-1.29-17.57-4.18-28.6-1.34-5.14-2.51-11.84-2.51-18.61 0-6.12.96-12.298 3.55-17.44 2.6-5.15 6.76-9.3 13.38-11.56 4.04-1.376 7.34-2.864 9.72-5.08 1.19-1.11 2.127-2.408 2.75-3.926.63-1.518.95-3.244.95-5.204-.004-3.02-.74-6.6-2.26-11.003l-9.24-26.757-26.335-1.677c-.25-.02-.49-.028-.73-.028-1.89 0-3.47.51-4.575 1.53-1.11 1.02-1.645 2.49-1.638 4.08 0 1.078.228 2.227.66 3.427l7.897 21.773c.46 1.274.66 2.44.66 3.496-.01 2.267-.9 4.058-2.32 5.407-1.414 1.345-3.37 2.206-5.4 2.436-17.81 2.025-30.23 7.586-38.2 15.755-7.98 8.17-11.398 18.88-11.39 30.896 0 10 2.34 20.927 6.372 32.22 4.26 11.898 6.817 22.507 6.815 32.098 0 7.17-1.415 13.765-4.61 19.99l-.67 1.31 1.46.154.11-1.007.9.46c3.35-6.527 4.83-13.478 4.83-20.91 0-9.954-2.64-20.767-6.93-32.78-3.98-11.14-6.26-21.86-6.26-31.54.006-11.65 3.273-21.75 10.814-29.486 7.54-7.73 19.466-13.163 36.98-15.16 2.44-.275 4.79-1.29 6.565-2.97 1.776-1.67 2.953-4.05 2.948-6.87 0-1.313-.25-2.716-.783-4.186l-7.9-21.774c-.37-1.02-.54-1.95-.54-2.736.01-1.176.36-2.005.99-2.594.635-.59 1.657-.993 3.205-.996.195 0 .395.01.6.02l25 1.596 8.8 25.486c1.477 4.272 2.15 7.66 2.147 10.345 0 1.746-.28 3.19-.79 4.432-.77 1.853-2.07 3.29-3.96 4.553-1.88 1.26-4.34 2.313-7.29 3.313-7.114 2.41-11.76 7.016-14.54 12.56-2.78 5.55-3.76 12.02-3.76 18.35.006 7.007 1.21 13.85 2.587 19.12 2.855 10.894 4.115 20.186 4.115 28.084 0 8.85-1.58 15.947-4.26 21.62-4.025 8.505-10.525 13.87-18.16 17.167-7.63 3.29-16.395 4.46-24.76 4.46-3.59 0-7.11-.213-10.426-.565l-.11 1.002.9.46-.9-.46" fill="#000"/><path d="M319.894 190.5l12.298.017c-18.97-39.85-71.08-72.012-134.15-60.33 55.637-5.328 104.07 19.88 121.852 60.312" fill="#FFF"/><path d="M334.723 243.093c11.03-3.747 15.915-8.312 10.524-23.927l-9.02-26.123-25.663-1.634c-5.104-.33-6.935 3.04-5.263 7.65l7.9 21.77c2.64 7.27-2.38 12.05-7.89 12.68-4.22.48-8.13 1.16-11.75 2.02 8.46 4.75 56.89-3.96 41.18 7.54" fill="#FFF"/><path d="M334.723 243.093l.324.957c4.034-1.375 7.34-2.862 9.716-5.08 1.185-1.108 2.123-2.406 2.75-3.924.63-1.518.946-3.244.946-5.204-.01-3.02-.74-6.602-2.26-11.006l-9.24-26.758-26.34-1.678c-.25-.015-.49-.024-.73-.024-1.89-.002-3.47.51-4.58 1.53-1.11 1.017-1.64 2.488-1.64 4.078 0 1.077.23 2.226.66 3.426l7.894 21.775c.46 1.275.66 2.44.66 3.496-.005 2.27-.9 4.06-2.316 5.41-1.41 1.34-3.37 2.21-5.4 2.44-4.264.49-8.216 1.18-11.87 2.05l-2.51.6 2.25 1.26c1.355.75 3.24 1.13 5.56 1.38 2.31.24 5.05.32 8 .32 6.13 0 13.17-.34 18.985-.34 3.452 0 6.48.128 8.55.5 1.03.18 1.82.433 2.246.684.217.12.334.235.38.3l.05.134c0 .05-.014.15-.09.313-.11.244-.366.61-.797 1.047-.43.44-1.034.95-1.816 1.52l.92 1.77-.32-.957.593.81c1.123-.827 1.96-1.56 2.55-2.275.294-.36.53-.71.7-1.08.17-.368.276-.758.277-1.163.004-.48-.16-.955-.43-1.32-.48-.65-1.165-1.01-1.96-1.3-1.2-.425-2.747-.664-4.588-.82-1.84-.15-3.96-.2-6.26-.2-5.89 0-12.93.35-18.99.35-2.91 0-5.59-.08-7.79-.31-2.19-.224-3.916-.63-4.78-1.13l-.49.88.23.98c3.57-.853 7.44-1.53 11.63-2.004 2.437-.28 4.787-1.296 6.563-2.975 1.773-1.67 2.95-4.05 2.945-6.87 0-1.314-.25-2.716-.783-4.186l-7.89-21.778c-.37-1.02-.54-1.95-.54-2.737.004-1.175.352-2.003.983-2.593.633-.586 1.654-.99 3.202-.994.19 0 .39.006.6.02l24.99 1.59 8.8 25.49c1.473 4.27 2.145 7.66 2.143 10.344 0 1.747-.28 3.19-.793 4.43-.77 1.855-2.07 3.29-3.96 4.554-1.88 1.26-4.34 2.314-7.29 3.314l.33.953.595.82-.6-.815" fill="#000"/><path d="M334.723 243.093c11.03-3.747 15.915-8.312 10.524-23.927l-9.02-26.123-22.463-1.43c-5.104-.325-6.935 3.042-5.262 7.657l7.893 21.774c2.635 7.27-2.212 14.255-7.724 14.883-4.22.48-11.67.618-15.12-.377 8.46 4.75 56.89-3.96 41.18 7.543" fill="#FFF"/><path d="M334.723 243.093l.324.957c4.034-1.375 7.34-2.862 9.716-5.08 1.185-1.108 2.123-2.406 2.75-3.924.63-1.518.946-3.244.946-5.204-.01-3.02-.74-6.602-2.26-11.006l-9.24-26.758-23.14-1.474c-.25-.016-.49-.024-.73-.024-1.89-.002-3.47.508-4.58 1.53-1.11 1.017-1.64 2.487-1.64 4.08 0 1.075.23 2.224.66 3.424l7.895 21.774c.467 1.294.677 2.568.677 3.792 0 2.553-.92 4.894-2.34 6.644-1.42 1.753-3.32 2.885-5.23 3.1-1.887.215-4.478.362-7.036.36-1.51 0-3.013-.05-4.35-.165-1.335-.12-2.513-.3-3.34-.54l-.775 1.85c1.36.75 3.24 1.12 5.56 1.37 2.314.24 5.05.32 8 .32 6.133 0 13.174-.35 18.99-.35 3.45 0 6.48.12 8.55.49 1.03.18 1.82.43 2.245.682.22.122.336.237.38.302l.05.132c0 .05-.013.15-.09.31-.11.24-.365.61-.796 1.044-.43.44-1.03.95-1.814 1.52l.92 1.77-.32-.953.596.82c1.123-.825 1.96-1.56 2.55-2.273.294-.356.53-.71.7-1.076.17-.366.276-.756.28-1.16 0-.476-.165-.95-.43-1.32-.48-.644-1.17-1.007-1.967-1.3-1.205-.42-2.75-.66-4.59-.813-1.84-.15-3.96-.2-6.26-.2-5.89 0-12.93.348-18.99.348-2.91 0-5.594-.08-7.79-.31-2.19-.223-3.916-.63-4.78-1.13l-.495.882-.28.97c1.04.3 2.31.485 3.728.61 1.42.12 2.97.172 4.527.174 2.64 0 5.28-.15 7.268-.377 2.54-.29 4.87-1.735 6.57-3.83 1.7-2.098 2.788-4.877 2.79-7.917 0-1.454-.25-2.966-.8-4.48l-7.893-21.773c-.37-1.023-.543-1.95-.543-2.738.01-1.18.357-2.01.988-2.598.636-.585 1.66-.99 3.206-.99.19 0 .39.01.6.02l21.8 1.39 8.8 25.486c1.478 4.272 2.15 7.66 2.148 10.345 0 1.743-.28 3.19-.79 4.43-.77 1.85-2.07 3.29-3.96 4.55-1.88 1.26-4.348 2.313-7.29 3.313l.32.954.597.813-.597-.816" fill="#000"/><path d="M280.42 241.935c-33.612 18.8-23.73 51.22-10.32 85.108-11.045-37.812-18.35-65.054 10.32-85.108" fill="#D6D6D6"/><path d="M176.7 355.943c.555 3.4-1.668 6.155-4.962 6.155-3.297 0-6.415-2.756-6.965-6.155-.557-3.4 1.666-6.153 4.962-6.153s6.415 2.755 6.965 6.153" fill="#FFF"/><path d="M176.7 355.943l-1.265.206c.045.28.068.55.068.82-.003 1.15-.404 2.09-1.053 2.76-.654.66-1.557 1.08-2.712 1.08-1.286 0-2.61-.55-3.663-1.48-1.056-.93-1.816-2.23-2.036-3.6-.05-.29-.07-.56-.07-.83 0-1.15.4-2.09 1.05-2.76.65-.668 1.55-1.08 2.71-1.086 1.28-.004 2.61.55 3.66 1.48 1.05.932 1.82 2.222 2.04 3.595l1.26-.206 1.26-.204c-.33-2.023-1.407-3.81-2.87-5.105-1.47-1.295-3.35-2.12-5.36-2.124-1.8-.003-3.42.69-4.55 1.86-1.14 1.165-1.78 2.785-1.78 4.546 0 .41.03.822.1 1.24.33 2.024 1.404 3.81 2.87 5.106 1.464 1.297 3.35 2.12 5.36 2.127 1.8.006 3.42-.69 4.55-1.86 1.137-1.166 1.782-2.787 1.78-4.55 0-.404-.033-.816-.1-1.23l-1.268.203" fill="#000"/><path d="M335.472 213.003c1.05-.91 17.714.408 19.367 1.015 4.81 1.768 4.25 8.682-.51 7.613-6.43-1.44-12.42-1.43-18.78-1.86l-.09-6.76" fill="#7F8180"/><path d="M335.472 213.003l.66.763-.35-.408.2.507c.005-.004.05-.015.15-.1l-.35-.407.2.507.01-.003c.082-.03.424-.088.874-.115.453-.03 1.035-.046 1.7-.045 2.535 0 6.278.214 9.522.487 1.622.13 3.122.28 4.283.43.59.07 1.08.14 1.46.2.37.06.65.13.67.14.95.34 1.6.91 2.04 1.55.44.65.65 1.39.65 2.06 0 .65-.19 1.2-.5 1.56-.31.35-.7.58-1.39.59-.21 0-.453-.03-.73-.09-6.56-1.47-12.612-1.46-18.924-1.886l-.067 1.007 1.01-.013-.087-6.77-2.02.016v2.214l1.67-1.45-.66-.76h1.01-1.01l-1.01.01.096 7.7.93.066c6.4.42 12.33.422 18.62 1.835.4.09.792.14 1.17.14 1.21.01 2.27-.504 2.94-1.307.67-.8.974-1.823.975-2.866 0-1.08-.325-2.2-.992-3.19-.663-.986-1.68-1.832-3.014-2.32-.3-.104-.6-.16-1.03-.237-1.465-.248-4.19-.53-7.154-.758-2.96-.227-6.13-.395-8.44-.395-.85 0-1.58.02-2.17.08-.294.023-.553.06-.793.113-.245.07-.462.1-.794.366l.66.762h1.01-1.01" fill="#000"/><path d="M271.624 330.935c.302 9.527.772 19.01-3.89 29.78 29.475 4.083 69.275-15.075 45.836-72.08-6.737-16.382-30.317-14.35-27.063 9.306 2.726 19.81-6.57 27.11-14.884 33" fill="#FFF"/><path d="M183.198 294.427c-8.07.042-14.445 6.356-14.503 14.777-.06 8.98 7.06 16.987 15.895 17.854 1.855.183 3.636.014 5.3-.415l10.773-15.694c-.646-8.44-7.472-15.62-15.836-16.44-.552-.06-1.09-.09-1.63-.09" fill="#000"/><path d="M150.067 353.644c9.86 4.002 21.14 12.48 30.837 16.32 63.703 25.22 100.55-15.55 75.364-61.306 19.012 62.2-28.48 77.92-75.375 59.434-10.68-4.21-18.785-11.487-30.825-14.448" fill="#000"/><path d="M163.82 335.218c12.45 17.705 37.783 17.408 47.6 4.307-15.28 10.368-31.918 9.076-47.6-4.307" fill="#000"/><path d="M137.103 365.408c4.947-.763 8.746-.565 13.932 1.218.777.27 2.012.785-1.393 2.442-8.5 4.133-17.156 7.265-25.427 6.62-1.54-.12-2.886-1.852.173-3.136 3.64-1.527 5.435-3.87 5.05-7.666l6.097-1.916c-.41 1.06-.983 2.83 1.568 2.44v-.002" fill="#000"/><path d="M108.855 356.002c1.16 1.212 2.085 2.312 2.74 3.57.656 1.258 1.068 2.69 1.16 4.663.11 2.49.91 4.347 2.202 5.537 1.288 1.193 2.96 1.648 4.6 1.646 2.14-.006 4.3-.736 5.997-1.785.85-.527 1.585-1.137 2.14-1.826.548-.685.945-1.473.95-2.366 0-.15-.013-.31-.038-.46l-1.992.34.01.13c.007.25-.13.65-.503 1.1-.54.69-1.56 1.44-2.75 1.98-1.19.55-2.56.89-3.81.888-1.29-.002-2.4-.345-3.23-1.107-.82-.763-1.45-2.016-1.55-4.147-.1-2.213-.59-3.99-1.39-5.507-.79-1.52-1.86-2.77-3.07-4.03l-1.46 1.39" fill="#000"/><path d="M322.403 249.196c1.77-2.102-.612-2.837-1.793-1.676-11.355 11.186-9.478 22.95-6.696 32.424 1.052 3.587 2.166 2.202 1.673-.24-2.546-12.606 1-23.6 6.816-30.508" fill="#FFF"/><path d="M332.908 189.968l-1.786.942.73-.386h-.805c0 .24.07.376.075.386l.73-.386h-.805 1.216l-1.017-.67c-.113.16-.205.444-.2.67h1.217l-1.017-.67.665.438-.46-.66c-.02.015-.1.077-.2.22l.67.44-.46-.66.08.106-.065-.11-.006.005.074.105-.066-.11c0 .006-.172.09-.46.164-.426.115-1.1.218-1.905.28-.81.065-1.756.094-2.785.093-2.615 0-5.735-.183-8.608-.37-2.88-.185-5.49-.376-7.26-.377-.34 0-.653.006-.95.025h.004c-.474.03-1.116.077-1.83.21-1.07.204-2.36.588-3.496 1.583-.56.495-1.06 1.15-1.39 1.932-.336.78-.5 1.667-.5 2.623 0 1.53.4 3.23 1.232 5.27 1.35 3.29 2.09 5.69 2.773 7.92.68 2.22 1.307 4.3 2.405 6.73 1.678 3.7 2.35 6.62 2.35 8.75 0 1.183-.2 2.12-.52 2.88-.49 1.136-1.247 1.943-2.394 2.603-1.15.65-2.7 1.095-4.56 1.277-15.627 1.54-28.045 6.46-36.59 14.632-4.27 4.08-7.547 8.965-9.736 14.553-2.193 5.586-3.3 11.87-3.3 18.77 0 9.834 2.243 20.93 6.83 33.193 4.76 12.693 6.805 23.236 6.803 31.876 0 7.19-1.402 13.06-3.823 17.85-1.813 3.597-4.21 6.6-7.08 9.11-4.3 3.764-9.68 6.42-15.73 8.13-6.043 1.71-12.74 2.47-19.573 2.47-10.76 0-21.866-1.88-31.33-4.76-4.73-1.44-9.056-3.125-12.71-4.932-3.66-1.803-6.65-3.74-8.697-5.602-3.21-2.91-6.68-5.34-10.43-7.06-3.742-1.713-7.78-2.7-12.03-2.7-3.346 0-6.82.61-10.38 1.918-2.82 1.035-5.05 1.48-6.773 1.475-1.723-.003-2.94-.393-4.052-1.13-1.11-.74-2.14-1.902-3.154-3.563-23.686-38.67-33.51-73.163-33.51-102.797 0-19.524 4.256-36.954 11.664-52.156 11.114-22.8 29.35-40.61 51.084-52.73 21.727-12.12 46.94-18.535 71.875-18.533 21.725 0 43.226 4.86 62.054 14.996 18.825 10.136 34.995 25.524 46.145 46.696l3.573-1.883c-11.526-21.89-28.327-37.89-47.81-48.37-19.487-10.488-41.64-15.48-63.966-15.48-34.16.006-68.75 11.68-94.893 33.46-13.07 10.89-24.017 24.32-31.695 40.07-7.677 15.747-12.075 33.814-12.074 53.926 0 30.536 10.124 65.755 34.105 104.904 1.205 1.964 2.585 3.63 4.36 4.816 1.77 1.19 3.91 1.82 6.296 1.81 2.403 0 5.06-.59 8.168-1.723 3.147-1.155 6.13-1.67 8.985-1.67 3.63 0 7.06.83 10.352 2.336 3.29 1.5 6.43 3.69 9.39 6.375 2.45 2.224 5.727 4.308 9.62 6.234 5.84 2.88 13.08 5.4 20.976 7.21 7.892 1.8 16.432 2.9 24.852 2.9 6.34 0 12.61-.62 18.49-2.05 8.8-2.14 16.76-6.11 22.532-12.58 2.886-3.235 5.206-7.086 6.79-11.576 1.586-4.488 2.44-9.61 2.44-15.395 0-9.273-2.18-20.27-7.06-33.29-4.46-11.92-6.57-22.56-6.57-31.78 0-6.47 1.034-12.232 3.02-17.29 2.98-7.588 8.07-13.62 15.24-18.12 7.17-4.494 16.46-7.41 27.72-8.526 3-.302 5.736-1.16 7.825-2.962 1.034-.9 1.88-2.032 2.44-3.36.56-1.323.84-2.82.84-4.454-.006-2.954-.88-6.364-2.705-10.406-.975-2.164-1.54-4.01-2.223-6.245-.687-2.23-1.48-4.82-2.9-8.27-.707-1.706-.94-2.94-.93-3.725 0-.662.133-1 .272-1.226.11-.175.24-.306.43-.438.28-.198.72-.368 1.22-.47.497-.11 1.035-.156 1.51-.187h.003c.17-.01.406-.02.687-.02 1.495 0 4.12.18 7 .37 2.894.188 6.073.38 8.867.38 1.99-.004 3.76-.09 5.236-.392.74-.165 1.42-.36 2.106-.79.34-.22.69-.517.98-.95.285-.428.47-1.005.464-1.55 0-.58-.173-1.086-.39-1.5l-1.787.94" fill="#22150C"/><path d="M318.39 261.478c13.45 20.693 28.47 34.107 82.283 26.48 5.628-.798 9.418.786 11.163 5.922 8.33 24.524 13.094 46.155 14.713 71.232.41 6.333-7.53 8.627-8.63-.17-3.04-24.258-7.69-45.83-15.56-69.032-52.97 12.373-76.54-9.47-85.25-22.08.03-4.118.13-8.234 1.27-12.352" fill="#7F8180"/><path d="M318.39 261.478l-.847.55c5.45 8.387 11.23 15.7 19.802 20.894 8.57 5.194 19.852 8.212 36.178 8.21 7.837 0 16.843-.694 27.292-2.174.867-.124 1.68-.185 2.435-.185 1.97 0 3.524.417 4.753 1.263 1.226.85 2.19 2.162 2.877 4.168 8.31 24.466 13.047 45.987 14.662 70.973.01.138.013.273.013.407 0 1.337-.437 2.375-1.05 3.077-.614.71-1.394 1.06-2.132 1.06-.676 0-1.353-.27-1.996-1-.637-.73-1.213-1.98-1.45-3.89-3.046-24.31-7.715-45.96-15.608-69.23l-.3-.87-.89.21c-10.97 2.56-20.65 3.65-29.18 3.65-16.21 0-28.25-3.895-37.1-8.996-8.86-5.1-14.53-11.425-17.91-16.317l-.83.574 1.01.006c.03-4.11.13-8.13 1.23-12.09l-.98-.27-.85.55.846-.55-.975-.27c-1.18 4.273-1.27 8.486-1.302 12.612v.32l.18.264c3.514 5.09 9.4 11.64 18.554 16.92 9.156 5.28 21.582 9.27 38.11 9.268 8.7 0 18.536-1.1 29.64-3.695l-.23-.984-.957.324c7.846 23.133 12.48 44.623 15.515 68.83.272 2.19.95 3.83 1.922 4.96.97 1.135 2.26 1.716 3.527 1.71 1.39 0 2.707-.66 3.657-1.746.955-1.09 1.55-2.625 1.55-4.408 0-.178-.006-.357-.02-.54-1.62-25.17-6.41-46.91-14.763-71.494-.78-2.3-1.997-4.05-3.643-5.18-1.647-1.133-3.65-1.62-5.9-1.62-.867 0-1.77.07-2.72.207-10.375 1.47-19.29 2.156-27.01 2.156-16.09-.006-26.95-2.965-35.132-7.92-8.18-4.96-13.76-11.966-19.154-20.268l-1.22-1.88-.6 2.164.972.268" fill="#000"/><path d="M313.06 200.736c-1.344-3.972-1.582-7.426 2.03-9.053l6.767-3.044c2.774-1.25 6.725-2.4 8.288 1.18l9.64 22.08c2.16 4.94 3.522 14.88-6.005 14.63l-6.596-.17c-4.907-.13-5.952-1.54-7.526-6.18l-6.598-19.46" fill="#7F8180"/><path d="M313.06 200.736l.956-.325c-.527-1.55-.856-2.98-.853-4.15 0-.86.17-1.56.518-2.15.36-.58.9-1.08 1.83-1.5l6.77-3.04c1.32-.6 2.91-1.13 4.17-1.13.64 0 1.18.13 1.63.39.444.27.835.67 1.16 1.41l9.64 22.08c.794 1.81 1.484 4.41 1.48 6.76 0 1.82-.4 3.45-1.312 4.57-.46.57-1.045 1.03-1.836 1.36-.79.34-1.794.54-3.072.54h-.315l-6.593-.17c-1.18-.03-2.09-.14-2.785-.33-1.043-.294-1.602-.7-2.17-1.462-.56-.77-1.063-1.98-1.642-3.695l-6.595-19.46-.958.326-.956.323 6.598 19.453c.4 1.177.77 2.174 1.205 3.036.322.643.684 1.215 1.13 1.71.66.744 1.503 1.287 2.512 1.61 1.01.327 2.176.465 3.61.5l6.593.17c.125.006.248.008.368.008 1.5 0 2.78-.24 3.86-.698 1.63-.685 2.78-1.877 3.45-3.26.68-1.39.93-2.957.936-4.528-.005-2.74-.757-5.52-1.65-7.572l-9.64-22.08c-.457-1.06-1.153-1.85-1.983-2.34-.83-.49-1.75-.67-2.65-.67-1.784.01-3.55.67-4.993 1.31l-6.764 3.048c-1.222.55-2.145 1.34-2.724 2.308-.584.966-.81 2.066-.81 3.19 0 1.53.4 3.14.96 4.803l.958-.324" fill="#000"/><path d="M319.413 188.647c-1.397.628-2.553 1.49-3.353 2.63-.803 1.137-1.214 2.53-1.21 4.088 0 1.143.212 2.38.63 3.726l.008.03 6.775 18.38 1.894-.7-6.766-18.36-.94.35.97-.3c-.37-1.19-.54-2.23-.54-3.12 0-1.22.3-2.14.85-2.92.548-.78 1.376-1.43 2.53-1.95l-.83-1.84" fill="#000"/><path d="M210.292 306.593c-2.7-1.724-2.93-4.256-1.353-6.768l6.53-9.667c1.69-2.503 3.24-2.14 5.92-.51l21.65 13.2c10.1 6.157-3.06 26.864-12.69 20.47l-20.06-16.725" fill="#7F8180"/><path d="M210.292 306.593l.543-.85c-.697-.447-1.16-.924-1.45-1.402-.29-.48-.418-.96-.42-1.5-.002-.73.26-1.57.828-2.47l-.854-.53.83.57 6.53-9.666c.38-.567.73-.92 1.01-1.11.29-.19.5-.25.79-.252.28 0 .64.08 1.1.27.46.195 1.01.49 1.65.88l21.65 13.2c1.13.694 1.9 1.56 2.4 2.564.503 1 .744 2.16.744 3.413.01 3.026-1.45 6.576-3.657 9.29-1.1 1.36-2.376 2.51-3.71 3.31-1.33.8-2.71 1.24-4.034 1.236-1.134 0-2.243-.31-3.35-1.04l-.56.84.647-.778-20.34-16.96h-.365v1.01l.544-.85-.54.85v1.01-1.01l-.65.776 20.1 16.76.05.03c1.42.947 2.957 1.384 4.47 1.38 1.776 0 3.5-.58 5.074-1.523 2.36-1.416 4.42-3.646 5.914-6.187 1.49-2.544 2.426-5.405 2.43-8.144 0-1.51-.29-2.99-.96-4.32-.67-1.34-1.72-2.51-3.16-3.38l-21.65-13.2c-.68-.418-1.31-.767-1.93-1.02-.613-.258-1.23-.428-1.875-.428-.67-.005-1.348.2-1.92.597-.58.396-1.08.95-1.56 1.654l-6.545 9.68-.01.014c-.71 1.14-1.133 2.34-1.135 3.555-.003.88.234 1.763.712 2.55.48.79 1.185 1.476 2.09 2.056l.25.156h.295v-1.01" fill="#000"/><path d="M209.92 300.966l9.68 4.018-14.997 23.774c-4.07 6.455-12.847.008-9.088-5.743l14.405-22.05" fill="#7F8180"/><path d="M209.92 300.966l-.387.933 8.573 3.55-14.357 22.76c-.53.84-1.12 1.38-1.72 1.73-.6.34-1.22.49-1.85.49-1.13 0-2.3-.51-3.17-1.36-.87-.845-1.42-1.975-1.42-3.15 0-.755.21-1.547.75-2.37l14.404-22.05-.846-.55-.388.93.386-.936-.85-.554-14.407 22.05c-.74 1.127-1.08 2.33-1.08 3.476.004 1.81.826 3.436 2.035 4.605 1.213 1.17 2.84 1.92 4.567 1.92.96.004 1.947-.236 2.857-.76.91-.526 1.736-1.326 2.414-2.4l15.633-24.79-11.56-4.8-.457.7.843.553" fill="#000"/><path d="M210.382 310.07c-3.686-2.447-4.026-6.424-2.25-9.052l5.28-7.81c1.69-2.502.405-.65 2.005-2.948l25.562 15.637c10.1 6.16-1 23.816-10.63 17.423l-19.98-13.25" fill="#7F8180"/><path d="M210.382 310.07l.56-.84c-2.04-1.366-2.832-3.13-2.84-4.808 0-1.02.308-2.012.867-2.837l5.27-7.812c.84-1.25.96-1.43 1.04-1.56.07-.112.15-.226.95-1.376l-.83-.577-.53.86 25.56 15.64c1.275.778 2.134 1.724 2.695 2.78.56 1.053.82 2.228.82 3.46.005 2.507-1.108 5.24-2.858 7.292-.875 1.026-1.898 1.883-2.99 2.473-1.098.59-2.257.918-3.43.918-1.23-.002-2.49-.35-3.78-1.204l-19.97-13.25-.56.84h1.01v-.55l-.45-.3-.56.84h-1.01v.54l20.424 13.55c1.59 1.06 3.27 1.54 4.893 1.54 1.55 0 3.042-.43 4.386-1.16 2.014-1.09 3.72-2.83 4.942-4.86 1.22-2.03 1.96-4.37 1.96-6.68.002-1.52-.32-3.03-1.05-4.41-.734-1.38-1.87-2.61-3.43-3.56l-26.35-16.12-.544.78c-.8 1.15-.877 1.26-.985 1.42-.09.14-.18.284-1.03 1.54l-5.28 7.81c-.78 1.16-1.21 2.54-1.21 3.97-.01 2.35 1.2 4.81 3.74 6.49l.56-.84h-1.01 1.01" fill="#000"/><path d="M213.555 294.895l-1.47 2.078-3.116 4.612c-.56.825-.87 1.817-.87 2.837.01 1.677.8 3.442 2.84 4.807l.45.29 19.52 12.95c1.29.85 2.55 1.2 3.78 1.2 1.17 0 2.33-.33 3.42-.92 1.09-.59 2.11-1.45 2.99-2.48l.03-.04c.48-.96.75-2.03.74-3.12 0-1.14-.287-2.303-.933-3.41-.647-1.105-1.658-2.166-3.15-3.077l-19.88-12.176c-.85-.525-1.716-1.04-2.494-1.62-.734-.558-1.406-1.17-1.88-1.958" fill="#7F8180"/><path d="M241.144 320.25l-.035.042c-.88 1.026-1.9 1.883-2.99 2.473-1.1.59-2.26.918-3.43.918-1.23-.002-2.49-.35-3.78-1.204 1.6 1.06 3.1 1.48 4.45 1.48 1.85 0 3.46-.8 4.64-2.07.45-.49.83-1.04 1.13-1.65m-29.06-23.28l-.02.02-3.1 4.582c-.56.826-.87 1.82-.87 2.84 0-1.02.31-2.01.87-2.838l3.112-4.61" fill="#7B7D7C"/><path d="M215.417 288.767l-.15.215.12.075.03-.29" fill="#000"/><path d="M208.082 299.29l-.786 1.163c-.784 1.16-1.213 2.542-1.213 3.97v.027-.028c0-1.427.43-2.81 1.213-3.97l.783-1.158v-.005m2.32-3.44h-.01l-.27.4.27-.41" fill="#070300"/><path d="M210.424 295.824l-.02.027-2.322 3.44-.003.01 2.34-3.47" fill="#000"/><path d="M242.838 321.37c-1.056 1.3-2.33 2.4-3.76 3.172-1.343.727-2.834 1.162-4.386 1.16h-.012c-1.607 0-3.27-.477-4.843-1.513 1.868 1.23 3.758 1.79 5.523 1.79h.01c2.45 0 4.606-1.08 6.117-2.72.53-.57.983-1.21 1.35-1.9" fill="#070300"/><path d="M215.008 292.644l-.76 1.13-2.164 3.2 1.47-2.08c.472.787 1.144 1.4 1.88 1.955.778.58 1.643 1.09 2.492 1.62l19.88 12.17c1.494.91 2.505 1.97 3.152 3.08.646 1.1.932 2.26.933 3.4.01 1.09-.26 2.16-.74 3.12 1.23-1.45 2.13-3.23 2.56-5.03-.19-.86-.52-1.71-.99-2.52-.826-1.42-2.1-2.73-3.84-3.79L219 296.732c-1.145-.7-2.22-1.35-2.937-2.004-.36-.33-.626-.648-.794-.955-.17-.303-.25-.593-.25-.94l.01-.2" fill="#040404"/><path d="M215.266 288.982l-4.842 6.842-3.128 4.63c-.784 1.16-1.213 2.54-1.213 3.968v.028c0 2.197 1.062 4.49 3.29 6.146v.016l20.424 13.55c.013.01.027.018.04.027 1.572 1.03 3.236 1.51 4.843 1.51h.012c1.552 0 3.043-.44 4.387-1.16 1.43-.78 2.7-1.88 3.75-3.17.68-1.29 1.07-2.74 1.07-4.24 0-.63-.07-1.27-.22-1.91-.427 1.8-1.33 3.58-2.557 5.02-.3.6-.684 1.15-1.137 1.64-1.18 1.262-2.79 2.07-4.64 2.07-1.348 0-2.85-.428-4.45-1.49l-19.52-12.95v-.004l-.455-.3-.56.842h-1.01 1.01l.56-.84-.56.84h-1.01 1.01l.56-.84c-2.04-1.37-2.83-3.13-2.84-4.81 0-1.02.31-2.01.868-2.838l3.093-4.587.017-.027 2.162-3.2c.38-.56.61-.905.76-1.13v-.02l.375-3.56-.12-.08" fill="#000"/><path d="M224.916 296.41c-2.08 2.08-10.25-3.13-8.953-5.376l27.39-41.24c9.94-15.215 22.25-22.468 36.595-26.8 13.712-4.142 27.464-6 41.14-8.615 5.91-1.13 8.413 6.1.478 7.89-14.89 3.37-29.96 6.25-44.01 11.24-12.453 4.42-21.24 13.25-29.18 25.84l-23.46 37.04" fill="#7F8180"/><path d="M224.916 296.41l-.715-.715c-.04.043-.09.083-.21.12-.11.038-.27.065-.48.065-.5.003-1.23-.164-2-.476-1.15-.463-2.41-1.236-3.32-2.03-.45-.397-.82-.798-1.05-1.137-.24-.34-.3-.605-.29-.67v-.025l-.87-.508.84.558 27.39-41.24.008-.006c9.82-15.006 21.84-22.084 36.043-26.386 13.61-4.113 27.324-5.968 41.038-8.59.366-.068.71-.1 1.03-.1 1.07 0 1.89.348 2.436.83.545.49.82 1.105.823 1.735-.004.587-.23 1.22-.87 1.85-.64.627-1.716 1.234-3.357 1.605-14.87 3.37-29.978 6.256-44.128 11.28-6.358 2.257-11.795 5.65-16.627 10.065-4.835 4.414-9.07 9.844-13.07 16.19l-23.62 37.29v.294h1.01l-.71-.72.713.71h1.01-1.01l.85.54 23.46-37.04c3.94-6.25 8.07-11.53 12.724-15.78 4.66-4.26 9.845-7.49 15.94-9.66 13.95-4.96 28.985-7.84 43.897-11.22 1.91-.434 3.34-1.175 4.32-2.13.98-.95 1.48-2.14 1.48-3.296 0-1.243-.56-2.415-1.504-3.247-.94-.836-2.26-1.34-3.775-1.34-.454 0-.925.045-1.41.14-13.64 2.61-27.43 4.47-41.24 8.64-14.49 4.36-27.09 11.79-37.15 27.213v-.006l-27.405 41.266-.015.026c-.19.32-.276.69-.274 1.04 0 .46.132.87.32 1.25.33.664.836 1.26 1.45 1.834.92.852 2.09 1.64 3.296 2.232 1.214.59 2.45 1.003 3.62 1.01.38 0 .753-.045 1.118-.165.364-.12.72-.32 1.01-.61l.298-.3v-.418h-1.01" fill="#000"/><path d="M236.537 318.584c-.865 1.864-3.33 2.595-5.643 1.625-2.413-1.02-3.754-3.49-2.995-5.53.3-.82.89-1.44 1.64-1.83" fill="#7F8180"/><path d="M236.066 318.364c-.504 1.09-1.682 1.75-3.095 1.754-.6 0-1.24-.123-1.87-.39-1.78-.743-2.9-2.374-2.89-3.854 0-.347.06-.686.18-1.013.26-.68.75-1.2 1.4-1.54l-.47-.92c-.85.44-1.54 1.17-1.89 2.11-.167.45-.245.91-.245 1.38.01 1.99 1.4 3.92 3.525 4.818.753.317 1.53.47 2.275.47 1.73.003 3.33-.835 4.04-2.355l-.94-.44" fill="#000"/><path d="M238.177 316.803c-.76 2.04-3.332 2.877-5.746 1.866-2.41-1.02-3.75-3.49-2.99-5.53.76-2.04 3.34-2.88 5.75-1.87 2.41 1.01 3.76 3.48 3 5.53" fill="#7F8180"/><path d="M238.177 316.803l-.487-.182c-.23.62-.644 1.1-1.196 1.43-.55.34-1.24.53-1.985.53-.61 0-1.25-.12-1.88-.39-1.79-.74-2.9-2.37-2.89-3.85 0-.35.06-.68.18-1.01.23-.61.64-1.09 1.19-1.43.55-.33 1.24-.52 1.98-.52.6 0 1.24.13 1.87.39 1.786.74 2.896 2.38 2.89 3.86 0 .346-.06.686-.18 1.014l.486.18.487.183c.162-.45.242-.913.242-1.377-.01-1.99-1.4-3.92-3.526-4.815-.755-.316-1.53-.47-2.276-.47-.92 0-1.8.235-2.53.68-.73.447-1.315 1.116-1.627 1.956-.164.45-.243.91-.243 1.38.007 1.99 1.4 3.92 3.524 4.816.76.315 1.534.47 2.28.47.92 0 1.795-.235 2.526-.68.73-.448 1.318-1.115 1.63-1.956l-.486-.18" fill="#000"/><path d="M229.16 313.117c-.807 2.156-3.546 3.253-6.112 2.188-2.566-1.068-3.78-3.616-3.185-5.84.323-1.206 2.17-3.17 2.313-3.17" fill="#7F8180"/><path d="M228.672 312.934c-.5 1.353-1.93 2.26-3.594 2.262-.594 0-1.217-.117-1.832-.372-1.95-.813-3.012-2.54-3.013-4.22 0-.338.044-.675.13-1.003.11-.44.628-1.23 1.128-1.84.25-.31.5-.58.69-.77.09-.09.17-.17.22-.21l.03-.02h.01l-.14-.2.11.22.03-.02-.14-.2.11.22-.22-.42v.47c.16-.01.19-.042.22-.05l-.22-.42v.47-1.04c-.15.005-.2.04-.24.06l-.158.1c-.142.113-.312.283-.53.517-.323.348-.72.82-1.074 1.325-.353.51-.666 1.03-.81 1.555-.11.42-.167.85-.167 1.274 0 2.118 1.338 4.216 3.655 5.18.74.307 1.5.45 2.23.45 2.03.003 3.88-1.116 4.57-2.936l-.977-.367" fill="#000"/><path d="M230.484 311.486c-.81 2.155-3.547 3.037-6.112 1.97-2.565-1.07-3.993-3.684-3.185-5.84.807-2.154 3.545-3.035 6.112-1.97 2.56 1.068 3.99 3.685 3.18 5.84" fill="#7F8180"/><path d="M230.484 311.486l-.486-.183c-.247.653-.694 1.164-1.286 1.525-.592.36-1.33.56-2.13.56-.648 0-1.334-.13-2.01-.412-1.91-.79-3.1-2.524-3.092-4.097 0-.37.063-.74.194-1.08.245-.66.692-1.17 1.283-1.53.592-.36 1.33-.56 2.132-.56.64 0 1.33.13 2.01.41 1.91.79 3.1 2.52 3.09 4.09 0 .37-.07.73-.2 1.08l.48.18.48.18c.176-.47.26-.96.26-1.446-.01-2.084-1.484-4.116-3.73-5.055-.803-.334-1.624-.494-2.41-.494-.976 0-1.9.243-2.67.712-.774.464-1.39 1.163-1.72 2.05-.177.464-.26.954-.26 1.44.01 2.085 1.483 4.115 3.73 5.056.8.335 1.624.495 2.41.495.973 0 1.9-.245 2.67-.713.77-.468 1.39-1.168 1.72-2.05l-.487-.184" fill="#000"/><path d="M225.67 305.343l.394 8.447" fill="#7F8180"/><path d="M224.89 305.38l.395 8.446 1.557-.073-.394-8.446" fill="#000"/><path d="M252.85 239.06l49.387 108.287c25.436 55.77 93.327 32.468 113.32 27.07 12.415-3.35 13.732-10.504-2.2-13.873-19.988-4.227-35.867-14.81-43.468-33.332l-34.51-84.092c-1.01-2.456-10.03.875-8.46 4.568l33.49 79.016c8.56 20.207 23.59 37.68 40.93 39.254 4.34.395 18-1.256-9.98 4.4-33.03 6.674-66.14 4.88-79.67-24.536l-51.75-112.516c-.978-2.117-8.65 2.364-7.108 5.752" fill="#7F8180"/><path d="M252.85 239.06l-.918.418 49.387 108.288c6.63 14.57 16.2 23.89 27.05 29.513 10.85 5.62 22.94 7.57 34.71 7.57 11.04 0 21.81-1.72 31.03-3.76 9.21-2.04 16.89-4.41 21.7-5.71 3.13-.85 5.62-1.93 7.38-3.21.88-.64 1.59-1.338 2.09-2.1.504-.76.8-1.61.8-2.48 0-.9-.32-1.79-.886-2.578-.858-1.19-2.24-2.208-4.16-3.12-1.92-.91-4.4-1.706-7.49-2.36-9.88-2.09-18.71-5.743-25.988-11.13-7.28-5.39-13.02-12.502-16.757-21.6l-34.5-84.09c-.23-.574-.71-.98-1.203-1.184-.497-.213-1.023-.28-1.57-.284-1.55.01-3.346.58-4.883 1.494-.766.46-1.46 1.016-2 1.68-.536.66-.926 1.47-.927 2.38 0 .42.087.855.263 1.267l33.49 79.015c4.32 10.2 10.276 19.72 17.385 26.93 7.103 7.2 15.394 12.114 24.38 12.933.684.062 1.52.074 2.39.075.905 0 1.85-.02 2.646-.02.62 0 1.168.01 1.5.04l.208.02.072.01.17-.582-.348.497c.128.084.17.086.18.09l.17-.584-.35.494.518-.73-.747.49c.087.126.174.196.234.24l.517-.73-.746.49.793-.52h-.944c-.007.192.064.39.15.52l.79-.52h-.944.93l-.81-.464c-.06.1-.12.265-.12.465h.93l-.81-.46.63.36-.415-.604c-.02.02-.093.05-.214.246l.63.36-.413-.607.11.16-.1-.17h-.01l.11.163-.1-.17c0 .005-.12.06-.3.128-.67.25-2.21.665-4.84 1.265-2.64.6-6.38 1.396-11.55 2.44-9.71 1.963-19.41 3.186-28.588 3.186-10.944 0-21.126-1.74-29.703-5.993-8.58-4.26-15.58-10.995-20.26-21.16l-51.73-112.5c-.18-.403-.52-.73-.888-.903-.367-.172-.744-.23-1.108-.23-.743.006-1.493.226-2.263.56-1.15.51-2.33 1.305-3.275 2.278-.475.49-.888 1.025-1.197 1.61-.307.59-.51 1.23-.51 1.92-.004.46.092.93.293 1.37l.077.17.13.13.713-.716-.918.42.92-.42.71-.71-.713.712.92-.42c-.08-.174-.115-.34-.116-.525-.003-.364.16-.842.51-1.353.51-.764 1.413-1.56 2.344-2.114.463-.28.934-.508 1.353-.656.42-.15.79-.22 1.016-.216.147 0 .222.03.222.03l.05-.103-.08.08.03.026.05-.11-.08.08.114-.117-.15.07.033.043.112-.12-.15.068 51.76 112.52c4.85 10.56 12.24 17.697 21.2 22.128 8.95 4.435 19.44 6.2 30.59 6.2 9.35 0 19.18-1.244 28.98-3.225 6.62-1.34 10.912-2.264 13.572-2.915 1.33-.326 2.25-.58 2.88-.792.312-.11.55-.204.78-.32.11-.065.22-.13.36-.254.062-.067.14-.15.22-.28.07-.13.14-.32.14-.54 0-.22-.08-.45-.18-.596-.2-.285-.386-.36-.514-.42-.23-.1-.387-.12-.566-.15-.513-.07-1.18-.08-1.98-.084-.82 0-1.76.018-2.644.018-.846 0-1.646-.017-2.21-.07-8.35-.753-16.24-5.36-23.127-12.342-6.88-6.97-12.73-16.29-16.97-26.295l-33.48-79.01c-.077-.178-.104-.328-.105-.48 0-.313.14-.686.48-1.11.5-.63 1.424-1.27 2.44-1.714 1.004-.45 2.11-.71 2.87-.706.354 0 .63.057.765.12.142.07.13.085.14.1l34.5 84.094c3.867 9.43 9.865 16.863 17.42 22.453 7.56 5.59 16.666 9.344 26.773 11.48 3.97.84 6.805 1.92 8.566 3.04.883.56 1.49 1.124 1.86 1.638.37.52.505.97.506 1.403 0 .42-.132.87-.462 1.37-.49.75-1.444 1.586-2.85 2.36-1.403.78-3.246 1.505-5.476 2.106-4.87 1.316-12.485 3.66-21.615 5.68-9.13 2.02-19.76 3.71-30.596 3.71-11.55 0-23.32-1.92-33.78-7.35-10.47-5.43-19.67-14.36-26.15-28.554l-49.46-108.46-.13-.13-.715.713" fill="#000"/><path d="M227.803 274.68l21.527 21.536c11.657 11.66 28.596 19.107 61.95 15.313 39.133-4.45 67.23-9.85 90.894-14.12 3.972-.72 4.856-10.01-2.87-8.62-29.828 5.38-59.753 10.29-89.935 13.4-30.31 3.11-44.88-2.19-53.82-11.73l-21.65-23.09c-1.84-1.96-8.89 4.5-6.1 7.3" fill="#7F8180"/><path d="M227.803 274.68l-.714.715 21.52 21.535c4.86 4.868 10.67 9.04 18.15 11.972 7.47 2.935 16.61 4.635 28.14 4.634 5.02 0 10.49-.32 16.48-1.003 39.17-4.454 67.3-9.86 90.96-14.127 1.25-.23 2.22-1.06 2.84-2.06.63-1.01.964-2.223.967-3.448 0-1.265-.368-2.574-1.27-3.597-.9-1.02-2.328-1.66-4.1-1.65-.525 0-1.08.05-1.67.16-29.818 5.38-59.718 10.28-89.86 13.39-5.86.6-11.12.89-15.857.89-9.817 0-17.363-1.22-23.31-3.36-5.95-2.143-10.31-5.194-13.814-8.93l-21.64-23.1c-.223-.24-.5-.42-.79-.53-.29-.11-.59-.152-.877-.152-.8.006-1.547.3-2.285.713-1.1.63-2.18 1.586-3.04 2.685-.84 1.1-1.49 2.34-1.5 3.68-.01.81.29 1.67.94 2.306l1.43-1.43c-.26-.27-.34-.5-.35-.88-.008-.41.16-.97.49-1.56.482-.887 1.32-1.82 2.18-2.48.43-.337.86-.605 1.24-.78.382-.177.71-.25.89-.246l.156.023.037.022 21.644 23.09c3.7 3.95 8.374 7.21 14.604 9.45 6.23 2.24 14.01 3.483 23.99 3.484 4.816 0 10.145-.29 16.06-.9 30.226-3.11 60.178-8.024 90.014-13.41.487-.09.923-.127 1.314-.127 1.33.01 2.088.42 2.59.977.507.567.768 1.38.767 2.26.003.846-.25 1.726-.657 2.374-.41.655-.94 1.046-1.495 1.145-23.67 4.27-51.73 9.663-90.828 14.11-5.93.673-11.33.99-16.26.99-11.338 0-20.206-1.67-27.407-4.496-7.2-2.826-12.75-6.81-17.46-11.517L228.5 273.96l-.714.71" fill="#000"/><path d="M367.013 320.29c14.663 1.09 25.394-.74 38.75-3.018 12.577-2.145 12.744 10.146 5.02 11.725-28.63 5.858-56.382 11.888-87.302 14.836-10.08.96-19.98 3.067-29.89 1.434l-90.47-14.894c1.19-.872 3.54-4.723 5.8-8.375l82.05 14.177c10.63 1.836 21.39.343 32.53-1.196 29.53-4.09 57.64-8.39 84.436-14.84-13.344 3.12-25.89 6.25-38.277 7.15m-8.88.23c-3.41-.09-6.823-.38-10.25-.93l-26.7-4.3-.253-8.613 30.544 5.01c1.114.183 2.207.355 3.276.51" fill="#7F8180"/><path d="M366.938 321.297c3.02.226 5.878.327 8.627.327 10.707 0 19.745-1.545 30.366-3.357.96-.163 1.83-.236 2.61-.236 2.39.01 3.99.67 5 1.58 1.01.91 1.47 2.09 1.47 3.32 0 1.1-.38 2.23-1.13 3.15-.74.92-1.83 1.64-3.29 1.94-28.64 5.86-56.35 11.88-87.19 14.82-7.48.72-14.77 2.04-21.96 2.04-2.57 0-5.13-.17-7.68-.59L203.29 329.4l-.162.995.6.815c.44-.335.83-.78 1.283-1.358 1.33-1.71 3.07-4.56 4.774-7.303l-.86-.53-.17.996 82.04 14.176c3.567.615 7.14.86 10.72.86 7.306 0 14.65-1.025 22.12-2.056 29.54-4.085 57.685-8.394 84.536-14.855l-.466-1.964c-13.355 3.126-25.86 6.24-38.12 7.13l.144 2.02c12.506-.913 25.1-4.063 38.432-7.18l-.467-1.964c-26.735 6.435-54.815 10.737-84.335 14.817-7.475 1.03-14.73 2.033-21.843 2.032-3.49 0-6.943-.24-10.38-.835l-82.712-14.29-.358.58c-1.14 1.827-2.29 3.7-3.29 5.202-.5.75-.97 1.41-1.36 1.92-.39.505-.74.866-.89.97l-1.94 1.42 92.843 15.28c2.68.44 5.35.615 8.01.615 7.428-.004 14.783-1.343 22.15-2.04 30.993-2.957 58.786-8.998 87.41-14.853 1.9-.385 3.428-1.37 4.456-2.65 1.03-1.28 1.578-2.843 1.58-4.413 0-1.75-.694-3.52-2.14-4.82-1.44-1.3-3.58-2.1-6.345-2.096-.91 0-1.89.088-2.95.268-10.63 1.815-19.52 3.33-30.025 3.33-2.7 0-5.5-.1-8.47-.32l-.154 2.016zm-6.155 5.224c-3.372-.08-6.738-.37-10.113-.91l-25.88-4.16-.192-6.55 29.335 4.81c1.118.19 2.217.36 3.294.51l.29-2c-1.063-.15-2.148-.32-3.257-.5l-31.753-5.2.315 10.67 27.526 4.428c3.474.56 6.93.857 10.386.94l.05-2.02z" fill="#000"/><path d="M396.143 384.206c1.63 1.588 8.036.91 8.12-2.072 1.04-36.5-7.41-64.45-19.33-88.683-1.16-2.35-7.27-1.42-7.97 1.1-.697 2.53-.03.55 3.225 8.68 3.26 8.13 5.932 16.2 8.09 24.06 2.155 7.86-.907-4.75 2.243 8.89s4.76 26.56 5.18 37.55" fill="#7F8180"/><path d="M395.438 384.93c.473.453 1.052.705 1.675.876.625.167 1.307.243 2.013.243 1.312-.01 2.7-.26 3.874-.83.586-.29 1.124-.67 1.547-1.17.42-.51.708-1.17.726-1.89.058-2.05.087-4.07.087-6.06.004-33.74-8.214-60.12-19.52-83.1-.372-.75-1.033-1.24-1.732-1.52-.707-.29-1.484-.4-2.278-.4-1.19 0-2.42.26-3.483.75-.532.25-1.023.56-1.438.96-.42.39-.76.89-.92 1.48-.16.59-.28.98-.29 1.48-.01.42.13.83.3 1.14.25.48.57.95 1.09 1.94.52.97 1.22 2.44 2.15 4.76 3.24 8.09 5.9 16.12 8.05 23.95.3 1.12.51 1.83.64 2.27.07.22.11.37.16.49l.07.18.092.17c.033.04.07.1.17.19.05.04.116.093.22.15.105.05.26.1.45.1.173 0 .37-.053.513-.14.26-.16.355-.345.407-.453.077-.17.08-.25.09-.31l.01-.125c0-.1-.01-.143-.015-.19-.02-.157-.05-.308-.08-.45l-.04-.184-.02-.07-.01-.05-.02-.067-.05-.114-.11-.177c-.04-.048-.09-.11-.2-.19-.106-.075-.296-.19-.59-.193-.27 0-.53.11-.717.3-.19.19-.297.45-.297.716 0 .268.11.528.292.716.19.19.45.3.714.3v-1.01l-.446.906c.155.075.32.102.445.1v-1.01l-.44.906.444-.91-.8.618c.082.108.207.22.355.29l.443-.906-.8.618.8-.616-.995.17c.014.09.04.24.19.44l.8-.615-.994.17.998-.17-1.01-.06c0 .03-.01.07.015.23l.994-.17-1.01-.06 1.01.06-1.003-.09v.03l1.006.06-1.005-.085-.002.09.008.123.016.095c.025.144.11.548.343 1.576.23 1.025.6 2.654 1.185 5.19 3.137 13.572 4.738 26.434 5.147 37.36.02.56.49.992 1.05.972.556-.02.99-.49.97-1.05-.416-11.063-2.033-24.04-5.197-37.74-.63-2.745-1.013-4.425-1.24-5.42-.11-.497-.18-.824-.222-1.025-.022-.1-.037-.17-.044-.21l-.006-.038-.46.08.46-.07v-.01l-.46.08.463-.07-.88.14.886-.11-.006-.03-.88.14.89-.11-.984.12h.98l-.003-.124-.986.125h1-1l1.004.07v-.07h-1.01l1 .07-.992-.07.99.09v-.02l-.998-.07.99.09c0-.007.006-.014 0-.157-.012-.074-.003-.2-.137-.446-.07-.12-.197-.268-.37-.365-.17-.1-.365-.133-.505-.13-.264 0-.524.11-.712.3-.187.19-.295.45-.295.712 0 .27.11.53.296.717.19.186.45.295.714.295v-1.01l-.634.785c.1.075.294.215.637.223v-1.01l-.635.78.635-.784-.88.49c.035.052.05.12.245.292l.632-.783-.88.49.873-.49-.943.343c.01.027.017.05.07.147l.876-.49-.944.348.835-.306-.86.228.025.08.834-.306-.86.226c.01.034.04.17.06.282l.03.15v.03l.585-.07h-.59l.006.07.584-.07h-.59.946l-.92-.22c-.03.14-.022.183-.025.218h.947l-.92-.217.97.23-.804-.586c-.12.177-.142.283-.162.356l.97.23-.802-.587.813.59-.51-.867c-.144.08-.24.19-.302.27l.813.59-.51-.864.51.87v-1.006c-.17-.004-.366.05-.51.14l.51.867v-1.004 1.005l.446-.903c-.103-.05-.253-.1-.445-.1v1.005l.445-.903-.44.89.76-.646c-.05-.055-.115-.144-.32-.25l-.44.895.76-.645-.7.596.82-.42c-.02-.03-.03-.07-.12-.18l-.702.597.82-.42-.513.26.53-.225-.02-.04-.516.264.532-.23-.003-.006c-.022-.06-.1-.3-.224-.718-.13-.428-.3-1.045-.54-1.918-2.167-7.894-4.85-16.003-8.127-24.167-1.262-3.16-2.16-4.85-2.736-5.85-.29-.5-.49-.83-.585-1.015-.097-.2-.077-.177-.08-.23-.01-.064.046-.362.21-.94.044-.166.156-.36.37-.563.317-.31.86-.617 1.497-.825.635-.21 1.36-.33 2.025-.328.594-.003 1.135.092 1.516.25.39.16.59.35.68.54 11.207 22.785 19.31 48.797 19.315 82.21 0 1.972-.025 3.973-.083 6-.01.246-.082.432-.263.656-.263.33-.82.68-1.533.91-.706.232-1.55.36-2.33.356-.553 0-1.08-.066-1.486-.176-.41-.11-.696-.27-.79-.373-.4-.39-1.04-.38-1.43.016-.39.4-.38 1.04.02 1.43" fill="#000"/><path d="M331.646 219.337h9.376l.032.03v2.91l-.032.032h-9.376l-.028-.04v-2.91l.028-.03" fill="#000"/><path d="M326.186 192.867c-.183.002-.357.035-.53.09-1.417.442-1.902 2.52-1.067 4.618.83 2.1 2.66 3.433 4.08 2.99 1.41-.442 1.9-2.52 1.06-4.618l-.06-.09c-.75-1.794-2.21-3.008-3.5-2.99zm-.236.652c.92-.02 1.95.9 2.486 2.3l.03.09c.597 1.64.272 3.26-.74 3.61-1.012.34-2.335-.73-2.93-2.37-.598-1.64-.242-3.24.77-3.59.125-.04.254-.06.384-.06z" fill="#000"/><path d="M329.294 200.27c-.183.002-.358.034-.532.088-1.415.442-1.9 2.52-1.066 4.62.833 2.1 2.67 3.434 4.085 2.99 1.42-.442 1.9-2.52 1.07-4.62l-.06-.087c-.75-1.79-2.21-3-3.49-2.99zm-.237.8c.92-.014 1.98.905 2.517 2.31l.03.087c.595 1.643.242 3.267-.77 3.613-1.013.346-2.305-.726-2.9-2.37-.596-1.64-.273-3.236.74-3.582.124-.043.254-.057.384-.06z" fill="#000"/><path d="M339.41 191.677l8.97 21.536 1.865-.777-8.97-21.536" fill="#000"/><path d="M173.852 356.436c.353 2.195-1.062 3.974-3.157 3.974-2.096 0-4.08-1.78-4.43-3.974-.354-2.195 1.062-3.974 3.156-3.974 2.1 0 4.08 1.78 4.44 3.974" fill="#FFF"/><path d="M173.852 356.436l-.997.16c.027.175.04.344.04.505 0 .71-.242 1.27-.62 1.66-.38.4-.897.64-1.58.64-.758.01-1.554-.33-2.195-.9-.64-.57-1.105-1.37-1.238-2.21-.03-.17-.042-.34-.042-.5.002-.7.243-1.263.62-1.66.382-.39.9-.635 1.58-.64.76 0 1.557.33 2.198.908.64.574 1.104 1.37 1.237 2.218l.997-.16.996-.16c-.217-1.35-.92-2.536-1.882-3.4-.962-.86-2.206-1.42-3.545-1.42-1.19-.004-2.28.47-3.03 1.26-.76.79-1.18 1.88-1.18 3.06 0 .27.02.547.07.825.22 1.35.92 2.537 1.89 3.4.965.864 2.21 1.42 3.546 1.425 1.197.003 2.286-.47 3.04-1.26.758-.79 1.183-1.88 1.18-3.06 0-.27-.02-.547-.066-.825l-.996.16" fill="#000"/><path d="M172.044 358.714c.353 2.196-1.062 3.974-3.156 3.974-2.097 0-4.08-1.778-4.43-3.974-.355-2.192 1.06-3.972 3.156-3.972s4.08 1.78 4.43 3.972" fill="#FFF"/><path d="M172.044 358.714l-.996.16c.027.174.04.343.04.504-.002.7-.243 1.265-.62 1.66-.38.394-.898.636-1.58.64-.76.003-1.555-.33-2.197-.906-.64-.573-1.1-1.37-1.23-2.217-.03-.176-.04-.345-.04-.506 0-.7.24-1.27.62-1.66.38-.39.9-.64 1.58-.64.76-.01 1.56.33 2.2.9.64.57 1.11 1.37 1.24 2.21l1-.16 1-.16c-.215-1.35-.92-2.54-1.88-3.4-.96-.86-2.206-1.42-3.543-1.42-1.194-.01-2.283.47-3.04 1.26-.755.79-1.18 1.88-1.18 3.05 0 .27.02.547.07.826.217 1.35.92 2.536 1.882 3.4.96.863 2.205 1.42 3.543 1.423 1.194.002 2.28-.47 3.04-1.264.754-.79 1.18-1.88 1.18-3.057 0-.27-.024-.548-.07-.826l-.995.16" fill="#000"/><path d="M238.09 344.37c0 3.735-3.027 6.76-6.757 6.76-3.732 0-6.757-3.025-6.757-6.76 0-3.734 3.025-6.76 6.757-6.76 3.73 0 6.757 3.026 6.757 6.76" fill="#FFF"/><path d="M238.09 344.37h-1.01c0 1.593-.64 3.023-1.684 4.066-1.043 1.042-2.473 1.683-4.063 1.683-1.59 0-3.02-.65-4.064-1.69-1.05-1.05-1.69-2.48-1.69-4.07 0-1.59.64-3.02 1.68-4.07 1.04-1.04 2.47-1.69 4.06-1.69 1.59 0 3.02.642 4.06 1.684 1.04 1.044 1.68 2.474 1.68 4.066h2.02c0-4.29-3.48-7.77-7.768-7.77-4.29 0-7.764 3.48-7.765 7.77 0 4.298 3.475 7.77 7.765 7.77s7.767-3.472 7.768-7.77h-1.01" fill="#000"/><path d="M236.86 345.688h-1.01c0 1.25-.504 2.374-1.322 3.195-.82.82-1.946 1.324-3.196 1.324-1.25 0-2.373-.504-3.195-1.324-.82-.82-1.323-1.944-1.323-3.195 0-1.252.504-2.375 1.323-3.197.822-.81 1.945-1.32 3.195-1.32 1.25 0 2.375.51 3.196 1.33.818.83 1.323 1.95 1.323 3.2h2.02c0-3.61-2.92-6.54-6.53-6.54s-6.53 2.93-6.53 6.54 2.93 6.54 6.54 6.54 6.54-2.92 6.54-6.54h-1.01" fill="#000"/><path d="M235.538 347.01h-1.01c-.004 1.764-1.432 3.194-3.195 3.197-1.765-.003-3.194-1.433-3.196-3.197.002-1.766 1.43-3.194 3.196-3.197 1.763.003 3.19 1.43 3.195 3.197h2.02c-.002-2.882-2.335-5.216-5.215-5.217-2.88 0-5.215 2.335-5.216 5.217 0 2.882 2.335 5.217 5.216 5.218 2.88 0 5.213-2.337 5.214-5.218h-1.01" fill="#000"/><path d="M324.222 186.815c-1.484.39-2.613 1.01-3.37 1.903-.76.892-1.064 2.01-1.058 3.123.01 1.89.75 3.9 1.638 6.07l.008.02 7.702 16.85c1.002 2.19 1.557 4.05 1.553 5.59-.003 1.01-.22 1.87-.705 2.71-.486.84-1.265 1.66-2.445 2.47l1.138 1.67c1.363-.93 2.38-1.96 3.053-3.11s.98-2.42.978-3.727c-.005-2.012-.682-4.112-1.736-6.424l-7.695-16.837-.92.42.934-.387c-.875-2.1-1.495-3.973-1.484-5.295.006-.79.183-1.34.58-1.82.4-.474 1.11-.93 2.343-1.253l-.514-1.952" fill="#000"/><path d="M369.89 327.212l-6.368-15.52m-8.634 1.962l5.53 13.05c.357.84.722 1.672 1.1 2.5" fill="#F0F"/><path d="M370.824 326.828l-6.368-15.52-1.868.766 6.37 15.522 1.866-.768zm-16.865-12.78l5.53 13.05c.35.847.72 1.69 1.11 2.526l1.83-.84c-.38-.818-.74-1.644-1.09-2.473l-5.53-13.05-1.86.79z" fill="#000"/><path d="M387.48 328.04l2.446-.51 1.254 8.12-1.685.305-2.016-7.915" fill="#7F8180"/><path d="M376.093 295.064l2.002-.316 2.732 8.046-1.545.252-3.484-7.395.295-.58" fill="#7F8180"/><path d="M235.104 346.067c0 1.842-1.71 3.336-3.815 3.336s-3.82-1.494-3.82-3.336c0-1.843 1.7-3.338 3.81-3.338s3.81 1.49 3.81 3.33" fill="#000"/><path d="M166.013 355.477c-1.67 2.61 4.566 6.012 5.66 4.53.318-2.876-1.904-6.003-5.66-4.53" fill="#000"/><path d="M207.143 325.012v5.922l-3.765-.592 3.765-5.33" fill="#000"/><path d="M292.026 312.487c-2.193 1.016-3.642 2.554-3.587 5.144l-2.28-5.5 5.86.36" fill="#000"/><path d="M308.218 345.76c-2.195 1.016-4.108 3.02-4.053 5.61l-2.274-5.503 6.33-.107" fill="#000"/></g></svg>