<svg width="512" height="512" viewBox="0 0 512 512" xmlns="http://www.w3.org/2000/svg"><title>dallas-cowboys</title><g fill="none" fill-rule="evenodd"><path d="M326.337 297.564l113.195-82.214H299.617l-43.28-132.958-43.28 132.958h-140l113.278 82.214-43.28 133.044 113.28-82.214 113.28 82.214-43.278-133.044" fill="#024"/><path d="M314.642 293.813l94.33-68.484h-116.61l-36.026-110.79-36.026 110.79H103.7l94.33 68.48-36.024 110.78 94.33-68.49 94.33 68.48-36.024-110.78" fill="#FFF"/><path d="M305.592 290.913l79.646-57.822h-98.512l-30.39-93.55-30.39 93.56h-98.512l79.647 57.83-30.39 93.47 79.65-57.732 79.65 57.737-30.39-93.47" fill="#024"/></g></svg>