<svg width="512" height="512" viewBox="0 0 512 512" xmlns="http://www.w3.org/2000/svg"><title>denver-broncos</title><g fill="none" fill-rule="evenodd"><path d="M42.794 198.275s-2.227 41.564 46.295 67.99c0 0 19.53 10.41 65.51 18.87 40.39 7.437 62.07 23.156 70.68 33.034 11 12.63 21.8 35.51 26.65 55.58 0 0 0 5.21 3.74 4.98 0 0 3.27.23 3.04-4.45 0 0-1.17-31.57 7.942-46.76 6.98-12.49 19.504-23.28 40.22-30.87 0 0 13.796 10.52 33.44 10.52 14.26 0 26.89-6.087 26.89-6.087s25.015 8.652 27.825 22.21c0 0 .235 3.28-.7 5.614l31.33 1.64 17.07-15.435s-31.8-2.34-32.5-11.46c0 0-.496-4.23 8.09-4.23 0 0 19.785-.33 38.21 27.22l10.55-27.715s-8.094-4.044-7.93-11.474c0 0-.164-4.54 3.392-13.614l-13.12-5.96s-7.11-6.67-49.69-33.23l5.52-3.55-47.118-20.393s-15.085-23.778-57.17-23.94c0 0-32.852-53.897-85.274-53.897 0 0-19.35-1.15-41.486 10.5 0 0-8.858 4.046-17.437 8.913 0 0-17.98 12.46-38.53-14.71 0 0-7.488 32.087 15.033 45.81 0 0-21.534 4.537-29.13-13.935 0 0-6.946-14.106-5.03-37.72 0 0-16.506 14.922-16.506 43.563 0 0-.165 18.257 11.97 30.72 0 0-6.12-.93-15.855 5.195-.006 0-17.005 12.3-35.935-12.945" fill="#024"/><path d="M123.1 151.807s3.16 28.298 27.247 28.298c0 0 9.467 0 18.116-3.278 8.653-3.278 21.28-9.715 38.114-9.715 0 0 21.975-2.095 34.252 22.228 0 0 28.06-1.532 54.36 3.39 0 0-29.93-52.734-81.95-51.918 0 0-15.21-.816-35.44 9.35l-8.19 3.857c-5.958 2.81-8.3 4.2-8.3 4.2s-8.42 5.04-16.477 4.79c0 0-10.525.83-21.756-11.22zm-29.79.945s-13.938 38.438 16.574 55.62c5.682 3.697 14.75 7.123 24.992 7.384 0 0 41.7-19.87 87.084-25.122 0 0-5.248-11.193-25.772-11.193 0 0-12.54-.73-35.276 5.56 0 0-6.16 1.56-13.39 4.04-10.328 2.53-27.558 5.08-38.68-1.95 0 0-15.143-7.51-15.532-34.32zm-39.186 64.696s3.777 20.52 27.34 20.52c0 0 16.487.393 39.742-13.797 0 0-8.027-3.12-12.102-5.77 0 0-8.55-6.46-17.617-3.94 0 0-1.564.3-9.85 3.82 0 0-5.814 3.78-14.102 3.78-.002 0-8.42-.13-13.41-4.6z" fill="#FB4F14"/><path d="M181.464 283.744s46.94-49.65 114.713-32.387c0 0 3.35 38.87 45.23 41.235 0 0 14.26.857 27.74-8.636l26.33 9.84L367.86 276.4s-8.843 8.63-24.822 8.63c-15.977 0-35.383-16.194-33.67-39.174 0 0-29.032-14.555-61.417-22.115l9.71 15.34s-62.92-3.99-114.5 36.03c0 0-49.22-10.91-55.14-20.4 0 0 101.32-82.36 231.01-48.95 0 0 1.52-2.22-2.25-5.33 0 0-4.86-3.65-12.09-5.81 0 0 31.73-1.69 48.28 22.36l36.47 15.33-3.827 2.7s55.747 34.66 59.478 39.51l7.78 3.25s-5.53 16.2 5.815 24.93l-4.21 11.15s-18.645-20.08-37.245-20.88c0 0-13.746-.32-13.746 10.71 0 0-1.647 11.78 25.733 15.187l-5.66 5.22-20.88-1.327s.48-16.997-35.96-30.264c0 0-29.91 17.79-58.243-4.16 0 0-51.63 12.404-56.296 59.934 0 0-5.677-17.96-18.3-33.285 0 0 6.8-24.243 43.555-36.42 0 0-33-1.69-56.187 24.69 0-.002-15.37-12.516-39.776-19.5" fill="#FFF"/><path d="M350.16 227.532s25.726 3.836 69.952 39.956l-41.806-22.836s-2.7 1.383-4.397 2.888c0 .002-9.46-10.927-23.75-20.008" fill="#024"/><path d="M371.128 235.187s-2.15 1.778-1.285 4.883c0 0 1.055 2.928 4.372 2.994 0 0 3.75.05 4.407-4.045l-1.775-.96-4.62 3.45 1.296-5.17-2.395-1.17" fill="#FB4F14"/><path d="M445.427 278.887s-3.547 1.318-3.547 4.5c0 0-.857 3.31 6.278 10.443 0 0-10.6-7.754-12.587-12.422 0 0-1.82-3.423 3.34-3.423 0 0 3.14 0 6.52.902zM325 208.183s6.537.094 7.292-1.506c0 0 1.6-1.667-7.198-5.78 0 0 13.57 2.77 19.727 13.73 0 0-8.79-4.022-19.82-6.444z" fill="#024"/></g></svg>