<svg width="512" height="512" viewBox="0 0 512 512" xmlns="http://www.w3.org/2000/svg"><title>detroit-lions</title><g fill="none" fill-rule="evenodd"><path d="M319.21 98.835c7.263 4.71 14.477 9.53 22.076 13.692 8.15 4.83 17.434 7.087 26.358 9.985 6.1 1.828 11.637 5.974 14.207 11.913 3.38 1.542 6.84 3.033 9.84 5.266 3.28 2.56 5.21 6.37 6.69 10.16 5.56 2.34 11 5.01 16.16 8.15 7.1 4.42 13.18 10.26 19.09 16.12-4.69 2.55-8.852 6.16-11.8 10.62-1.74 4.26-3.17 8.73-6.046 12.41 5.973-4.76 15.04-4.45 20.77.55 7.683-.69 15.42 2.38 20.754 7.9 3.698 3.91 4.853 9.97 2.97 14.99-1.354 2.9-.35 6.33-2.012 9.13-1.31 2.98-4.04 4.87-6.16 7.2-2.15 3.86-5.372 7.28-9.64 8.73-4.563 1.538-9.434.54-13.95-.59-6.163 1.108-12.59 1.01-18.45-1.41-1.694 2.56-3.44 5.07-5.25 7.538 4.224 3.464 9.025 6.32 14.36 7.67 5.89 1.64 12.555 2.93 16.21 8.39 11.097-1.904 22.05 6.243 24.94 16.793.93 3.424.855 7.155-.46 10.467-1.11 3.122-4.06 5.13-5.073 8.313-1.74 4.59-5.86 7.993-10.773 8.575-5.194 4.804-13.367 5.69-19.44 2.075-5.555-.65-11.57-.753-16.408-3.986-2.944-1.78-5.05-4.52-7.35-6.99-5.89-2.744-12.573-2.103-18.843-3.14-9.48-1.52-19-3.63-27.67-7.86-6.18 1.97-12.68 2.46-19.1 2.915-1.45-3.607-3.355-7.07-6.17-9.8-10.76 5.736-21.413 12.686-33.79 14.144-.87 4.618-1.88 9.25-3.64 13.624-2.53 6.28-8.125 10.87-14.27 13.39 7.038 2.768 12.835 8.9 14.015 16.518 1.17 5.66-1.98 11.322-6.48 14.6-1.854 4.17-5.62 7.472-10.13 8.416-4.312 1.297-8.973-.48-13.16 1.357-6.58 2.387-13.584-.014-19.137-3.73-8.25.54-16.527 1.67-24.79 1.01-5.99-.53-11.08-4.683-13.358-10.16-3.388 2.485-7.05 4.576-10.89 6.277-6.217 3.06-12.36 6.333-18.056 10.3.32 1.224-.354 3.145 1.146 3.735 4.68 2.328 8.62 6.625 9.38 11.934.415 3.972.187 8.23-1.862 11.772-1.32 2.49-3.906 3.94-5.4 6.31-1.893 2.85-4.66 5.264-8.045 6.065-2.87.944-5.96 0-8.82.91-4.696 1.356-9.96 1.206-14.28-1.245-5.97-3.44-9.97-10.206-9.7-17.14.613-8.4.89-16.85.91-25.26-2.817-4.804-4.637-10.8-2.08-16.12 2.29-5.916 8.81-8.45 11.583-14.013 2.46-4.416 2.696-9.59 3.06-14.51.3-5.856.985-11.69 1.28-17.543-8.1-2.56-16.114-6.04-22.59-11.644-5.74-5.46-10.52-12.107-13.18-19.607-2.993-8.08-3.405-16.957-7.24-24.742-1.635-3.454-4.32-6.27-7.407-8.476-7.47 1.52-15.38-1.02-20.61-6.52-3.97-3.35-6.13-8.735-11.11-10.843-6.336-2.975-13.364-4.05-20.27-4.777 10.58-10.86 24.34-19.295 39.65-20.93 6.372-.82 13.113.926 17.974 5.19 3.633 3 5.984 7.23 7.45 11.65 13.474 6.05 23.66 18.38 27.723 32.5 1.694 5.948 2.814 12.385 6.92 17.26 3.967 4.966 10.077 7.603 16.134 8.96 6.408-5.93 12.25-13.203 20.81-16.06 3.88-1.456 8.003-2.25 11.79-3.97 3.31-2.33 6.25-5.144 9.42-7.663 1.573-1.22 2.95-2.7 3.84-4.5 3.27-5.85 6.56-11.774 11.272-16.62-2.942-6.15-4.746-12.89-4.746-19.74 1.55.515 3.11 1.01 4.676 1.476.28-10.59 7.468-19.024 14.705-25.993.144-6.33 1.92-12.57 5.18-18.006-2.03-3.54-3.91-7.24-4.615-11.3 6.233-.64 12.52-1.675 18.3-4.18 3.396-1.414 5.494-4.582 7.854-7.22 4.33-4.733 9.09-9.282 14.973-12.04 7.372-3.41 15.563-5.13 23.695-4.775-2.614-1.964-5.453-3.63-8.486-4.85 6.882-4.216 14.836-6.4 22.816-7.26.27-3.945.55-7.94 1.77-11.73" fill="#000"/><path d="M323.17 107.43c7.16 4.204 13.608 9.714 21.31 13.01 6.832 2.83 13.88 5.096 20.906 7.413 5.384 1.433 10.475 5.207 11.79 10.86 4.642 2.184 10.12 3.565 13.22 7.996 2.25 2.47 1.938 6.87 5.393 8.24 5.72 2.55 11.46 5.16 16.67 8.7 4.35 3.24 8.43 6.85 12.31 10.67-2.8 2.51-6.04 4.66-8.22 7.77-2.19 5.49-4.16 11.54-8.94 15.4-1.59 1.39-3.88 2.06-4.87 4.05 4.45.11 8.72 1.29 12.87 2.84 2.81-1.73 5.24-4.35 8.67-4.84 3.7-.86 7.32 1.12 9.71 3.85 7.05-.66 15.025.75 19.516 6.78 2.79 3.1 2.292 7.83-.11 11.01.02 2.33.55 4.93-.757 7.03-1.01 1.84-2.94 2.8-4.63 3.91-1.567 3.21-3.487 6.69-7.01 8.04-4.03 1.636-8.434.26-12.31-1.163-3.936.673-7.955 1.466-11.95.86-2.89-.6-5.4-2.225-7.844-3.793-4.313 5.082-7.71 10.86-12.04 15.934 4.96 4.373 10.27 8.584 16.575 10.826 3.55 1.41 7.256 2.33 10.946 3.25 3.72.975 6.32 4.06 7.9 7.412 4.78-1 10.28-1.616 14.45 1.52 3.886 2.9 8.04 6.556 8.73 11.646.73 3.933-1.34 7.732-4.59 9.88-.54 2.275-.992 4.71-2.63 6.504-1.72 1.98-4.41 2.56-6.916 2.62-2.18 2.91-5.84 4.87-9.52 4.2-3.312-.32-5.83-3.31-9.303-2.63-7.06.49-14.33-2.92-17.56-9.39-6.47-2.562-13.427-3.72-20.37-3.8-10.35-1.18-20.777-3.78-29.89-8.93-5.04 2.06-10.3 3.66-15.75 4.07-1.967-4.69-5.498-8.57-9.777-11.27-6.66 3.65-13.317 7.27-20.06 10.74-6.083 3.1-12.94 4.08-19.65 4.78.574 5.09-1 10.078-2.635 14.83-.91 2.307-1.72 4.75-3.35 6.66-1.89 1.917-4.207 3.31-6.516 4.63-5.5 3.1-12 3.81-17.4 7.1-2.76 1.72-5.274 3.783-7.726 5.906 2.994.548 6.246 2.03 9.204.565 2.62-1.06 5.183-2.51 8.074-2.66 7.725-.97 14.904 5.38 16.632 12.606.943 4.26-2.08 7.915-5.588 9.828-.97 2.294-2.026 4.837-4.385 6.034-3.84 2.004-8.29.925-12.39.875-3.198 1.256-6.636 2.89-10.13 1.864-3.695-.66-6.56-3.455-10.14-4.28-7.87.166-15.718 1.262-23.596 1.246-3.563-.102-7.036-1.92-8.973-4.946-2.664-3.6-1.275-8.493.7-12.074 1.826-3.46 5.197-5.94 6.756-9.52-.905-1.93-3.238-2.42-4.9-3.524-4.56 7.96-7.365 17.81-15.614 22.882-9.244 5.415-19.65 9.02-27.765 16.26-.015 3.45-.05 6.9.247 10.345 4.162.665 8.45 2.89 9.74 7.203 1.02 4.67.464 10.98-4.54 13.128-1.087 2.53-2.597 5.277-5.41 6.15-2.824 1.12-5.907-.47-8.698.734-3.16 1.03-6.69 1.36-9.835.104-4.56-1.93-7.88-6.75-7.624-11.755-.076-8.735.607-17.455.784-26.185-.563-4.34-4.5-8.02-3.336-12.644 2.225-6.79 10.382-9.07 12.766-15.74 4.76-12.24 2.603-25.606 4.735-38.32-7.23-1.85-14.367-4.41-20.738-8.367-6.405-3.91-11.03-10.16-14.31-16.796-4.582-9.552-4.657-20.6-9.52-30.034-2.402-4.72-6.404-8.45-11.013-10.98-5.745 1.905-12.46.84-17-3.27-3.904-3.126-6.28-7.71-10.1-10.903-4.72-2.97-10.44-3.61-15.84-4.426 10.725-7.24 23.08-14.37 36.545-12.53 7.47.91 12.38 8.02 13.38 15.04 5.82 2.78 11.484 6.1 16.074 10.68 5.873 6.075 9.793 13.86 11.772 22.03 1.963 7.627 5.21 15.36 11.216 20.686 5.48 4.23 12.195 6.68 19.01 7.655 4.266-4.59 8.75-8.99 13.47-13.11 5.753-4.93 13.74-5.17 20.322-8.374 3.86-3.16 7.55-6.53 11.443-9.65 2.477-1.86 3.58-4.86 5.207-7.395 3.31-6.04 7.33-11.64 11.627-17.03-2.65-3.463-4.26-7.626-4.51-11.99 1.425.127 2.85.25 4.28.37-1.45-3.89-1.69-8.323.05-12.166 2.994-6.84 8.01-12.596 13.52-17.532-.134-7.243 1.78-14.582 6.202-20.403-1.727-2.386-3.186-4.973-4.095-7.786 5.663-.91 11.62-1.58 16.533-4.795 3.416-1.83 5.338-5.294 8-7.94 4.55-4.676 9.85-8.93 16.154-10.91 6.646-2.09 13.682-2.73 20.62-2.3 2.416-1.575 4.944-2.983 7.504-4.323-2.36-2.4-4.95-4.59-7.865-6.28 5.258-1.34 10.66-2.18 16.094-1.92.09-2.863.79-5.7.563-8.56" fill="#FFF"/><path d="M327.99 116.782c4.22 3.067 8.45 6.194 13.187 8.45 8.225 4.298 17.55 5.714 25.977 9.497 3.144 1.21 4.612 4.59 4.424 7.79 4.105 1.92 8.46 3.37 12.31 5.79 3.845 2.67 3.532 8.43 7.51 10.94 4.357 2.17 8.958 3.87 13.205 6.29 4.558 2.4 8.612 5.64 12.48 9.02-2.68 1.81-5.857 3.6-6.556 7.06-1.685 6-5.242 11.91-11.334 14.23 1.273-2.94 1.643-6.16.884-9.3-6.2-.15-12.495.91-18.007 3.86.018 3.36-.303 7.18 1.98 9.95 1.3 1.67 3.77 2.06 5.623 1.13 2.922-1.322 4.862-4.002 6.607-6.572.066 2.563-.743 5.527 1.07 7.7.73 1.98.124 4.18.108 6.245 5.57-2.716 11.815-1.02 17.123 1.44 5.09.94 7.83-6.49 13.07-4.854 1.39.843 1.96 2.536 3.28 3.43 4.57 1.044 9.58-.868 13.83 1.583 2.28 1.196 5.56 3.067 4.86 6.117-.86 1.04-1.91 1.88-2.9 2.774.57 1.863 1.46 3.76 1.07 5.755-.86 1.57-2.82 1.82-4.29 2.52-1.03 2.51-1.872 5.343-4.21 6.97-3.52.766-7.01-.59-10.32-1.627-5.275 1.354-11.82 2.744-16.255-1.377-2.505-2.857-6.936-.953-9.01 1.51-4.76 5.71-8.24 12.45-13.523 17.742-7.986 8.05-16.59 15.51-25.843 22.074-6.557 4.88-14.09 8.42-22.13 9.97-3.083-4.802-7.305-9.22-12.84-11.08-14.798-5.122-30.78-4.557-46.077-2.4 12.918.243 26.576 0 38.374 6.065-5.68 3.225-11.416 6.385-17.382 9.04-6.9 3.024-14.55 3.11-21.92 3.76.893 3.78 2.224 7.722 1.045 11.61-1.142 4.293-2.04 9.15-5.42 12.314-7.132 5.19-16.553 5.69-23.732 10.82-4.965 3.39-9.29 7.86-11.783 13.38 4.945 1.055 9.884 2.177 14.872 2.99 5.487 1.23 9.75-4.512 15.218-3.115 3.794 1.1 7.03 4.53 7.604 8.48-.33 2.595-3.27 3.075-5.26 3.89-.298 1.678-.677 3.34-1.12 4.97-3.81 1.33-7.83.634-11.666-.16-1.88 1.4-3.996 2.748-6.44 2.666-4.44.066-7.313-4.416-11.677-4.636-8.165-.25-16.28 1.62-24.446 1.097-2.02-.12-4.422-1.33-4.523-3.6-.18-3.882 3-6.63 5.1-9.51 2.058-2.74 5.218-5.856 3.928-9.605-1.575-3.63-5.544-5.103-8.83-6.77 6.1-7.02 13.247-13.177 21.36-17.762 10.44-6.24 21.22-12.114 32.814-15.93-17.764 3.016-34.558 11.096-48.454 22.512 3.37-6.58 9.127-11.425 14.3-16.53-11.09 5.58-19.752 15.268-25.17 26.33-3.21 6.785-6.632 13.48-10.44 19.944-2.166 3.87-6.44 5.67-10.212 7.567-7.13 3.27-13.99 7.135-20.443 11.593-2.17 1.636-4.95 3.437-4.98 6.49-.36 5.263.196 10.57.87 15.794 2.782.423 5.73.6 8.216 2.04 1.73 1.787 1.88 4.677 1.045 6.917-.91 1.22-2.662 1.05-3.98 1.5-.39 1.83-.27 4.14-2.04 5.29-2.13.62-4.304-.1-6.402-.493-1.644 1.043-3.396 2.206-5.443 2.03-3.75.33-7.116-3.135-6.847-6.85.12-9.27 1.07-18.528.7-27.797-.07-3.62-3.65-6.286-3.23-9.944 1.88-3.16 5.156-5.096 7.66-7.707 3.29-3.04 4.98-7.347 6.25-11.543 3.8-13.07 1.046-27.05 4.77-40.12-7.16-1.427-14.207-3.567-20.79-6.735-6.604-3.127-11.914-8.61-15.46-14.93-3.177-5.69-3.607-12.3-5.453-18.444-1.483-5.13-3.344-10.18-5.763-14.94-3.083-6.21-9.27-9.92-15.024-13.32-3.016 1.536-6.6 2.36-9.85 1.047-4.675-1.93-8.755-5.258-11.476-9.538-1.803-3.17-5.427-4.29-8.695-5.278 4.8-1.653 9.98-2.764 15.03-1.67 2.8.557 5.26 2.056 7.803 3.254-2.655-4.63-8.183-5.21-12.91-6.05 5.367-2.11 11.948-2.41 16.81 1.075 3.38 2.743 4.366 7.233 5.437 11.244 5.52 3.07 11.22 6 16.02 10.145 6.16 5.86 9.74 13.95 11.587 22.15 2.13 8.89 6.782 17.36 14.09 23.01 6.756 5.16 15.34 7.35 23.71 7.95 4.042-5.08 8.836-9.5 13.732-13.76 5.868-5.417 14.72-4.826 21.18-9.14 4.644-4.07 9.725-7.685 14.005-12.14 3.995-5.906 7.087-12.41 11.36-18.158 3.025-4.043 6.377-7.833 9.774-11.575-3.19-.3-6.4-1.05-8.87-3.21 3.296-2.114 7.864-4.07 8.58-8.365.09-3.682-4.51-2.376-6.71-1.677 2.513-10.6 10.77-18.41 18.937-25 3.13-2.33 7-5.18 6.806-9.54-1.963-3.943-6.893-1.406-9.167.885 1.81-4.607 4.12-9.15 7.91-12.46-1.998-.9-3.74-2.233-5.04-4 3.65-.305 7.474-.54 10.7-2.47 5.81-3.298 11.52-6.794 17.77-9.204-2.72-.276-5.455-.073-8.11.627 5.4-5.58 12.187-10.17 19.98-11.39 9.33-1.87 18.85 1.07 28.146-.722-2.324-1.823-5.156-2.68-8.04-3.063 3.423-1.71 6.937-3.28 10.695-4.096-2.53-2.205-5.286-4.126-8.234-5.72 4.666.347 9.376.6 13.893 1.92-1.04-1.99-1.66-4.143-1.93-6.36" fill="#005A8B"/><path d="M368.824 160.343c3.42-.464 7.062-2.217 10.407-.574 1.76.68 3.53 1.34 5.31 1.92-1.08 1.61-2.08 3.27-2.83 5.06-3.59-3.37-7.95-5.78-12.88-6.41zm-83.658 25.78c6.185-4.498 13.382-7.843 21.11-8.298 13.415-.792 26.845 5.99 34.614 16.885-9.538-6.977-20.863-12.638-32.947-12.386-7.76-.143-15.378 1.643-22.778 3.8zm-9.345 21.166c9.29-4.01 17.57-10.68 27.8-12.2 7.55-1.33 15.24-.13 22.56 1.85-9.35-.63-18.91.5-27.41 4.66-7.87 3.74-14.65 9.6-23.04 12.3-8.68 3.28-18.4 3.21-27.14.16 9.42-.44 18.76-2.61 27.24-6.78zm28.38 5.96c11.35-5.19 24.55-7.13 36.62-3.36 4.45 1.47 9.24 3.49 11.71 7.73 1.34 2.1 1.53 4.62 1.73 7.03 3.57-.92 7.08-2.1 10.4-3.716.54-2.976 1.16-6.06 3.01-8.53 1.5-2.19 4.26-3.638 6.94-3.176 4.82.59 9.296 2.653 13.644 4.72-11.856 8.77-25.725 14.39-39.773 18.62 1.56-4.097 1.83-8.94-.815-12.665-3.92-5.88-11.36-7.685-17.93-8.66-8.553-1.315-17.173.075-25.515 1.99z" fill="#FFF"/><path d="M360.17 281.66c12.107-6.865 23.004-15.645 32.652-25.645 3.835 3.41 7.795 6.774 12.304 9.276 5.46 2.89 11.385 4.79 17.366 6.26 4.163.91 4.365 6.72 8.57 7.62 3.816.59 7.838-1.88 11.494.05 2.612 1.49 4.77 3.75 6.32 6.31.64 1.316 1.526 2.99.63 4.408-.782 1.69-2.845 1.93-4.363 2.635-.178 2.283.26 4.97-1.432 6.807-1.81 1.1-3.99.137-5.92-.067-.78 1.76-1.34 4.23-3.55 4.677-2.62.656-4.88-1.205-6.89-2.57-4.5.235-9.44.59-13.41-1.955-2.294-1.35-3.67-3.72-4.74-6.09-5.89-2.5-12.11-4.3-18.52-4.69-10.413-.884-20.95-2.545-30.49-7" fill="#005A8B"/></g></svg>