<svg width="512" height="512" viewBox="0 0 512 512" xmlns="http://www.w3.org/2000/svg"><title>indianapolis-colts</title><g fill="none" fill-rule="evenodd"><path d="M345.36 155.277c-4.98-6.975-2.996-10.675.476-11.166 2.408-.34 5.287.02 6.784.02 2.644 0 7.698.33 7.273-4.84-.488-5.81-1.695-11.39-3.154-18.17-1.45-6.78-1.94-6.3-11.15-6.3 0 0-1.69-.24-15.75.73-14.05.97-25.19 2.91-25.68 21.81-.48 18.908 3.88 25.21 11.63 37.32 7.74 12.12 31.002 49.438 31.002 83.36 0 62.36-54.75 89.18-91.568 89.18-36.826 0-91.577-26.82-91.577-89.174 0-33.93 23.254-71.244 31.01-83.363 7.752-12.114 12.11-18.415 11.632-37.32-.49-18.9-11.636-20.834-25.68-21.804-14.057-.97-15.75-.73-15.75-.73-9.21 0-9.69-.48-11.15 6.3-1.45 6.784-2.66 12.36-3.145 18.173-.43 5.17 4.633 4.846 7.27 4.846 1.5 0 4.38-.36 6.785-.02 3.47.493 5.455 4.19.476 11.166-20.02 28.044-41.173 62.746-41.173 104.196 0 68.335 58.626 136.183 131.3 136.183 72.68 0 131.294-67.85 131.294-136.19 0-41.45-21.15-76.15-41.17-104.195zm-19.627 4.912c-2.178 0-3.942-1.77-3.942-3.95s1.77-3.94 3.95-3.94c2.17 0 3.94 1.76 3.94 3.94 0 2.18-1.77 3.94-3.94 3.94zm-140.99-7.89c2.175 0 3.94 1.76 3.94 3.94 0 2.17-1.765 3.94-3.94 3.94-2.17 0-3.938-1.77-3.938-3.95s1.767-3.94 3.94-3.94zM145.5 252.75c-2.168 0-3.938-1.76-3.938-3.94 0-2.18 1.77-3.94 3.938-3.94 2.183 0 3.94 1.765 3.94 3.943 0 2.174-1.757 3.94-3.94 3.94zm19.383 78.03c-2.172 0-3.94-1.77-3.94-3.942s1.765-3.94 3.94-3.94c2.178 0 3.938 1.768 3.938 3.94 0 2.175-1.76 3.944-3.93 3.944zm90.36 44.587c-2.177 0-3.938-1.77-3.938-3.95 0-2.173 1.76-3.94 3.937-3.94 2.173 0 3.934 1.763 3.934 3.94.002 2.178-1.76 3.943-3.935 3.943zm90.354-44.59c-2.177 0-3.938-1.77-3.938-3.946s1.76-3.94 3.93-3.94 3.94 1.77 3.94 3.94c0 2.18-1.77 3.95-3.94 3.95zm19.386-78.03c-2.18 0-3.946-1.765-3.946-3.94 0-2.18 1.765-3.944 3.946-3.944 2.166 0 3.94 1.765 3.94 3.943 0 2.174-1.774 3.94-3.94 3.94z" fill="#002C5F"/><path d="M325.734 152.306c2.175 0 3.94 1.763 3.94 3.94s-1.765 3.94-3.94 3.94c-2.176 0-3.94-1.763-3.94-3.94s1.764-3.94 3.94-3.94" fill="#FFF"/><path d="M184.744 152.304c2.178 0 3.94 1.765 3.94 3.942 0 2.177-1.762 3.943-3.94 3.943-2.176 0-3.94-1.77-3.94-3.95s1.764-3.94 3.94-3.94" fill="#FFF"/><path d="M141.56 248.812c0-2.174 1.77-3.94 3.938-3.94 2.183 0 3.94 1.766 3.94 3.94 0 2.18-1.757 3.944-3.94 3.944-2.168 0-3.938-1.767-3.938-3.944" fill="#FFF"/><path d="M164.88 322.903c2.178 0 3.94 1.764 3.94 3.94s-1.762 3.94-3.94 3.94c-2.175 0-3.936-1.764-3.936-3.94s1.76-3.94 3.937-3.94" fill="#FFF"/><path d="M255.24 367.49c2.176 0 3.94 1.763 3.94 3.94 0 2.176-1.764 3.94-3.94 3.94-2.175 0-3.94-1.764-3.94-3.94 0-2.177 1.765-3.94 3.94-3.94" fill="#FFF"/><path d="M345.594 322.9c2.177 0 3.94 1.764 3.94 3.94 0 2.175-1.763 3.938-3.94 3.938-2.175 0-3.938-1.763-3.938-3.938 0-2.176 1.763-3.94 3.938-3.94" fill="#FFF"/><path d="M361.035 248.812c0-2.174 1.765-3.94 3.947-3.94 2.17 0 3.938 1.766 3.938 3.94 0 2.18-1.767 3.944-3.938 3.944-2.182 0-3.947-1.767-3.947-3.944" fill="#FFF"/></g></svg>