<svg width="512" height="512" viewBox="0 0 512 512" xmlns="http://www.w3.org/2000/svg"><title>san-diego-chargers</title><g fill="none" fill-rule="evenodd"><path d="M237.423 141.556c4.61 4.708 13.537 16.933 13.537 16.933-116.618-5.3-177.758 73.74-177.758 73.74l18.374 1.67C31.81 313.33 47.843 370.07 47.843 370.07c44.074-59.926 72.972-96.76 148.525-125.27 0 0-7.293-11.337-11.78-16.386 107.692-9.786 209.006 55.15 209.006 55.15s-9.84-23.582-12.27-28.882c48.372 41.167 87.59 115.708 87.59 115.708 4.357-67.658-30.49-221.583-231.49-228.834" fill="#024"/><path d="M461.13 342.364c-9.204-101.973-77.965-181.97-207.285-192.6l12.545 16.824c-122.266-8.994-175.835 59.67-175.835 59.67s8.268.842 15.404 1.4c-55.94 66-52.46 121.486-52.46 121.486 42.26-56.064 73.78-83.274 131.39-107.93 0 0-6.8-10.136-16.1-18.45 108.22-15.997 209.75 44.31 209.75 44.31S368.44 242.85 359.58 230c57.332 33.605 101.547 112.364 101.547 112.364" fill="#0073CF"/><path d="M278.672 173.35c-32.247-2.837-114.694-8.048-174.69 48.29 0 0 13.9 1.258 13.826 1.358-20.675 21.965-50.87 68.275-57.298 107.958 45.684-61.032 88.682-80.306 115.324-92.095-5.14-6.81-13.797-14.89-20.426-19.47 65.81-14.7 151.2 2.95 210.79 34.56-6.04-13.3-15.6-26.88-22.81-38.68 58.318 24.88 96.925 84.21 109.123 103.016-6.53-32.815-36.58-144.07-185.95-161.19 3.34 4.477 6.8 9.07 12.12 16.273z" fill="#FFB612"/></g></svg>