<svg width="512" height="512" viewBox="0 0 512 512" xmlns="http://www.w3.org/2000/svg" xmlns:xlink="http://www.w3.org/1999/xlink"><title>miami-dolphins</title><defs><path id="a" d="M.04.416h463.778V366.96H.04"/></defs><g fill="none" fill-rule="evenodd"><path d="M424.894 166.124c-3.5.846-12.12 1.11-15.796 1.112-3.676 0-8.872-.547-16.854 2.94-5.724 2.5-9.576 7.51-11.3 10.146.547-.77 1.06-1.384 1.49-1.71 0 0 5.817-6.71 17.702-5.837-.394.605-.73 1.456-.35 2.29.005.012.013.025.02.037.053.11.116.223.197.332.02.03.035.057.057.085 0 0 4.258-1.37 7.274-2.28 6.535-1.63 10.588-2.73 14.997-4.54 6.03-2.47 7.96-3.57 7.76-4.03-.2-.47-1.68.6-5.19 1.45" fill="#005778"/><path d="M382.435 178.613c-.43.325-.944.94-1.49 1.71-2.143 3.018-4.778 8.453-4.778 8.453 3.962-5.87 16.45-10.827 23.835-13.34-.08-.11-.145-.223-.197-.334l-.02-.037c-.38-.834-.043-1.685.35-2.29-11.884-.873-17.7 5.838-17.7 5.838" fill="#FFF"/><path d="M394.354 317.22c-2.525 5.127 4.042 20.97 10.046 25.685-4.395-1.317-27.35-7.846-31.032.644-4.048 9.34 18.387 43.6 20.933 50.01-10.34-10.27-38.67-33.28-42.69-30.65-4.01 2.63-3.02 15.46-1.98 21.98-3.89-4.74-10.57-12.34-16.34-10.07-5.77 2.27-5.05 24.29-5.43 33.67-4.76-11.04-12.53-33.26-19.72-32.45-7.19.814-15.26 15.93-16.8 21.71-1.1-5.784-5.8-18.503-12.92-18.503s-23.67 33.662-28.67 44.6c-.02-8.465 2.01-49.76-2.48-51.807-4.48-2.05-19.63 7.366-22.88 11.65 1.21-5.427 2.23-23.764-1.81-25.98-4.04-2.22-15.55-2.916-36.37 16.338 3.458-7.383 9.15-15.42 10.53-23.213 8.62-.446 17.16-1.423 25.767-3.105 18.785 13.596 41.88 21.62 66.84 21.62 63.046 0 114.153-51.11 114.153-114.17 0-4.94-.32-9.806-.924-14.573 4.224-3.98 8.28-7.84 12.054-11.44-.867 2.07-1.346 4.56-1.266 7.634.246 9.628 25.18 11.68 38.43 12.75-14.8 2.01-40.66 12.72-35.745 18.47 4.91 5.746 19.24 13.645 21.27 14.64-6.827 0-29.27 2.32-31.775 8.685-2.512 6.36 32.474 27.69 45.285 32.702-15.934-4.49-53.94-11.977-56.465-6.85" fill="#F58220"/><path d="M375.037 153.135c-7.466 1.463-15.17 3.61-23.127 6.575-17.975-11.8-39.474-18.675-62.58-18.675-63.04 0-114.146 51.114-114.146 114.162 0 15.18 2.965 29.66 8.343 42.903-6.495 4.814-12.717 8.63-19.092 11.575 4.66-5.55 8.708-16.222 3.444-19.068-3.6-1.948-20.33-2.72-20.33-2.72s18.83-12.658 18.39-21.813c-.44-9.148-30.48-13.836-42.35-16.47 10.472-2.206 44.402-9.872 45.86-16.7 1.46-6.82-10.607-11.668-15.678-14.048 5.682.073 20.087 2.486 22.03-4.548 2.22-8.064-33.253-29.067-41.336-31.98 1.81.426 35.592 8.31 47.943 5.64 9.195-1.996-1.52-14.37-3.29-15.83 2.713 1.322 18.2 4.513 22.635-2.84 4.43-7.354-10.61-36.64-19.03-49.053 7.474 7.46 41.63 31.76 46.72 27.624 5.1-4.14 1.2-17.5-1.53-21.9 5.505 5.15 10.92 12.04 17.916 11.89 3.505-.08 7.91-11.66 8.637-37.83 4.74 14.66 16.054 34.6 24.363 33.39 8.316-1.21 11.155-13.55 12.305-18.81.955 5.64 5.32 20.15 10.87 20.68 6.803 1.06 19.83-29.24 24.565-42.93.72 6.76-4.24 41.48 3.1 44.37 7.33 2.89 19.454-11.73 26.334-19.92-4.17 7.92-12.33 27.09-7.47 31.68s21.66-.22 28.205-5.62c-1.83 4.013-2.226 7.225-1.728 10.243" fill="#F58220"/><path d="M422.334 168.706c-4.413 1.808-8.462 2.912-15.004 4.534-3.01.91-7.272 2.28-7.272 2.28-.02-.026-.033-.06-.053-.086-7.38 2.513-19.856 7.467-23.832 13.33.16-.325 2.693-5.518 4.773-8.443 1.722-2.64 5.57-7.64 11.295-10.14 7.99-3.48 13.19-2.94 16.86-2.94s12.29-.26 15.8-1.11c3.51-.84 5-1.92 5.19-1.45.2.47-1.73 1.56-7.75 4.03zm42.298-16.096c-8.7.864-26.144 7.147-26.144 7.147-31.856-8.27-69.654-9.202-116.026 19.02-8.656 5.274-16.566 10.726-23.886 16.284-7.312 5.56-14.033 11.22-20.3 16.9-2.714 2.45-6.19 5.59-9.168 8.6-15.05 5.02-21.73.33-42.412 3.05-16.366 2.16-22.72 7.74-26.324 12.13-.465 1.268-.42 2.378.432 3.05 1.954 1.57 4.972.79 10.703.36 5.723-.42 14.4-.28 20.122 3.3 3.68 2.296 5.36 7.84 5.97 10.906-4.29 4.548-8.5 8.956-12.75 13.15-26.13 25.85-43.71 41.26-63.39 48.96-42.69 16.716-66.745-2.92-76.376-8.71l-.008.015c-11.688-7.5-27.19-9.98-35.507-11.542-8.318-1.56-12.865-5.582-14.64-7.09-1.774-1.51-3.14-4.05-5.16-3.477-.516.145-.97.304-1.294.61.323-.3.776-.46 1.293-.605.313 3.61 12.425 33.726 50.894 39.2 10.993 1.56 14.49 1.07 16.544.916-6.47-5.685-11.8-13.617-12.257-14.08 1.47 1.275 2.94 2.49 4.41 3.655 11.48 12.26 24.53 17.32 35.49 19.15.72.224 11.536.69 11.536.69 12.615-.267 29.553-3.977 45.274-8.538 46.158-13.393 90.68-53.4 90.68-53.4s-2.47 10.787-3.433 14.6c-.63 3.02-2.9 13.128-7.16 23.7 0 .01-1.276 3.197-3.13 7.1-2.74 5.77-6.59 13.036-6.59 16.075 0 .15.01.28.027.4 0 0 .033.33.166.76 3.47-1.84 8.19-5.037 13.55-9.56 8.4-7.01 19.05-17.677 31.38-32.88 27.693-34.17 32.094-57.56 51.565-75.757 8.242-7.713 29.914-19.63 41.01-23.5.125-.063.21-.103.245-.12.004 0 .004-.003.01 0l.007-.003c18.746-10.704 37.1-18.98 40.077-20.185 10.97-4.418 49.543-17.23 53.605-10.86h.006c-1.7-7.34-10.495-10.258-19.077-9.4z" fill="#008E97"/><path d="M268.935 286.837c-.632 3.02-2.9 13.125-7.16 23.702-15.082 8-39.194 18.26-61.004 23.37-42.95 10.07-70.45 1.33-75.17-.21l-.67-.22c1.05.222 11.49.68 11.49.68 2.26.042 31.58 1.192 63.77-10.89 26.32-9.61 52.2-25.31 68.75-36.452" fill="#FFF"/><path d="M272.372 272.237s-2.473 10.784-3.437 14.6c-16.553 11.143-42.432 26.84-68.75 36.454-32.193 12.09-61.515 10.94-63.77 10.89 12.618-.26 29.556-3.97 45.277-8.53 46.154-13.39 90.68-53.4 90.68-53.4" fill="#005778"/><path d="M381.864 253.375c-3.277 10.106-8.31 23.922-14.47 35.61-7.328 13.89-16.98 23.483-22.065 27.166-.85-.51-1.17-1.58-1.19-2.7-.04-1.98 4.3-12.19 6.01-33.68 5.49-4.13 10.42-8.06 14.78-11.68 5.54-4.61 11.25-9.61 16.92-14.71" fill="#008E97"/><path d="M128.093 301.524c-.006 1.363-.193 2.752-.552 4.17-.65 2.42-1.93 5.344-3.99 8.363-1.25 1.84-3.31 4.168-3.33 4.195-.34.02-1.92.086-3.26-.047-1.34-.133-2.77-.372-3.36-.485v-.007c-.362-.498 17.33-12.492 12.54-18.33.267-.04 1.895-.405 1.975 2.14" fill="#005778"/><path d="M481.438 169.683c-.006 0-.006.007-.006.007s-.712 1.05-3.092 3.13c-2.373 2.082-6.414 5.18-13.07 9.276-6.368 3.916-24.116 15.923-37.744 28.522-.505.466-36.94 34.86-37.85 35.703-.1.32-4.827 17.93-16.115 40.83-7.91 16.05-19.71 26.07-23.9 28.37-.26.14-2.7 1.68-4.32.65 5.09-3.68 14.74-13.275 22.07-27.164 6.16-11.69 11.197-25.506 14.47-35.61-5.67 5.1-11.38 10.09-16.92 14.705-4.36 3.62-9.296 7.55-14.787 11.68 0 .02-11.81 8.68-18.48 13.124 0 0-.01 0-.01.01-3.736 2.48-20.854 13.15-31.24 18.814-8.81 4.813-27.272 13.563-27.325 13.59h-.007c-9.61 8.117-17.14 11.907-19.16 11.4-1.23-.304-1.66-1.76-1.69-1.834 3.477-1.84 8.19-5.034 13.56-9.56 8.4-7.01 19.05-17.674 31.378-32.88 27.694-34.166 32.095-57.556 51.565-75.753 8.242-7.71 29.914-19.624 41.01-23.494.125-.066.212-.106.245-.12-12.696 7.247-25.565 15.605-33.96 23.616-16.27 15.207-21.832 32.966-37.945 57.226l-.406.63c54.29-41.18 96.247-88.87 139.62-104.11 1.385-.482 2.69-.934 3.95-1.36.05-.02.107-.033.15-.053 14.76-4.99 20.73-5.77 21.166-2.99.19 1.21-.78 3.01-1.14 3.67" fill="#005778"/><path d="M113.58 317.713v.007c-10.947-2.108-23.764-9.56-27.74-11.82 1.364-1.33 4.72-3.724 11.082-3.332 8.735.538 18.388 1.25 22.908-.107 3.883-1.16 4.62-2.85 6.282-3.07h.007c4.79 5.84-12.91 17.83-12.54 18.33" fill="#008E97"/><path d="M226.698 223.594c20.676-2.718 27.36 1.975 42.412-3.046 2.974-3.01 6.45-6.144 9.16-8.593-4.258 1.37-7.55 2.182-10.652 2.732-7.048 1.392-12.162 1.028-26.78 2.95-22.97 3.02-33.712 10.22-36.723 13.003-.91.84-1.605 1.568-2.56 2.897-.657.914-1.12 1.997-1.19 2.194 3.607-4.39 9.958-9.98 26.333-12.13" fill="#005778"/><g transform="translate(24 73)"><mask id="b" fill="#fff"><use xlink:href="#a"/></mask><path d="M234.644 244.633c-2.738 5.77-6.587 13.038-6.587 16.077 0 .146.007.28.026.4-35.02 13.68-63.577 13.036-63.683 13.043-48.155 2.28-86.046-17.326-86.046-17.326s0-.007-.007-.007c-.1 0-.365.007-.77.007-4.522 0-26.884-.346-41.568-7.167-16.07-7.453-25.31-19.135-29.33-27.918-2.99-6.542-3.14-8.63-2.19-9.494.08-.073.17-.14.26-.2v-.006c.286-.173.64-.292 1.024-.4.315 3.61 12.427 33.73 50.896 39.2 10.995 1.564 14.49 1.072 16.546.92-6.467-5.686-11.8-13.618-12.25-14.083 1.47 1.27 2.94 2.49 4.41 3.65 11.48 12.26 24.53 17.32 35.49 19.15.013 0 .027 0 .047.01h.003l.048.01.62.2c4.713 1.54 32.22 10.27 75.17.2 21.81-5.117 45.923-15.37 61.005-23.38 0 .005-1.278 3.19-3.13 7.092" fill="#005778" mask="url(#b)"/><path d="M459.705 89.01c-4.062-6.37-42.637 6.443-53.606 10.858-2.98 1.203-21.34 9.48-40.1 20.192-12.7 7.246-25.57 15.604-33.96 23.615-16.27 15.205-21.84 32.964-37.95 57.224l-.41.63c54.29-41.18 96.24-88.87 139.62-104.11 1.38-.49 2.69-.94 3.95-1.37l.15-.06c14.76-4.99 20.73-5.77 21.16-2.99.19 1.21-.78 3.01-1.14 3.672 0 0-.72 1.05-3.1 3.13-2.372 2.08-6.413 5.18-13.07 9.275-6.367 3.916-24.115 15.923-37.743 28.522-.506.464-36.94 34.86-37.85 35.7-.1.32-4.828 17.926-16.116 40.823-7.91 16.043-19.714 26.07-23.902 28.363-.266.14-2.7 1.68-4.328.645-.85-.51-1.168-1.59-1.19-2.7-.04-1.98 4.304-12.19 6.012-33.685 0 .02-11.805 8.68-18.485 13.13-3.74 2.48-20.856 13.15-31.24 18.815-8.813 4.813-27.274 13.563-27.334 13.59-9.61 8.117-17.144 11.907-19.158 11.4-1.24-.304-1.666-1.76-1.69-1.834-.13-.422-.17-.754-.17-.754-35.02 13.68-63.574 13.035-63.68 13.042-48.154 2.28-86.045-17.33-86.052-17.336-.1 0-.366.006-.77.006-4.52 0-26.885-.345-41.57-7.166-16.06-7.45-25.3-19.136-29.32-27.92-2.99-6.54-3.14-8.63-2.184-9.493.324-.31.78-.47 1.294-.61 2.02-.577 3.39 1.963 5.16 3.472 1.777 1.51 6.32 5.53 14.64 7.095 8.314 1.56 23.82 4.04 35.51 11.53 9.63 5.79 33.68 25.424 76.373 8.71 19.677-7.7 37.26-23.11 63.385-48.96 4.246-4.196 8.454-8.604 12.743-13.15-.61-3.067-2.283-8.61-5.972-10.905-5.725-3.577-14.4-3.717-20.124-3.298-5.73.422-8.746 1.21-10.7-.36-.7-.56-.824-1.45-.647-2.28.18-.85.566-1.65 1.026-2.388.12-.2.24-.39.37-.578.955-1.33 1.65-2.06 2.56-2.9 3.01-2.783 13.752-9.98 36.72-13.005 14.62-1.92 19.734-1.556 26.78-2.95 3.105-.55 6.396-1.36 10.66-2.73 6.27-5.68 12.99-11.336 20.3-16.894 7.32-5.557 15.23-11.01 23.887-16.282 46.372-28.222 84.17-27.29 116.025-19.02 0 0 17.442-6.283 26.143-7.147 8.584-.86 17.38 2.06 19.075 9.4zm-31.922 87.562c-14.798 2.008-40.657 12.72-35.744 18.47 4.91 5.744 19.23 13.643 21.27 14.64-6.83 0-29.27 2.32-31.78 8.683-2.52 6.363 32.47 27.69 45.28 32.704-15.94-4.49-53.94-11.98-56.47-6.85-2.53 5.12 4.04 20.97 10.04 25.68-4.397-1.32-27.35-7.85-31.034.64-4.048 9.34 18.387 43.6 20.933 50.01-10.34-10.27-38.67-33.28-42.69-30.65-4.01 2.63-3.02 15.46-1.98 21.98-3.89-4.74-10.57-12.34-16.34-10.07-5.77 2.274-5.056 24.294-5.43 33.675-4.76-11.037-12.53-33.256-19.72-32.445-7.195.815-15.265 15.93-16.8 21.71-1.098-5.783-5.804-18.502-12.924-18.502s-23.67 33.664-28.676 44.6c-.02-8.463 2.008-49.76-2.48-51.805-4.486-2.048-19.63 7.366-22.88 11.65 1.204-5.427 2.228-23.764-1.81-25.978-4.04-2.22-15.553-2.92-36.373 16.334 3.457-7.388 9.15-15.426 10.53-23.218 8.62-.445 17.16-1.42 25.766-3.104 18.786 13.595 41.88 21.62 66.842 21.62 63.04 0 114.15-51.114 114.15-114.17 0-4.94-.32-9.806-.927-14.573 4.23-3.98 8.284-7.836 12.06-11.433-.863 2.066-1.342 4.56-1.262 7.63.248 9.628 25.18 11.68 38.43 12.75zm-354.86 52.996c8.734.538 18.387 1.25 22.907-.107 3.883-1.16 4.62-2.85 6.282-3.07h.007c.26-.04 1.89-.4 1.97 2.14-.01 1.37-.2 2.76-.55 4.17-.66 2.42-1.94 5.35-4 8.37-1.25 1.84-3.31 4.17-3.34 4.2-.34.02-1.93.088-3.27-.045-1.348-.132-2.77-.37-3.37-.484-10.945-2.107-23.762-9.56-27.74-11.82 1.366-1.33 4.72-3.723 11.084-3.33zm70.956-11.96c-3.6-1.95-20.33-2.72-20.33-2.72s18.83-12.66 18.39-21.814c-.44-9.148-30.48-13.836-42.35-16.47 10.472-2.206 44.402-9.872 45.86-16.7 1.46-6.82-10.607-11.668-15.678-14.048 5.682.073 20.087 2.486 22.03-4.548 2.22-8.064-33.253-29.067-41.336-31.98 1.81.426 35.592 8.31 47.943 5.64 9.195-1.996-1.52-14.37-3.29-15.83 2.713 1.322 18.2 4.513 22.635-2.84 4.43-7.354-10.61-36.64-19.03-49.053 7.474 7.46 41.63 31.76 46.72 27.624 5.1-4.14 1.2-17.5-1.53-21.9 5.505 5.15 10.92 12.04 17.916 11.89 3.505-.08 7.91-11.66 8.637-37.83 4.74 14.66 16.054 34.6 24.363 33.39 8.32-1.21 11.16-13.55 12.31-18.81.956 5.64 5.32 20.15 10.87 20.68 6.804 1.06 19.83-29.24 24.566-42.93.72 6.76-4.24 41.483 3.1 44.37 7.33 2.89 19.455-11.73 26.335-19.92-4.17 7.922-12.33 27.09-7.47 31.68 4.86 4.585 21.66-.22 28.208-5.62-1.832 4.013-2.224 7.225-1.726 10.243-7.464 1.465-15.17 3.61-23.125 6.577-17.977-11.8-39.476-18.673-62.58-18.673-63.04 0-114.148 51.116-114.148 114.164 0 15.18 2.962 29.66 8.34 42.905-6.495 4.815-12.717 8.63-19.09 11.576 4.66-5.55 8.71-16.22 3.445-19.065zM463.8 90.158c-.077-1.732-.407-2.76-.407-2.76l-.006-.01c-2.108-7.364-9.626-11.912-19.864-11.912-1.088 0-2.196.055-3.29.165-7.845.78-21.795 5.51-25.935 6.96-13.002-3.28-25.19-4.88-37.22-4.88-6.22 0-12.403.44-18.57 1.3h.007l-2.544.346s-.99-3.22 1.6-10.74c1.34-3.9 3.19-7.49 3.19-7.49s-28.31 14.72-31.85 10.02c-3.53-4.7 12.3-42.05 12.3-42.05s-27.29 30.33-32.66 28.987c-2.1-.53-2.3-11.516-2.4-23.34-.14-16.01.418-34.32.418-34.32s-22.477 55.89-27.962 55.597c-4.752-.253-11.67-30.086-11.67-30.086s-4.34 25.706-12.14 28.85c-7.8 3.144-27.87-44.933-27.87-44.933s-.927 48.12-6.51 49.2c-5.58 1.08-23.35-16.902-23.35-16.902s8.33 23.97 5.51 27.128c-1.685 1.884-18.776-8.685-36.56-21.442-10.27-7.37-18.86-13.548-18.86-13.548s10.02 16.65 17.99 34.05c5.485 11.98 8.814 23.48 7.38 25.713-3.52 5.49-29.913-2.335-29.913-2.335s15.003 14.453 14.036 18.175c-.47 1.807-15.39.5-30.55-1.57-16.087-2.2-32.45-5.233-32.45-5.233s53.56 31.143 51.876 36.748c-1.33 4.44-34.663.807-34.663.807s28.98 13.24 28.86 17.617C139.608 162.65 83 176.97 83 176.97s51.27 10.727 52.25 16.446c.98 5.72-20.22 24.07-20.22 24.07s24.68 2.23 25.906 5.462c1.227 3.23-5.997 16-12.267 18.02-7.75 2.5-14.804 4.096-23.396 4.096-1.232 0-2.44-.036-3.62-.1.422-.55.842-1.117 1.21-1.657 2.11-3.094 3.685-6.4 4.542-9.557l.01-.035.01-.035c.44-1.734.666-3.46.67-5.13v-.145c-.06-1.9-.676-3.52-1.796-4.62-2.1-1.83-4.056-1.614-5.46-.99l-4.87 2.39c-.363.16-.77.313-1.27.462-.93.28-2.895.614-6.97.614-3.86 0-8.46-.29-12.9-.57 0 0-2.73-.152-3.257-.152-5.3 0-8.84 1.69-10.972 3.234l-1.16-.61c-10.84-5.76-23.46-8.09-31.342-9.547-.612-.11-1.2-.215-1.75-.324-8.702-1.71-13.47-6.876-13.854-7.29-.737-.8-1.7-1.83-2.95-2.56 0 0-2.266-1.415-5.623-.38-2.19.77-3.114 2.48-3.114 2.48-1.875 3.12-.084 7.7 2.278 12.86 2.685 5.87 11.11 20.524 31.27 29.88 6.6 3.067 15.283 5.25 25.81 6.486 7.92.93 14.61 1.05 17.275 1.053 2.567 1.25 10.467 4.903 22.21 8.575 12.897 4.03 33.05 8.823 56.136 8.93 0 0 8.194.105 12.617-.177.446 1.84-2.755 8.44-6.6 16.17-4.556 9.16-10.404 19.992-10.404 19.992s10.562-9.338 20.407-16.26c9.91-6.968 21.01-12.566 23.632-9.34 4.953 6.095-.338 31.25-.338 31.25s20.02-17.717 24.66-15.318c2.127 1.1 2.34 14.336 2.348 28.28.01 16.524-.414 34.074-.414 34.074s27.574-55.8 33.31-54.204c5.735 1.597 12.015 27.04 12.015 27.04S277.5 308.84 283.9 309.59c2.56-.312 8.055 9.74 12.94 20.018 5.36 11.264 9.95 22.274 9.95 22.274s.113-11.51.916-23.27c.725-10.622 2.075-21 4.41-21.57 4.92-1.21 19.188 17.913 19.188 17.913s-5.044-26.66-1.09-28.92c3.955-2.256 51.45 38.81 51.45 38.81s-31.17-57.76-27.378-62.17c3.79-4.41 37.08 4.59 37.08 4.59s-4.96-5.86-9.207-12.48c-4.438-6.92-8.13-14.65-6.397-16.51 1.575-1.69 18.93.07 36.863 3.548 20.675 4.01 34.124 6.87 34.124 6.87s-12.18-6.59-30.137-17.394c-15.55-9.358-29.224-19.89-28.64-21.598 1.26-3.68 38.392-7.215 38.392-7.215s-6.23-3.666-12.93-7.76c-7.27-4.447-15.03-9.98-15.03-12.01 0-1.772 9.31-6.162 21.59-9.94 14.726-4.53 28.345-7.563 28.345-7.563s-50.626-4.062-53.787-11.28c-2.16-4.93 1.807-11.36 4.714-15.514 2.907-4.15 7.067-7.92 7.067-7.92 13.83-12.77 31.434-24.53 37.058-27.99.4-.244.777-.484 1.164-.726 0 0 12.99-9.59 14.32-10.71 1.167-.976 4.137-4.092 4.805-8.057 0 0 .234-1.097.158-2.845z" fill="#FFF" mask="url(#b)"/></g></g></svg>