<svg width="512" height="512" viewBox="0 0 512 512" xmlns="http://www.w3.org/2000/svg"><title>minnesota-vikings</title><g fill="none" fill-rule="evenodd"><path d="M382.438 281.36c.757-4.102 3.033-8.662 1.06-13.068 2.176-1.203 4.62-2.443 6.975-3.645.176-2.76-.772-10.88-9.853-16.703 0 0 4.022-1.398 2.12-9.57-11.068.91-8.188-11.544-11.22-17.77 9.317-5.332 11.605-16.18 8.795-23.087-2.787 4.916-6.52 9.112-11.673 9.874-25.365-65.88-90.037-82.42-128.422-80.31 0 0-1.198 9.54-3.32 13.34-27.888-7.29-27.132-37.81-40.32-56.95-3.115-4.35-11.454-14.94-20.975-16.71-1.863-.26-2.523 1.06-2.375 1.82 19.71 13.37 21.758 36.02 23.65 57.87 1.594 18.4 13.148 28.83 25.124 37.81-.657.62-1.68 2.63-2.232 3.81-15.462 4.41-34.087 1.85-46.97-6.81-26.076-17.12-19.636-49.75-26.86-75.5-2.135-6.696-5.553-15.85-12.402-19.43-2.164-1.185-4.23.084-3.208 1.506 5 7.14 8.64 15.04 9.09 24 .15 23.1-5.473 47.607 3.4 69.294 13.175 29.43 37.512 50.664 67.096 56.91-.96 10.413.057 19.36 1.82 29.16-31.753 17.225-56.358 35.288-97.106 98.44-1.254 2.553-.042 4.98 3.38 1.794 39.95-37.195 105.816-55.61 147.168 6.334 19.883 31.41 18.154 53.526 16.9 74.16-.01 7.167-4.35 17.15 2.107 19.905 6.92 2.99 13.825-14.575 13.838-17.02 1.512-1.52 2.24-4.65 2.346-6.93 1.44-1.085 2.2-6.083 1.87-8.772 4.16-4.93 7.85-17.25 3.25-24.43 1.55-4.14 1.73-14.864-.83-20.635 1.43-6.28 2.9-20.503-2.25-27.01 7.46-8.414 17.19-15.267 26.938-19.425 2.42 18.37 6.047 41.795-10.024 54.4-1.07.72-.896 1.96 1.078 1.414 25.85-8.678 31.33-57.987 33.12-64.13 8.6-4.486 33.094-11.11 40.436-13.81 7.69-2.927 2.37-13.32-.634-17.004-1.503-1.916-5.844-2.86-10.862-3.1zm-3.997-41.12l.37 2.842c-5.31 1.3-13.23 6.475-14.96 2.983-1.53-3.076 5.41-3.59 6.62-5.108.66-.856.08-2.278-1.52-2.58-3.79.053-5.89.136-7.42.592-3.22 2.69-2.97 9.32-1.54 11.47-6.99 3.19-13.91 10.25-17.86 14.51-1.81-9.12 4.85-15.64 11.53-20.35 1.514-1.45.608-10.63-.61-15.34-1.252-.54-3.39.01-3.57-1.06-.02-1.03 8.32-1.23 11.79-1.38-.9-5.76 6.004-6.73 8.1-3.4 2.57 5.61.756 15.9 9.09 16.81zm-.39-34.67c-.45 4.404-3.33 8.353-7.27 10.63-11.07 4.858-25.77-2.278-35.93 4.708.15-3.797 2.09-9.084 7.85-9.477 14.53-.61 24.88 4.14 35.36-5.86zm-15.31 1.822c-19.86-1.063-41.6 1.96-59.64 7.427-2.73 27.96-35.67 38.46-54.96 17.02 0 0-7.302 1.61-29.41 11.69-2.73-3.65-5.04-12.56-.83-14.55 5.73-3.12 10.09-5.71 16.03-7.11 4.97-1.14 12.94 1.4 16.82 2.47 21.92 13.21 44.29 13.55 49.9-25.59 0 0 28.327-7 55.197-5.2 0 0 4.19 5.803 6.905 13.822zm-146.59 16.86v-4.863l8.34 1.21c-2.57.77-5.46 2.22-8.332 3.64zm27.74-93.405c84.71 2.166 109.16 58.32 109.16 58.32-16.237-1.367-37.102 1.64-53.513 5.162-8.77-22.3-22.04-31.46-72.77-27.04 6.96-12.72 15.38-21.07 17.13-36.45zm-35.32 13.515c-4.32-8.093-7.25-18.296-8.37-28.322.067-.383.315-.412.484-.265 1.007 5.426 1.93 9.847 4.254 13.707.45.446 1.24.268 1.06-.54-1.75-5.025-3.57-10.894-4.484-17.424.205-.285.415-.652.623-.117 1.596 4.12 4.104 11.16 5.985 13.22.27.36 1.21.27 1.124-.45-.752-2.19-2.4-6.48-2.93-8.63-.31-.71.29-.44.525-.24 4.67 12.87 11.743 19.66 20.688 25.13 3.228 2.21 2.145 11.23-5.152 12.76-6.212 1.066-10.92-4.096-13.793-8.808zm9 59.44c-1.79-2.306-9.77 3.96-10.81 2.83-.647-.518 3.594-2.136 2.575-2.884-2.73-1.823-7.375 1.822-8.035 1.064-.47-.73 1.722-1.064 1.06-2.126-1.926-1.965-8.81 1.9-9.4.76-.423-.825 5.047-1.836 3.944-3.343-1.807-1.748-7.427 1.995-15.63-1.746-30.455-16.055-38.53-48.086-39.46-61.415.09-.45.117-.57.39-.21 2.4 11.69 7.005 27.892 17.555 36.036.54.357 1.115-.404.76-.76-11.22-8.844-15.464-28.804-16.02-46.018-.04-.66.17-.72.403-.154.76 13.054 4.4 28.705 14.854 38.574.45.362 1.21-.22.76-.758-10.127-12.164-13.06-27.61-13.006-42.505.09-.595.48-.394.45-.206.608 17.77 8.61 32.84 23.166 44.23 27.138 20.44 72.44-1.16 98.18 7.53 38.44 11.31 26.44 45.19 14.918 51.1-2.626-2.75-4.38 1.06-5.457.46-1.164-.73 1.33-1.88-.19-2.8-1.43-.6-3.2 1.58-4.51.98-.76-.33 1.32-1.84.28-2.52-2.28-1.51-5.025 3.25-6.19 2.52-.923-.6 3.895-2.96 1.977-4.58-2.51-1.89-5.904 3.16-6.987 2.3-1.66-1.19 6.94-4.99 3.64-6.53-1.814-.92-7.55 5.07-8.79 3.95-.978-.9 7.03-4.2 4.753-5.83-1.89-1.06-11.65 5.897-13.093 4.778-1.08-.837 8.62-5.56 6.35-7.356-2.82-1.922-12.16 8.018-13.93 6.296-1.357-1.116 7.96-4.788 5.694-7.054-2.17-2.11-11.626 7.385-14.19 5.535-1.19-.786 9.528-5.05 6.68-7.194-2.8-1.615-14 7.556-15.015 6.13-.89-1.185 9.443-5.02 8.03-6.84-2.864-2.753-13.24 6.33-14.55 5.01-1.245-1.23 8.167-4.39 6.443-5.73-2.87-2.034-12.46 5.465-13.414 3.91-.888-1.405 7.973-2.576 5.81-5.42zm-70.26 116.786c-8.13 5.51-14.5 10.14-22.43 18.025-.71.538-1.052-.36-.34-1.262 48.25-72.13 105.778-95.27 119.77-98.83 2.74-.53 2.47.98 1.37 1.69-26.414 10.2-70.326 36.44-89.105 68.2-2.856 4.83-5.152 9.407-9.253 12.198zm36.38-10.945c-10.11 2.904-18.58 5.127-27.362 8.267-.79.337-2.106.17-1.62-.857 20.663-37.368 58.673-59.79 95.208-75.736 1.077-.54 1.86.705.97 1.064-27.073 13.19-46.647 39.49-62.933 64.17-.406.62-2.776 2.67-4.254 3.1zm9.76-.894c-1.43-.55-1.31-2.05-.95-2.95 17.434-21.41 31.05-48.61 57.58-59.55 2.097-.6 4.874-2.1 7.1-1.19 5.16 2.15 13.877 5.41 24.71 2.51 21.44-6.67 24.16-27.44 24.16-27.44 5.31-1.368 10.62-3.034 16.38-3.644-6.216 35.996-56.245 50.88-58.214 88.545-14.853 2.923-33.38-8.727-36.203-26.126-3.723 7.39-8.64 16.14-17.31 23.692-4.95 3.92-12.213 7.73-17.24 6.13zm97.285 44.9c-3.25-2.66-6.213-5.78-10.157-6.99-.45-13.98 9.14-29.84 12.323-34.71 1.225-1.94 2.51-.67 3.21 1.88 6.987 21.28-3.65 30.18-5.375 39.81zm9.1-8.05c3.44 2.16 1.65 19.68-2.124 28.7-2.66-3.84-5.84-7.06-7.53-8.8 2.333-5.74 8.04-20.63 9.65-19.91zm-5.76-69.71c-.555.26-2.114-1.8-2.94-1.37-.954.58 2.484 5.47 2.484 5.47.12 29.04-15.27 35.11-15.16 52.84-3.1-2.46-7.15-6-11.1-7.53-6.98-27.428 26.77-63.717 28.66-62.13.81.87-1.25 12.092-1.94 12.7zm-85.01 32.36c8.033-5.01 14.075-13.72 17.243-20.22l3.17 7c-4.093 5.02-10.086 11.92-16.116 14.15-2.195.38-5.72.45-4.297-.94zm39.746 19.24c-9.4-8.05-19.47-13.19-30.84-16.53 4.394-3.2 10.306-8.64 13.794-13.21.57.54 1.416 1.47 1.87 1.93-.453 11.54 5.377 20.52 15.53 25.84 1.616.71.54 2.853-.353 1.96zm-11.135-24.28c8.09 5.46 16.676 7.91 25.77 7.3v13.2c-25.294-2.98-25.77-20.51-25.77-20.51zm26.17 39.39c-2.686-1.62-13.44-11.7-9.5-14.93 4.218-4.38 22.896 8.05 22.896 8.05-.15 3.04-.91 5.92-.607 9.11 0 0-9.925-.26-12.787-2.24zm7.936 13.93c-1.366-2.58-4.052-5.7-2.52-7.69 2.483-2.25 13.835 1.62 19.65 7.99-.616 2.85-1.43 4.85-2.12 7.74-5.765-.917-11.98-1.98-15.01-8.056zm9.853 19.59c-1.195-2.17-2.988-7.06-1.06-8.66 2.374-1.31 12.375 3.56 15.712 9.632.54 1.44-2.2 6.63-3.28 6.81-1 .51-9.672-3.834-11.37-7.787zm15.614 20.81c0 2.12-1.75 4.89-2.6 4.8-1.062.31-9.25-4.45-9.857-9.17-.456-2.43-.73-6.85.483-7.33 2.26-.63 10.16 6.683 11.98 11.7zm-12.277 48.14c-2.51-1.45-1.036-7.09.76-10.18 1.51 1.06 2.752 2.87 4.17 4.36-.55 1.43-2.47 6.81-4.935 5.81zm6.38-8.77c-2.12-2.24-2.89-4.15-5.62-5.81-.9-.9-.115-3.07.6-2.89 2.146 1 5.383 4.47 6.21 7.53.21.76-.416 1.694-1.196 1.163zm2.302-5.47c-1.994-2.595-4.68-5.302-7.19-7.43-1.176-.69.11-2.86 1.405-2.55 3.047 1.06 5.495 5.308 6.862 8.65.18 1.08-.72 1.685-1.077 1.33zm2.04-5.83c-1.034-2.525-6.354-7.834-9.315-10.452-1.613-1.257 1.155-3.946 2.232-3.053 4.544 3.492 10.02 11.133 7.083 13.5zm1.78-6.295c-2.12-5.01-5.83-9.638-10.375-12.68-1.613-.894-1.437-4.765 0-4.4 5.303 1.82 10.637 8.335 11.847 13.65.54 1.97-.576 5.04-1.472 3.425zm6.176-23.56c1.75 1.282.394 10.73-2.758 14.98l-3.942-5.46c2.124-3.35 5.473-10.284 6.7-9.524zm-4.578-.81c-.72-3.165-2.632-4.87-3.55-7.793.71-1.068 5.81-12.167 6.885-11.81 1.86.95-.07 14.363-3.33 19.603zm3.03-56.048c2.88-12-1.817-22.634-6.21-32.5 1.57-7.79 1.897-14.287 2.875-22.093.59-1.66 2.64-1.99 3.34-.846 2.11 17.377 9.23 23.474 24.72 22.634l1.06 11.69c-9.85 4.107-18.19 12.61-25.77 21.116zm24.93-38.188c-14.326 4.3-22.546-4.498-21.29-24.23-1.712-2.75-6.37 3.49-6.975 1.51-.13-20.78 8.95-21.8 12.39-26.807 3.37.445 7.11 1.696 8.92 4.14 5.56 8.686 4.17 19.18 7.5 28.9.817 1.735 2.43 0 2.43 0-3.64-13.367.304-32.35-15.92-37.97 6.52-8.96 9.07-18.72 11.8-29.203 1.058-1.21 3.365-1.472 4.575-1.015-.454 4.1-2.12 7.746-1.518 12.45.36 2.807 5.696-3.38 8.797-4.86 4.35-2.246 11.41-1.693 17.474-.78 1.25.18 1.07 1.42-.183 1.6-5.91.61-14.992 1.78-15.475 4.35-.03 1.908 6.82 3.798 10.912 3.95.59 2.198 1.2 4.985.84 7.57-7.58 3.644-17.21 13.273-11.8 29.147-5.91 8.957-9.81 20.23-12.474 31.26zm26.01 4.926c-6.55 19.887-9.52 46.323-17.94 57.81-.16.222-.613.21-.423-.26 9.942-19.86 8.12-37.678 13.965-56.788.316-.72-.49-1.66-1.116-.585-6.646 8.776-7.8 43.63-13.4 54.372-.188.41-.81.496-.608-.327 6.66-25.22 1.42-49.462 11.786-68.8.396-.692-.793-1.79-1.82-.604-4.546 8.2-9.864 24.993-8.39 44.916.084 1.1-.816 1.27-.967.04-2.876-23.24-5.163-46.45 11.18-66.527 6.885-8.45 17.203-16.286 24.09-18.085 16.246-3.44 18.508 11.86 18.508 11.86-19.103 5.47-29.323 26.14-34.868 42.98zm5.36 1.642c-.963-.58-.87-2.54.054-2.89 5.64-1.55 21.67-5.23 22.48-3.464.3.49-21.36 6.975-22.53 6.354zm34.965-9.995c-11.98-.61-23.494.636-33.81 2.883 1.962-11.8 17.65-29.705 20.773-27.98 2.96 1.64-3.46 10.02.165 12.567 2.75 1.61 5.97.537 8.27 1.39 5.08 2.33 6.29 10.63 4.6 11.14z" fill="#000"/><path d="M300.63 198.763c-5.608 39.135-27.977 38.803-49.898 25.586-3.877-1.07-11.846-3.61-16.816-2.48-5.943 1.4-10.304 3.99-16.03 7.11-4.215 1.99-1.904 10.91.828 14.55 22.103-10.08 29.41-11.69 29.41-11.69 19.295 21.43 52.234 10.94 54.962-17.03 18.04-5.47 39.784-8.49 59.645-7.43-2.71-8.02-6.9-13.83-6.9-13.83-26.87-1.806-55.19 5.192-55.19 5.192" fill="#4F2683"/><path d="M396.63 281.74c-1.604-2.05-4.524-3.424-8.822-4.156.537-2.153.97-4.547.69-7.074 1.247-.652 3.925-2.02 3.925-2.02 1.353-.69 2.247-2.047 2.342-3.565.312-4.91-1.738-12.052-8.09-17.753.9-2.207 1.286-5.353.256-9.773-.48-2.08-2.41-3.5-4.53-3.32-3.14.25-3.85-.31-4.95-7.38-.23-1.46-.46-2.93-.8-4.37 8.81-6.89 10.87-17.5 7.66-26.45-1.38-3.85-6.19-3.01-7.71-.5-1.844 3.03-3.593 5.26-5.515 6.52-11.89-28.24-32.5-50.328-59.825-64.03-21.72-10.9-47.69-16.407-71.244-15.11-2.074.11-3.77 1.7-4.03 3.76-.3 2.39-.92 5.842-1.642 8.52-13.743-5.33-18.617-18.24-23.744-31.85-2.87-7.614-5.837-15.487-10.46-22.193-4.38-6.11-13.214-16.54-23.73-18.49-8.42-.72-8.61 7.826-5.567 9.62 18.11 12.28 19.974 33.83 21.78 54.673 1.58 18.283 12.1 29.285 22.903 37.86-13.68 2.93-29.5.255-40.31-7.007l-.03-.02-.007-.002c-16.668-10.942-19.14-28.64-20.925-48.266-1.155-12.747-4.182-24.902-4.2-24.95-2.71-8.508-6.55-17.76-14.473-21.918-3-1.63-6.47-1.2-8.45 1.04-1.694 1.913-1.82 4.65-.27 6.777 8.416 11.525 8.94 21.84 8.21 33.25-3.57 31.195-1.867 47.03 5.74 63.92 17.753 34.267 44.555 48.953 64.59 53.87-.44 8.71.423 16.417 1.6 23.503-28.72 15.81-54.617 34.34-95.958 98.406-3.404 4.49.78 14.65 9.916 7.285 25.27-23.516 56.566-35.657 83.716-32.48 22.695 2.66 41.85 15.45 56.928 38.02 18.77 29.67 17.848 53.33 15.535 77.756-.588 6.23-2.298 14.643 5.393 17.93 2.723 1.167 5.75.82 8.51-.98 5.62-3.686 9.886-13.455 11.014-18.11 1.66-2.33 2.28-5.29 2.514-7.184 1.66-2.66 2.04-6.58 2.047-9.04 4.43-6.37 7.39-18.04 3.51-26.317 1.286-5.494 1.15-14.5-.98-20.524.797-4.21 2.76-17.25-1.38-26.05 5.22-5.376 11.45-10.04 18.097-13.56 1.334 16.407 4.413 32.86-9.18 44.58-3.405 2.684-3.15 11.05 5.093 8.894 25.025-8.104 33-50.13 35.48-65.23 6.15-2.755 35.677-11.83 38.18-12.75 4.23-1.613 5.815-4.61 6.413-6.84 1.68-6.287-2.66-13.83-5.193-16.93zm-2.695 19.728c-7.342 2.697-31.838 9.324-40.437 13.81-1.79 6.143-7.266 55.452-33.12 64.13-1.97.543-2.148-.698-1.08-1.416 16.076-12.604 12.45-36.03 10.028-54.403-9.75 4.15-19.478 11-26.936 19.42 5.153 6.51 3.688 20.73 2.257 27.01 2.568 5.77 2.385 16.49.84 20.63 4.598 7.18.908 19.5-3.252 24.43.33 2.68-.424 7.68-1.868 8.77-.104 2.28-.833 5.41-2.343 6.93-.017 2.44-6.916 20.004-13.837 17.016-6.46-2.756-2.123-12.74-2.11-19.906 1.256-20.636 2.983-42.75-16.897-74.16-41.355-61.947-107.22-43.53-147.17-6.337-3.42 3.185-4.632.76-3.38-1.798 40.748-63.15 65.353-81.216 97.105-98.44-1.763-9.8-2.778-18.748-1.82-29.16-29.585-6.248-53.922-27.488-67.1-56.915-8.872-21.686-3.246-46.194-3.394-69.293-.45-8.96-4.09-16.858-9.09-24-1.02-1.42 1.05-2.69 3.21-1.504 6.85 3.58 10.27 12.733 12.41 19.43 7.22 25.755.78 58.382 26.86 75.505 12.89 8.66 31.51 11.215 46.97 6.81.56-1.187 1.58-3.19 2.24-3.81-11.98-8.974-23.53-19.41-25.12-37.804-1.89-21.85-3.942-44.5-23.65-57.864-.15-.76.51-2.084 2.374-1.82 9.52 1.764 17.86 12.355 20.97 16.705 13.19 19.137 12.434 49.66 40.32 56.952 2.126-3.8 3.327-13.34 3.327-13.34 38.38-2.11 103.05 14.43 128.416 80.313 5.154-.76 8.888-4.96 11.676-9.875 2.81 6.91.52 17.757-8.796 23.09 3.03 6.225.155 18.68 11.22 17.77 1.9 8.17-2.12 9.57-2.12 9.57 9.08 5.82 10.03 13.94 9.86 16.7-2.36 1.204-4.8 2.442-6.978 3.643 1.977 4.407-.303 8.968-1.06 13.07 5.02.247 9.36 1.188 10.864 3.106 3 3.68 8.32 14.072.632 17zM227.507 140.416c-8.943-5.47-16.016-12.255-20.69-25.123-.233-.196-.834-.466-.525.246.53 2.15 2.18 6.43 2.935 8.63.087.72-.856.8-1.126.45-1.87-2.06-4.38-9.11-5.98-13.22-.2-.54-.41-.17-.62.11.92 6.53 2.74 12.39 4.49 17.42.18.81-.61.98-1.06.54-2.32-3.86-3.24-8.28-4.25-13.71-.17-.15-.42-.12-.48.26 1.127 10.022 4.06 20.23 8.378 28.32 2.88 4.713 7.58 9.875 13.796 8.81 7.296-1.53 8.378-10.548 5.154-12.756zm-2.354 64.89c1.72 1.34-7.686 4.5-6.44 5.73 1.315 1.317 11.685-7.765 14.55-5.013 1.418 1.818-8.923 5.657-8.03 6.836 1.017 1.42 12.217-7.75 15.014-6.13 2.845 2.14-7.87 6.4-6.68 7.19 2.56 1.85 12.017-7.65 14.188-5.54 2.264 2.26-7.048 5.94-5.7 7.05 1.78 1.72 11.116-8.22 13.938-6.29 2.273 1.79-7.43 6.52-6.353 7.35 1.445 1.12 11.2-5.83 13.09-4.78 2.272 1.634-5.733 4.94-4.756 5.835 1.244 1.122 6.98-4.874 8.793-3.95 3.297 1.54-5.3 5.34-3.64 6.53 1.08.853 4.472-4.187 6.984-2.297 1.92 1.612-2.9 3.97-1.97 4.58 1.17.73 3.92-4.036 6.19-2.52 1.05.672-1.03 2.18-.28 2.52 1.32.596 3.09-1.578 4.52-.98 1.52.91-.97 2.06.19 2.8 1.078.597 2.83-3.207 5.45-.457 11.53-5.904 23.53-39.79-14.91-51.095-25.74-8.694-71.05 12.91-98.18-7.53-14.55-11.39-22.56-26.46-23.162-44.23.034-.19-.36-.386-.45.21-.053 14.896 2.877 30.34 13.006 42.504.45.54-.31 1.12-.76.76-10.46-9.87-14.1-25.523-14.854-38.576-.23-.567-.444-.505-.405.153.56 17.214 4.8 37.174 16.02 46.016.36.36-.22 1.12-.76.76-10.55-8.14-15.16-24.34-17.554-36.035-.27-.36-.3-.24-.385.21.93 13.33 9 45.36 39.46 61.42 8.196 3.74 13.82 0 15.624 1.745 1.106 1.502-4.364 2.512-3.94 3.34.59 1.14 7.47-2.726 9.4-.764.66 1.06-1.53 1.395-1.06 2.124.654.76 5.302-2.887 8.032-1.064 1.02.75-3.22 2.365-2.574 2.887 1.04 1.13 9.02-5.137 10.816-2.835 2.165 2.843-6.696 4.016-5.813 5.414.96 1.56 10.555-5.937 13.42-3.905z" fill="#FFF"/><path d="M351.292 239.716c.36-2.584-.247-5.372-.84-7.57-4.097-.15-10.944-2.04-10.912-3.948.482-2.567 9.562-3.744 15.47-4.352 1.257-.177 1.435-1.42.185-1.598-6.067-.915-13.122-1.465-17.48.784-3.097 1.478-8.433 7.662-8.792 4.86-.603-4.708 1.062-8.355 1.52-12.454-1.215-.454-3.518-.19-4.578 1.02-2.73 10.483-5.28 20.245-11.797 29.205 16.222 5.618 12.275 24.6 15.92 37.968 0 0-1.614 1.74-2.428 0-3.332-9.71-1.944-20.21-7.5-28.89-1.8-2.44-5.55-3.7-8.912-4.14-3.444 5.01-12.526 6.03-12.393 26.81.608 1.98 5.263-4.26 6.975-1.51-1.255 19.74 6.964 28.53 21.295 24.23 2.658-11.02 6.558-22.3 12.472-31.25-5.413-15.87 4.213-25.5 11.795-29.144zm9.957-12.893c-3.48.152-11.81.346-11.8 1.377.18 1.076 2.32.526 3.57 1.06 1.21 4.71 2.12 13.888.61 15.342-6.68 4.712-13.34 11.24-11.53 20.352 3.94-4.255 10.87-11.315 17.86-14.512-1.43-2.152-1.68-8.78 1.54-11.473 1.54-.46 3.64-.54 7.43-.6 1.6.3 2.172 1.72 1.52 2.58-1.22 1.52-8.15 2.03-6.62 5.11 1.72 3.49 9.65-1.69 14.96-2.99l-.37-2.84c-8.338-.91-6.52-11.2-9.096-16.82-2.09-3.33-8.996-2.36-8.094 3.4zm27.5 58.73c-2.3-.855-5.52.215-8.27-1.394-3.63-2.55 2.79-10.92-.17-12.57-3.12-1.73-18.81 16.17-20.77 27.98 10.31-2.25 21.83-3.49 33.81-2.88 1.69-.51.47-8.81-4.61-11.14zm-86.67-2.684c-.7-1.15-2.76-.82-3.34.84-.98 7.8-1.31 14.3-2.88 22.09 4.39 9.87 9.09 20.5 6.21 32.5 7.582-8.5 15.92-17.01 25.77-21.11l-1.06-11.7c-15.49.84-22.603-5.26-24.714-22.64zm56.35 20.93c-.93.34-1.02 2.31-.06 2.89 1.173.62 22.83-5.87 22.533-6.36-.818-1.77-16.847 1.91-22.48 3.46z" fill="#E9BF9B"/><path d="M216.136 219.39v4.862c2.878-1.423 5.76-2.875 8.338-3.647l-8.338-1.216zm83.38-25.06c16.413-3.52 37.276-6.53 53.513-5.164 0 0-24.45-56.154-109.16-58.32-1.75 15.383-10.17 23.736-17.13 36.45 50.73-4.418 64 4.74 72.77 27.033zm43.166 17.104c-5.754.39-7.694 5.68-7.846 9.476 10.158-6.987 24.862.15 35.93-4.708 3.942-2.28 6.824-6.226 7.278-10.63-10.482 9.993-20.83 5.25-35.362 5.862zm-114.695 67.49c2.827 17.397 21.352 29.047 36.205 26.124 1.97-37.664 52-52.55 58.213-88.543-5.757.61-11.066 2.277-16.372 3.644 0 0-2.72 20.76-24.16 27.43-10.83 2.9-19.545-.37-24.704-2.51-2.24-.91-5.01.59-7.11 1.19-26.53 10.93-40.15 38.14-57.58 59.54-.36.89-.49 2.39.95 2.94 5.03 1.6 12.29-2.21 17.24-6.13 8.67-7.56 13.59-16.31 17.31-23.7zm17.678-38.724c1.1-.707 1.37-2.224-1.367-1.687-13.995 3.57-71.522 26.7-119.77 98.838-.715.91-.372 1.8.343 1.27 7.94-7.88 14.3-12.51 22.44-18.02 4.1-2.79 6.4-7.37 9.26-12.19 18.78-31.76 62.69-57.99 89.11-68.19zm5.2 2.18c.893-.358.11-1.603-.966-1.063-36.54 15.946-74.55 38.368-95.21 75.736-.49 1.028.83 1.196 1.62.857 8.78-3.14 17.25-5.36 27.36-8.267 1.48-.433 3.85-2.48 4.25-3.096 16.28-24.684 35.86-50.98 62.93-64.166zm137.03 19.686s-2.264-15.297-18.506-11.86c-6.89 1.798-17.21 9.634-24.1 18.086-16.34 20.077-14.06 43.285-11.18 66.53.15 1.225 1.05 1.056.96-.044-1.47-19.92 3.85-36.718 8.39-44.92 1.02-1.184 2.212-.086 1.82.61-10.37 19.338-5.13 43.58-11.79 68.798-.2.825.42.737.61.33 5.593-10.747 6.75-45.6 13.4-54.375.623-1.07 1.43-.13 1.11.59-5.84 19.11-4.025 36.93-13.967 56.79-.19.48.265.49.426.27 8.42-11.49 11.384-37.92 17.937-57.81 5.543-16.83 15.763-37.51 34.864-42.98zm-91.892 1.12c-1.896-1.586-35.64 34.705-28.655 62.13 3.94 1.518 7.99 5.067 11.097 7.522-.11-17.726 15.283-23.805 15.16-52.848 0 0-3.436-4.893-2.482-5.47.826-.426 2.383 1.63 2.938 1.37.69-.607 2.76-11.834 1.95-12.703zM229.46 295.04l-3.167-7.003c-3.168 6.495-9.21 15.205-17.242 20.214-1.42 1.4 2.11 1.33 4.3.95 6.03-2.22 12.03-9.12 16.12-14.15zm19.696 30.497c-10.158-5.32-15.988-14.304-15.533-25.845-.453-.46-1.295-1.397-1.874-1.934-3.49 4.562-9.4 10.007-13.8 13.21 11.37 3.34 21.44 8.483 30.84 16.527.89.9 1.96-1.245.35-1.958zm14.278-15.018c-9.098.6-17.683-1.85-25.77-7.31 0 0 .474 17.53 25.77 20.5v-13.2zm29.45 1.43c-3.183 4.87-12.773 20.73-12.32 34.71 3.943 1.21 6.907 4.33 10.157 6.98 1.73-9.63 12.37-18.53 5.38-39.82-.7-2.55-1.98-3.82-3.21-1.88zm-15.654 23.77s-18.673-12.43-22.89-8.05c-3.94 3.22 6.813 13.31 9.5 14.92 2.863 1.98 12.787 2.23 12.787 2.23-.3-3.19.456-6.076.608-9.11zm20.47 38.58c3.775-9.02 5.566-26.54 2.123-28.71-1.61-.72-7.317 14.16-9.65 19.9 1.69 1.74 4.867 4.96 7.527 8.8zm-8.794-17.46c-5.815-6.37-17.17-10.25-19.652-8-1.53 1.99 1.158 5.11 2.52 7.69 3.034 6.07 9.246 7.14 15.01 8.05.692-2.89 1.503-4.9 2.123-7.75zM293 383.91c1.073-.18 3.816-5.37 3.28-6.81-3.337-6.07-13.338-10.94-15.715-9.63-1.927 1.6-.134 6.49 1.06 8.657 1.698 3.95 10.37 8.292 11.374 7.785zm2.51 2.65c.922 2.92 2.837 4.63 3.553 7.794 3.265-5.24 5.194-18.654 3.335-19.603-1.075-.35-6.173 10.74-6.888 11.81zm-10.24-1.323c-1.216.482-.94 4.898-.487 7.325.61 4.727 8.796 9.484 9.857 9.173.85.095 2.6-2.678 2.6-4.8-1.818-5.013-9.715-12.33-11.97-11.698zm11.67 19.447l3.943 5.46c3.153-4.25 4.508-13.698 2.758-14.984-1.22-.76-4.57 6.173-6.7 9.525zm-9.85-3.04c-1.437-.365-1.616 3.506 0 4.4 4.545 3.042 8.25 7.664 10.373 12.674.897 1.614 2.013-1.456 1.473-3.426-1.21-5.314-6.542-11.834-11.847-13.65zm1.512 9.864c-1.076-.896-3.844 1.794-2.232 3.052 2.96 2.618 8.28 7.927 9.318 10.452 2.934-2.366-2.54-10.007-7.085-13.505zm-.743 9.356c-1.3-.31-2.58 1.858-1.41 2.548 2.51 2.128 5.19 4.835 7.19 7.43.35.357 1.25-.25 1.07-1.328-1.37-3.344-3.82-7.594-6.87-8.65zm-1.53 6.75c-.72-.19-1.51 1.987-.61 2.884 2.73 1.665 3.5 3.572 5.62 5.81.78.532 1.41-.403 1.19-1.163-.83-3.065-4.07-6.532-6.21-7.53zm-.61 7.283c-1.8 3.092-3.27 8.726-.76 10.176 2.47.993 4.38-4.378 4.93-5.815-1.42-1.49-2.66-3.296-4.17-4.36z" fill="#FFC62F"/></g></svg>