<svg width="512" height="512" viewBox="0 0 512 512" xmlns="http://www.w3.org/2000/svg"><title>new-orleans-saints</title><g fill="none" fill-rule="evenodd"><path d="M370.36 218.755c-25.97-15.108-51.51-11.592-70.888-2.957-.864-6.38-2.52-13.376-5.294-21.56-4.108-12.186-8.61-23.83-12.574-34.106-5.222-13.5-9.194-25.057-11.372-32.79l-14.128-48.438-14.66 48.474c-2.25 7.695-6.106 19.324-11.3 32.844-3.945 10.257-8.412 21.92-12.492 34.107-2.746 8.2-4.403 15.19-5.25 21.57-19.387-8.6-44.945-12.03-70.88 3.12-21.17 12.42-32.525 33.96-29.614 56.26 2.674 20.26 16.523 36.23 36.163 41.64l14.63 4 3.59-14.75c.52-1.98 5.79-20.44 22.41-20.12 11.51.212 21.1 10.42 25.87 17.014-1.55 4.65-2.372 10.24-1.58 16.26l-6.49-8.686-11.78 8.796c-10.59 7.895-25.99 27.4-16.47 50.44 4.15 10.06 13.06 16.91 25.096 19.29 7.36 1.48 15.735 1.153 23.48-.58 3.04 9.81 8.616 21.67 18.72 32.27L256.2 432l10.635-11.176c10.1-10.6 15.615-22.466 18.674-32.305 7.74 1.69 16.1 2.02 23.46.54 12.015-2.42 20.91-9.3 25.05-19.36 9.456-23.08-5.997-42.54-16.586-50.44l-11.796-8.72-6.484 8.69c.775-6.03-.07-11.62-1.62-16.27 4.754-6.634 14.3-16.836 25.827-17.09 16.64-.36 21.94 18.064 22.496 20.19l3.582 14.747c0-.11 14.59-4.18 14.59-4.18 19.668-5.41 33.46-21.42 36.093-41.718 2.84-22.28-8.54-43.82-29.756-56.17" fill="#000"/><path d="M251.242 129.45c-1.792 8.435-6.403 20.46-11.753 34.36-3.91 10.182-8.36 21.72-12.36 33.69-3.84 11.5-5.41 20.08-5.41 28.067 0 2.56.28 5.048.56 7.59-14.788-10.167-43.93-24.084-75.724-5.463-17.65 10.312-27.125 28.047-24.745 46.292 2.13 16.19 13.2 28.95 28.895 33.276l4.65 1.262 1.163-4.688c.3-1.154 7.286-28.3 32.346-27.797 20.168.43 33.35 20.04 36.91 26.06-1.7 3.13-3.1 7.46-3.1 12.4 0 5.33 1.81 11.39 6.42 17.45-1.83 2.48-4.845 5.55-8.376 5.84-5.015.43-10.085-4.87-13.46-9.38l-2.82-3.79-3.766 2.85c-7.707 5.73-20.395 21.197-13.217 38.574 2.873 6.96 9.032 11.573 17.81 13.306 9.08 1.8 20.534.18 28.665-3.535 1.57 9.2 6.027 24.738 18.83 38.11l3.4 3.57 3.403-3.6c12.77-13.378 17.19-28.95 18.74-38.147 8.16 3.713 19.61 5.3 28.69 3.462 8.77-1.766 14.913-6.344 17.76-13.304 7.13-17.416-5.585-32.88-13.31-38.58l-3.767-2.81-2.81 3.75c-3.345 4.54-8.424 9.84-13.45 9.443-3.512-.29-6.54-3.355-8.394-5.844 4.575-6.053 6.394-12.074 6.394-17.374 0-4.976-1.438-9.34-3.133-12.475 3.55-6.06 16.68-25.707 36.847-26.14 25.05-.58 32.11 26.534 32.38 27.69l1.19 4.72 4.65-1.297c15.702-4.363 26.725-17.124 28.814-33.37 2.343-18.223-7.17-35.925-24.85-46.234-31.864-18.53-60.984-4.548-75.735 5.672.27-2.43.56-4.882.56-7.37 0-8.075-1.58-16.8-5.44-28.283-4.03-11.956-8.5-23.47-12.414-33.64-5.394-13.9-10.04-25.906-11.844-34.343l-4.63-21.63-4.572 21.63" fill="#FFF"/><path d="M256.204 410.664c18.036-18.964 18.235-42.868 18.235-42.868 7.99 7.968 39 13.304 45.96-3.677 7.62-18.64-11.74-32.99-11.74-32.99-18.79 25.16-31.38.5-31.38.5 14.3-15.47 3.56-29.39 3.56-29.39.94-2.82 16.78-30.54 42.18-31.1 29.25-.65 37.06 31.31 37.06 31.31 30.69-8.51 36.63-51.32 2.84-70.97-42.827-24.95-80.162 13.05-80.162 13.05 3.474-14.227 4.447-24.86-2.54-45.61-9.51-28.16-21.145-53.307-24.387-68.52-3.23 15.212-14.81 40.412-24.25 68.57-6.95 20.783-5.922 31.4-2.44 45.623 0 0-37.414-37.91-80.2-12.87-33.71 19.74-27.69 62.536 3 70.974 0 0 7.757-31.98 37.02-31.406 25.398.52 41.31 28.193 42.25 30.97 0 0-10.693 13.99 3.63 29.42 0 0-12.54 24.695-31.37-.47 0 0-19.34 14.46-11.67 33.06 7.007 16.946 37.992 11.537 45.963 3.533 0 0 .27 23.94 18.34 42.83" fill="#000"/><path d="M332.936 230.164c-34.85.036-63.46 39.66-63.46 39.66 1.235-6.473 16.166-35.658 2.673-70.537-13.5-34.88-16.27-48.926-16.27-48.926l-.06.42v-.4s-2.73 14.04-16.14 48.96c-13.41 34.9 1.563 64.05 2.815 70.54 0 0-28.68-39.57-63.55-39.53-34.857.04-63.89 39.75-31.67 63.22 0 0 9.43-29.31 41.92-29.38 23.91-.03 47.84 25.64 48.85 38.36 0 0-10.93 15.47 4.287 28.38 0 0-16.43 34.61-39.226 9.7 0 0-17.52 21.92 5.386 27.22 18.18 4.22 36.087-14.24 36.087-14.24s-1.954 29.17 11.51 45.106v-.145l.08.145c13.426-15.97 11.41-45.14 11.41-45.14s17.937 18.423 36.11 14.17c22.91-5.374 5.33-27.257 5.33-27.257-22.71 24.946-39.226-9.593-39.226-9.593 15.16-12.94 4.186-28.41 4.186-28.41.98-12.69 24.866-38.43 48.78-38.43 32.494 0 42 29.274 42 29.274 32.168-23.54 3.028-63.2-31.84-63.146" fill="#9F8958"/></g></svg>