<svg width="512" height="512" viewBox="0 0 512 512" xmlns="http://www.w3.org/2000/svg"><title>new-york-jets</title><g fill="none" fill-rule="evenodd"><path d="M461.932 255.07c0-56.075-91.92-116.163-207.015-116.163-110.19 0-207.016 60.455-207.016 116.162 0 55.7 96.83 116.16 207.02 116.16 115.1 0 207.02-60.09 207.02-116.17" fill="#203731"/><path d="M334.983 194.635v12.204h19.443l.125-.01c1.05-.07 2.75.2 3.14.83.34.58.23 2.69-2.45 6.88-.03.06-18.72 31.18-25.66 42.74l-27.37-43.79c-2.27-3.49-2-4.878-1.73-5.38.5-.93 1.26-1.18 2.84-1.28h14.15v-12.21l-105.42-.018v12.15h13.33c2.71 0 4.59.55 5.7 1.67 1.87 1.86 2.25 5.8 2.25 11.14v44.773l-53.38-69.69h-52.66v12.765h17.293c1.833 0 3.13.35 3.808 1.04 1.34 1.325 1.34 4.71 1.34 7.976v70.306c0 11.64-1.24 14.83-5.81 14.87h-16.78v11.26H183.6V301.48h-15.94c-2.68.025-4.6-.102-5.29-.78-1.484-1.477-1.612-7.976-1.612-13.96v-61.87l72.738 88.108h11.404s.08-98.076 0-99.82c-.13-2.663.6-5.71 5.36-6.32h11.328c5.245-.024 8.674 6.32 12.2 12.313 0 0 27.24 46.31 30.866 52.44v22.34c0 7.586-3.366 7.586-4.795 7.586h-12.78v11.39l67.01.004V301.4h-12.23c-4.74-.254-6.39-1.617-6.2-8.655v-23.07l32.703-54.853c4.677-7.26 5.173-8.013 11.59-7.93H391V194.63h-56.017" fill="#FFF"/><path d="M338.03 197.683v6.11h16.267s12.044-1.003 3.51 12.39L329.61 263.12l-30.004-48c-7.788-12.367 3.826-11.327 3.826-11.327h10.973v-6.11l-99.32-.015v6.06h10.277c9.862 0 10.99 6.355 10.99 15.85v53.76l-57.937-75.628h-48.102v6.675h14.247c9.09-.017 8.098 7.143 8.197 14.112v68.25c0 9.492-.392 17.85-8.832 17.913h-13.75v5.164h50.36v-5.298H167.64c-8.623.07-9.948-1.24-9.948-17.78v-71.09l77.232 94.28h6.307v-91.028c0-9.488.19-14.756 9.01-15.115h12.54c6.7.484 10.26 8.228 14.99 16.346l29.9 50.61v23.17c0 7.2-2.82 10.63-7.83 10.63h-9.73v5.29h60.91v-5.415h-9.28c-7.43-.38-9.35-4.21-9.15-11.788v-23.81l30.81-52.04c6.886-10.33 7.267-13.076 16.57-12.95h8.007v-6.172h-49.93" fill="#203731"/><path d="M301.79 311.368c0-13.78-20.817-28.545-46.873-28.545-24.948 0-46.88 14.857-46.88 28.545 0 13.683 21.928 28.536 46.88 28.536 26.052.002 46.873-14.76 46.873-28.536" fill="#203731"/><path d="M298.645 309.83c-1.524-11.792-20.37-23.85-43.728-23.85-22.36 0-42.112 12.122-43.73 23.85h87.458" fill="#FFF"/><path d="M211.186 312.876c1.59 11.736 21.36 23.878 43.73 23.878 23.37 0 42.234-12.077 43.748-23.878h-87.478" fill="#FFF"/><path d="M239.103 321.555c-5.923 0-10.738-4.563-10.738-10.184 0-5.63 4.815-10.19 10.738-10.19h31.628c5.93 0 10.72 4.56 10.72 10.19s-4.79 10.19-10.72 10.19h-31.62" fill="#203731"/><path d="M272.38 306.827l-.226-.902h-2.99c.116.317.196.64.28.967.24.957.41 1.944.494 2.955h-5.347c-.07-.94-.22-1.865-.43-2.72l-2.89.038c.27.86.45 1.755.56 2.68h-5.41v-2.55h-2.99v2.55H248c.114-.926.28-1.824.553-2.68l-2.88-.037c-.21.854-.35 1.776-.438 2.72h-5.36c.098-1.012.253-2 .512-2.956l.265-.967h-2.988l-.214.902c-.338 1.486-.508 3.032-.508 4.626 0 1.853.238 3.65.676 5.368l3.01.04c-.397-1.27-.655-2.59-.767-3.96h5.37c.07.95.23 1.9.45 2.8l2.84-.03c-.26-.89-.44-1.82-.52-2.76h5.44v2.64h2.99v-2.64h5.43c-.085.94-.266 1.87-.53 2.76l2.844.038c.228-.904.38-1.85.45-2.796h5.363c-.115 1.36-.37 2.69-.764 3.96l2.99-.04c.45-1.72.698-3.515.698-5.37 0-1.593-.183-3.14-.51-4.625" fill="#FFF"/><path d="M391.326 234.81c-3.1-5.86-11.296-9.203-23.685-9.673-9.11-.3-16.25.173-21.91 1.627l-149.07.065c4.33-8.11 7.62-14.24 7.62-14.24h-36.77l-25.24 47.51c-2.05 3-2.33 3.17-4.43 2.95-.6-.06-1.01-.15-1.28-.23.38-1.31 1.88-3.83 2.43-4.75-.013.03 8.79-14.46 8.79-14.46h-34.29l-1.027 1.42c-9.41 12.96-12.202 23.41-8.265 31.06 3.765 7.34 13.02 11.02 27.505 10.93 14.62-.09 23.82-.78 31.14-5.558h74.37l19.17-35.79h16.52l-19.077 35.73h37.96l11.934-22.385h16.07l-.83 2.035c-2.935 7.21-1.355 11.99.476 14.727 3.6 5.36 11.33 8.083 22.968 8.11 19.61-.04 32.12-1.84 38.116-10.96 4.96-7.54 5.7-14.4 2.08-19.34-.99-1.4-2.566-2.61-4.43-3.657h10.805l1.015-1.625c3.798-6.11 2.82-10.715 1.34-13.51" fill="#203731"/><path d="M141.654 247.05h-26.42c-17.766 24.44-9.044 36.713 16.447 36.555 23.21-.14 31.36-1.626 41.04-19.312l25.84-48.277h-28.97l-24.39 45.866c-2.28 3.356-3.56 5.022-7.71 4.583-6.57-.69-4.78-4.532-1.45-10.14l5.63-9.275" fill="#FFF"/><path d="M259.544 277.984h30.174l19.02-35.43h13.905l6.66-12.36H268.22l-6.51 12.066h16.89l-19.057 35.724" fill="#FFF"/><path d="M322.12 262.36c-4.612 11.335 2.37 18.07 20.283 18.11 19.387-.037 30.246-1.825 35.24-9.42 3.404-5.162 5.346-11.138 2.17-15.443-2.17-3.106-9.983-5.81-17.375-7.248-4.712-.92-6.365-2.05-6.04-4.83.297-2.53 3.444-3.11 5.802-2.42 1.9.56 2.733 2.93 2.425 5.4h22.446c6.08-9.79-.96-17.25-19.57-17.95-23.02-.76-31.79 3.48-36.43 15.2-2.31 5.43-1.93 9.61 1.44 11.83 4.21 2.75 15.84 4.502 19.31 5.79 2.11.78 2.4 3.36 1.22 4.882-1.38 1.75-4.68 2.583-6.77.96-1.43-1.114-1.19-2.498-1.68-4.883h-22.46" fill="#FFF"/><path d="M177.387 278.054h57.75l6.477-12.073h-31.6l3.032-5.79h28.1l6.606-12.31h-26.424l2.653-5.55h28.57l6.43-12.07h-56l-25.59 47.8" fill="#FFF"/></g></svg>