<svg width="512" height="512" viewBox="0 0 512 512" xmlns="http://www.w3.org/2000/svg"><title>pittsburgh-steelers</title><g fill="none" fill-rule="evenodd"><path d="M255.02 105.06c-82.82 0-149.96 67.136-149.96 149.953 0 82.82 67.14 149.96 149.96 149.96 82.814 0 149.95-67.14 149.95-149.96 0-82.817-67.14-149.954-149.95-149.954zm.045 276.978c-70.186 0-127.087-56.894-127.087-127.077 0-70.18 56.9-127.08 127.087-127.08 70.182 0 127.08 56.9 127.08 127.08s-56.897 127.08-127.08 127.08z" fill="#A5ACAF"/><path d="M255.02 105.06c-82.82 0-149.96 67.136-149.96 149.953 0 82.82 67.14 149.96 149.96 149.96 82.814 0 149.95-67.14 149.95-149.96 0-82.817-67.14-149.954-149.95-149.954zm.045 276.978c-70.186 0-127.087-56.894-127.087-127.077 0-70.18 56.9-127.08 127.087-127.08 70.182 0 127.08 56.9 127.08 127.08s-56.897 127.08-127.08 127.08z" stroke="#000" stroke-width="3"/><path d="M189.565 252.088c-.025-1.972-.468-2.59-1.99-2.59-1.908 0-1.815 1.724-1.815 3.487v.793h3.805v-1.69zm-16.65-2.59c-1.9 0-1.816 1.724-1.816 3.487v.793h3.81v-1.69c-.03-1.972-.48-2.59-2-2.59zm39.456 2.59c-.03-1.972-.46-2.59-1.99-2.59-1.91 0-1.82 1.724-1.82 3.487v.793h3.82v-1.69zm42.7-124.208c-70.18 0-127.08 56.9-127.08 127.08s56.9 127.08 127.09 127.08 127.08-56.893 127.08-127.076c0-70.184-56.89-127.08-127.08-127.08zM149.45 266.65c-4.927 0-6.684-3.245-6.684-7.866v-1.898h4.1v1.515c-.082 2.53.56 4.36 2.588 4.36 1.73 0 2.547-1.07 2.547-3.04 0-1.52-.59-2.55-1.64-3.41-2.14-1.97-4.8-3.38-6.48-5.97-.67-1.17-1.05-2.59-1.05-3.97 0-4.412 2.12-6.83 6.45-6.83 6.54 0 6.37 5.94 6.4 8.49h-3.96c.033-2.313-.145-4.59-2.405-4.59-1.376 0-2.253.66-2.253 2.417 0 1.966 1.06 2.73 2.348 3.69 1.35 1 3.84 2.936 4.98 4.248 1.41 1.62 1.853 3.17 1.853 5.42 0 4.9-2.764 7.456-6.774 7.456zm15.563-16.8h-1.617v12.07c.087.833 1.147.73 1.616.66v3.514c-2.257.315-5.424.558-5.424-3.062v-13.18h-1.555v-3.278h1.52v-1.597l3.844-3.75v5.348h1.617v3.278h-.002zm13.71 7.38H171.1v2.828c.027 2.556.847 3.042 1.993 3.042 1.405 0 1.82-1.21 1.755-3.665h3.816c.144 4.353-1.383 7.11-5.276 7.11-4.396 0-6.187-2.45-6.1-8.174v-5.11c-.176-4.58 1.816-7.2 5.567-7.2 5.31 0 5.866 3.24 5.866 8.56v2.627h.01zm3.223 1.143v-5.114c-.178-4.59 1.818-7.21 5.574-7.21 5.304 0 5.86 3.24 5.86 8.55v2.62h-7.622v2.83c.027 2.55.85 3.04 1.99 3.04 1.408 0 1.82-1.216 1.76-3.666h3.81c.15 4.354-1.376 7.11-5.273 7.11-4.393 0-6.183-2.45-6.1-8.174zM253.69 381.81c-6.74-35.853-19.23-55.785-64.196-63.426 44.966-7.636 57.456-27.565 64.197-63.415-6.74-35.86-19.23-55.79-64.19-63.43 44.97-7.64 57.46-27.57 64.2-63.43 6.74 35.85 19.23 55.78 64.21 63.42-44.97 7.634-57.46 27.564-64.2 63.42 6.748 35.85 19.235 55.78 64.206 63.412-44.97 7.64-57.462 27.572-64.202 63.425zm-56.442-141.66h3.81v25.88h-3.81v-25.88zm13.306 22.95c1.402 0 1.817-1.21 1.758-3.664h3.81c.146 4.353-1.375 7.11-5.278 7.11-4.397 0-6.183-2.45-6.093-8.174v-5.114c-.17-4.587 1.81-7.206 5.57-7.206 5.31 0 5.87 3.24 5.87 8.553v2.625h-7.62v2.83c.03 2.553.85 3.04 2 3.04zm12.804-13.082c.473-1.413.942-2.208 1.5-2.76 1.082-1.073 1.816-1 2.375-1.036v5.31c-2.114-.236-3.724.382-3.788 3.248v11.25h-3.807v-19.464h3.663v3.45h.06v.002zm10.666 13.08c1.082 0 1.85-.932 1.586-2.174-.057-1.104-1.14-1.722-1.875-2.31l-2.084-1.7c-1.9-1.546-3.13-3.343-3.13-6.138 0-3.002 2.02-4.724 5.68-4.724 3.7 0 5.4 2.276 5.31 6.453h-3.81c.09-2.175-.44-3.005-1.76-3.005-.91 0-1.61.48-1.61 1.588 0 1.14.71 1.654 1.44 2.245l3.11 2.485c.97.655 2.498 2.517 2.618 3.828.324 3.385-.38 6.9-5.66 6.9-2.02 0-5.804-.998-5.365-6.936h3.81c-.29 3.59.886 3.49 1.76 3.49zm83.91 55.13c-6.74-35.85-19.232-55.784-64.204-63.423 44.972-7.64 57.46-27.568 64.204-63.428 6.74 35.86 19.23 55.787 64.203 63.428-44.972 7.64-57.46 27.57-64.203 63.422z" fill="#FFF"/><path d="M149.386 249.532c-1.29-.962-2.345-1.724-2.345-3.69 0-1.76.88-2.415 2.26-2.415 2.26 0 2.44 2.274 2.41 4.587h3.96c-.03-2.55.15-8.486-6.39-8.486-4.33 0-6.45 2.413-6.45 6.833 0 1.38.39 2.8 1.06 3.97 1.68 2.59 4.34 4 6.48 5.97 1.056.86 1.646 1.9 1.646 3.42 0 1.97-.82 3.04-2.545 3.04-2.025 0-2.67-1.83-2.585-4.35v-1.51h-4.1v1.9c0 4.62 1.756 7.87 6.682 7.87 4.01 0 6.775-2.55 6.775-7.45 0-2.25-.443-3.8-1.85-5.42-1.14-1.31-3.63-3.25-4.98-4.25zm14.007-8.316l-3.84 3.752v1.596h-1.524v3.28h1.55v13.18c0 3.62 3.16 3.378 5.42 3.067v-3.51c-.47.08-1.53.18-1.62-.65v-12.08H165v-3.27h-1.62v-5.35h.004zm9.463 4.834c-3.75 0-5.743 2.62-5.566 7.206v5.114c-.09 5.726 1.7 8.173 6.1 8.173 3.893 0 5.42-2.756 5.277-7.11h-3.815c.06 2.454-.352 3.664-1.758 3.664-1.146 0-1.966-.484-1.99-3.042v-2.828h7.62v-2.625c-.004-5.312-.56-8.552-5.868-8.552zm2.057 7.728H171.1v-.793c0-1.763-.084-3.487 1.816-3.487 1.524 0 1.967.62 1.993 2.592v1.688zm18.405 5.656h-3.81c.057 2.453-.35 3.663-1.76 3.663-1.14 0-1.963-.484-1.988-3.042v-2.828h7.62v-2.625c0-5.314-.557-8.555-5.863-8.555-3.753 0-5.747 2.62-5.574 7.207v5.113c-.086 5.726 1.706 8.172 6.103 8.172 3.898 0 5.42-2.76 5.272-7.11zm-7.558-6.452c0-1.76-.093-3.486 1.816-3.486 1.52 0 1.96.62 1.99 2.592v1.69h-3.806v-.796z" fill="#000"/><path d="M197.248 240.147h3.81v25.882h-3.81v-25.89z" fill="#231F1F"/><path d="M216.176 257.227v-2.625c0-5.314-.555-8.555-5.863-8.555-3.752 0-5.742 2.62-5.567 7.207v5.113c-.09 5.726 1.7 8.172 6.094 8.172 3.902 0 5.426-2.76 5.282-7.11h-3.815c.062 2.45-.35 3.66-1.757 3.66-1.14 0-1.965-.49-1.996-3.04v-2.83h7.622zm-7.62-4.245c0-1.76-.088-3.486 1.82-3.486 1.528 0 1.963.62 1.995 2.592v1.69h-3.81v-.796zm11.082-6.415v19.464h3.81v-11.25c.06-2.86 1.67-3.48 3.785-3.24v-5.31c-.56.04-1.293-.03-2.373 1.04-.558.56-1.027 1.35-1.498 2.76h-.06v-3.45h-3.664zm8.815 13.04c-.44 5.938 3.345 6.936 5.368 6.936 5.28 0 5.99-3.515 5.66-6.9-.12-1.31-1.64-3.173-2.61-3.828l-3.1-2.484c-.73-.59-1.43-1.1-1.43-2.24 0-1.11.708-1.59 1.62-1.59 1.32 0 1.85.83 1.76 3.01h3.81c.09-4.17-1.61-6.45-5.31-6.45-3.664 0-5.684 1.73-5.684 4.73 0 2.8 1.23 4.59 3.14 6.14l2.084 1.7c.735.59 1.815 1.21 1.875 2.31.26 1.246-.508 2.18-1.59 2.18-.88 0-2.05.1-1.76-3.49h-3.816z" fill="#000"/><path d="M253.69 254.967c6.745-35.855 19.232-55.785 64.203-63.422-44.968-7.64-57.458-27.57-64.202-63.427-6.74 35.857-19.23 55.787-64.19 63.427 44.97 7.637 57.46 27.567 64.2 63.422v-.006.01" fill="#FFB612"/><path d="M253.69 254.967v-.006.01c-6.74 35.86-19.23 55.79-64.196 63.42 44.966 7.64 57.456 27.57 64.197 63.43 6.74-35.85 19.24-55.78 64.21-63.42-44.97-7.634-57.46-27.563-64.2-63.413" fill="#00539B"/><path d="M317.934 191.375c-6.74 35.86-19.232 55.787-64.204 63.43 44.972 7.637 57.46 27.572 64.204 63.42 6.74-35.848 19.23-55.783 64.203-63.42-44.972-7.643-57.46-27.572-64.203-63.43" fill="#C60C30"/></g></svg>