<svg width="512" height="512" viewBox="0 0 512 512" xmlns="http://www.w3.org/2000/svg"><title>san-francisco-49ers</title><g fill="none" fill-rule="evenodd"><path d="M256.574 133.74c113.533 0 205.57 54.325 205.57 121.337S370.106 376.41 256.574 376.41c-113.53 0-205.57-54.32-205.57-121.333 0-67.012 92.038-121.336 205.57-121.336" fill="#FFF"/><path d="M256.128 139.987c110.077 0 199.312 51.927 199.312 115.982 0 64.05-89.235 115.98-199.312 115.98-110.077 0-199.313-51.93-199.313-115.98 0-64.06 89.236-115.99 199.313-115.99" fill="#090908"/><path d="M257.022 150.248c96.008 0 173.84 47.932 173.84 107.06 0 59.127-77.832 107.06-173.84 107.06-96.01 0-173.84-47.933-173.84-107.06 0-59.128 77.83-107.06 173.84-107.06" fill="#C6A463"/><path d="M257.468 155.6c88.358 0 159.986 44.737 159.986 99.923 0 55.185-71.628 99.922-159.986 99.922-88.358 0-159.986-44.737-159.986-99.922 0-55.186 71.628-99.923 159.986-99.923" fill="#C81D3C"/><path d="M382.46 242.478h-.438v-3.634h-63.46c-1.36-7.13-5.47-13.74-11.33-18.9-5.77-6.627-14.16-11.61-23.703-13.5l-3.97-.813c-9.16-1.92-16.39-3.44-45.5-3.29 0 0-5.6-.19-11.03-.91-1.38-.34-2.59-.76-3.62-1.21.4-2.42 4.83-5.75 9.83-6.39.52-.09 32.02-5.88 64.44 15.08l.79.52h21.31v-32.55h-3.647v-3.633H282.9l-4.926 3.76c-8.417-2.105-49.657-11.11-85.26 4.446-14.965 6.17-24.25 17.824-23.594 29.654.335 5.965 3.197 11.165 8.14 15.203 3.64 4.53 9.358 8.07 16.807 10.21 10.545 3.03 19.47 4.28 28.125 4.773v14.84h3.65v3.637h11.112c4.604 0 5.79 2.55 6.07 3.498-14.188-.925-35.77-4.96-51.653-19.634l-.59-.64h-.11c-.873-.837-1.74-1.7-2.58-2.607l-.95-1.03h-15.99v46.336h3.65v3.63h13.04c1.915.133 7.976-.543 12.16-12.734 6.78 2.353 23.5 7.38 44.09 7.94v28.82c-.72 9.677-22.08 12.71-29.527 13.002l-3.074.12v14.33h3.64v3.63h93.78v-13.71l-2.393-.636c-.43-.11-.834-.22-1.25-.333v-3.132l-2.93-.25c-5.27-.47-9.33-1.38-12.476-2.494-5.89-3.305-6.9-5.98-7.024-6.413v-15.37h27.485c2.9.44 5.386 1.71 7.496 3.36 3.96 4.865 5.76 10.43 5.79 10.52l.706 2.25 2.36.013h.074c.33.82.506 1.348.51 1.376l.7 2.255h14.77V266.1h-3.64v-3.64h-14.71l-.53 2.552c-3.857 18.523-25.313 18.25-44.395 15.474 3.738-1.015 7.498-2.242 11.247-3.73 10.216-4.053 17.88-9.566 22.66-16.02h41.19c2.88.09 5.32.804 7.37 2.146 4.32 6.33 3.89 15.634 3.89 15.745l-.18 3.37h3.83l-.006.262-.185 3.37h16.42v-43.16h-3.21" fill="#090908"/><path d="M316.762 253.893H350.9c19.498.62 18.088 24.904 18.088 24.904h9.832v-36.755H319.9s-.14 8.225-3.138 11.85m-69.484 31.395v28.224c-1.014 14.8-32.593 16.03-32.593 16.03v8.06h87.37v-8.05c-25.964-2.24-26.08-15.45-26.08-15.45v-18.85h31.035c14.196 2.02 19.652 19.78 19.652 19.78h9.2v-49.36h-8.89c-6.178 29.73-51.82 16.357-55.196 17.1 0 0-11.242 2.805-24.498 2.53m27.26-48.56c11.86 3.47 12.962 12.504 6.018 20.96-8.885 8.37-22.456 8.718-22.456 8.718s-45.694 4.93-72.36-23.865h-11.386v39.94h9.978s6.082.93 9.982-13.7c0 0 46.92 19.06 91.55 1.37 43.225-17.14 26.774-54.674-2.968-60.56-11.44-2.26-15.987-4.212-48.81-4.043 0 0-5.927-.19-11.697-.97-18.1-4.51-7.81-16.186 2.8-17.556 0 0 32.59-6.414 66.59 15.57h17.15v-26.16h-24.96l-5.3 4.046s-46.267-12.897-84.687 3.89c-25.82 10.657-30.884 37.314-2.68 45.43 24.837 7.145 40.67 4.15 65.84 5.11 7.033.27 13.146.545 17.375 1.826m-37.28 16.19H225.4v-10.6c9.19 0 27.93.08 41.19 0 13.345 0 15.122 7.7 9.5 12.91-5.3 4.91-16.4 8.41-29.542 6.02 0 0-1.083-8.322-9.29-8.322" fill="#FFF"/></g></svg>