<svg width="512" height="512" viewBox="0 0 512 512" xmlns="http://www.w3.org/2000/svg"><title>tennessee-titans</title><g fill="none" fill-rule="evenodd"><path d="M185.953 278.378c.39 4.645 2.043 13.912 7.408 24.24 6.61 12.767 20.48 29.776 49.05 39.405 4.54 7.134 9.88 13.784 15.92 19.802 21.73 21.67 50.59 33.573 81.28 33.536 30.68-.04 59.5-12.03 81.18-33.76 21.65-21.73 33.57-50.6 33.52-81.29-.05-30.69-12.04-59.51-33.77-81.18-17.21-17.16-38.8-28.21-62.56-32.044-32.15-29.13-69.71-18.69-71.31-18.22l-2.36.68c-11.55 3.85-17.514-.556-21.39-3.59-4.292-3.36-8.97-6.776-13.482-9.324-15.34-8.627-37.145-8.937-55.51-1.54-12.093 4.14-18.184-1.197-21.802-3.69-23.95-16.53-53.405-20.475-84.66-13.59-21.04 4.627-29.445 8.92-29.445 8.92s14.41 2.086 29.47 8.375c12.364 5.174 22.2 11.806 29.64 23.706 0 0 4.68 6.89 1.636 8.92-3.395 2.27-6.96-3.29-6.96-3.29-.113 3.99-.103 7.985.15 11 1.74 31.767 8.217 50.86 23.54 65.433 6.966 6.64 18.724 13.085 36.904 20.232 8.29 3.32 12.77 7.565 13.573 17.285" fill="#FFF"/><path d="M415.362 204.305c-16.668-16.62-37.823-27.105-60.73-30.328-29.838-28.562-65.946-18.086-65.946-18.086 7.654 1.14 12.734 5.7 10.778 10.74-1.306 3.35-6.862 3.53-9.39 3.55-8.073.09-15.026-4.85-20.583-9.37-5.78-4.7-15.21-13.04-23.66-17.79-15.72-8.86-40.71-7.75-58.77 3.8 10.81.74 23.81 3.84 31.56 10.268 4.34 3.59 9.86 10.8 5.35 14.185-3.97 2.95-13.72 1.414-18.67-1.454-7.89-4.565-14.98-11.474-19.24-16.49-28.6-33.707-69.133-35.58-102.57-27.335 21.94 6.16 36.58 18.66 45.62 40.2 9.05 21.55 16.08 30.72 30.978 36.565 9.328 3.65 11.85 4.33 11.124 8.46-1.08 6.057-12.124 3.143-20.55-.144-10.27-4.005-23.8-15.085-31.86-35.847 1.464 26.87 6.59 45.93 21.733 60.34 6.43 6.115 18.254 12.45 36.746 19.57 11.813 4.537 21.15 7.28 29.944 15.17 10.254 9.19 5.88 15.26-.917 14.11-7.7-1.297-13.193-9.163-13.193-9.163s.01 43.78 54.125 60.635c4.5 7.47 9.95 14.444 16.28 20.768 20.35 20.277 47.37 31.44 76.09 31.385 28.73-.04 55.712-11.27 75.99-31.61 20.29-20.345 31.432-47.365 31.39-76.1-.05-28.74-11.26-55.73-31.607-76.01" fill="#024"/><path d="M409.638 209.754c-16.145-16.138-36.846-26.034-59.22-28.486-19.234-19.177-38.43-18.284-38.43-18.284 8.42 5.287 4.088 17.05-14.657 19.644-18.56 2.556-42.13-3.727-53.61-17.102-11.83-13.787-20.76-14.42-20.76-14.42 10.26 6.418 10.99 14.116 17.22 25.838 6.23 11.725 19.05 15.94 30.23 16.676 11.77.767 12.05 6.097 2.57 11.73-10.35 6.134-19.51.33-26.17-6.225-10.51-10.37-20.99-12.37-35.46-12.182-14.46.188-33.6 2.086-49.74-3.953-16.14-6.046-26.81-27.303-26.81-27.303 8.01 28.22 25.74 41.596 42.21 44.824 21.757 4.28 36.787 9.45 45.997 16.91 8.98 7.29 13.76 14.57 17.15 24.59 2.6 7.73 3.074 18.01.496 18.62-2.99.72-3.615-3.42-7.15-10.62-3.9-7.96-8.573-14.2-17.96-19.23-12.75-6.793-25.214-6.4-37.93-6.23-10.073.15-15.98-1.002-15.98-1.002s.425 1.353 16.835 5.036c18.29 4.11 35.966 14.42 47.746 39.544 10.005 21.37 4.775 36.42-17.41 29.62 0 0 10.37 23.035 44.21 31.242 4.366 7.68 9.8 14.812 16.22 21.235 18.76 18.755 43.69 29.094 70.21 29.094 26.526 0 51.46-10.34 70.217-29.096 18.755-18.755 29.08-43.694 29.08-70.23 0-26.53-10.32-51.464-29.08-70.22" fill="#4B92DB"/><path d="M339.42 185.522c25.23 0 48.95 9.825 66.783 27.666 17.838 17.837 27.66 41.563 27.66 66.795 0 52.093-42.375 94.467-94.443 94.467-25.213 0-48.94-9.835-66.78-27.676-17.834-17.84-27.66-41.558-27.66-66.79 0-25.233 9.826-48.96 27.66-66.796 17.843-17.84 41.567-27.666 66.78-27.666" fill="#FFF"/><path d="M339.552 366.3c-47.66.072-86.36-38.52-86.42-86.183-.07-47.677 38.5-86.374 86.17-86.446 47.65-.07 86.343 38.53 86.413 86.19.07 47.68-38.514 86.38-86.163 86.45" fill="#024"/><path d="M318.31 262.523h-25.557l-8.43 15.028-11.335-32.14H405.62l-11.32 32.14-8.358-15.02h-25.14l-21.294 93.17-21.197-93.17" fill="#FFF"/><path d="M405.62 245.404H272.988l2.147 6.085h63.238l-20.063 11.03 21.2 93.16V251.49h63.964l2.147-6.086" fill="#A5ACAF"/><path d="M274.305 170.857c-19.235-.555-27.073-8.174-39.01-17.775-14.63-11.743-30.84-8.48-30.84-8.48 9.71-5.55 28.802-5.783 42.56 6.28 12.285 10.778 18.322 16.622 27.29 19.975zm-164.167-42.375s17.996-.43 33.73 27.798c13.216 23.724 38.433 28.47 56.894 23.25 0 0-24.306-.63-37.62-24.21-13.585-24.106-31.563-30.796-53.004-26.838zm101.886 136.683s-2.553-26.237-39.94-33.84c-37.623-7.663-42.476-27.25-42.476-27.25s.25 28.258 32.638 36.935c22.617 6.056 39.202 9.542 49.778 24.155z" fill="#C60C30"/><path d="M352.385 237.105l-5.082-15.127 12.854-9.455-15.955.156-5.012-15.16-4.787 15.23-15.956.08 13.012 9.25-4.86 15.206 12.81-9.51 12.96 9.31zm-56.946 53.503l-10.57 11.97-14.61-6.42 8.12 13.736-10.62 11.93 15.58-3.472 8.06 13.78 1.5-15.887 15.6-3.41-14.64-6.35 1.57-15.877zm74.78 22.58l15.65 3.148 1.75 15.87 7.84-13.904 15.63 3.236-10.8-11.75 7.902-13.873-14.518 6.636-10.74-11.8 1.814 15.86-14.55 6.59z" fill="#C60C30"/></g></svg>