<svg width="300" height="235" viewBox="0 0 300 235" fill="none" xmlns="http://www.w3.org/2000/svg">
<path d="M298.537 161.787C296.661 177.861 292.763 190.766 287.412 201.058C280.292 214.772 268.112 220.297 257.233 226.079C254.089 227.747 250.82 229.168 247.457 230.33C227.659 237.201 205.501 235.378 188.095 231.75C175.887 229.204 163.495 227.637 151.038 227.065C147.485 226.905 143.928 226.825 140.368 226.827C134.879 226.834 36.0319 228.71 11.9655 179.986C6.02369 167.967 1.95092 153.285 0.48771 135.389C-3.65271 84.7921 19.1036 51.562 48.4567 29.8417C103.984 -11.2456 180.096 -9.52248 234.804 32.6471C271.245 60.7364 305.366 103.248 298.537 161.787Z" fill="#01403A"/>
<path d="M227.25 116.259C211.846 104.743 187.719 93.8521 161.056 86.379C136.78 79.5745 113.101 76.2892 94.3773 77.1282L94.2798 74.9507C113.227 74.1022 137.151 77.415 161.645 84.2803C188.556 91.8231 212.944 102.843 228.555 114.513L227.25 116.259Z" fill="#F2F2F2"/>
<path d="M225.651 125.129C225.664 135.332 223.525 145.423 219.373 154.743C219.027 155.523 218.666 156.296 218.29 157.062C212.306 169.32 202.999 179.65 191.429 186.875C179.86 194.1 166.493 197.93 152.853 197.927C112.648 197.927 80.0544 165.334 80.0544 125.129C80.0544 123.444 80.1118 121.773 80.2266 120.114C80.2811 119.27 80.3516 118.432 80.4381 117.599C84.2066 80.9315 115.192 52.3311 152.853 52.3311C193.057 52.3311 225.651 84.9245 225.651 125.129Z" fill="#D94A3D"/>
<path opacity="0.1" d="M219.374 154.743C219.027 155.524 218.666 156.297 218.29 157.062C216.163 157.293 213.924 157.461 211.573 157.566C209.627 157.653 207.623 157.697 205.577 157.697C187.7 157.697 166.185 154.397 144.206 148.237C119.712 141.372 97.5523 131.768 81.807 121.195C81.2708 120.836 80.7441 120.475 80.2268 120.114C80.2813 119.271 80.3518 118.432 80.4382 117.599C81.273 118.194 82.134 118.79 83.021 119.386C98.5811 129.833 120.519 139.334 144.795 146.138C166.582 152.246 187.894 155.517 205.566 155.517C207.586 155.517 209.556 155.474 211.475 155.388C214.269 155.262 216.902 155.047 219.374 154.743Z" fill="black"/>
<path d="M205.577 155.953C187.701 155.954 166.185 152.654 144.207 146.493C119.713 139.628 97.5523 130.025 81.8069 119.452C65.7328 108.658 58.1953 98.0227 60.5829 89.5044C62.9703 80.9862 74.9375 75.8175 94.2798 74.9507L94.3773 77.1281C85.3447 77.5329 77.9834 78.8754 72.4982 81.1184C67.0262 83.3559 63.7234 86.3753 62.6815 90.0927C61.6396 93.8101 62.8921 98.1061 66.4039 102.862C69.9243 107.629 75.5155 112.602 83.0219 117.642C98.5802 128.089 120.518 137.59 144.795 144.395C166.583 150.501 187.893 153.774 205.567 153.774C207.586 153.774 209.555 153.731 211.474 153.645C220.507 153.241 227.868 151.898 233.354 149.655C238.826 147.418 242.128 144.398 243.17 140.681C245.041 134.006 239.387 125.333 227.25 116.259L228.555 114.513C234.801 119.183 239.424 123.785 242.297 128.193C245.376 132.918 246.376 137.318 245.269 141.269C242.881 149.787 230.914 154.956 211.572 155.823C209.626 155.91 207.624 155.953 205.577 155.953Z" fill="#F2F2F2"/>
<path d="M154.779 39.202C155.239 39.202 155.613 38.8285 155.613 38.3678C155.613 37.9071 155.239 37.5336 154.779 37.5336C154.318 37.5336 153.944 37.9071 153.944 38.3678C153.944 38.8285 154.318 39.202 154.779 39.202Z" fill="#F2F2F2"/>
<path d="M44.1086 74.7995C44.5693 74.7995 44.9428 74.426 44.9428 73.9653C44.9428 73.5046 44.5693 73.1311 44.1086 73.1311C43.6479 73.1311 43.2744 73.5046 43.2744 73.9653C43.2744 74.426 43.6479 74.7995 44.1086 74.7995Z" fill="#F2F2F2"/>
<path d="M41.0498 130.969C41.5105 130.969 41.884 130.595 41.884 130.134C41.884 129.674 41.5105 129.3 41.0498 129.3C40.589 129.3 40.2156 129.674 40.2156 130.134C40.2156 130.595 40.589 130.969 41.0498 130.969Z" fill="#F2F2F2"/>
<path d="M211.226 43.929C211.533 43.929 211.782 43.68 211.782 43.3729C211.782 43.0658 211.533 42.8168 211.226 42.8168C210.919 42.8168 210.67 43.0658 210.67 43.3729C210.67 43.68 210.919 43.929 211.226 43.929Z" fill="#F2F2F2"/>
<path d="M278.239 122.349C278.547 122.349 278.796 122.1 278.796 121.792C278.796 121.485 278.547 121.236 278.239 121.236C277.932 121.236 277.683 121.485 277.683 121.792C277.683 122.1 277.932 122.349 278.239 122.349Z" fill="#F2F2F2"/>
<path d="M247.652 96.7666C247.959 96.7666 248.208 96.5176 248.208 96.2104C248.208 95.9033 247.959 95.6543 247.652 95.6543C247.345 95.6543 247.096 95.9033 247.096 96.2104C247.096 96.5176 247.345 96.7666 247.652 96.7666Z" fill="#F2F2F2"/>
<path d="M94.4387 56.442C94.7458 56.442 94.9948 56.193 94.9948 55.8858C94.9948 55.5787 94.7458 55.3297 94.4387 55.3297C94.1316 55.3297 93.8826 55.5787 93.8826 55.8858C93.8826 56.193 94.1316 56.442 94.4387 56.442Z" fill="#F2F2F2"/>
<path d="M245.706 114.841C246.013 114.841 246.262 114.592 246.262 114.285C246.262 113.978 246.013 113.729 245.706 113.729C245.398 113.729 245.149 113.978 245.149 114.285C245.149 114.592 245.398 114.841 245.706 114.841Z" fill="#F2F2F2"/>
<path d="M47.7236 170.732C48.0308 170.732 48.2797 170.483 48.2797 170.176C48.2797 169.869 48.0308 169.62 47.7236 169.62C47.4165 169.62 47.1675 169.869 47.1675 170.176C47.1675 170.483 47.4165 170.732 47.7236 170.732Z" fill="#F2F2F2"/>
<path d="M80.813 193.533C81.1201 193.533 81.3691 193.284 81.3691 192.977C81.3691 192.67 81.1201 192.421 80.813 192.421C80.5058 192.421 80.2568 192.67 80.2568 192.977C80.2568 193.284 80.5058 193.533 80.813 193.533Z" fill="#F2F2F2"/>
<path d="M128.918 15.0825H128.151V14.3152H127.74V15.0825H126.972V15.4944H127.74V16.2617H128.151V15.4944H128.918V15.0825Z" fill="#F2F2F2"/>
<path d="M211.782 204.166H211.015V203.399H210.603V204.166H209.836V204.578H210.603V205.346H211.015V204.578H211.782V204.166Z" fill="#F2F2F2"/>
<path d="M263.224 192.766H262.457V191.999H262.045V192.766H261.277V193.178H262.045V193.945H262.457V193.178H263.224V192.766Z" fill="#F2F2F2"/>
<path d="M153.944 74.2433C157.323 74.2433 160.062 71.5044 160.062 68.1259C160.062 64.7473 157.323 62.0084 153.944 62.0084C150.566 62.0084 147.827 64.7473 147.827 68.1259C147.827 71.5044 150.566 74.2433 153.944 74.2433Z" fill="#3F3D56"/>
<path d="M106.951 119.012C110.33 119.012 113.069 116.273 113.069 112.894C113.069 109.516 110.33 106.777 106.951 106.777C103.573 106.777 100.834 109.516 100.834 112.894C100.834 116.273 103.573 119.012 106.951 119.012Z" fill="#3F3D56"/>
<path d="M174.521 180.464C177.9 180.464 180.639 177.725 180.639 174.347C180.639 170.968 177.9 168.229 174.521 168.229C171.143 168.229 168.404 170.968 168.404 174.347C168.404 177.725 171.143 180.464 174.521 180.464Z" fill="#3F3D56"/>
<path d="M153.944 128.466C157.323 128.466 160.062 125.727 160.062 122.349C160.062 118.97 157.323 116.231 153.944 116.231C150.566 116.231 147.827 118.97 147.827 122.349C147.827 125.727 150.566 128.466 153.944 128.466Z" fill="#3F3D56"/>
<path d="M110.01 162.112C113.389 162.112 116.127 159.373 116.127 155.994C116.127 152.616 113.389 149.877 110.01 149.877C106.631 149.877 103.893 152.616 103.893 155.994C103.893 159.373 106.631 162.112 110.01 162.112Z" fill="#3F3D56"/>
<path d="M186.756 95.6543C190.134 95.6543 192.873 92.9154 192.873 89.5369C192.873 86.1583 190.134 83.4194 186.756 83.4194C183.377 83.4194 180.638 86.1583 180.638 89.5369C180.638 92.9154 183.377 95.6543 186.756 95.6543Z" fill="#3F3D56"/>
<path d="M207.054 137.086C210.433 137.086 213.172 134.347 213.172 130.969C213.172 127.59 210.433 124.851 207.054 124.851C203.676 124.851 200.937 127.59 200.937 130.969C200.937 134.347 203.676 137.086 207.054 137.086Z" fill="#3F3D56"/>
<path d="M153.944 103.718C158.398 103.718 162.008 100.108 162.008 95.6542C162.008 91.2007 158.398 87.5903 153.944 87.5903C149.491 87.5903 145.88 91.2007 145.88 95.6542C145.88 100.108 149.491 103.718 153.944 103.718Z" fill="white"/>
<path d="M153.944 83.9756C150.921 83.9756 148.021 85.1767 145.883 87.3148C143.745 89.4528 142.544 92.3526 142.544 95.3762C142.544 101.673 153.944 122.349 153.944 122.349C153.944 122.349 165.345 101.673 165.345 95.3762C165.345 92.3526 164.144 89.4528 162.006 87.3148C159.868 85.1767 156.968 83.9756 153.944 83.9756ZM153.944 100.938C152.899 100.938 151.878 100.628 151.009 100.047C150.14 99.4666 149.463 98.6415 149.063 97.6761C148.663 96.7107 148.559 95.6484 148.763 94.6236C148.966 93.5987 149.47 92.6574 150.209 91.9185C150.947 91.1796 151.889 90.6764 152.914 90.4726C153.939 90.2687 155.001 90.3733 155.966 90.7732C156.932 91.1731 157.757 91.8503 158.337 92.7191C158.918 93.5879 159.228 94.6094 159.228 95.6543C159.228 96.3481 159.091 97.0351 158.825 97.6761C158.56 98.3171 158.171 98.8995 157.68 99.3901C157.19 99.8807 156.607 100.27 155.966 100.535C155.325 100.801 154.638 100.938 153.944 100.938V100.938Z" fill="#FF6584"/>
<path d="M110.01 138.198C114.463 138.198 118.074 134.588 118.074 130.134C118.074 125.681 114.463 122.071 110.01 122.071C105.556 122.071 101.946 125.681 101.946 130.134C101.946 134.588 105.556 138.198 110.01 138.198Z" fill="white"/>
<path d="M110.01 118.456C106.986 118.456 104.087 119.657 101.949 121.795C99.8105 123.933 98.6094 126.833 98.6094 129.856C98.6094 136.153 110.01 156.829 110.01 156.829C110.01 156.829 121.411 136.153 121.411 129.856C121.411 126.833 120.21 123.933 118.072 121.795C115.933 119.657 113.034 118.456 110.01 118.456ZM110.01 135.418C108.965 135.418 107.944 135.108 107.075 134.527C106.206 133.947 105.529 133.121 105.129 132.156C104.729 131.191 104.624 130.128 104.828 129.104C105.032 128.079 105.535 127.137 106.274 126.398C107.013 125.66 107.954 125.156 108.979 124.953C110.004 124.749 111.066 124.853 112.032 125.253C112.997 125.653 113.822 126.33 114.403 127.199C114.983 128.068 115.293 129.089 115.293 130.134C115.293 130.828 115.157 131.515 114.891 132.156C114.626 132.797 114.236 133.38 113.746 133.87C113.255 134.361 112.673 134.75 112.032 135.015C111.391 135.281 110.704 135.418 110.01 135.418Z" fill="#FF6584"/>
<path d="M207.055 113.172C211.508 113.172 215.119 109.562 215.119 105.109C215.119 100.655 211.508 97.0447 207.055 97.0447C202.601 97.0447 198.991 100.655 198.991 105.109C198.991 109.562 202.601 113.172 207.055 113.172Z" fill="white"/>
<path d="M207.054 93.4299C204.031 93.4299 201.131 94.6311 198.993 96.7691C196.855 98.9072 195.654 101.807 195.654 104.831C195.654 111.127 207.054 131.803 207.054 131.803C207.054 131.803 218.455 111.127 218.455 104.831C218.455 101.807 217.254 98.9072 215.116 96.7691C212.978 94.6311 210.078 93.4299 207.054 93.4299ZM207.054 110.392C206.01 110.392 204.988 110.082 204.119 109.502C203.25 108.921 202.573 108.096 202.173 107.13C201.774 106.165 201.669 105.103 201.873 104.078C202.077 103.053 202.58 102.112 203.319 101.373C204.058 100.634 204.999 100.131 206.024 99.9269C207.049 99.7231 208.111 99.8277 209.076 100.228C210.042 100.627 210.867 101.305 211.447 102.173C212.028 103.042 212.338 104.064 212.338 105.109C212.338 106.51 211.781 107.854 210.79 108.844C209.799 109.835 208.456 110.392 207.054 110.392Z" fill="#FF6584"/>
<path d="M153.944 49.4956C158.398 49.4956 162.008 45.8852 162.008 41.4317C162.008 36.9781 158.398 33.3678 153.944 33.3678C149.491 33.3678 145.88 36.9781 145.88 41.4317C145.88 45.8852 149.491 49.4956 153.944 49.4956Z" fill="white"/>
<path d="M153.944 29.7529C150.921 29.7529 148.021 30.9541 145.883 33.0921C143.745 35.2301 142.544 38.13 142.544 41.1536C142.544 47.45 153.944 68.1259 153.944 68.1259C153.944 68.1259 165.345 47.45 165.345 41.1536C165.345 38.13 164.144 35.2301 162.006 33.0921C159.868 30.9541 156.968 29.7529 153.944 29.7529ZM153.944 46.7149C152.899 46.7149 151.878 46.405 151.009 45.8245C150.14 45.244 149.463 44.4188 149.063 43.4535C148.663 42.4881 148.559 41.4258 148.763 40.4009C148.966 39.3761 149.47 38.4347 150.209 37.6958C150.947 36.957 151.889 36.4538 152.914 36.2499C153.939 36.0461 155.001 36.1507 155.966 36.5506C156.932 36.9504 157.757 37.6276 158.337 38.4964C158.918 39.3653 159.228 40.3867 159.228 41.4316C159.228 42.8328 158.671 44.1767 157.68 45.1675C156.689 46.1583 155.346 46.7149 153.944 46.7149Z" fill="#FF6584"/>
<path d="M174.521 156.551C178.975 156.551 182.585 152.94 182.585 148.487C182.585 144.033 178.975 140.423 174.521 140.423C170.068 140.423 166.458 144.033 166.458 148.487C166.458 152.94 170.068 156.551 174.521 156.551Z" fill="white"/>
<path d="M174.521 136.808C171.498 136.808 168.598 138.009 166.46 140.147C164.322 142.285 163.121 145.185 163.121 148.209C163.121 154.505 174.521 175.181 174.521 175.181C174.521 175.181 185.922 154.505 185.922 148.209C185.922 146.711 185.627 145.229 185.054 143.846C184.481 142.462 183.641 141.206 182.583 140.147C181.524 139.088 180.267 138.249 178.884 137.676C177.501 137.103 176.018 136.808 174.521 136.808ZM174.521 153.77C173.476 153.77 172.455 153.46 171.586 152.879C170.717 152.299 170.04 151.474 169.64 150.508C169.24 149.543 169.136 148.481 169.34 147.456C169.543 146.431 170.047 145.49 170.785 144.751C171.524 144.012 172.466 143.509 173.491 143.305C174.515 143.101 175.578 143.206 176.543 143.605C177.508 144.005 178.334 144.683 178.914 145.551C179.495 146.42 179.805 147.442 179.805 148.487C179.805 149.888 179.248 151.232 178.257 152.222C177.266 153.213 175.922 153.77 174.521 153.77Z" fill="#FF6584"/>
<path d="M106.951 94.5421C111.405 94.5421 115.015 90.9317 115.015 86.4782C115.015 82.0246 111.405 78.4143 106.951 78.4143C102.498 78.4143 98.8875 82.0246 98.8875 86.4782C98.8875 90.9317 102.498 94.5421 106.951 94.5421Z" fill="white"/>
<path d="M106.951 74.7996C103.928 74.7996 101.028 76.0007 98.89 78.1387C96.7519 80.2768 95.5508 83.1766 95.5508 86.2002C95.5508 92.4966 106.951 113.173 106.951 113.173C106.951 113.173 118.352 92.4966 118.352 86.2002C118.352 84.7031 118.057 83.2206 117.484 81.8374C116.911 80.4542 116.072 79.1974 115.013 78.1387C113.954 77.0801 112.697 76.2403 111.314 75.6674C109.931 75.0944 108.449 74.7996 106.951 74.7996ZM106.951 91.7615C105.907 91.7615 104.885 91.4517 104.016 90.8711C103.147 90.2906 102.47 89.4655 102.07 88.5001C101.671 87.5347 101.566 86.4724 101.77 85.4476C101.974 84.4227 102.477 83.4813 103.216 82.7425C103.955 82.0036 104.896 81.5004 105.921 81.2965C106.946 81.0927 108.008 81.1973 108.973 81.5972C109.939 81.9971 110.764 82.6742 111.344 83.5431C111.925 84.4119 112.235 85.4333 112.235 86.4783C112.235 87.8795 111.678 89.2233 110.687 90.2141C109.696 91.2049 108.353 91.7615 106.951 91.7615Z" fill="#FF6584"/>
<path d="M186.756 72.0188C191.209 72.0188 194.82 68.4084 194.82 63.9549C194.82 59.5013 191.209 55.891 186.756 55.891C182.302 55.891 178.692 59.5013 178.692 63.9549C178.692 68.4084 182.302 72.0188 186.756 72.0188Z" fill="white"/>
<path d="M186.756 52.2762C183.732 52.2762 180.832 53.4774 178.694 55.6154C176.556 57.7535 175.355 60.6533 175.355 63.6769C175.355 69.9733 186.756 90.6492 186.756 90.6492C186.756 90.6492 198.157 69.9733 198.157 63.6769C198.157 60.6533 196.955 57.7535 194.817 55.6154C192.679 53.4774 189.78 52.2762 186.756 52.2762ZM186.756 69.2382C185.711 69.2382 184.69 68.9284 183.821 68.3478C182.952 67.7673 182.275 66.9422 181.875 65.9768C181.475 65.0114 181.37 63.9491 181.574 62.9243C181.778 61.8994 182.281 60.958 183.02 60.2191C183.759 59.4803 184.7 58.9771 185.725 58.7732C186.75 58.5694 187.812 58.674 188.778 59.0739C189.743 59.4738 190.568 60.1509 191.149 61.0197C191.729 61.8886 192.039 62.91 192.039 63.955C192.039 65.3562 191.483 66.7 190.492 67.6908C189.501 68.6816 188.157 69.2382 186.756 69.2382Z" fill="#FF6584"/>
</svg>
