<svg width="323" height="284" viewBox="0 0 323 284" fill="none" xmlns="http://www.w3.org/2000/svg">
<path opacity="0.1" d="M320.36 80.59L310.54 86.81L316.54 75.97C314.85 74.625 312.76 73.8824 310.6 73.86H310.44C309.77 73.8691 309.101 73.8189 308.44 73.71L305.06 75.82L306.49 73.22C304.127 72.4021 302.085 70.8543 300.66 68.8L294.66 72.58L298.42 65.74C294.94 61.56 290.24 59 285.08 59C278.88 59 273.37 62.68 269.8 68.42C268.748 70.1363 267.26 71.5436 265.488 72.4991C263.716 73.4545 261.722 73.924 259.71 73.86H259.38C252.54 73.86 247 81.61 247 91.17C247 100.73 252.54 108.49 259.38 108.49C260.882 108.48 262.36 108.11 263.69 107.41C266.019 106.275 268.567 105.66 271.157 105.609C273.747 105.557 276.318 106.069 278.69 107.11C280.693 108.01 282.864 108.475 285.06 108.475C287.256 108.475 289.427 108.01 291.43 107.11C293.783 106.092 296.328 105.592 298.891 105.642C301.455 105.692 303.978 106.291 306.29 107.4C307.605 108.088 309.066 108.452 310.55 108.46C317.39 108.46 322.93 100.7 322.93 91.14C322.971 87.4635 322.088 83.8356 320.36 80.59Z" fill="#D94A3D"/>
<path opacity="0.1" d="M155.33 15.12L148.46 19.48L152.63 11.89C151.451 10.9464 149.99 10.4252 148.48 10.41H148.36C147.884 10.4185 147.409 10.3817 146.94 10.3L144.61 11.78L145.61 9.95999C143.958 9.38549 142.531 8.30406 141.53 6.87L137.36 9.50999L140 4.73C138.891 3.29835 137.478 2.13122 135.863 1.31314C134.247 0.495062 132.47 0.0465221 130.66 0C126.32 0 122.46 2.57999 119.97 6.59999C119.232 7.80192 118.189 8.78737 116.948 9.45647C115.706 10.1256 114.31 10.4545 112.9 10.41H112.67C107.88 10.41 104 15.83 104 22.53C104 29.23 107.88 34.65 112.67 34.65C113.717 34.6419 114.746 34.3812 115.67 33.89C117.298 33.1 119.079 32.673 120.888 32.6384C122.697 32.6039 124.493 32.9627 126.15 33.69C127.56 34.3332 129.09 34.6738 130.64 34.69C132.166 34.6873 133.675 34.3672 135.07 33.75C136.717 33.0373 138.498 32.6863 140.292 32.7208C142.086 32.7553 143.852 33.1745 145.47 33.95C146.396 34.435 147.425 34.6888 148.47 34.69C153.25 34.69 157.13 29.26 157.13 22.57C157.17 19.9743 156.551 17.4109 155.33 15.12Z" fill="#D94A3D"/>
<path opacity="0.1" d="M1.77251 88.11L8.65251 92.47L4.47249 84.89C5.65424 83.9434 7.11848 83.4189 8.63249 83.4H8.74251C9.22114 83.4069 9.69949 83.3734 10.1725 83.3L12.5025 84.77L11.5025 82.96C13.1507 82.3843 14.575 81.3029 15.5725 79.87L19.7425 82.51L17.1425 77.72C18.2517 76.2897 19.6653 75.1241 21.2807 74.3077C22.8962 73.4913 24.673 73.0446 26.4825 73C30.8125 73 34.6825 75.58 37.1725 79.6C37.9097 80.8004 38.9507 81.7849 40.1904 82.4539C41.4301 83.1229 42.8245 83.4528 44.2325 83.41H44.4725C49.2525 83.41 53.1325 88.84 53.1325 95.53C53.1325 102.22 49.2525 107.65 44.4725 107.65C43.4267 107.645 42.3975 107.388 41.4725 106.9C39.844 106.106 38.0622 105.675 36.2507 105.639C34.4391 105.603 32.6414 105.961 30.9825 106.69C29.5775 107.339 28.05 107.68 26.5025 107.69C24.9732 107.689 23.4611 107.369 22.0625 106.75C20.4173 106.037 18.6383 105.687 16.8458 105.721C15.0533 105.756 13.289 106.175 11.6725 106.95C10.7468 107.435 9.71754 107.689 8.6725 107.69C3.8825 107.69 0.00248882 102.27 0.00248882 95.57C-0.0441232 92.9741 0.564665 90.4083 1.77251 88.11Z" fill="#D94A3D"/>
<path d="M147.08 283.97C202.287 283.97 247.04 239.216 247.04 184.01C247.04 128.804 202.287 84.05 147.08 84.05C91.8738 84.05 47.1201 128.804 47.1201 184.01C47.1201 239.216 91.8738 283.97 147.08 283.97Z" fill="#D94A3D"/>
<path d="M203.93 153.81L174 184.26C173.948 184.31 173.906 184.371 173.877 184.438C173.849 184.505 173.834 184.577 173.834 184.65C173.834 184.723 173.849 184.795 173.877 184.862C173.906 184.929 173.948 184.99 174 185.04L195 207.37C195.503 207.876 195.844 208.52 195.982 209.219C196.12 209.919 196.049 210.644 195.776 211.303C195.504 211.962 195.043 212.526 194.451 212.924C193.86 213.322 193.163 213.536 192.45 213.54C191.491 213.538 190.57 213.157 189.89 212.48L169 190.23C168.894 190.125 168.75 190.066 168.6 190.066C168.451 190.066 168.307 190.125 168.2 190.23L163.11 195.37C161.026 197.501 158.537 199.195 155.79 200.35C153.042 201.506 150.091 202.101 147.11 202.1C144.073 202.086 141.069 201.467 138.274 200.279C135.479 199.09 132.948 197.357 130.83 195.18L125.94 190.18C125.834 190.075 125.69 190.016 125.54 190.016C125.391 190.016 125.247 190.075 125.14 190.18L104.3 212.38C103.965 212.716 103.567 212.982 103.128 213.164C102.69 213.346 102.22 213.44 101.745 213.44C101.271 213.44 100.801 213.346 100.362 213.164C99.9238 212.982 99.5256 212.716 99.1903 212.38C98.8531 212.045 98.5855 211.647 98.403 211.209C98.2204 210.77 98.1264 210.3 98.1264 209.825C98.1264 209.35 98.2204 208.88 98.403 208.441C98.5855 208.003 98.8531 207.605 99.1903 207.27L120.11 184.99C120.203 184.881 120.254 184.743 120.254 184.6C120.254 184.457 120.203 184.319 120.11 184.21L90.1802 153.76C90.1033 153.683 90.0051 153.63 89.8981 153.609C89.7912 153.587 89.6802 153.598 89.5795 153.64C89.4787 153.682 89.3926 153.752 89.3322 153.843C89.2718 153.934 89.2398 154.041 89.2402 154.15V215.08C89.2481 217.435 90.1873 219.692 91.8528 221.358C93.5183 223.023 95.7749 223.962 98.1303 223.97H196C198.356 223.962 200.612 223.023 202.278 221.358C203.943 219.692 204.882 217.435 204.89 215.08V154.2C204.895 154.087 204.865 153.975 204.804 153.879C204.742 153.783 204.653 153.709 204.548 153.667C204.443 153.624 204.327 153.615 204.216 153.64C204.106 153.666 204.006 153.725 203.93 153.81Z" fill="white" fill-opacity="0.6"/>
<path d="M147.08 194.87C149.109 194.89 151.121 194.502 152.997 193.729C154.873 192.956 156.574 191.814 158 190.37L201.59 146C200.043 144.718 198.099 144.012 196.09 144H98.1499C96.1397 144.007 94.1948 144.714 92.6499 146L136.25 190.37C137.663 191.805 139.349 192.943 141.21 193.716C143.07 194.489 145.066 194.881 147.08 194.87Z" fill="white" fill-opacity="0.6"/>
<path d="M146.55 83C126.669 82.9901 107.231 88.8771 90.6965 99.9164C74.1617 110.956 61.2726 126.651 53.6598 145.017C46.0469 163.383 44.0525 183.594 47.9287 203.094C51.8049 222.594 61.3776 240.506 75.4358 254.564C89.494 268.622 107.406 278.195 126.906 282.071C146.406 285.948 166.617 283.953 184.983 276.34C203.349 268.727 219.044 255.838 230.084 239.303C241.123 222.769 247.01 203.331 247 183.45C246.987 156.813 236.399 131.271 217.564 112.436C198.729 93.6007 173.187 83.0133 146.55 83ZM146.55 270.553C129.323 270.553 112.482 265.445 98.1582 255.874C83.8341 246.303 72.6699 232.699 66.0773 216.783C59.4846 200.867 57.7597 183.353 61.1206 166.457C64.4815 149.56 72.7773 134.04 84.9589 121.858C97.1405 109.677 112.661 101.381 129.557 98.0201C146.454 94.6592 163.967 96.3841 179.883 102.977C195.799 109.569 209.403 120.734 218.974 135.058C228.545 149.382 233.654 166.222 233.654 183.45C233.654 206.551 224.477 228.706 208.142 245.041C191.807 261.376 169.651 270.553 146.55 270.553Z" fill="#D94A3D"/>
<path d="M146.55 83C126.669 82.9901 107.231 88.8771 90.6965 99.9164C74.1617 110.956 61.2726 126.651 53.6598 145.017C46.0469 163.383 44.0525 183.594 47.9287 203.094C51.8049 222.594 61.3776 240.506 75.4358 254.564C89.494 268.622 107.406 278.195 126.906 282.071C146.406 285.948 166.617 283.953 184.983 276.34C203.349 268.727 219.044 255.838 230.084 239.303C241.123 222.769 247.01 203.331 247 183.45C246.987 156.813 236.399 131.271 217.564 112.436C198.729 93.6007 173.187 83.0133 146.55 83ZM146.55 270.553C129.323 270.553 112.482 265.445 98.1582 255.874C83.8341 246.303 72.6699 232.699 66.0773 216.783C59.4846 200.867 57.7597 183.353 61.1206 166.457C64.4815 149.56 72.7773 134.04 84.9589 121.858C97.1405 109.677 112.661 101.381 129.557 98.0201C146.454 94.6592 163.967 96.3841 179.883 102.977C195.799 109.569 209.403 120.734 218.974 135.058C228.545 149.382 233.654 166.222 233.654 183.45C233.654 206.551 224.477 228.706 208.142 245.041C191.807 261.376 169.651 270.553 146.55 270.553Z" fill="black" fill-opacity="0.2"/>
</svg>
