<svg width="176" height="139" viewBox="0 0 176 139" fill="none" xmlns="http://www.w3.org/2000/svg">
<g clip-path="url(#clip0)">
<path d="M87.2883 36.2767C95.4014 34.8537 104.83 35.1009 114.996 36.2767C112.934 24.5847 112.839 13.1329 114.996 1.9585H87.2883C85.2418 13.3064 85.2418 24.9288 87.2883 36.2767Z" fill="#F2F2F2"/>
<path d="M95.5596 3.16077L105.198 3.16077V-0.000144243L95.5596 -0.000144243V3.16077Z" fill="#3F3D56"/>
<path opacity="0.1" d="M65.7195 104.036C73.8325 102.613 83.2607 102.86 93.4274 104.036C91.3649 92.344 91.2706 80.8921 93.4274 69.7178H65.7195C63.6729 81.0657 63.6729 92.688 65.7195 104.036Z" fill="black"/>
<path d="M64.4739 102.435C72.5869 101.012 82.0151 101.259 92.1819 102.435C90.1193 90.7433 90.025 79.2914 92.1819 68.1171H64.4739C62.4273 79.465 62.4273 91.0873 64.4739 102.435Z" fill="#F2F2F2"/>
<path d="M72.7422 69.3195H82.3804V66.1585H72.7422V69.3195Z" fill="#3F3D56"/>
<path d="M40.6636 46.4155C40.6636 46.4155 51.4104 16.032 75.3528 15.7634" stroke="#3F3D56" stroke-width="2" stroke-miterlimit="10"/>
<path d="M77.5004 15.8207C76.4807 16.1765 75.2136 16.783 74.4199 17.4429L75.0712 15.7656L74.4982 14.0597C75.2599 14.7552 76.4985 15.4258 77.5004 15.8207Z" fill="#3F3D56"/>
<path d="M41.5531 57.978C41.5531 57.978 40.5814 82.4257 54.5546 85.7538" stroke="#3F3D56" stroke-width="2" stroke-miterlimit="10"/>
<path d="M56.6795 86.0827C55.6207 86.2891 54.2807 86.7178 53.4033 87.2603L54.2806 85.6896L53.9497 83.9215C54.6081 84.7148 55.7417 85.5491 56.6795 86.0827Z" fill="#3F3D56"/>
<path d="M44.4009 49.9732C44.4009 49.9732 119.965 37.3829 132.933 52.958" stroke="#3F3D56" stroke-width="2" stroke-miterlimit="10"/>
<path d="M134.091 54.7759C133.219 54.1409 131.993 53.4489 131 53.175L132.748 52.7499L133.815 51.3037C133.685 52.3283 133.846 53.7264 134.091 54.7759Z" fill="#3F3D56"/>
<g opacity="0.1">
<path opacity="0.1" d="M88 139C136.601 139 176 136.372 176 133.13C176 129.888 136.601 127.26 88 127.26C39.3989 127.26 0 129.888 0 133.13C0 136.372 39.3989 139 88 139Z" fill="#D94A3D"/>
</g>
<path opacity="0.1" d="M165.28 89.377C158.092 93.3971 150.935 99.5357 143.793 106.862C138.006 96.4957 130.849 87.5555 122.116 80.25L143.603 62.7645C152.357 70.2732 159.699 79.2858 165.28 89.377Z" fill="black"/>
<path d="M165.636 87.9539C158.448 91.974 151.291 98.1125 144.149 105.439C138.362 95.0726 131.205 86.1324 122.472 78.8269L143.959 61.3414C152.713 68.8501 160.054 77.8627 165.636 87.9539Z" fill="#F2F2F2"/>
<path d="M136.313 65.045L128.839 71.1274L130.835 73.5787L138.31 67.4963L136.313 65.045Z" fill="#3F3D56"/>
<path d="M146.857 72.1956L133.608 82.9768L135.069 84.7701L148.318 73.9889L146.857 72.1956Z" fill="#D94A3D"/>
<path d="M167.04 130.869C166.936 130.705 166.805 130.56 166.653 130.439C165.876 129.706 165.514 128.626 165.322 127.571C165.13 126.516 165.075 125.437 164.767 124.401C164.599 123.872 164.39 123.356 164.141 122.859C163.963 122.48 163.738 121.733 163.413 121.468C163.349 121.413 163.271 121.375 163.189 121.358C163.035 121.031 162.816 120.74 162.544 120.502C162.035 120.042 161.414 119.675 161.074 119.079C160.981 118.872 160.866 118.675 160.731 118.492C160.501 118.24 160.138 118.137 159.927 117.87C159.651 117.525 159.713 117.032 159.749 116.591C159.784 116.15 159.749 115.625 159.368 115.395C159.14 115.255 158.846 115.267 158.61 115.145C158.254 114.967 158.113 114.517 158.12 114.116C158.127 113.716 158.252 113.327 158.284 112.928C158.384 111.655 157.544 110.388 157.868 109.154C157.99 108.686 158.272 108.278 158.48 107.844C158.552 107.699 158.611 107.548 158.658 107.393C159.213 107.613 159.796 107.753 160.391 107.809C159.411 105.612 159.66 103.056 159.202 100.694L159.261 100.612C159.723 100.004 159.986 99.2673 160.012 98.504C160.012 97.6146 159.601 96.8017 159.416 95.9426C159.258 95.2097 159.265 94.4466 159.06 93.7262C158.918 93.2796 158.73 92.8492 158.498 92.4419C158.276 92.0316 158.043 91.6272 157.798 91.2288C157.57 90.4746 157.342 89.7204 157.113 88.9661C156.793 87.8989 156.464 86.8316 155.841 85.9173C155.613 85.5811 155.544 84.9034 155.193 84.6988C154.908 84.5522 154.585 84.4963 154.268 84.5387C153.773 84.2612 153.339 83.861 153.276 83.3132C153.27 83.1935 153.282 83.0735 153.312 82.9574H153.372C154.155 82.8845 154.552 82.1943 154.96 81.5913C155.618 80.6112 155.367 79.2878 154.96 78.1742C154.858 77.823 154.675 77.5006 154.426 77.2333C153.855 76.6996 152.951 76.8188 152.214 76.5609C151.975 76.4557 151.731 76.3637 151.483 76.2852C150.993 76.1695 150.481 76.3296 150.032 76.5555C149.584 76.7814 149.166 77.0732 148.696 77.2528C148.226 77.4325 147.646 77.5712 147.53 78.0533C147.498 78.2156 147.511 78.3838 147.569 78.5389C147.678 78.8475 147.868 79.121 148.119 79.3304C147.919 79.7428 147.811 80.1937 147.802 80.6519C147.793 81.1101 147.884 81.5648 148.068 81.9846C148.251 82.4044 148.524 82.7794 148.867 83.0837C149.21 83.388 149.615 83.6144 150.054 83.7472C150.189 83.9624 150.315 84.183 150.431 84.4107C150.637 84.8091 150.812 85.2787 150.74 85.7056C150.612 85.8417 150.493 85.9868 150.385 86.1396C149.874 86.8512 149.584 87.6872 149.317 88.5179C148.958 89.5814 148.671 90.6677 148.457 91.7695C148.023 92.6909 147.493 93.5732 147.178 94.5427C146.614 94.544 146.052 94.4692 145.508 94.3203L144.007 93.9788C143.483 93.8614 142.939 93.7315 142.529 93.3882C142.312 93.2103 142.143 92.9738 141.923 92.7959C141.702 92.618 141.259 92.4134 141.017 92.5593C140.973 92.5862 140.931 92.6178 140.894 92.6536C140.673 92.2071 140.132 93.3455 139.876 92.924C139.51 92.3174 138.223 93.02 137.529 92.9062C137.105 92.8382 136.671 92.9384 136.321 93.1854C135.915 93.4754 135.66 94.0748 135.965 94.4804C136.04 94.5716 136.123 94.6567 136.212 94.7348C136.418 94.971 136.602 95.2259 136.762 95.4961C137.31 96.2841 138.572 95.5886 139.529 95.77C139.508 95.8305 140.2 94.331 140.179 94.3932C140.052 94.7614 139.784 95.2097 139.851 95.5939L146.532 97.8797C146.96 98.0538 147.415 98.1537 147.877 98.1749C148.057 98.1732 148.236 98.1499 148.411 98.1056V98.4471V98.4595C148.429 100.806 148.055 103.138 147.986 105.482C147.973 105.909 147.986 106.372 148.256 106.706C148.559 107.072 149.096 107.144 149.564 107.062C149.676 107.044 149.786 107.019 149.895 106.989C150.053 107.578 150.168 108.179 150.237 108.785L150.68 111.945C150.737 112.27 150.76 112.6 150.749 112.93C150.698 113.674 150.304 114.342 150.02 115.031C149.735 115.719 149.566 116.541 149.94 117.185C150.057 117.384 150.219 117.555 150.324 117.761C150.457 118.08 150.518 118.425 150.502 118.77C150.529 119.73 150.555 120.69 150.58 121.648C150.502 121.637 150.423 121.653 150.356 121.694C149.986 121.98 150.027 123.354 150 123.779C149.972 124.49 150 125.216 149.961 125.935C149.911 126.906 149.751 127.869 149.484 128.804C149.42 129.107 149.28 129.39 149.077 129.624C148.868 129.804 148.62 129.933 148.352 129.999C147.466 130.276 146.538 130.402 145.61 130.371C145.234 130.36 144.843 130.323 144.494 130.467C144.145 130.611 143.864 131.001 143.991 131.356C144.099 131.655 144.428 131.798 144.725 131.91C145.404 132.146 146.059 132.444 146.683 132.799C146.923 132.962 147.176 133.106 147.439 133.23C147.692 133.32 147.953 133.385 148.219 133.422L151.374 133.955C152.02 134.067 152.798 134.133 153.209 133.6C153.431 133.311 153.463 132.92 153.453 132.555C153.435 131.844 153.292 131.118 153.385 130.408C153.455 129.987 153.566 129.574 153.716 129.174L154.659 126.422C154.976 125.485 155.296 124.54 155.419 123.558C155.463 123.203 155.46 122.799 155.188 122.575C155.118 122.519 155.038 122.478 154.953 122.454C154.942 121.596 154.83 120.739 154.878 119.882C154.89 119.666 154.912 119.453 154.93 119.239C155.095 119.396 155.242 119.57 155.369 119.759C155.673 120.234 155.786 120.863 156.25 121.182C156.645 121.45 157.231 121.438 157.508 121.829C157.597 121.979 157.664 122.141 157.707 122.31C157.869 122.729 158.11 123.114 158.419 123.441C158.526 123.831 158.673 124.209 158.859 124.569L159.642 126.223C159.908 126.817 160.205 127.397 160.532 127.961C160.78 128.316 160.98 128.702 161.128 129.11C161.379 129.99 160.969 130.954 160.322 131.6C159.674 132.246 158.82 132.619 157.978 132.966C157.889 132.996 157.808 133.044 157.74 133.109C157.667 133.195 157.628 133.305 157.631 133.418C157.631 133.829 157.969 134.179 158.357 134.308C158.754 134.412 159.169 134.427 159.572 134.352C161.847 134.076 164.114 133.52 166.125 132.417C166.425 132.273 166.691 132.068 166.906 131.814C167.013 131.684 167.083 131.527 167.106 131.36C167.13 131.193 167.107 131.024 167.04 130.869Z" fill="url(#paint0_linear)"/>
<path d="M157.428 90.985C157.808 91.5661 158.164 92.1626 158.496 92.7745C158.728 93.1781 158.916 93.605 159.059 94.0481C159.265 94.7596 159.26 95.5191 159.414 96.2467C159.592 97.1005 160.009 97.9152 160.009 98.7886C159.982 99.5469 159.719 100.278 159.258 100.88C158.797 101.478 158.271 102.022 157.688 102.501C156.345 99.0211 155.594 95.3408 155.467 91.6129C155.45 91.0953 155.446 90.5634 155.635 90.0814C155.75 89.7808 156.306 88.9518 156.663 89.2774C156.793 89.3965 156.827 89.932 156.907 90.1116C157.058 90.4158 157.232 90.7078 157.428 90.985Z" fill="#2F2E41"/>
<path opacity="0.1" d="M157.428 90.985C157.808 91.5661 158.164 92.1626 158.496 92.7745C158.728 93.1781 158.916 93.605 159.059 94.0481C159.265 94.7596 159.26 95.5191 159.414 96.2467C159.592 97.1005 160.009 97.9152 160.009 98.7886C159.982 99.5469 159.719 100.278 159.258 100.88C158.797 101.478 158.271 102.022 157.688 102.501C156.345 99.0211 155.594 95.3408 155.467 91.6129C155.45 91.0953 155.446 90.5634 155.635 90.0814C155.75 89.7808 156.306 88.9518 156.663 89.2774C156.793 89.3965 156.827 89.932 156.907 90.1116C157.058 90.4158 157.232 90.7078 157.428 90.985Z" fill="black"/>
<path d="M138.325 92.9275C137.629 92.8136 136.857 92.8688 136.316 93.3206C135.989 93.5977 135.783 93.9904 135.739 94.4163C135.693 94.9108 135.979 95.4943 136.474 95.5334C136.593 95.5348 136.712 95.527 136.83 95.5103C137.143 95.5084 137.455 95.534 137.763 95.5868C138.369 95.6438 138.98 95.5546 139.544 95.3268C140.109 95.099 140.61 94.7392 141.007 94.2776C141.432 93.7528 140.872 93.5145 140.37 93.4078C139.683 93.2619 139.012 93.0413 138.325 92.9275Z" fill="#FBBEBE"/>
<path d="M150.226 108.99L150.667 112.124C150.724 112.447 150.746 112.775 150.735 113.103C150.683 113.841 150.29 114.504 150.007 115.187C149.724 115.87 149.552 116.687 149.927 117.322C150.043 117.519 150.205 117.688 150.31 117.893C150.443 118.21 150.504 118.553 150.488 118.896L150.609 123.343C151.982 123.437 153.361 123.43 154.734 123.322C154.788 123.324 154.841 123.307 154.883 123.274C154.919 123.228 154.938 123.172 154.935 123.114C154.995 122.073 154.814 121.031 154.873 119.99C154.894 119.609 154.947 119.229 154.954 118.848C154.976 117.299 154.211 115.782 154.442 114.248C154.515 113.862 154.61 113.48 154.727 113.104C155.458 110.445 155.303 107.633 155.141 104.879C155.144 104.834 155.132 104.79 155.106 104.753C155.079 104.727 155.046 104.709 155.01 104.701C154.231 104.469 153.408 104.426 152.609 104.578C151.811 104.73 151.06 105.072 150.422 105.575C150.228 105.731 149.738 105.881 149.61 106.068C149.432 106.329 149.666 106.587 149.769 106.864C149.997 107.554 150.151 108.267 150.226 108.99Z" fill="#3F3D56"/>
<path opacity="0.1" d="M150.226 108.99L150.667 112.124C150.724 112.447 150.746 112.775 150.735 113.103C150.683 113.841 150.29 114.504 150.007 115.187C149.724 115.87 149.552 116.687 149.927 117.322C150.043 117.519 150.205 117.688 150.31 117.893C150.443 118.21 150.504 118.553 150.488 118.896L150.609 123.343C151.982 123.437 153.361 123.43 154.734 123.322C154.788 123.324 154.841 123.307 154.883 123.274C154.919 123.228 154.938 123.172 154.935 123.114C154.995 122.073 154.814 121.031 154.873 119.99C154.894 119.609 154.947 119.229 154.954 118.848C154.976 117.299 154.211 115.782 154.442 114.248C154.515 113.862 154.61 113.48 154.727 113.104C155.458 110.445 155.303 107.633 155.141 104.879C155.144 104.834 155.132 104.79 155.106 104.753C155.079 104.727 155.046 104.709 155.01 104.701C154.231 104.469 153.408 104.426 152.609 104.578C151.811 104.73 151.06 105.072 150.422 105.575C150.228 105.731 149.738 105.881 149.61 106.068C149.432 106.329 149.666 106.587 149.769 106.864C149.997 107.554 150.151 108.267 150.226 108.99Z" fill="black"/>
<path d="M158.471 108.049C158.263 108.481 157.983 108.885 157.859 109.349C157.535 110.575 158.373 111.84 158.274 113.096C158.241 113.49 158.119 113.878 158.11 114.275C158.101 114.672 158.247 115.111 158.599 115.294C158.836 115.417 159.133 115.404 159.355 115.543C159.731 115.771 159.774 116.294 159.736 116.73C159.699 117.165 159.637 117.656 159.914 118C160.126 118.265 160.489 118.366 160.717 118.617C160.852 118.798 160.968 118.993 161.06 119.199C161.4 119.791 162.021 120.156 162.53 120.611C163.039 121.066 163.47 121.762 163.242 122.406C163.075 122.881 162.605 123.171 162.153 123.395C161.328 123.802 160.458 124.109 159.56 124.309C159.464 124.339 159.362 124.345 159.263 124.325C159.163 124.288 159.073 124.227 159.003 124.147C158.478 123.635 157.935 123.096 157.693 122.402C157.65 122.235 157.583 122.074 157.494 121.925C157.216 121.538 156.631 121.55 156.236 121.283C155.773 120.968 155.661 120.342 155.359 119.871C155.056 119.4 154.613 119.12 154.291 118.704C153.746 118.014 153.613 117.092 153.223 116.304C153.037 115.981 152.867 115.649 152.714 115.308C152.581 114.891 152.499 114.458 152.47 114.02C152.219 111.945 151.581 109.851 151.983 107.795C152.072 107.341 152.209 106.905 152.266 106.439C152.364 105.632 152.209 104.808 152.328 104.002C152.331 103.902 152.356 103.803 152.403 103.713C152.449 103.624 152.516 103.546 152.597 103.486C152.693 103.443 152.797 103.421 152.903 103.422C153.958 103.367 155.015 103.391 156.067 103.494C156.601 103.547 157.199 103.655 157.519 104.089C157.791 104.463 157.777 104.965 157.864 105.418C157.973 105.975 158.256 106.281 158.553 106.719C158.85 107.156 158.697 107.597 158.471 108.049Z" fill="#3F3D56"/>
<path d="M154.378 122.509C154.659 122.509 154.971 122.491 155.188 122.671C155.458 122.891 155.462 123.299 155.419 123.645C155.295 124.62 154.976 125.558 154.658 126.491L153.711 129.266C153.561 129.663 153.45 130.074 153.38 130.492C153.287 131.203 153.43 131.915 153.447 132.627C153.447 132.982 153.424 133.377 153.202 133.662C152.8 134.179 152.015 134.119 151.369 134.018L148.217 133.484C147.951 133.448 147.69 133.383 147.438 133.292C147.174 133.172 146.921 133.03 146.681 132.867C146.058 132.51 145.403 132.213 144.724 131.977C144.429 131.865 144.098 131.725 143.991 131.428C143.864 131.072 144.146 130.682 144.494 130.538C144.843 130.394 145.233 130.431 145.61 130.444C146.538 130.474 147.464 130.348 148.351 130.072C148.617 130.007 148.865 129.879 149.073 129.7C149.277 129.469 149.417 129.189 149.481 128.887C149.749 127.96 149.909 127.005 149.958 126.041C149.995 125.33 149.97 124.618 149.999 123.907C150.016 123.484 149.975 122.128 150.346 121.838C150.629 121.621 151.792 122.219 152.175 122.308C152.898 122.466 153.638 122.534 154.378 122.509Z" fill="#2F2E41"/>
<path d="M164.755 124.482C165.063 125.503 165.111 126.579 165.31 127.627C165.509 128.674 165.862 129.745 166.639 130.473C166.791 130.592 166.922 130.737 167.026 130.9C167.091 131.052 167.113 131.219 167.09 131.384C167.066 131.548 166.998 131.702 166.892 131.83C166.677 132.082 166.41 132.286 166.111 132.428C164.102 133.525 161.84 134.076 159.56 134.35C159.158 134.427 158.743 134.413 158.347 134.308C157.959 134.176 157.615 133.827 157.622 133.418C157.619 133.307 157.657 133.198 157.729 133.112C157.798 133.048 157.88 132.999 157.969 132.97C158.809 132.627 159.662 132.259 160.311 131.615C160.961 130.971 161.368 130.014 161.117 129.149C160.971 128.744 160.77 128.361 160.521 128.009C160.196 127.449 159.899 126.873 159.631 126.284L158.848 124.642C158.619 124.161 158.388 123.667 158.348 123.137C159.332 123.182 160.315 123.024 161.235 122.674C161.665 122.5 162.065 122.26 162.422 121.963C162.724 121.71 163 121.239 163.408 121.57C163.735 121.833 163.942 122.573 164.134 122.95C164.382 123.443 164.59 123.955 164.755 124.482Z" fill="#2F2E41"/>
<path d="M153.28 83.7151C153.358 84.3964 154.02 84.8482 154.652 85.1168L150.653 86.3993C150.911 85.9048 150.703 85.3018 150.447 84.7984C150.239 84.4016 150.001 84.021 149.735 83.66C149.696 83.603 149.651 83.5337 149.68 83.4714C149.705 83.4296 149.745 83.3986 149.792 83.3843C150.614 83.0178 151.461 82.6389 152.36 82.5055C152.62 82.4664 153.111 82.3632 153.305 82.6265C153.499 82.8898 153.243 83.4003 153.28 83.7151Z" fill="#FBBEBE"/>
<path opacity="0.1" d="M153.28 83.7151C153.358 84.3964 154.02 84.8482 154.652 85.1168L150.653 86.3993C150.911 85.9048 150.703 85.3018 150.447 84.7984C150.239 84.4016 150.001 84.021 149.735 83.66C149.696 83.603 149.651 83.5337 149.68 83.4714C149.705 83.4296 149.745 83.3986 149.792 83.3843C150.614 83.0178 151.461 82.6389 152.36 82.5055C152.62 82.4664 153.111 82.3632 153.305 82.6265C153.499 82.8898 153.243 83.4003 153.28 83.7151Z" fill="black"/>
<path d="M150.956 84.2686C152.688 84.2686 154.092 82.8654 154.092 81.1344C154.092 79.4034 152.688 78.0001 150.956 78.0001C149.225 78.0001 147.821 79.4034 147.821 81.1344C147.821 82.8654 149.225 84.2686 150.956 84.2686Z" fill="#FBBEBE"/>
<path d="M148.246 106.927C148.55 107.282 149.086 107.361 149.554 107.282C150.648 107.104 151.543 106.299 152.615 106.007C153.928 105.651 155.318 106.11 156.558 106.669C157.799 107.227 159.032 107.905 160.388 108.012C159.162 105.279 159.863 101.99 158.69 99.2351C158.404 98.5609 158.003 97.9116 157.939 97.1823C157.859 96.2769 158.311 95.4035 158.38 94.5035C158.445 93.7012 158.203 92.9026 157.971 92.1395C157.685 91.2003 157.399 90.2605 157.113 89.3201C156.793 88.2688 156.464 87.2015 155.843 86.2961C155.613 85.9635 155.544 85.2911 155.195 85.0883C154.433 84.649 153.278 85.204 152.453 85.2342C151.627 85.2644 150.874 85.8514 150.392 86.5132C149.881 87.2247 149.591 88.05 149.324 88.8754C148.899 90.1043 148.582 91.3678 148.376 92.6518C148.349 92.8439 148.326 93.036 148.308 93.2299C148.13 95.0567 148.39 96.8942 148.404 98.7281V98.7406C148.422 101.069 148.048 103.383 147.979 105.71C147.972 106.144 147.972 106.601 148.246 106.927Z" fill="#2F2E41"/>
<path opacity="0.1" d="M148.403 98.7299C149.016 98.5752 149.572 98.1785 150.049 97.7463C150.461 97.3791 150.828 96.9641 151.141 96.51C151.536 95.8891 151.852 95.2217 152.083 94.5231C152.742 92.6709 153.161 90.7417 153.328 88.783C153.375 88.2493 153.389 87.6783 153.07 87.255C152.892 87.0254 152.641 86.8629 152.358 86.7941C152.075 86.7253 151.777 86.7542 151.513 86.8761C151.093 87.0825 150.821 87.4969 150.568 87.8918C150.068 88.6798 149.565 89.4749 149.243 90.3501C149.1 90.7379 148.995 91.1381 148.856 91.5276C148.715 91.9117 148.552 92.2876 148.369 92.6536C148.342 92.8457 148.319 93.0378 148.301 93.2317C148.136 95.0585 148.388 96.8942 148.403 98.7299Z" fill="black"/>
<path d="M153.061 86.917C153.38 87.3403 153.365 87.9184 153.321 88.4449C153.153 90.4043 152.734 92.334 152.075 94.1869C151.846 94.8853 151.529 95.5522 151.134 96.172C150.821 96.6264 150.454 97.0415 150.041 97.4082C149.436 97.9615 148.699 98.4524 147.879 98.4613C147.417 98.4387 146.963 98.3395 146.534 98.1678L139.858 95.8998C139.791 95.5192 140.059 95.0763 140.186 94.7098L140.542 93.6532C140.643 93.3615 140.761 93.0484 141.026 92.8901C141.291 92.7318 141.711 92.9488 141.932 93.1232C142.152 93.2975 142.32 93.5323 142.537 93.7119C142.948 94.0535 143.491 94.1798 144.014 94.2972L145.514 94.6351C146.058 94.7826 146.619 94.8567 147.183 94.8557C147.601 93.5803 148.397 92.4543 148.847 91.1896C148.986 90.8001 149.091 90.3998 149.235 90.0138C149.555 89.1369 150.061 88.3418 150.561 87.5556C150.812 87.1589 151.084 86.7444 151.506 86.5399C151.769 86.4173 152.067 86.3878 152.349 86.4563C152.632 86.5248 152.883 86.6872 153.061 86.917Z" fill="#2F2E41"/>
<path d="M151.957 81.8404C151.933 81.6344 151.869 81.435 151.768 81.2534C151.715 81.163 151.635 81.0916 151.539 81.0494C151.443 81.0072 151.337 80.9964 151.234 81.0186C150.921 81.1164 150.816 81.602 150.489 81.6181C150.268 81.6287 150.11 81.4046 150.04 81.1929C149.971 80.9812 149.933 80.7447 149.768 80.5953C149.653 80.509 149.52 80.4484 149.38 80.4174C148.62 80.1772 147.835 79.7325 147.583 78.9766C147.523 78.8231 147.509 78.6558 147.542 78.4945C147.657 78.016 148.254 77.8737 148.707 77.6994C149.161 77.5251 149.597 77.2316 150.042 77.0092C150.487 76.7869 151.003 76.625 151.492 76.7388C151.741 76.8175 151.985 76.909 152.224 77.0128C152.96 77.2671 153.863 77.148 154.434 77.6798C154.683 77.9446 154.866 78.2646 154.968 78.6137C155.366 79.7183 155.619 81.0311 154.959 82.0041C154.551 82.6035 154.156 83.2883 153.373 83.3595C152.462 83.4395 152.101 82.6088 151.957 81.8404Z" fill="#2F2E41"/>
<g opacity="0.1">
<path opacity="0.1" d="M150.564 80.8156C150.495 80.6057 150.458 80.3674 150.294 80.2179C150.179 80.1317 150.046 80.0711 149.906 80.0401C149.144 79.7999 148.361 79.3552 148.107 78.5992C148.049 78.4454 148.035 78.2784 148.068 78.1172C148.086 78.0414 148.118 77.9697 148.162 77.9055C147.872 78.0318 147.619 78.199 147.548 78.4943C147.515 78.6556 147.529 78.8229 147.589 78.9763C147.842 79.7323 148.626 80.177 149.386 80.4172C149.527 80.4482 149.659 80.5088 149.774 80.595C149.94 80.7445 149.975 80.9828 150.047 81.1927C150.118 81.4026 150.274 81.6285 150.495 81.6179C150.716 81.6072 150.822 81.4062 150.963 81.2354C150.769 81.2123 150.628 81.0095 150.564 80.8156Z" fill="black"/>
<path opacity="0.1" d="M153.895 82.9786C152.981 83.0622 152.62 82.2315 152.472 81.4631C152.452 81.2581 152.392 81.0591 152.294 80.8779C152.241 80.7873 152.161 80.7157 152.065 80.6732C151.969 80.6308 151.863 80.6196 151.76 80.6413C151.591 80.6947 151.482 80.8619 151.367 80.9971C151.448 81.0047 151.527 81.031 151.597 81.0738C151.666 81.1167 151.725 81.175 151.769 81.2443C151.869 81.4259 151.933 81.6253 151.958 81.8313C152.102 82.5997 152.463 83.4322 153.381 83.3468C153.744 83.3081 154.079 83.1349 154.321 82.8612C154.187 82.9238 154.043 82.9635 153.895 82.9786Z" fill="black"/>
</g>
<path d="M45.1821 68.0884C37.0708 66.6653 27.6408 66.9144 17.4741 68.0884C19.5366 56.3981 19.6327 44.9463 17.4741 33.7701H45.1821C47.2286 45.1181 47.2286 56.7404 45.1821 68.0884Z" fill="#F2F2F2"/>
<path d="M36.915 31.8137H27.2769V34.9746H36.915V31.8137Z" fill="#3F3D56"/>
<path d="M86.1313 77.098H69.0474V79.4104H86.1313V77.098Z" fill="#D94A3D"/>
<path d="M86.1313 81.9006H69.0474V84.213H86.1313V81.9006Z" fill="#D94A3D"/>
<path d="M108.91 7.7251H91.8262V10.0375H108.91V7.7251Z" fill="#D94A3D"/>
<path d="M108.91 12.528H91.8262V14.8404H108.91V12.528Z" fill="#D94A3D"/>
<path d="M40.5742 40.0992H23.4902V42.4117H40.5742V40.0992Z" fill="#D94A3D"/>
<path d="M22.7003 128.306L26.1064 126.305C25.6458 125.518 25.057 124.814 24.3642 124.222L17.9382 126.219L22.9744 123.259C21.7277 122.577 20.3247 122.23 18.9034 122.254C17.4821 122.278 16.0916 122.672 14.8687 123.396C13.6457 124.12 12.6326 125.15 11.9289 126.385C11.2252 127.62 10.8553 129.016 10.8555 130.437C10.8555 134.957 14.5196 135.113 19.0415 135.113C23.5634 135.113 27.2276 134.957 27.2276 130.437C27.2292 129.293 26.9896 128.162 26.5246 127.118L22.7003 128.306Z" fill="#D94A3D"/>
<path opacity="0.1" d="M23.5669 132.7C23.2044 132.336 22.7993 132.018 22.3604 131.751C21.7411 131.341 21.1022 130.923 20.3726 130.782C19.732 130.661 19.0717 130.764 18.4151 130.727C17.2825 130.657 16.2163 130.169 15.4236 129.357C14.9591 128.875 14.5925 128.29 14.0338 127.918C13.4305 127.521 12.6653 127.436 11.9499 127.536C11.7423 127.565 11.5366 127.607 11.3341 127.662C11.0128 128.552 10.849 129.491 10.8501 130.437C10.8501 134.957 14.5142 135.113 19.0361 135.113C21.2304 135.113 23.2217 135.076 24.6916 134.521L24.4514 134.071C24.2165 133.578 23.9192 133.117 23.5669 132.7Z" fill="black"/>
<path d="M106.372 121.78L101.854 119.129C102.466 118.086 103.248 117.153 104.167 116.367L112.69 119.015L106.011 115.091C107.664 114.186 109.525 113.727 111.41 113.758C113.295 113.79 115.139 114.312 116.761 115.272C118.382 116.233 119.726 117.599 120.659 119.236C121.592 120.873 122.083 122.725 122.082 124.61C122.082 130.602 117.222 130.809 111.227 130.809C105.232 130.809 100.372 130.602 100.372 124.61C100.367 123.09 100.683 121.586 101.299 120.196L106.372 121.78Z" fill="#D94A3D"/>
<path opacity="0.1" d="M105.221 127.605C105.704 127.124 106.241 126.702 106.823 126.347C107.643 125.805 108.492 125.248 109.458 125.063C110.307 124.901 111.183 125.038 112.046 124.988C113.549 124.897 114.963 124.25 116.014 123.172C116.63 122.534 117.116 121.749 117.858 121.263C118.657 120.73 119.671 120.627 120.62 120.757C120.895 120.797 121.169 120.853 121.438 120.924C121.864 122.105 122.08 123.351 122.079 124.606C122.079 130.599 117.219 130.805 111.224 130.805C108.314 130.805 105.673 130.757 103.723 130.022L104.048 129.414C104.361 128.764 104.755 128.156 105.221 127.605Z" fill="black"/>
</g>
<defs>
<linearGradient id="paint0_linear" x1="152.369" y1="134.651" x2="150.016" y2="76.2864" gradientUnits="userSpaceOnUse">
<stop stop-color="#808080" stop-opacity="0.25"/>
<stop offset="0.54" stop-color="#808080" stop-opacity="0.12"/>
<stop offset="1" stop-color="#808080" stop-opacity="0.1"/>
</linearGradient>
<clipPath id="clip0">
<rect width="176" height="139" fill="white"/>
</clipPath>
</defs>
</svg>
