<svg width="222" height="117" viewBox="0 0 222 117" fill="none" xmlns="http://www.w3.org/2000/svg">
<g clip-path="url(#clip0)">
<path d="M194.958 52.222L173.949 62.176L192.543 48.2574C189.521 43.5353 186.126 39.0631 182.39 34.8836L91.2752 57.5548L173.578 26.1258C169.817 22.8039 165.823 19.7563 161.627 17.0065L22.7883 39.3934C8.04717 57.8467 0.0113506 80.7688 0 104.397H208.989C208.981 86.0722 204.141 68.0744 194.958 52.222Z" fill="#F2F2F2"/>
<path d="M150.264 10.5437C136.009 3.5839 120.354 -0.0224982 104.494 -1.76137e-05C72.2162 -1.76137e-05 43.3578 14.6518 24.1899 37.6729C57.0131 30.4734 114.161 18.0107 150.264 10.5437Z" fill="#F2F2F2"/>
<path d="M208.99 103.977C208.99 107.225 178.834 117 141.635 117C104.435 117 74.2788 107.225 74.2788 103.977C74.2788 100.728 104.435 105.237 141.635 105.237C178.834 105.237 208.99 100.728 208.99 103.977Z" fill="#3F3D56"/>
<path opacity="0.1" d="M208.99 103.977C208.99 107.225 178.834 117 141.635 117C104.435 117 74.2788 107.225 74.2788 103.977C74.2788 100.728 104.435 105.237 141.635 105.237C178.834 105.237 208.99 100.728 208.99 103.977Z" fill="black"/>
<path d="M141.635 109.858C178.834 109.858 208.99 107.225 208.99 103.977C208.99 100.728 178.834 98.0952 141.635 98.0952C104.435 98.0952 74.2788 100.728 74.2788 103.977C74.2788 107.225 104.435 109.858 141.635 109.858Z" fill="#3F3D56"/>
<path d="M122.886 56.1109C122.886 56.1109 125.595 60.4122 124.627 61.5768C123.66 62.7414 131.886 62.7705 131.886 62.7705C131.886 62.7705 130.65 56.5135 131.014 55.0735L122.886 56.1109Z" fill="#FFB8B8"/>
<path opacity="0.1" d="M122.886 56.1109C122.886 56.1109 125.595 60.4122 124.627 61.5768C123.66 62.7414 131.886 62.7705 131.886 62.7705C131.886 62.7705 130.65 56.5135 131.014 55.0735L122.886 56.1109Z" fill="black"/>
<path d="M127.215 57.6698C131.907 57.6698 135.71 53.8625 135.71 49.1659C135.71 44.4693 131.907 40.662 127.215 40.662C122.524 40.662 118.72 44.4693 118.72 49.1659C118.72 53.8625 122.524 57.6698 127.215 57.6698Z" fill="#FF6584"/>
<path d="M147.195 95.2594V100.301L152.231 99.2504L151.812 95.6795L147.195 95.2594Z" fill="#FFB8B8"/>
<path d="M165.031 96.0996L179.09 98.4102L175.522 103.662C175.522 103.662 165.66 100.301 163.142 100.301C160.624 100.301 165.031 96.0996 165.031 96.0996Z" fill="#FFB8B8"/>
<path d="M133.137 86.0171C133.137 86.0171 143.628 73.834 146.985 74.4642C150.343 75.0943 151.812 78.8753 151.812 78.8753L153.7 97.5701C153.7 97.5701 146.985 98.2003 146.985 97.5701C146.985 96.9399 145.726 83.4965 145.726 83.4965C145.726 83.4965 135.864 105.342 130.619 90.8484L133.137 86.0171Z" fill="#2F2E41"/>
<path d="M116.14 94.2092C116.14 94.2092 116.35 104.712 122.645 105.342C128.94 105.972 135.864 101.141 135.864 101.141L147.195 95.7069C147.195 95.7069 160.624 102.821 164.611 100.931C164.611 100.931 168.808 96.5198 166.08 95.2595C163.352 93.9992 165.87 95.2595 165.87 95.2595L149.713 86.8573C149.713 86.8573 146.566 86.0171 141.11 88.3277C135.654 90.6383 128.31 91.6886 128.31 91.6886L116.14 94.2092Z" fill="#2F2E41"/>
<path d="M126.632 58.29C130.108 58.29 132.927 55.4687 132.927 51.9884C132.927 48.5081 130.108 45.6868 126.632 45.6868C123.155 45.6868 120.337 48.5081 120.337 51.9884C120.337 55.4687 123.155 58.29 126.632 58.29Z" fill="#FFB8B8"/>
<path d="M135.654 69.6328L135.235 78.4551C135.235 78.4551 135.445 90.008 133.556 90.8482C132.601 91.2726 130.683 92.1254 128.91 93.058C127.58 93.7554 126.332 94.4948 125.635 95.1312C125.45 95.2885 125.291 95.4734 125.163 95.6795C124.323 97.1499 118.868 96.9398 117.609 95.8895C116.35 94.8393 117.189 97.1499 116.14 97.57C115.125 97.9775 113.717 94.646 114.579 89.6719C114.606 89.506 114.638 89.338 114.671 89.1678C115.634 84.3471 114.122 72.8004 114.354 68.3389C114.368 67.998 114.404 67.6584 114.461 67.3222C115.091 63.9613 123.123 57.122 124.626 60.0354C126.476 63.6316 130.728 60.3463 131.458 58.71C135.654 58.4999 137.123 63.5412 137.123 63.5412L135.654 69.6328Z" fill="#3F3D56"/>
<path d="M152.651 98.4103C152.651 98.4103 149.293 99.6706 148.244 99.4606C147.195 99.2505 146.146 100.091 146.146 101.351C146.146 102.611 144.887 105.552 146.775 105.762C148.664 105.972 156.428 105.552 158.106 106.182C158.106 106.182 165.66 106.392 165.031 103.242C164.401 100.091 161.254 100.301 161.254 100.301C161.254 100.301 152.651 99.8807 152.651 98.4103Z" fill="#2F2E41"/>
<path d="M177.201 99.0403C177.201 99.0403 177.621 97.78 178.25 97.78C178.88 97.78 183.916 98.6202 184.545 98.4102C185.175 98.2001 192.519 97.78 191.26 101.351C190.001 104.922 185.804 105.342 185.804 105.342C185.804 105.342 178.25 104.502 177.201 104.712C176.152 104.922 172.375 104.712 173.004 103.662C173.634 102.611 177.621 100.721 177.201 99.0403Z" fill="#2F2E41"/>
<path d="M158.101 68.8689L159.252 73.6225C159.265 73.6755 159.263 73.7311 159.247 73.783L154.025 90.1189C154.004 90.1836 153.962 90.2392 153.905 90.2765C153.848 90.3138 153.781 90.3305 153.713 90.3239C153.646 90.3172 153.582 90.2876 153.534 90.2399C153.486 90.1922 153.455 90.1294 153.447 90.0619L152.725 83.6981C152.72 83.6558 152.725 83.613 152.738 83.5726L157.531 68.8469C157.551 68.7854 157.59 68.7322 157.643 68.6953C157.696 68.6583 157.76 68.6397 157.824 68.6422C157.889 68.6447 157.951 68.6682 158.001 68.7091C158.051 68.75 158.086 68.8061 158.101 68.8689Z" fill="#D0CDE1"/>
<path d="M157.678 69.2706L158.74 73.349L154.135 88.2446L153.072 83.6341L157.678 69.2706Z" fill="#F2F2F2"/>
<path d="M134.472 91.4364C134.649 91.9684 152.895 91.2591 153.072 91.0817C153.226 90.8597 153.357 90.6219 153.462 90.3724C153.628 90.0178 153.78 89.6631 153.78 89.6631L153.072 83.9212L135.004 83.2793C135.004 83.2793 134.552 88.1452 134.46 90.3724C134.428 90.7266 134.433 91.0831 134.472 91.4364Z" fill="#D0CDE1"/>
<path opacity="0.1" d="M150.769 84.698L151.123 89.6632H143.152V84.698H150.769Z" fill="black"/>
<path opacity="0.1" d="M140.495 86.2939L140.543 86.2844L140.318 88.422H135.889V86.2939H140.495Z" fill="black"/>
<path opacity="0.1" d="M134.472 91.4364C134.649 91.9684 152.895 91.2591 153.072 91.0818C153.226 90.8597 153.357 90.6219 153.462 90.3724H134.46C134.428 90.7266 134.433 91.0831 134.472 91.4364Z" fill="black"/>
<path d="M131.649 34.0287C131.007 34.9465 130.056 35.6012 128.97 35.8725C127.096 36.3748 128.955 39.1933 128.955 39.1933C128.955 39.1933 128.279 38.1684 129.254 37.083C130.228 35.9976 131.797 35.2555 131.649 34.0287Z" fill="#FF6584"/>
<path d="M128.623 42.2394C129.93 42.2394 130.99 41.1783 130.99 39.8695C130.99 38.5606 129.93 37.4995 128.623 37.4995C127.315 37.4995 126.255 38.5606 126.255 39.8695C126.255 41.1783 127.315 42.2394 128.623 42.2394Z" fill="#FF6584"/>
<path d="M131.645 41.8558C129.715 41.125 126.502 40.7545 124.849 41.0078L125.075 39.3503C126.665 40.1727 129.864 40.5591 131.872 40.1983L131.645 41.8558Z" fill="#3F3D56"/>
<path d="M127.911 42.4491C127.911 42.4491 125.492 46.4766 119.868 47.9843C114.243 49.492 119.822 57.953 119.822 57.953C119.822 57.953 117.793 54.8763 120.719 51.618C123.645 48.3596 128.354 46.132 127.911 42.4491Z" fill="#FF6584"/>
<path d="M128.103 42.2043C128.103 42.2043 130.426 47.7363 132.977 48.2593C135.528 48.7824 135.335 57.5234 131.346 58.8342C131.346 58.8342 134.255 53.7098 131.768 50.2731C129.281 46.8364 127.711 44.1196 128.103 42.2043Z" fill="#FF6584"/>
<path opacity="0.1" d="M128.91 93.0581C128.392 94.0391 127.784 95.0578 127.681 95.4695C127.611 95.7489 126.843 95.5872 125.635 95.1313C123.211 94.2134 119.01 92.1108 115.091 90.0081C114.91 89.9122 114.739 89.7997 114.579 89.672C114.606 89.5061 114.638 89.3381 114.671 89.1679C115.634 84.3472 114.121 72.8005 114.354 68.339L116.14 67.7424L119.707 71.1033V85.3869C119.707 85.3869 128.94 90.4282 129.569 90.8483C129.89 91.0626 129.447 92.0394 128.91 93.0581Z" fill="black"/>
<path d="M136.703 81.606L142.369 84.5467C142.369 84.5467 145.726 80.9758 147.824 83.7065C149.923 86.4372 141.739 87.2774 141.739 87.2774C141.739 87.2774 134.605 85.597 134.395 83.2864C134.185 80.9758 136.703 81.606 136.703 81.606Z" fill="#FFB8B8"/>
<path d="M127.262 89.3779L130.619 90.2181C130.619 90.2181 134.396 85.5969 138.382 87.2773C142.369 88.9578 133.347 92.3186 133.347 92.3186C133.347 92.3186 128.52 94.8393 126.632 92.7387C124.744 90.6382 127.262 89.3779 127.262 89.3779Z" fill="#FFB8B8"/>
<path d="M134.605 61.6508C134.815 61.8608 137.123 63.5412 137.123 63.5412C137.123 63.5412 137.753 71.5233 136.914 73.2037C136.074 74.8842 135.445 74.8842 136.074 75.7244C136.704 76.5646 137.543 75.9344 136.704 77.4048C135.864 78.8752 135.025 78.6651 135.655 79.2953C136.284 79.9254 136.074 80.1355 136.074 80.1355L138.592 82.236C138.592 82.236 137.047 84.6992 135.092 84.5179C133.137 84.3366 131.458 74.8842 131.458 74.8842L134.605 61.6508Z" fill="#3F3D56"/>
<path d="M116.14 66.6921L114.251 67.3223C114.251 67.3223 109.216 85.807 115.091 88.9579C120.966 92.1087 127.471 95.2595 127.681 94.4193C127.891 93.579 130.199 90.2182 129.569 89.7981C128.94 89.378 119.707 84.3367 119.707 84.3367V70.053L116.14 66.6921Z" fill="#3F3D56"/>
<path opacity="0.1" d="M118.973 74.3591L118.553 84.4417L129.674 89.6931L119.393 84.4417L118.973 74.3591Z" fill="black"/>
<path d="M212.578 96.9699C208.349 99.4662 206.685 104.484 206.685 104.484C206.685 104.484 211.877 105.455 216.106 102.959C220.335 100.462 222 95.4442 222 95.4442C222 95.4442 216.808 94.4735 212.578 96.9699Z" fill="#3F3D56"/>
<path d="M214.06 98.5175C211.692 102.823 206.73 104.636 206.73 104.636C206.73 104.636 205.608 99.469 207.977 95.1638C210.345 90.8586 215.307 89.0454 215.307 89.0454C215.307 89.0454 216.429 94.2123 214.06 98.5175Z" fill="#D94A3D"/>
<path d="M4.61472 48.7324C5.07826 48.7324 5.45404 48.3563 5.45404 47.8922C5.45404 47.4282 5.07826 47.052 4.61472 47.052C4.15117 47.052 3.77539 47.4282 3.77539 47.8922C3.77539 48.3563 4.15117 48.7324 4.61472 48.7324Z" fill="#D94A3D"/>
<path d="M6.92331 48.7324C7.38685 48.7324 7.76263 48.3563 7.76263 47.8922C7.76263 47.4282 7.38685 47.052 6.92331 47.052C6.45976 47.052 6.08398 47.4282 6.08398 47.8922C6.08398 48.3563 6.45976 48.7324 6.92331 48.7324Z" fill="#D94A3D"/>
<path d="M9.23141 48.7324C9.69496 48.7324 10.0707 48.3563 10.0707 47.8922C10.0707 47.4282 9.69496 47.052 9.23141 47.052C8.76787 47.052 8.39209 47.4282 8.39209 47.8922C8.39209 48.3563 8.76787 48.7324 9.23141 48.7324Z" fill="#D94A3D"/>
<path opacity="0.3" d="M28.7454 79.5836H16.5752V80.8439H28.7454V79.5836Z" fill="#D94A3D"/>
<path opacity="0.3" d="M28.0876 82.3143H16.5752V83.5747H28.0876V82.3143Z" fill="#D94A3D"/>
<path opacity="0.3" d="M24.9628 85.045H16.5752V86.3054H24.9628V85.045Z" fill="#D94A3D"/>
<g opacity="0.3">
<path opacity="0.3" d="M57.0726 79.5836H44.9023V80.8439H57.0726V79.5836Z" fill="#D94A3D"/>
<path opacity="0.3" d="M56.4147 82.3143H44.9023V83.5747H56.4147V82.3143Z" fill="#D94A3D"/>
<path opacity="0.3" d="M53.2899 85.045H44.9023V86.3054H53.2899V85.045Z" fill="#D94A3D"/>
<path opacity="0.3" d="M57.0726 79.5836H44.9023V80.8439H57.0726V79.5836Z" fill="#D94A3D"/>
<path opacity="0.3" d="M56.4147 82.3143H44.9023V83.5747H56.4147V82.3143Z" fill="#D94A3D"/>
<path opacity="0.3" d="M53.2899 85.045H44.9023V86.3054H53.2899V85.045Z" fill="#D94A3D"/>
</g>
<path opacity="0.3" d="M86.449 79.5836H74.2788V80.8439H86.449V79.5836Z" fill="#D94A3D"/>
<path opacity="0.3" d="M85.7912 82.3143H74.2788V83.5747H85.7912V82.3143Z" fill="#D94A3D"/>
<path opacity="0.3" d="M82.6664 85.045H74.2788V86.3054H82.6664V85.045Z" fill="#D94A3D"/>
<path opacity="0.3" d="M30.424 63.1995H14.8965V77.063H30.424V63.1995Z" fill="#D94A3D"/>
<path d="M58.7516 63.1995H43.2241V77.063H58.7516V63.1995Z" fill="#3F3D56"/>
<path d="M88.1276 63.1995H72.6001V77.063H88.1276V63.1995Z" fill="#3F3D56"/>
<path d="M48.9646 77.0046L48.7598 77.0006C48.7642 76.7735 48.8922 71.4214 50.997 69.942L51.1147 70.1098C49.0947 71.5295 48.9656 76.9501 48.9646 77.0046Z" fill="#D94A3D"/>
<path d="M52.0799 69.8743C52.6456 69.8743 53.1042 69.4152 53.1042 68.849C53.1042 68.2827 52.6456 67.8236 52.0799 67.8236C51.5142 67.8236 51.0557 68.2827 51.0557 68.849C51.0557 69.4152 51.5142 69.8743 52.0799 69.8743Z" fill="#D94A3D"/>
<path d="M51.8729 72.4693C51.3401 72.6369 50.7728 72.6614 50.2275 72.5405C50.5737 72.0992 51.04 71.7676 51.5701 71.5856C52.1003 71.4036 52.6717 71.3789 53.2155 71.5145C52.8592 71.945 52.3962 72.2742 51.8729 72.4693Z" fill="#D94A3D"/>
<path d="M78.3411 77.0046L78.1362 77.0006C78.1406 76.7735 78.2687 71.4214 80.3735 69.942L80.4911 70.1098C78.4712 71.5295 78.3421 76.9501 78.3411 77.0046Z" fill="#D94A3D"/>
<path d="M81.4564 69.8743C82.0221 69.8743 82.4806 69.4152 82.4806 68.849C82.4806 68.2827 82.0221 67.8236 81.4564 67.8236C80.8907 67.8236 80.4321 68.2827 80.4321 68.849C80.4321 69.4152 80.8907 69.8743 81.4564 69.8743Z" fill="#D94A3D"/>
<path d="M81.2494 72.4693C80.7166 72.6369 80.1492 72.6614 79.604 72.5405C79.9502 72.0992 80.4164 71.7676 80.9466 71.5856C81.4767 71.4036 82.0481 71.3789 82.592 71.5145C82.2357 71.945 81.7727 72.2742 81.2494 72.4693Z" fill="#D94A3D"/>
<path d="M101.767 103.767H1.25781V45.5817H101.767V103.767ZM1.67747 103.347H101.347V46.0018H1.67747V103.347Z" fill="#2F2E41"/>
<path d="M101.557 49.7964H1.46729V50.2165H101.557V49.7964Z" fill="#2F2E41"/>
<g clip-path="url(#clip1)">
<path d="M281.85 158.6C227.85 165.08 153.85 167.38 153.85 167.38C153.85 167.38 -226.56 198.93 -511.67 81.59C-511.67 81.59 -553.14 59.85 -514.67 30.59L-514.54 31.13C-514.54 31.13 -453.02 72.71 -159.08 107.42L281.85 158.6Z" fill="#D94A3D"/>
<path d="M170.29 353.23L80.6601 357.92L-171.34 188L-218.12 156.45L-240.84 141.12C-198.21 105.12 -24.2799 154.77 -24.2799 154.77C-20.9499 157.58 -19.8898 162.25 -20.0398 167.41C-20.3298 177.07 -24.8698 188.41 -26.6198 192.49C-27.0398 193.49 -27.2998 194.02 -27.2998 194.02L170.29 353.23Z" fill="#3F3D56"/>
</g>
</g>
<defs>
<clipPath id="clip0">
<rect width="222" height="117" fill="white"/>
</clipPath>
<clipPath id="clip1">
<rect width="1063.13" height="672.74" fill="white" transform="translate(-531 -247)"/>
</clipPath>
</defs>
</svg>
