<svg width="168" height="135" viewBox="0 0 168 135" fill="none" xmlns="http://www.w3.org/2000/svg">
<path d="M84.9975 135C130.838 135 168 132.104 168 128.532C168 124.96 130.838 122.065 84.9975 122.065C39.1565 122.065 1.99512 124.96 1.99512 128.532C1.99512 132.104 39.1565 135 84.9975 135Z" fill="#3F3D56"/>
<path d="M155.504 116.517L156.282 122.207L150.836 122.724L151.614 115.741L155.504 116.517Z" fill="#E5B8BE"/>
<path d="M129.831 38.4081C129.831 38.4081 130.35 45.3914 130.35 45.65C130.35 45.9086 126.72 63.7548 126.72 63.7548C126.72 63.7548 121.533 73.5831 126.72 73.3245C131.906 73.0659 130.35 64.0135 130.35 64.0135L135.796 49.0123L133.462 38.4081L129.831 38.4081Z" fill="#A0616A"/>
<path d="M138.389 116.517L137.611 122.207L143.056 122.724L142.279 115.741L138.389 116.517Z" fill="#E5B8BE"/>
<path d="M132.425 63.2374L131.128 65.0479C131.128 65.0479 130.35 72.8071 131.128 75.3935C131.906 77.9799 133.462 89.8773 133.462 90.6532C133.462 91.4291 133.721 91.9464 133.462 92.205C133.203 92.4637 132.425 92.4637 132.943 92.981C133.462 93.4982 133.462 95.0501 133.462 95.0501V96.3433L136.833 115.483C136.833 115.483 134.758 117.81 136.314 117.81C137.87 117.81 143.575 117.81 143.316 115.224L142.797 114.965C142.797 114.965 142.019 97.8951 142.279 97.1192C142.538 96.3433 142.279 94.7914 142.279 94.7914C142.279 94.7914 141.76 94.0155 142.279 93.7569C142.797 93.4982 142.797 91.4291 142.797 91.4291L145.131 75.6521C145.131 75.6521 147.206 86.2563 148.502 87.2909C149.799 88.3255 149.539 90.9119 149.539 90.9119L150.577 113.672C150.577 113.672 149.539 116.259 150.577 116.776C151.614 117.293 156.022 119.104 156.282 116.517C156.541 113.931 157.837 91.4291 157.837 90.3946C157.837 89.36 157.578 88.8427 157.837 88.0668C158.097 87.2909 157.578 87.2909 157.837 87.2909C158.097 87.2909 157.319 86.515 157.319 85.9977V73.3244C157.319 73.3244 157.578 70.738 157.837 70.2207C158.097 69.7034 157.578 69.1861 157.837 68.4102C158.097 67.6343 157.319 65.0479 157.319 65.0479L145.65 61.9442L132.425 63.2374Z" fill="#2F2E41"/>
<path d="M141.5 121.173C141.5 121.173 142.797 119.88 140.982 119.88C139.816 119.903 138.669 120.167 137.611 120.655L136.314 125.311C136.314 125.311 130.998 129.578 136.962 129.061C142.927 128.544 142.019 128.932 142.019 128.932C142.019 128.932 143.834 128.415 144.093 127.897C144.353 127.38 143.575 119.88 143.575 119.88C143.575 119.88 142.797 121.949 141.5 121.173Z" fill="#2F2E41"/>
<path d="M152.651 121.173C152.651 121.173 151.355 119.88 153.17 119.88C154.335 119.903 155.483 120.167 156.541 120.655L157.838 125.311C157.838 125.311 163.154 129.579 157.189 129.061C151.225 128.544 151.355 128.932 151.355 128.932C151.355 128.932 149.539 128.415 149.28 127.897C149.021 127.38 150.577 119.88 150.577 119.88C150.577 119.88 151.355 121.949 152.651 121.173Z" fill="#2F2E41"/>
<path d="M135.795 17.9755C139.519 17.9755 142.538 14.9648 142.538 11.2509C142.538 7.53697 139.519 4.52625 135.795 4.52625C132.072 4.52625 129.053 7.53697 129.053 11.2509C129.053 14.9648 132.072 17.9755 135.795 17.9755Z" fill="#E6B8BE"/>
<path d="M133.461 16.165C133.461 16.165 134.499 21.3378 134.499 22.1137C134.499 22.8896 138.907 25.2174 138.907 25.2174L143.834 19.01C143.834 19.01 140.722 14.6132 140.722 13.5786L133.461 16.165Z" fill="#E6B8BE"/>
<path d="M137.351 22.8897C137.351 22.8897 135.091 22.2897 134.406 21.2965C134.406 21.2965 127.238 28.3212 127.238 29.6144L132.943 39.7013C132.943 39.7013 132.943 43.3223 133.461 43.5809C133.98 43.8395 133.461 43.5809 133.461 44.6155C133.461 45.65 131.905 52.3747 132.424 53.4092C132.943 54.4438 133.461 53.6679 132.943 55.2197C132.424 56.7715 131.128 65.048 131.128 65.048C131.128 65.048 135.795 63.4962 142.537 66.0826C149.28 68.669 157.318 65.048 157.318 65.048C157.318 65.048 155.244 60.3925 155.763 58.8407C156.281 57.2888 154.466 54.4438 154.466 54.4438L153.169 30.6489C153.169 30.6489 154.985 20.0447 153.688 19.5274L151.095 18.4928L142.791 17.4749C142.791 17.4749 140.722 22.6311 137.351 22.8897Z" fill="#D0CDE1"/>
<path d="M129.831 27.8038L127.238 29.6143C127.238 29.6143 125.941 33.4939 127.238 35.3044C128.534 37.1149 129.053 39.7013 129.053 39.7013L134.239 39.184L129.831 27.8038Z" fill="#D0CDE1"/>
<path d="M130.648 4.14404L129.479 3.67705C129.479 3.67705 131.924 0.991884 135.326 1.22538L134.369 0.174648C134.369 0.174648 136.708 -0.759316 138.835 1.69235C139.952 2.98115 141.246 4.49605 142.052 6.20257H143.305L142.782 7.35058L144.611 8.49859L142.733 8.29238C142.911 9.28348 142.85 10.3026 142.556 11.2656L142.606 12.173C142.606 12.173 140.429 8.8139 140.429 8.34691V9.51438C140.429 9.51438 139.26 8.46366 139.26 7.76318L138.622 8.58041L138.303 7.29619L134.369 8.58041L135.007 7.5297L132.562 7.87994L133.519 6.59573C133.519 6.59573 130.754 8.11343 130.648 9.39766C130.542 10.6819 129.16 12.3163 129.16 12.3163L128.522 11.1488C128.522 11.1488 127.565 5.89524 130.648 4.14404Z" fill="#2F2E41"/>
<path d="M132.212 56.2848H29.1646V128.483H132.212V56.2848Z" fill="#F2F2F2"/>
<path d="M63.7128 83.8319H37.8389V128.881H63.7128V83.8319Z" fill="#3F3D56"/>
<path d="M49.5942 86.5344H42.6245V93.0147H49.5942V86.5344Z" fill="#F2F2F2"/>
<path d="M58.9273 86.5344H51.9575V93.0147H58.9273V86.5344Z" fill="#F2F2F2"/>
<path d="M49.5942 95.3712H42.6245V102.087H49.5942V95.3712Z" fill="#F2F2F2"/>
<path d="M58.9273 95.3712H51.9575V102.087H58.9273V95.3712Z" fill="#F2F2F2"/>
<path d="M60.4225 111.03C61.3311 111.03 62.0677 110.296 62.0677 109.39C62.0677 108.483 61.3311 107.749 60.4225 107.749C59.5139 107.749 58.7773 108.483 58.7773 109.39C58.7773 110.296 59.5139 111.03 60.4225 111.03Z" fill="#D94A3D"/>
<path d="M123.537 79.5554H72.3872V122.367H123.537V79.5554Z" fill="#3F3D56"/>
<path d="M142.98 69.8772H18.396L26.7026 52.5555L28.5616 48.6771L30.9936 43.6052L32.8526 39.7268L35.0076 35.2339H133.164L134.437 39.7268L135.536 43.6052L136.974 48.6771L138.073 52.5555L142.98 69.8772Z" fill="#3F3D56"/>
<path d="M75.9769 97.3069H74.1821V108.345H75.9769V97.3069Z" fill="#D94A3D"/>
<path d="M75.9769 98.9475H74.1821V100.29H75.9769V98.9475Z" fill="#F2F2F2"/>
<path d="M75.9769 105.362H74.1821V106.705H75.9769V105.362Z" fill="#F2F2F2"/>
<path d="M81.2113 97.3069H76.874V108.345H81.2113V97.3069Z" fill="#D94A3D"/>
<path d="M81.2113 98.9475H76.874V100.29H81.2113V98.9475Z" fill="#F2F2F2"/>
<path d="M81.2113 105.362H76.874V106.705H81.2113V105.362Z" fill="#F2F2F2"/>
<path d="M84.053 97.3069H82.2583V108.345H84.053V97.3069Z" fill="#D94A3D"/>
<path d="M84.053 98.9475H82.2583V100.29H84.053V98.9475Z" fill="#F2F2F2"/>
<path d="M84.053 105.362H82.2583V106.705H84.053V105.362Z" fill="#F2F2F2"/>
<path d="M86.7454 97.3069H84.9507V108.345H86.7454V97.3069Z" fill="#D94A3D"/>
<path d="M86.7454 98.9475H84.9507V100.29H86.7454V98.9475Z" fill="#F2F2F2"/>
<path d="M86.7454 105.362H84.9507V106.705H86.7454V105.362Z" fill="#F2F2F2"/>
<path d="M88.4743 97.3457L86.7949 97.9771L90.6987 108.306L92.3781 107.675L88.4743 97.3457Z" fill="#D94A3D"/>
<path d="M89.0549 98.8813L87.3755 99.5127L87.8503 100.769L89.5296 100.138L89.0549 98.8813Z" fill="#F2F2F2"/>
<path d="M91.3234 104.883L89.644 105.515L90.1188 106.771L91.7982 106.14L91.3234 104.883Z" fill="#F2F2F2"/>
<path d="M121.892 97.3069H117.555V108.345H121.892V97.3069Z" fill="#D94A3D"/>
<path d="M121.892 98.9475H117.555V100.29H121.892V98.9475Z" fill="#F2F2F2"/>
<path d="M121.892 105.362H117.555V106.705H121.892V105.362Z" fill="#F2F2F2"/>
<path d="M116.508 97.3069H114.713V108.345H116.508V97.3069Z" fill="#D94A3D"/>
<path d="M116.508 98.9475H114.713V100.29H116.508V98.9475Z" fill="#F2F2F2"/>
<path d="M116.508 105.362H114.713V106.705H116.508V105.362Z" fill="#F2F2F2"/>
<path d="M113.815 97.3069H112.021V108.345H113.815V97.3069Z" fill="#D94A3D"/>
<path d="M113.815 98.9475H112.021V100.29H113.815V98.9475Z" fill="#F2F2F2"/>
<path d="M113.815 105.362H112.021V106.705H113.815V105.362Z" fill="#F2F2F2"/>
<path d="M110.291 97.3459L106.388 107.675L108.067 108.306L111.971 97.9773L110.291 97.3459Z" fill="#D94A3D"/>
<path d="M109.711 98.8812L109.236 100.137L110.916 100.769L111.39 99.5126L109.711 98.8812Z" fill="#F2F2F2"/>
<path d="M107.443 104.883L106.968 106.14L108.648 106.771L109.122 105.515L107.443 104.883Z" fill="#F2F2F2"/>
<path d="M123.537 108.345H72.3872V109.39H123.537V108.345Z" fill="#F2F2F2"/>
<path d="M104.095 97.3069H94.6724V108.345H104.095V97.3069Z" fill="#D94A3D"/>
<path d="M101.776 99.6935H96.9902V101.782H101.776V99.6935Z" fill="#F2F2F2"/>
<path d="M98.411 79.5554H97.5137V89.1023H98.411V79.5554Z" fill="#F2F2F2"/>
<path d="M97.9624 90.5942C98.7884 90.5942 99.458 89.9263 99.458 89.1024C99.458 88.2786 98.7884 87.6107 97.9624 87.6107C97.1364 87.6107 96.4668 88.2786 96.4668 89.1024C96.4668 89.9263 97.1364 90.5942 97.9624 90.5942Z" fill="#F2F2F2"/>
<path d="M135.536 43.6052H30.9937L32.8526 39.7268H134.437L135.536 43.6052Z" fill="#D94A3D"/>
<path d="M138.073 52.5555H26.7026L28.5616 48.6771H136.974L138.073 52.5555Z" fill="#D94A3D"/>
<path d="M149.02 30.1316C149.02 30.1316 147.519 33.9829 147.832 37.7935C147.89 38.4757 148.12 39.1322 148.502 39.7013L130.105 48.4125C130.105 48.4125 121.792 49.2709 123.867 52.8919C125.941 56.5129 133.461 51.0814 133.461 51.0814C133.461 51.0814 153.169 48.2364 154.725 45.3913C156.281 42.5463 157.318 30.6489 157.318 30.6489L149.02 30.1316Z" fill="#E5B8BE"/>
<path d="M149.799 19.5273H153.688C153.688 19.5273 156.541 20.0446 157.319 25.2174C158.097 30.3902 158.875 31.6834 158.097 31.6834C157.319 31.6834 147.983 31.4248 147.983 31.1661C147.983 30.9075 149.799 19.5273 149.799 19.5273Z" fill="#D0CDE1"/>
<path d="M19.9525 96.7912C30.972 96.7912 39.905 87.8814 39.905 76.8907C39.905 65.9 30.972 56.9902 19.9525 56.9902C8.93304 56.9902 0 65.9 0 76.8907C0 87.8814 8.93304 96.7912 19.9525 96.7912Z" fill="#D94A3D"/>
<path opacity="0.1" d="M19.9526 94.005C29.4293 94.005 37.1117 86.3427 37.1117 76.8906C37.1117 67.4386 29.4293 59.7762 19.9526 59.7762C10.4759 59.7762 2.79346 67.4386 2.79346 76.8906C2.79346 86.3427 10.4759 94.005 19.9526 94.005Z" fill="black"/>
<path d="M19.1301 86.9897V84.4988C17.8676 84.4742 16.5616 84.0301 15.7998 83.4136L16.3222 81.7612C17.2275 82.4379 18.3254 82.8093 19.4566 82.8216C21.0021 82.8216 22.0469 81.8105 22.0469 80.4047C22.0469 79.0482 21.1979 78.2098 19.5872 77.4698C17.367 76.4833 15.9957 75.3488 15.9957 73.2032C15.9957 71.1561 17.2799 69.6023 19.2825 69.2324V66.7415H20.632V69.1338C21.6383 69.1475 22.6199 69.4469 23.4617 69.9969L22.9175 71.6247C22.1101 71.0735 21.1533 70.7809 20.1749 70.7861C18.4989 70.7861 17.8676 71.9206 17.8676 72.9072C17.8676 74.1896 18.673 74.8308 20.5667 75.7188C22.8087 76.7546 23.9406 78.0371 23.9406 80.232C23.9406 82.1804 22.7434 84.0056 20.5014 84.4246V86.9897H19.1301Z" fill="#F2F2F2"/>
</svg>
