<svg width="274" height="164" viewBox="0 0 274 164" fill="none" xmlns="http://www.w3.org/2000/svg">
<g clip-path="url(#clip0)">
<path d="M75.151 163.785L68.0344 143.907C68.0344 143.907 75.8626 147.812 76.2185 152.781C76.2185 152.781 74.4393 127.934 70.881 122.609C70.881 122.609 76.5743 123.319 82.9792 151.006C82.9792 151.006 84.0467 119.06 74.4393 109.831C74.4393 109.831 87.6049 120.479 88.6724 143.552V163.785H75.151Z" fill="#F2F2F2"/>
<path d="M208.613 163.785L206.902 159.005C206.902 159.005 208.785 159.944 208.87 161.139C208.87 161.139 208.442 155.165 207.587 153.885C207.587 153.885 208.956 154.055 210.496 160.712C210.496 160.712 210.752 153.031 208.442 150.812C208.442 150.812 211.608 153.372 211.865 158.92V163.785L208.613 163.785Z" fill="#F2F2F2"/>
<path d="M176.913 122.677C194.191 122.677 208.197 108.705 208.197 91.4698C208.197 74.2345 194.191 60.2625 176.913 60.2625C159.636 60.2625 145.63 74.2345 145.63 91.4698C145.63 108.705 159.636 122.677 176.913 122.677Z" fill="#F2F2F2"/>
<path d="M73.7858 2.36743H0V43.2598H73.7858V2.36743Z" fill="#F2F2F2"/>
<path d="M173.893 2.36743H100.107V43.2598H173.893V2.36743Z" fill="#F2F2F2"/>
<path d="M274 2.36743H200.214V43.2598H274V2.36743Z" fill="#F2F2F2"/>
<path d="M189.674 163.897C189.625 163.816 188.457 161.872 188.052 157.834C187.681 154.129 187.92 147.885 191.166 139.174C197.316 122.673 189.749 109.359 189.672 109.226L190.045 109.01C190.065 109.044 192.017 112.438 193.171 117.844C194.695 125.01 194.14 132.461 191.571 139.324C185.431 155.798 189.996 163.596 190.042 163.673L189.674 163.897Z" fill="#3F3D56"/>
<path d="M187.269 108.257C188.818 108.257 190.074 107.005 190.074 105.459C190.074 103.914 188.818 102.661 187.269 102.661C185.72 102.661 184.465 103.914 184.465 105.459C184.465 107.005 185.72 108.257 187.269 108.257Z" fill="#D94A3D"/>
<path d="M196.115 118.588C197.664 118.588 198.92 117.335 198.92 115.79C198.92 114.245 197.664 112.992 196.115 112.992C194.566 112.992 193.31 114.245 193.31 115.79C193.31 117.335 194.566 118.588 196.115 118.588Z" fill="#3F3D56"/>
<path d="M190.074 125.475C191.623 125.475 192.879 124.222 192.879 122.677C192.879 121.132 191.623 119.879 190.074 119.879C188.525 119.879 187.269 121.132 187.269 122.677C187.269 124.222 188.525 125.475 190.074 125.475Z" fill="#D94A3D"/>
<path d="M197.409 131.286C198.958 131.286 200.214 130.033 200.214 128.488C200.214 126.943 198.958 125.69 197.409 125.69C195.86 125.69 194.605 126.943 194.605 128.488C194.605 130.033 195.86 131.286 197.409 131.286Z" fill="#D94A3D"/>
<path d="M187.917 140.325C189.466 140.325 190.721 139.073 190.721 137.528C190.721 135.982 189.466 134.73 187.917 134.73C186.368 134.73 185.112 135.982 185.112 137.528C185.112 139.073 186.368 140.325 187.917 140.325Z" fill="#3F3D56"/>
<path d="M191.368 164C191.368 164 188.564 157.113 196.978 151.948L191.368 164Z" fill="#3F3D56"/>
<path d="M187.919 163.875C187.919 163.875 186.643 156.551 176.763 156.614L187.919 163.875Z" fill="#3F3D56"/>
<path d="M73.678 0H0.10791V3.65879H73.678V0Z" fill="#3F3D56"/>
<path d="M174.001 0H100.215V3.65879H174.001V0Z" fill="#3F3D56"/>
<path d="M273.892 0H200.322V3.65879H273.892V0Z" fill="#3F3D56"/>
<path d="M18.9859 9.36218H5.6095V18.832H18.9859V9.36218Z" fill="white"/>
<path d="M68.1764 9.36218H31.2834V10.4383H68.1764V9.36218Z" fill="white"/>
<path d="M68.1764 13.6666H31.2834V14.7427H68.1764V13.6666Z" fill="white"/>
<path d="M68.1764 17.9711H31.2834V19.0472H68.1764V17.9711Z" fill="white"/>
<path d="M119.093 9.36218H105.717V18.832H119.093V9.36218Z" fill="white"/>
<path d="M168.283 9.36218H131.391V10.4383H168.283V9.36218Z" fill="white"/>
<path d="M168.283 13.6666H131.391V14.7427H168.283V13.6666Z" fill="white"/>
<path d="M168.283 17.9711H131.391V19.0472H168.283V17.9711Z" fill="white"/>
<path d="M219.2 9.36218H205.824V18.832H219.2V9.36218Z" fill="white"/>
<path d="M268.39 9.36218H231.498V10.4383H268.39V9.36218Z" fill="white"/>
<path d="M268.39 13.6666H231.498V14.7427H268.39V13.6666Z" fill="white"/>
<path d="M268.39 17.9711H231.498V19.0472H268.39V17.9711Z" fill="white"/>
<path d="M12.2976 18.5092C14.6807 18.5092 16.6126 16.582 16.6126 14.2047C16.6126 11.8274 14.6807 9.90027 12.2976 9.90027C9.91454 9.90027 7.98267 11.8274 7.98267 14.2047C7.98267 16.582 9.91454 18.5092 12.2976 18.5092Z" fill="#D94A3D"/>
<path d="M212.512 18.5092C214.895 18.5092 216.827 16.582 216.827 14.2047C216.827 11.8274 214.895 9.90027 212.512 9.90027C210.129 9.90027 208.197 11.8274 208.197 14.2047C208.197 16.582 210.129 18.5092 212.512 18.5092Z" fill="#D94A3D"/>
<path d="M34.4704 43.2599H34.0389V44.5512H34.4704V43.2599Z" fill="#3F3D56"/>
<path d="M34.4704 96.2048H34.0389V93.6221H34.4704V96.2048ZM34.4704 91.0394H34.0389V88.4567H34.4704V91.0394ZM34.4704 85.8741H34.0389V83.2914H34.4704V85.8741ZM34.4704 80.7087H34.0389V78.126H34.4704V80.7087ZM34.4704 75.5434H34.0389V72.9607H34.4704V75.5434ZM34.4704 70.378H34.0389V67.7953H34.4704V70.378ZM34.4704 65.2127H34.0389V62.63H34.4704V65.2127ZM34.4704 60.0473H34.0389V57.4646H34.4704V60.0473ZM34.4704 54.8819H34.0389V52.2993H34.4704V54.8819ZM34.4704 49.7166H34.0389V47.1339H34.4704V49.7166Z" fill="#3F3D56"/>
<path d="M35.5491 100.294H34.0388V98.7875H34.4702V99.8634H35.5491V100.294Z" fill="#3F3D56"/>
<path d="M233.212 100.294H230.611V99.8635H233.212V100.294ZM228.01 100.294H225.41V99.8635H228.01V100.294ZM222.809 100.294H220.208V99.8635H222.809V100.294ZM217.607 100.294H215.006V99.8635H217.607V100.294ZM212.405 100.294H209.804V99.8635H212.405V100.294ZM207.204 100.294H204.603V99.8635H207.204V100.294ZM202.002 100.294H199.401V99.8635H202.002V100.294ZM196.8 100.294H194.2V99.8635H196.8V100.294ZM191.599 100.294H188.998V99.8635H191.599V100.294ZM186.397 100.294H183.796V99.8635H186.397L186.397 100.294ZM181.196 100.294H178.595V99.8635H181.196V100.294ZM175.994 100.294H173.393V99.8635H175.994V100.294ZM170.792 100.294H168.191V99.8635H170.792V100.294ZM165.59 100.294H162.99V99.8635H165.59V100.294ZM160.389 100.294H157.788V99.8635H160.389V100.294ZM155.187 100.294H152.586V99.8635H155.187V100.294ZM149.986 100.294H147.385V99.8635H149.986V100.294ZM144.784 100.294H142.183V99.8635H144.784V100.294ZM139.582 100.294H136.981V99.8635H139.582V100.294ZM134.381 100.294H131.78V99.8635H134.381V100.294ZM129.179 100.294H126.578V99.8635H129.179V100.294ZM123.977 100.294H121.376V99.8635H123.977V100.294ZM118.776 100.294H116.175V99.8635H118.776V100.294ZM113.574 100.294H110.973V99.8635H113.574V100.294ZM108.372 100.294H105.771V99.8635H108.372V100.294ZM103.171 100.294H100.57V99.8635H103.171V100.294ZM97.969 100.294H95.3681V99.8635H97.969V100.294ZM92.7674 100.294H90.1665V99.8635H92.7674V100.294ZM87.5657 100.294H84.9648V99.8635H87.5657V100.294ZM82.364 100.294H79.7632V99.8635H82.364V100.294ZM77.1624 100.294H74.5615V99.8635H77.1624V100.294ZM71.9607 100.294H69.36V99.8635H71.9607V100.294ZM66.7591 100.294H64.1583V99.8635H66.7591V100.294ZM61.5574 100.294H58.9567V99.8635H61.5574V100.294ZM56.3558 100.294H53.755V99.8635H56.3558V100.294ZM51.1541 100.294H48.5533V99.8635H51.1541V100.294ZM45.9525 100.294H43.3517V99.8635H45.9525V100.294ZM40.7508 100.294H38.15V99.8635H40.7508L40.7508 100.294Z" fill="#3F3D56"/>
<path d="M237.323 100.294H235.813V99.8634H236.891V98.7875H237.323V100.294Z" fill="#3F3D56"/>
<path d="M237.323 96.2048H236.891V93.6221H237.323V96.2048ZM237.323 91.0394H236.891V88.4567H237.323V91.0394ZM237.323 85.8741H236.891V83.2914H237.323V85.8741ZM237.323 80.7087H236.891V78.126H237.323V80.7087ZM237.323 75.5434H236.891V72.9607H237.323V75.5434ZM237.323 70.378H236.891V67.7953H237.323V70.378ZM237.323 65.2127H236.891V62.63H237.323V65.2127ZM237.323 60.0473H236.891V57.4646H237.323V60.0473ZM237.323 54.8819H236.891V52.2993H237.323V54.8819ZM237.323 49.7166H236.891V47.1339H237.323V49.7166Z" fill="#3F3D56"/>
<path d="M237.323 43.2599H236.891V44.5512H237.323V43.2599Z" fill="#3F3D56"/>
<path d="M173.893 87.1653H100.107V163.785H173.893V87.1653Z" fill="#011F26"/>
<path d="M119.093 97.1732H105.717V106.643H119.093V97.1732Z" fill="white"/>
<path d="M168.283 97.1732H131.391V98.2493H168.283V97.1732Z" fill="white"/>
<path d="M168.283 101.478H131.391V102.554H168.283V101.478Z" fill="white"/>
<path d="M168.283 105.782H131.391V106.858H168.283V105.782Z" fill="white"/>
<path d="M119.093 131.286H105.717V140.756H119.093V131.286Z" fill="white"/>
<path d="M168.283 131.286H131.391V132.362H168.283V131.286Z" fill="white"/>
<path d="M168.283 135.591H131.391V136.667H168.283V135.591Z" fill="white"/>
<path d="M168.283 139.895H131.391V140.971H168.283V139.895Z" fill="white"/>
<path d="M112.461 104.303L107.883 98.2132L108.967 97.4018L112.697 102.363L122.205 94.6816L123.063 95.7283L112.461 104.303Z" fill="#D94A3D"/>
<path d="M112.461 138.093L107.883 132.003L108.967 131.192L112.697 136.153L122.205 128.471L123.063 129.518L112.461 138.093Z" fill="#D94A3D"/>
<path d="M268.391 163.57H1.94177V164H268.391V163.57Z" fill="#3F3D56"/>
</g>
<defs>
<clipPath id="clip0">
<rect width="274" height="164" fill="white"/>
</clipPath>
</defs>
</svg>
