<svg id="圖層_4" data-name="圖層 4" xmlns="http://www.w3.org/2000/svg" viewBox="0 0 938.5 193.8"><defs><style>.cls-1{fill:#fff;}</style></defs><title>JAPAN INSIDER LOGO WHITE</title><path class="cls-1" d="M177.34,121.48a68.87,68.87,0,0,1-22.94,46.1V64.43a68.88,68.88,0,0,1,22.84,45.07h28a96.91,96.91,0,0,0-95-90.39V47a69,69,0,0,1,16.26,2.34V182.68a69.28,69.28,0,0,1-32,.91V211.9a97,97,0,0,0,110.79-90.42Z" transform="translate(-11.77 -19.12)"/><path class="cls-1" d="M104,47.13V19.2a96.91,96.91,0,0,0-92.19,90.3h28A68.82,68.82,0,0,1,60,66.91v98.2a68.82,68.82,0,0,1-20.3-43.62H11.77A97,97,0,0,0,88.31,210.8V50A68.86,68.86,0,0,1,104,47.13Z" transform="translate(-11.77 -19.12)"/><path class="cls-1" d="M291.54,67.59v64.72q0,14.54-.3,18.69a14.29,14.29,0,0,1-2.73,7.51,12.44,12.44,0,0,1-6.59,4.64q-4.16,1.29-12.52,1.29H256.78V147.51q2.27.18,3.29.18a6.37,6.37,0,0,0,4.25-1.32,4.92,4.92,0,0,0,1.79-3.23,73.38,73.38,0,0,0,.24-7.42V67.59Z" transform="translate(-11.77 -19.12)"/><path class="cls-1" d="M344.82,67.59l14.4,96.85H333.48L332.13,147h-9l-1.51,17.41h-26l12.85-96.85Zm-13.35,62.27q-1.91-16.45-3.84-40.68-3.85,27.82-4.83,40.68Z" transform="translate(-11.77 -19.12)"/><path class="cls-1" d="M363.5,67.59h25.36q10.29,0,15.82,1.61A17.7,17.7,0,0,1,413,73.87a16,16,0,0,1,3.77,7.39,66.18,66.18,0,0,1,1,13.43v8.43q0,9.27-1.91,13.52a13.1,13.1,0,0,1-7,6.52q-5.11,2.28-13.37,2.27h-6.76v39H363.5Zm25.18,16.57v24.65q1.08.06,1.85.06,3.47,0,4.82-1.7t1.35-7.09v-8q0-5-1.56-6.46T388.68,84.16Z" transform="translate(-11.77 -19.12)"/><path class="cls-1" d="M468.53,67.59l14.4,96.85H457.19L455.84,147h-9l-1.51,17.41h-26l12.85-96.85Zm-13.35,62.27q-1.91-16.45-3.84-40.68-3.85,27.82-4.83,40.68Z" transform="translate(-11.77 -19.12)"/><path class="cls-1" d="M543.44,67.59v96.85H521.36l-13.1-44v44H487.21V67.59h21.06l14.12,43.61V67.59Z" transform="translate(-11.77 -19.12)"/><path class="cls-1" d="M600.33,67.59v96.85H575.14V67.59Z" transform="translate(-11.77 -19.12)"/><path class="cls-1" d="M666.67,67.59v96.85H644.59l-13.1-44v44H610.43V67.59h21.06l14.12,43.61V67.59Z" transform="translate(-11.77 -19.12)"/><path class="cls-1" d="M730.14,96.9H706.75V89.72q0-5-.9-6.4a3.3,3.3,0,0,0-3-1.38,3.8,3.8,0,0,0-3.44,1.86,10.76,10.76,0,0,0-1.17,5.63q0,4.85,1.31,7.3t7.12,5.92q16.82,10,21.18,16.38t4.37,20.64q0,10.35-2.42,15.25t-9.36,8.23a37,37,0,0,1-16.15,3.32q-10.11,0-17.26-3.83t-9.36-9.75q-2.21-5.92-2.21-16.81v-6.34h23.39v11.78q0,5.45,1,7a3.81,3.81,0,0,0,3.5,1.56,4.1,4.1,0,0,0,3.74-2,11.27,11.27,0,0,0,1.23-5.86q0-8.55-2.33-11.19t-11.78-8.79a115.56,115.56,0,0,1-12.44-9,21.1,21.1,0,0,1-5.05-7.78,34.19,34.19,0,0,1-2-12.68q0-11.13,2.84-16.27a19.12,19.12,0,0,1,9.18-8A36.62,36.62,0,0,1,702,65.56a39.89,39.89,0,0,1,16.72,3.17q6.91,3.17,9.15,8t2.24,16.36Z" transform="translate(-11.77 -19.12)"/><path class="cls-1" d="M765.31,67.59v96.85H740.13V67.59Z" transform="translate(-11.77 -19.12)"/><path class="cls-1" d="M775.42,67.59h18.84q18.25,0,24.68,1.67t9.78,5.5a17.44,17.44,0,0,1,4.19,8.52q.84,4.7.84,18.45v33.92q0,13-1.23,17.44a13.11,13.11,0,0,1-4.28,6.88,17.79,17.79,0,0,1-7.54,3.47,68.06,68.06,0,0,1-13.52,1H775.42ZM800.6,84.16v63.71q5.44,0,6.7-2.18t1.26-11.87V96.18a50.46,50.46,0,0,0-.42-8.43A4,4,0,0,0,806.23,85Q804.73,84.16,800.6,84.16Z" transform="translate(-11.77 -19.12)"/><path class="cls-1" d="M843.14,67.59h42V87H868.32v18.37h15.73v18.42H868.32v21.3H886.8v19.38H843.14Z" transform="translate(-11.77 -19.12)"/><path class="cls-1" d="M894,67.59h17.83q17.83,0,24.14,1.38a16.61,16.61,0,0,1,10.29,7q4,5.65,4,18,0,11.31-2.81,15.2t-11.07,4.67q7.48,1.85,10,5a14.83,14.83,0,0,1,3.2,5.71q.63,2.6.63,14.33v25.54H926.88V132.26q0-7.77-1.23-9.63t-6.43-1.85v43.67H894Zm25.18,16.57V105.7q4.25,0,6-1.17T926.88,97V91.64q0-4.6-1.65-6T919.23,84.16Z" transform="translate(-11.77 -19.12)"/></svg>