<svg width="274" height="232" viewBox="0 0 274 232" fill="none" xmlns="http://www.w3.org/2000/svg">
<path d="M156.4 34.8088H132.932V64.5893H156.4V34.8088Z" fill="#2F2E41"/>
<path d="M156.713 35.7494C154.612 41.9824 151.39 47.6616 144.823 47.6616C138.256 47.6616 133.302 42.3178 132.932 35.7494C132.459 27.3562 138.104 23.8024 144.823 23.8372C152.759 23.8782 159.207 28.3523 156.713 35.7494Z" fill="#2F2E41"/>
<path d="M150.667 45.0098C150.667 45.0098 148.789 56.295 149.728 56.6085C150.667 56.922 139.089 58.1759 139.089 58.1759C139.089 58.1759 142.531 49.712 141.592 48.1446C140.653 46.5772 150.667 45.0098 150.667 45.0098Z" fill="#FFB8B8"/>
<path opacity="0.1" d="M150.667 45.0098C150.667 45.0098 148.789 56.295 149.728 56.6085C150.667 56.922 139.089 58.1759 139.089 58.1759C139.089 58.1759 142.531 49.712 141.592 48.1446C140.653 46.5772 150.667 45.0098 150.667 45.0098Z" fill="black"/>
<path d="M173.952 85.6061L179.122 89.7174C179.122 89.7174 174.849 68.0296 174.729 66.4356C174.61 64.8417 170.59 53.9237 166.286 55.6042C161.981 57.2847 169.34 69.2458 169.34 69.2458L174.148 86.5778L173.952 85.6061Z" fill="#FFB8B8"/>
<path d="M144.095 50.966C149.107 50.966 153.17 46.8958 153.17 41.8751C153.17 36.8543 149.107 32.7842 144.095 32.7842C139.084 32.7842 135.021 36.8543 135.021 41.8751C135.021 46.8958 139.084 50.966 144.095 50.966Z" fill="#FFB8B8"/>
<path d="M144.095 55.0413L140.027 53.1604C140.027 53.1604 137.837 57.2356 136.585 57.2356C135.334 57.2356 124.695 59.43 124.695 61.6243C124.695 63.8187 127.824 79.4926 127.824 79.4926C127.824 79.4926 134.082 94.5396 134.395 94.5396C134.708 94.5396 156.925 91.7183 156.925 91.7183L158.176 88.27L160.054 67.8939C160.054 67.8939 152.544 62.8782 152.544 61.3108C152.544 59.7435 151.918 54.4143 150.666 54.4143C149.415 54.4143 147.224 56.2952 147.224 56.2952L144.095 55.0413Z" fill="#D0CDE1"/>
<path d="M157.238 69.1477L160.054 67.8938C160.054 67.8938 162.244 71.969 162.87 72.2825C163.496 72.596 164.434 74.1634 164.434 74.7903C164.434 75.4173 166.312 80.4329 167.877 80.7464C169.441 81.0599 171.944 82.3138 171.631 83.2543C171.437 83.7585 171.437 84.3174 171.631 84.8217L172.883 83.2543L179.454 88.2699C179.454 88.2699 182.896 98.9282 177.89 98.6147C172.883 98.3012 168.502 95.7934 166.312 94.5395C164.122 93.2856 164.122 93.9125 162.87 92.0317C161.618 90.1508 156.299 86.7025 156.299 86.7025L157.238 69.1477Z" fill="#D0CDE1"/>
<path d="M134.395 91.7182L131.892 92.9721L132.517 97.6743C132.517 97.6743 97.7843 220.871 102.791 221.812C107.797 222.752 121.878 225.26 129.388 227.141C136.898 229.022 147.537 229.335 147.537 227.141C147.537 224.947 150.666 146.89 150.666 146.89C150.666 146.89 151.605 229.649 154.421 229.649C157.237 229.649 180.393 234.665 181.957 229.649C183.522 224.633 174.447 111.781 163.183 98.6147C163.183 98.6147 157.55 91.4047 157.863 90.4643C158.176 89.5238 157.55 88.2699 157.55 88.2699C157.55 88.2699 157.863 87.6429 154.421 88.5834C150.979 89.5238 149.415 89.5238 148.476 89.2103C147.537 88.8969 145.973 87.6429 145.034 88.5834C144.095 89.5238 141.279 91.0912 140.027 90.7777C138.776 90.4643 138.15 88.5834 136.898 89.8373C136.159 90.5826 135.316 91.2162 134.395 91.7182Z" fill="#2F2E41"/>
<path d="M104.668 220.872C104.668 220.872 102.791 230.903 104.668 231.216C106.546 231.53 115.933 232.157 116.246 231.53C116.559 230.903 114.056 222.125 113.117 221.499C112.178 220.872 104.668 220.872 104.668 220.872Z" fill="#2F2E41"/>
<path d="M169.441 222.125C169.441 222.125 171.318 230.903 169.441 231.216C167.564 231.53 158.176 232.157 157.863 231.53C157.55 230.903 160.054 223.379 160.992 222.752C161.931 222.125 169.441 222.125 169.441 222.125Z" fill="#2F2E41"/>
<path d="M106.703 86.8592C106.703 86.8592 119.532 90.3074 122.661 90.9344C125.79 91.5613 129.232 94.6961 129.545 95.95C129.858 97.204 132.674 102.847 134.865 101.593C137.055 100.339 134.865 89.6805 133.3 89.367C131.735 89.0535 112.648 83.7244 112.648 83.7244L106.703 86.8592Z" fill="#FFB8B8"/>
<path d="M128.137 60.9973H124.695L104.669 76.0443C104.669 76.0443 99.9752 77.2982 100.288 78.2386C100.601 79.1791 95.5944 84.8217 98.7235 86.0756C101.853 87.3295 104.356 87.643 105.608 88.5834C106.859 89.5239 114.682 84.1947 114.682 84.1947L113.43 83.2543C113.43 83.2543 127.824 78.2386 129.076 78.8656C130.328 79.4926 128.137 60.9973 128.137 60.9973Z" fill="#D0CDE1"/>
<path d="M137.368 56.1384L144.878 60.8406L144.252 77.7685L146.442 73.6933L147.694 77.7685V60.8406H153.013L152.7 58.0193L146.442 58.9597L138.306 54.571L137.368 56.1384Z" fill="#D94A3D"/>
<path d="M139.26 29.4798C139.26 29.4798 139.157 28.9044 135.122 30.4202C131.088 31.936 128.669 43.1216 130.687 49.6899C131.499 52.337 130.838 54.2454 129.759 55.5808C125.708 60.5917 127.303 68.1181 133.203 70.6949C133.369 70.7676 133.539 70.8395 133.713 70.9106L136.234 72.4264C136.234 72.4264 133.02 68.1889 134.628 62.7685C136.025 58.15 136.198 53.2467 135.129 48.5412C134.944 47.7474 134.735 46.9292 134.497 46.0942C132.479 39.0206 133.46 39.8375 140.521 32.7639C140.521 32.7639 144.556 35.7954 148.086 37.3112C151.617 38.827 154.643 40.3427 152.121 45.3953C149.599 50.4478 143.547 54.9951 147.582 61.5634C151.617 68.1317 152.121 65.6054 151.617 68.1317L151.112 70.658L154.138 67.6265L152.121 71.6685C152.121 71.6685 158.677 71.6685 160.695 66.616L161.703 67.6265C161.703 67.6265 165.738 60.5529 158.173 53.9846C158.173 53.9846 155.651 52.4688 159.182 47.4163C162.712 42.3638 160.001 31.5008 155.462 29.4798C150.923 27.4588 139.26 29.4798 139.26 29.4798Z" fill="#2F2E41"/>
<path d="M144.823 26.345C147.415 26.345 149.517 24.2398 149.517 21.6429C149.517 19.0459 147.415 16.9407 144.823 16.9407C142.231 16.9407 140.129 19.0459 140.129 21.6429C140.129 24.2398 142.231 26.345 144.823 26.345Z" fill="#2F2E41"/>
<path d="M139.19 19.135C139.19 17.9694 139.623 16.8453 140.403 15.9809C141.184 15.1164 142.257 14.5732 143.415 14.4566C143.26 14.4412 143.104 14.4329 142.945 14.4329C141.7 14.4329 140.506 14.9283 139.626 15.8101C138.746 16.6919 138.251 17.8879 138.251 19.135C138.251 20.3821 138.746 21.5782 139.626 22.46C140.506 23.3418 141.7 23.8372 142.945 23.8372C143.104 23.8372 143.26 23.8288 143.415 23.8135C142.257 23.6969 141.184 23.1537 140.403 22.2892C139.623 21.4248 139.19 20.3007 139.19 19.135Z" fill="#2F2E41"/>
<path d="M153.271 42.0191C153.617 42.0191 153.897 41.4577 153.897 40.7651C153.897 40.0726 153.617 39.5112 153.271 39.5112C152.926 39.5112 152.646 40.0726 152.646 40.7651C152.646 41.4577 152.926 42.0191 153.271 42.0191Z" fill="#FFB8B8"/>
<path d="M44.1957 211.398C46.2942 219.169 53.482 223.982 53.482 223.982C53.482 223.982 57.2675 216.195 55.169 208.424C53.0705 200.652 45.8827 195.839 45.8827 195.839C45.8827 195.839 42.0972 203.626 44.1957 211.398Z" fill="#3F3D56"/>
<path d="M47.2791 209.727C53.0374 215.343 53.7407 223.975 53.7407 223.975C53.7407 223.975 45.1081 223.503 39.3498 217.888C33.5915 212.272 32.8882 203.639 32.8882 203.639C32.8882 203.639 41.5209 204.112 47.2791 209.727Z" fill="#D94A3D"/>
<path d="M241.295 231.373H38.5288V232H241.295V231.373Z" fill="#2F2E41"/>
<path d="M56.3237 231.686H48.188V223.536H56.3237V231.686ZM48.8138 231.059H55.6978V224.163H48.8138V231.059Z" fill="#3F3D56"/>
<path d="M68.9983 151.436H0V108.803H78.5406V138.687" fill="#F2F2F2"/>
<path d="M72.7532 148.301H3.44189V105.041H82.6083V135.238H81.9824V105.668H4.06772V147.674H72.7532V148.301Z" fill="black"/>
<path d="M101.024 148.458H82.2954V147.831H98.6128L82.2998 138.734L82.6039 138.187L101.024 148.458Z" fill="black"/>
<path d="M73.5342 120.088H12.5166V120.715H73.5342V120.088Z" fill="black"/>
<path d="M73.5342 126.358H12.5166V126.985H73.5342V126.358Z" fill="black"/>
<path d="M73.5342 132.627H12.5166V133.254H73.5342V132.627Z" fill="black"/>
<path d="M99.8138 150.605C101.232 150.605 102.382 149.453 102.382 148.032C102.382 146.611 101.232 145.459 99.8138 145.459C98.3951 145.459 97.2451 146.611 97.2451 148.032C97.2451 149.453 98.3951 150.605 99.8138 150.605Z" fill="#D94A3D"/>
<path d="M88.0166 37.5706H58.8271V57.6894H88.0166V37.5706Z" fill="#F2F2F2"/>
<path d="M90.431 55.8976H60.6157V35.1519H90.431V55.8976ZM61.2415 55.2707H89.8052V35.7788H61.2415V55.2707Z" fill="black"/>
<path d="M75.4053 45.9048L60.7505 35.7227L61.1072 35.2073L75.4082 45.1439L89.9419 35.2061L90.2949 35.7239L75.4053 45.9048Z" fill="black"/>
<path d="M75.4071 48.0978C76.8257 48.0978 77.9757 46.9457 77.9757 45.5245C77.9757 44.1033 76.8257 42.9512 75.4071 42.9512C73.9884 42.9512 72.8384 44.1033 72.8384 45.5245C72.8384 46.9457 73.9884 48.0978 75.4071 48.0978Z" fill="#D94A3D"/>
<path d="M239.152 140.392H209.963V160.51H239.152V140.392Z" fill="#F2F2F2"/>
<path d="M238.125 142.658H231.867V144.539H238.125V142.658Z" fill="#D94A3D"/>
<path d="M238.125 147.988H223.731V149.242H238.125V147.988Z" fill="white"/>
<path d="M238.125 150.495H217.16V151.749H238.125V150.495Z" fill="white"/>
<path d="M238.125 153.003H217.16V154.257H238.125V153.003Z" fill="white"/>
<path d="M203.234 65.5428H272.232V22.9097H193.691V52.7936" fill="#F2F2F2"/>
<path d="M268.79 62.408H199.479V61.7811H268.165V19.7749H190.25V49.3454H189.624V19.1479H268.79V62.408Z" fill="black"/>
<path d="M189.937 62.5648H171.208L189.628 52.2937L189.932 52.8413L173.619 61.9379H189.937V62.5648Z" fill="black"/>
<path d="M259.716 34.1948H198.698V34.8218H259.716V34.1948Z" fill="black"/>
<path d="M259.716 40.4644H198.698V41.0913H259.716V40.4644Z" fill="black"/>
<path d="M259.716 46.7339H198.698V47.3608H259.716V46.7339Z" fill="black"/>
<path d="M172.409 64.7123C173.828 64.7123 174.978 63.5602 174.978 62.139C174.978 60.7178 173.828 59.5657 172.409 59.5657C170.99 59.5657 169.84 60.7178 169.84 62.139C169.84 63.5602 170.99 64.7123 172.409 64.7123Z" fill="#D94A3D"/>
</svg>
