<svg width="512" height="512" viewBox="0 0 512 512" xmlns="http://www.w3.org/2000/svg"><title>arizona-cardinals</title><g fill="none" fill-rule="evenodd"><path d="M82.428 174.16l-13.99-1.514s14.747 20.795 41.4 33.84L95.28 205.16s19.472 31.004 58.983 46.317c0 0 3.97 25.332 38.186 48.206 0 0 32.51 18.717 36.29 35.92 0 0 62.61-4.142 131.17 41.783 0 0 16.17-66.193 100.03-74.178 0 0 .07-35.93-47.47-59.735 0 0-19.49-74.554-137.462-82.66l-99.45.312S99.7 156.123 52.18 135.78c0 0 6.238 21.55 30.248 38.377z" fill="#000"/><path d="M80.82 155.186s20.33 26.583 77.87 40.03l-51.912-4.69s19.39 18.606 76.932 32.68l-52.068-4.534s29.237 27.832 74.586 35.338l-27.832 4.38s2.5 14.07 50.35 45.033c0 0 15.792 13.288 12.508 16.573 0 0 25.957.314 71.304 21.58 0 0 43.47-22.204-17.2-86.94 0 0-27.833-30.647-59.105-50.663 0 0 47.222-11.258 106.015 22.518 0 0 30.022 22.52 57.543 11.26 0 0-11.25-56.91-117.27-65.98H167.45s-48.788-3.75-86.63-16.57" fill="#97233F"/><path d="M80.82 155.186s20.33 26.583 77.87 40.03l-51.912-4.69s19.39 18.606 76.932 32.68l-52.068-4.534s29.237 27.832 74.586 35.338l-27.832 4.38s2.5 14.07 50.35 45.033c0 0 15.792 13.288 12.508 16.573 0 0 25.957.314 71.304 21.58 0 0 43.47-22.204-17.2-86.94 0 0-27.833-30.647-59.105-50.663 0 0 47.222-11.258 106.015 22.518 0 0 30.022 22.52 57.543 11.26 0 0-11.25-56.91-117.27-65.98H167.45s-48.788-3.75-86.63-16.57z" stroke="#000"/><path d="M304.74 223.362s6.255 49.1 54.416 46.596c0 0 16.886-4.065 20.326-21.578h-6.566s-5.628 17.825-22.516 14.386c0 0-10.164-.158-20.015-15.012l15.95-2.19c0 .002-28.145-8.756-41.595-22.202" fill="#FFF"/><path d="M304.74 223.362s6.255 49.1 54.416 46.596c0 0 16.886-4.065 20.326-21.578h-6.566s-5.628 17.825-22.516 14.386c0 0-10.164-.158-20.015-15.012l15.95-2.19c0 .002-28.145-8.756-41.595-22.202z" stroke="#000"/><path d="M369.233 292.064s48.912-8.957 81.906 7.197c0 0-41.83 1.73-69.79 25.36 0 0 2.56-17.87-12.12-32.55" fill="#FFB612"/><path d="M369.233 292.064s48.912-8.957 81.906 7.197c0 0-41.83 1.73-69.79 25.36 0 0 2.56-17.87-12.12-32.55z" stroke="#000"/><path d="M369.9 280.217s53.578-2.33 81.53 15.31c-6.604-26.07-51.57-46.376-47.92-44.592 0-.002-8.984 20.962-33.61 29.282" fill="#FFB612"/><path d="M369.9 280.217s53.578-2.33 81.53 15.31c-6.604-26.07-51.57-46.376-47.92-44.592 0-.002-8.984 20.962-33.61 29.282z" stroke="#000"/></g></svg>