<svg width="512" height="512" viewBox="0 0 512 512" xmlns="http://www.w3.org/2000/svg"><title>carolina-panthers</title><g fill="none" fill-rule="evenodd"><path d="M446.213 157.9c.1-.243.18-.47.25-.687.06-.192.11-.376.155-.547 0-.01-.005-.02-.01-.03-.656-1.89-1.968-2.028-4.73-1.81-4.03.77-7.757 1.258-10.892 1.574h.005l-.51.05c-.12.01-.24.025-.36.033-.47.045-.92.085-1.35.12-.06.007-.12.01-.19.017-4.04.33-6.59.342-6.59.342 10.32 7.827 11.53 19.942 11.53 19.942l.528-.45c7.927-5.766 12.187-18.553 12.187-18.553" fill="#000"/><path d="M338.966 222.245c5.12 15.117-3.5 35.367-3.5 35.367 11.31-9.718 20.198-29.695 20.198-29.695 18.582-3.78 28.818 0 28.818 0 2.42 14.578-2.968 26.453-2.968 26.453 10.776-8.635 15.623-31.587 15.623-31.587s-4.31-4.046-23.427-5.396c-19.124-1.353-34.744 4.858-34.744 4.858" fill="#BFC0BF"/><path d="M352.903 280.066s-5.617 15.667-11.382 21.452c0 0 7.45 4.097 20.44 2.892 12.98-1.206 16.11-6.023 17.32-10.846 1.21-4.82 0-11.572-2.16-16.634 0 0 .97 12.776-7.93 19.287 0 0-9.585 2.01-15.84.082 0 0 2.46-5.15-.426-16.24" fill="#BFC0BF"/><path d="M322.297 158.283c.13.026.263.053.397.083-.13-.03-.266-.057-.397-.083-7.836-1.494-11.14 4.438-11.14 4.438-2.483 3.69-1.538 5.45-1.538 5.45 24.15-.42 37.17 3.49 37.17 3.49s-9-9.85-23.51-13.16l-.99-.2" fill="#BFC0BF"/><path d="M418.797 170.715c-3.177-2.97-9.954-6.795-17.37-5.31-7.413 1.49-7.84 9.558-7.84 9.558 8.05-7.432 25.21-4.248 25.21-4.248" fill="#BFC0BF"/><path d="M239.05 186.61s39.798-7.638 85.322 3.14c1.635-1.47 3.52-2.97 5.704-4.49 0 0-41.742-11.61-91.026 1.35" fill="#0085CA"/><path d="M239.264 202.193s34.885-8.717 77.415-2.838c.81-1.617 1.9-3.32 3.34-5.083-15.35-1.765-46.51-3.144-80.76 7.92" fill="#0085CA"/><path d="M240.15 217.28s32.964-10.206 74.53-7.324c-.2-1.492-.22-3.277.165-5.29-16.662-.452-44.72 1.065-74.695 12.615" fill="#0085CA"/><path d="M142.935 321.335h.016l.2.02c.73.066 3.05.28 3.18.294.32.02 4.31.44 4.34.45 5.67.63 11.41 1.43 17.19 2.42v-.01c13.05-47.85 49.74-73.42 49.74-73.42-49.63 24.06-70.49 63.23-74.65 70.23" fill="#0085CA"/><path d="M376.95 255.053c-3.105-14.434 5.1-24.318 5.1-24.318-18.646 16.393-7.358 32.805-1.716 45.536 5.646 12.73 3.39 22.08-2.255 28.59-5.65 6.51-21.18 7.08-31.62 5.1-10.44-1.98-15.81-13.02-18.63-26.03-2.82-13.01 2.26-35.94 2.26-35.94-7.62 11.61-7.62 35.377-1.7 54.62 5.93 19.24 21.45 24.05 32.74 24.05 11.29 0 31.61-9.617 28.48-32.53-3.14-22.91-9.57-24.625-12.67-39.056" fill="#0085CA"/><path d="M255.55 266.754c-19.477-19.767-20.07-42.125-20.07-42.125s-6.682 26.06 9.19 45.59c15.873 19.52 54.527 21.65 54.527 21.65s-24.172-5.36-43.648-25.13" fill="#0085CA"/><path d="M354.046 181.208c22.892 8.913 22.62 22.68 22.62 22.68 3.503-13.228 19.665-20.247 19.665-20.247s-8.35-4.05-19.93-4.85c-11.58-.81-22.35 2.43-22.35 2.43" fill="#0085CA"/><path d="M322.297 158.283c-13.79-2.75-27.026 2.792-27.692 3.074-.008.004-.01.004-.014.008 0 .003-.01.003-.01.003v.003c12.71.22 16.58 1.35 16.58 1.35s3.31-5.93 11.14-4.43" fill="#0085CA"/><path d="M367.128 337.847l-.003.004c-.15.06-8.244 2.92-18.268 1.11 0 0 13.26 12.86 26.725 40.99.006.02.014.03.02.05l.52-.04c-1.3-12.82-6.76-34.3-8.02-38.26l-.974-3.84" fill="#0085CA"/><path d="M381.515 254.37s5.388-11.875 2.965-26.457c0 0-10.236-3.776-28.818 0 0 0-8.886 19.98-20.2 29.698 0 0 8.622-20.24 3.504-35.36 0 0 15.618-6.21 34.742-4.86 19.12 1.35 23.43 5.4 23.43 5.4s-4.847 22.95-15.623 31.59zm-12.345 41.847c8.9-6.51 7.936-19.288 7.936-19.288 2.165 5.06 3.367 11.81 2.165 16.63-1.2 4.82-4.33 9.64-17.31 10.84-12.98 1.2-20.43-2.89-20.43-2.89 5.77-5.79 11.39-21.46 11.39-21.46 2.89 11.09.43 16.23.43 16.23 6.254 1.923 15.84-.085 15.84-.085zm20.453-2.108c3.132 22.91-17.19 32.52-28.48 32.52s-26.82-4.81-32.745-24.05c-5.927-19.25-5.927-43.01 1.695-54.62 0 0-5.08 22.92-2.26 35.94 2.826 13.01 8.188 24.05 18.63 26.03 10.447 1.98 25.968 1.41 31.616-5.1 5.64-6.51 7.89-15.85 2.25-28.58-5.65-12.73-16.94-29.144 1.71-45.537 0 0-8.21 9.884-5.1 24.32 3.1 14.43 9.54 16.15 12.67 39.055zm-72.946-94.76c-42.528-5.88-77.413 2.84-77.413 2.84 34.255-11.07 65.41-9.69 80.76-7.92-1.436 1.76-2.532 3.46-3.347 5.08zm-1.996 10.6c-41.56-2.89-74.53 7.32-74.53 7.32 29.98-11.55 58.04-13.07 74.7-12.62-.38 2.01-.36 3.8-.16 5.29zm-70.01 60.26c-15.87-19.53-9.19-45.6-9.19-45.6s.6 22.36 20.07 42.122c19.48 19.767 43.65 25.125 43.65 25.125s-38.65-2.127-54.52-21.654zm85.41-84.97c-2.18 1.52-4.07 3.02-5.71 4.49-45.52-10.78-85.31-3.14-85.31-3.14 49.28-12.96 91.03-1.35 91.03-1.35zm-35.5-23.89l.02-.004.02-.007c.68-.29 14.54-6.1 28.68-2.87 14.51 3.31 23.51 13.17 23.51 13.17s-13.03-3.915-37.17-3.49c0 0-.945-1.764 1.537-5.444 0 0-3.87-1.13-16.58-1.35zm106.85 4.035c7.42-1.485 14.19 2.336 17.37 5.31 0 0-17.16-3.187-25.21 4.247 0 0 .43-8.07 7.84-9.556zm24.4 37.713c-.27-1.54-.7-2.85-1.23-3.99 0 0-.43-1.088-1.73-2.79-1.11-1.42-2.36-2.537-3.49-3.61-2.48-2.345-6.945-3.737-6.945-3.737s-.002 0-.004-.004c3.106 2.364 5.486 5.762 5.73 10.65.72 15.05-14.775 21.124-14.775 21.124 3.633-2.433 10.17-10.684 8.475-21.37-1.7-10.68-15.51-15.755-15.51-15.755s-16.168 7.02-19.66 20.244c0 0 .27-13.77-22.63-22.68 0 0 10.77-3.246 22.352-2.43 11.584.81 19.935 4.86 19.935 4.86s2.14-5.66 13.51-7.597c11.365-1.936 23.66.853 23.66.853-2.274-4.153-4.888-10.21-16.314-14.89-11.424-4.68-21.667-.443-21.667-.443s-.75-5.53-9.05-10.913c-13.498-8.75-49.187-13.966-56.07-14.336-6.88-.365 5.15 4.076 9.98 6.83 5.478 3.13 11.617 8.45 12.138 13.49.136 1.355-.183 2.54-.79 3.52-.483-1.41-1.5-3.21-3.284-5.506-9.77-12.59-34.582-18.03-53.192-16.785-18.604 1.24-33.388 8.3-33.388 8.3.21 1.72-6.87 7.74-26.38 9.892-18.597 2.04-31.717-1.367-36.44-2.06-.123-.036-.244-.06-.36-.07-1.914-.246-3.35-.155-3.95 1.224-.027.06-.045.123-.066.19l-.04.25c-.087.96.5 2.29.5 2.29l-.27-.52c1.327 2.55 9.238 17.16 19.66 24.67 0 0 6.23-1.32 13.623-2.118 0 0-114.22 55.72-160.495 142.788 20.164-2.364 46.69-3.892 75.493-1.35-.1-.007-.163-.015-.196-.017h-.02c4.155-7.007 25.023-46.18 74.654-70.24 0 0-36.692 25.57-49.734 73.42 16.594 2.828 33.54 7.205 50.13 13.677 53.35 20.846 98.31 42.63 148.995 42.18l8.62-.376-.02-.047c-13.462-28.13-26.72-40.99-26.72-40.99 10.024 1.806 18.12-1.06 18.267-1.11.763-.274 1.413-.546 1.956-.797 16.57-8.96 19.35-24.12 20.703-34.99 1.565-12.56-.66-20.6-.66-20.6s28.69-37.76 35.984-67.476c0 0 1.687-5.374.723-10.872z" fill="#000"/><path d="M483.22 222.178c-16.77-9.176-35.797-12.027-50.386-12.594h-.084.084c.55-1.853 1.218-4.21 1.864-6.752.324-.02.55-.037.55-.037 29.243-.96 44.703 6.796 44.703 6.796l-1.47-1.13c-14.25-6.62-29.31-9.03-42.35-9.4h-.53c.46-2.03 1.04-6.15 1.16-6.15l.31.01c22.5.24 34.77 5.59 34.77 5.59l-1.47-1.163c-11.16-4.772-22.572-6.932-33.26-7.647.068-4.174-.63-7.61-2.21-10.58 8.25-7.178 11.3-18.11 11.74-22.427v-.01l.003-.01c.035-.14.11-.535.12-.62.014-.085.024-.17.03-.244.015-.15.02-.296.02-.43v-.22c-.007-.13-.02-.256-.036-.377-.014-.064-.02-.13-.034-.19-.03-.11-.057-.223-.094-.325-.016-.054-.035-.11-.055-.16-.04-.104-.09-.196-.14-.285-.02-.05-.05-.096-.075-.14-.057-.085-.113-.16-.173-.243-.036-.03-.066-.074-.094-.112-.07-.07-.132-.137-.2-.2-.04-.03-.07-.07-.105-.096-.076-.06-.148-.114-.223-.17-.033-.023-.07-.05-.106-.07-.08-.05-.158-.094-.235-.138-.04-.02-.074-.04-.11-.064-.075-.036-.154-.073-.24-.102-.03-.015-.06-.03-.1-.044-.073-.03-.15-.056-.225-.082-.035-.01-.066-.024-.096-.03-.073-.023-.14-.043-.213-.06-.022-.01-.053-.015-.075-.02-.07-.02-.13-.03-.194-.04l-.06-.015c-.06-.01-.104-.02-.154-.02-.01 0-.03-.004-.04-.01-.11-.015-.174-.02-.174-.02-14.247.16-25.955-4.693-25.955-4.693-.32-.12-.64-.225-.96-.344-31.69-11.62-64.577-14.95-93.86-14.42l-.01-.025c-13.078.12-22.63 1.19-22.63 1.19-42.046 3.563-72.185 13.657-72.185 13.657s-11.44 3.24-26.68 2.48c0 0-5.66-.1-6.775 3.51-.96 2.3-1.084 5.04 1.07 11.03 2.487 6.903 12.425 19.884 12.5 19.986C178 196.754 99.69 240.79 29.53 329.324c0 0 14.826-3.864 38.144-6.6 46.27-87.07 160.49-142.79 160.49-142.79-7.39.792-13.62 2.116-13.62 2.116-10.42-7.51-18.33-22.12-19.66-24.67l.275.52s-.59-1.332-.51-2.294c.01-.085.02-.168.04-.25.02-.066.04-.13.07-.19.6-1.38 2.038-1.47 3.95-1.228.115.01.236.036.36.07 4.724.7 17.844 4.11 36.44 2.06 19.51-2.15 26.59-8.17 26.38-9.89 0 0 14.78-7.057 33.39-8.298 18.607-1.25 43.416 4.19 53.186 16.78 1.79 2.295 2.805 4.096 3.287 5.505.61-.98.926-2.164.79-3.52-.52-5.046-6.658-10.363-12.136-13.493-4.828-2.758-16.86-7.2-9.98-6.83 6.88.37 42.573 5.584 56.064 14.335 8.305 5.39 9.05 10.915 9.05 10.915s10.245-4.23 21.666.443c11.43 4.68 14.045 10.734 16.316 14.89 0 0-1.2-12.117-11.526-19.94 0 0 2.558-.016 6.6-.34.06-.01.12-.016.19-.02l1.36-.12c.114-.01.24-.027.36-.037l.51-.05H431c3.13-.314 6.86-.802 10.887-1.572 2.764-.215 4.076-.08 4.733 1.81 0 .01.007.02.008.03-.046.174-.094.358-.154.55-.072.217-.155.447-.254.69 0 0-4.26 12.79-12.184 18.55l-.527.45s-12.3-2.79-23.66-.855c-11.37 1.94-13.51 7.594-13.51 7.594s13.81 5.08 15.51 15.755c1.69 10.686-4.85 18.94-8.48 21.37 0 0 15.49-6.075 14.77-21.12-.24-4.89-2.62-8.29-5.73-10.65 0 .003.01.003.01.003s4.45 1.39 6.94 3.734c1.13 1.07 2.38 2.187 3.5 3.61 1.3 1.705 1.73 2.79 1.73 2.79.53 1.136.96 2.447 1.23 3.99.96 5.5-.72 10.87-.72 10.87-7.296 29.715-35.985 67.473-35.985 67.473.007-.007.01-.01.017-.01 21.69-18.55 36.145-51.37 42.476-67.904 34.197.37 52.885 9.914 52.885 9.914l-1.27-1.29" fill="#0085CA"/></g></svg>