<svg width="512" height="512" viewBox="0 0 512 512" xmlns="http://www.w3.org/2000/svg"><title>green-bay-packers</title><g fill="none" fill-rule="evenodd"><path d="M437.918 255.76c0 66.135-81.695 119.746-182.47 119.746-100.774 0-182.47-53.61-182.47-119.745 0-66.13 81.696-119.74 182.47-119.74 93.05 0 171.198 45.95 181.376 106.65" fill="#FFB612"/><path d="M419.012 213.325c36.148 58.977-7.777 125.916-98.108 149.516-90.33 23.61-192.86-5.07-229.007-64.05-36.148-58.97 7.775-125.91 98.105-149.51 90.04-23.52 192.265 4.89 228.708 63.57" fill="#203731"/><path d="M100.22 255.13c-.087-52.443 77.263-98.05 161.563-96.305 87.333-.198 130.812 47.32 140.654 65.892h-69.694c-15.4-25.628-35.743-36.39-80.464-36.114-62.39 3.368-90.7 38.868-89.34 65.892.41 15.41 6.32 57.752 86.16 58.923 35.33-1.33 77.56-3.155 85.75-36.987l-106.668.24v-27.24l181.84 1.27c2.134 49.68-48.2 101.43-160.705 103.14-95.48-.67-150.79-56.5-149.115-98.7v.01" fill="#FFF"/></g></svg>