<svg width="512" height="512" viewBox="0 0 512 512" xmlns="http://www.w3.org/2000/svg"><title>houston-texans</title><g fill="none" fill-rule="evenodd"><path d="M339.27 148.603c75.37 57.423 18.013 66.026-40.835 74.408 0 0-24.845-6.86-67.878-28.26-97.596-48.54-66.87-71.41 9.835-85.25C117.61 55.94 15.282 149.18 128.18 239.85l-30.987 22.173c25.463 15.62 78.165 48.39 70.51 98.56l-26.16 18.72 79.91 36.252 63.05-28.598c.47-27.798 50.065-42.224 71.41-98.745 117.47-26.98 87.544-130.46-16.644-139.61z" fill="#FFF"/><path d="M339.27 148.603c75.37 57.423 18.013 66.026-40.835 74.408 0 0-24.845-6.86-67.878-28.26-97.596-48.54-66.87-71.41 9.835-85.25C117.61 55.94 15.282 149.18 128.18 239.85l-30.987 22.173c25.463 15.62 78.165 48.39 70.51 98.56l-26.16 18.72 79.91 36.252 63.05-28.598c.47-27.798 50.065-42.224 71.41-98.745 117.47-26.98 87.544-130.46-16.644-139.61z" stroke="#000" stroke-width="2"/><path d="M360.443 157.586c50.605 39.68 15.478 65.014-46.234 71.905 15.61 65.88-32.25 126.23-82.93 172.97l46.46-21.08c3.44-26.77 50.58-40.7 72.9-100.12 104.92-23.43 87.81-98.83 9.79-123.66" fill="#B21E35"/><path d="M285.574 228.305c-147.46-57.034-157.236-103.814-65.18-119.984C105.27 77.01 38.14 160.55 152.036 240.21l-30.57 21.866c32.458 21.72 66.85 53.867 55.177 104.462l-15.4 11.01 59.15 26.84c55.05-60.356 83.84-119.004 65.18-176.083z" fill="#06192E"/><path d="M285.574 228.305c-147.46-57.034-157.236-103.814-65.18-119.984C105.27 77.01 38.14 160.55 152.036 240.21l-30.57 21.866c32.458 21.72 66.85 53.867 55.177 104.462l-15.4 11.01 59.15 26.84c55.05-60.356 83.84-119.004 65.18-176.083z" fill="#03202F"/><path d="M248.418 320.132l-22.655-25.785-26.02 3.886 12.034-19.843-22.65-25.816 30.083 13.566 11.993-19.83 6.568 28.188 30.09 13.54-26.02 3.89 6.58 28.204z" fill="#FFF"/><path d="M360.443 157.586c50.605 39.68 15.478 65.014-46.234 71.905 15.61 65.88-32.25 126.23-82.93 172.97l46.46-21.08c3.44-26.77 50.58-40.7 72.9-100.12 104.92-23.43 87.81-98.83 9.79-123.66" fill="#A71930"/></g></svg>