<svg width="512" height="512" viewBox="0 0 512 512" xmlns="http://www.w3.org/2000/svg"><title>jacksonville-jaguars</title><g fill="none" fill-rule="evenodd"><path d="M427.336 247.657l-.278.04c-1.062.168-3.138-.152-2.857-1.66.17-.93 1.44-1.696 2.25-2.033 2.3-.926 4.54-1.8 6.59-3.176.74-.495 1.45-1.035 2.08-1.66.18-.163 1.11-.915 1.08-1.195-.28-2.3-.88-4.327-1.63-6.04-.24.582-.65 1.345-1.21 2.203-1.26 2.137-2.82 3.126-3.38 3.43-.82.466-2.43.95-3.16-.473-.74-1.406 1.3-2.622 1.3-2.622 3.02-2.16 4.245-4.36 4.737-5.8-1.62-2.51-3.177-3.82-3.177-3.82s-4.34 10.8-15.7 16.29c-8.15 3.95-15.628 8.54-20.42 14-.676.79-1.305 1.59-1.878 2.41l.09.01c11.52 1.28 17.17 6.13 19.03 8.49l.33.45.04-.01c.717-.12 12.27-2.2 19.43-10.06h-.78c-1.767-.07-8.514.11-6.81-3.275.57-1.133 2.59-.82 3.6-.76 1.74.104 3.464.288 5.197.194 2.39-.13 2.832-2.294 3.43-4.27.56-1.91.903-3.71 1.06-5.41-2.648 3.355-7.39 4.49-8.95 4.77m-25.49 18.646c-2.55-.593-5.69 1.07-7.44 2.197-.335-.69-.96-1.3-2.15-1.71-3.58-1.2-8 2.195-8 2.195.37-2.59-3.193-1.85-3.334-1.83-1.056.084-5.477 1.475-8.093 2.94-3.874 1.344-8.98 2.98-14.628 4.35 1.06 6 .74 10.22.74 10.22 5.99-3.096 10.96-9.47 13.98-14.056.65 3.08 3.263 7.264 3.263 7.264 4.2-2.604 7.93-6.373 7.93-6.373 1.29 2.328 1.073 7.215 1.073 7.215 2.95-.96 5.597-2.867 7.3-4.29-1.883 9.97-7.935 19.64-7.935 19.64 7.08-2.65 20.6-17 21.47-20.91.867-3.9-.423-6.01-4.18-6.858m-64.65 10.88c1.19 12.214-9.68 23.25-9.68 23.25 17.64-4.948 26.894-19.08 29.744-24.16.3-.753.525-1.37.657-1.777-6.565 1.57-13.832 2.76-20.715 2.684m16.55 38.597s-10.856 17.34-15.75 20.92c-.004 0-1.177-2.84-2.615-4.24 0 0-5.95 4.01-7.14 6.21.12-.23-1.07-1.87-1.2-2.095-.67-1.098-1.36-2.177-2.18-3.16-2.38 1.393-5.13 3.43-6.38 5.93 1-2.01 1.755-4.06 2.31-6.235.33-1.335.56-2.704.704-4.075.484-4.71-.126-9.51-1.655-13.99 0 0-5.635 13.77-12.12 20.513-6.504 6.72-10.058 8.445-10.47 9.403-.41.93-.497 4.348 7.12 3.383 7.624-.99 13-6.648 13-6.648s10.43-1.93 19.604-.69c0 0 2.543 2.76 6.163 2.508s11.156-14.396 10.594-27.744m-52.23-42.69c-4.587-14.35-21.598-17.13-21.598-17.13s13.93 5.67 14.302 45.8c.13 13.5 4.26 19.207 4.26 19.207-7.025-3.733-8.87-17.514-9.505-28.18-.32-5.42-2.525-31.85-22.796-38.374-12.306-3.965-18.23-.59-18.23-.59s9.5 2.26 14.854 11.994c8.09 14.64 2.333 40.53 8.37 54.36 7.46 17.1 21.11 21.716 21.11 21.716 17.912-9.597 21.75-24.507 21.75-24.507-15.32-7.92-7.957-29.93-12.523-44.3m23.38 49.43l.63 6.91 4.816 3.13c1.388-5.59-5.443-10.04-5.443-10.04m50.954-95.17c-4.172-.38-7.48 1.5-7.48 1.5s12.274 0 16.75 3.867c4.498 3.883 3.297 6.862 3.297 6.862s4.48 7.162 5.687 10.14c0 0 8.368-7.75 8.976-13.12-.005-.005-16.26-8.254-27.225-9.254m37.07-17.34s-5.252 6.457-7.85 4.478c-2.614-1.99 1.36-4.647.52-9.82-.82-5.163-17.817-22.573-39.282-35.414 0 0 9.92 4.09 19.52 9.17l.23.11c2.12 1.08 4.353 2.35 6.45 3.646 2.875 1.75 5.47 3.517 7.4 5.22 0 0 3.9-4.746 1.57-10.283-.127-.306-.29-.625-.465-.945l-.08-.123c-.36-.63-.79-1.264-1.29-1.916-.433-.282-1.05-.65-1.745-.91-1.354-.52-2.63-.736-3.53-1.18 0 0-2.063-2.084-2.756-3.084 0 0-.22.92.35 2 0 0-1.59-1.392-3.048-1.7-1.453-.3-3.206-.884-3.66-1.225-.45-.337-1.34-1.12-1.34-1.12s.04.71.255 1.233c0 0-1.495-.114-1.75-1.68-.267-1.56.96-2.2.96-2.2s-.114-.44 0-.996c0 0 1.34 1.48 1.983 1.86 0 0 .29-.946-.26-2.57l-.49-.28c-.5-.266-.98-.51-1.438-.72-.383-.18-22.495-12.68-32.98-17.926-.78-.07-1.84-.24-2.97-.61 0 0-1.753-.815-2.045-1.65 0 0-.12.43.13.905.44.8 1.38 1.654 1.66 2.763 0 0-1.74-1.03-3.18-1.77-1.253-.65-3.9-1.395-5.39-2.51-.315-.225-.556-.46-.718-.687l-.165-.205c-.15-.227-.24-.45-.308-.647l-.07-.26-.02-.115-.02-.277.01-.19.09.06.07.06.103.08c.63.535 1.3 1.134 2.084 1.347l.194.05-.07-.095-.083-.09-.194-.227c-.407-.446-.96-1.15-1.42-2.06-8.57-4.23-18.81-8.72-32.654-11.44-19.93-3.922-33.308-.614-33.308-.614s3.93.234 12.13 3.093c.51-.16 1.204-.44 1.81-.874 1.18-.84 1.944-1.01 2.448-1.01s2.687 2.594 2.687 2.594-.24-2.004-.662-3.69c0 0 2.15-.185 2.966 0 1.196.274 2.19.68 2.616.68.42 0 .592-.5.592-.5s.755.49.755 1.09c0 0 1.69 1.17 1.69 2.27 0 1.09-.257 2.52 0 3.203 0 0-.42.244-1.108-.848 0 0-1.09.925-2.187.925-.512 0-.975.13-1.335.27 3.774 1.69 8.046 3.76 12.856 6.32l.95.68s.39-1.596.647-1.843c0 0 .5.445.6.7 0 0 .093-.7-.05-1.494 0 0 1.34-1.09 2.386-1.192 1.045-.1 1.45-.1 1.79-.3 0 0 .236-.83-.113-1.73 0 0 1.754 1.03 2.105 2.33 0 0 .154-.79.1-1.59 0 0 1.838-.296 3.19.056 1.34.34 2.25.808 2.556 1.3.29.498 1.124 2.16.666 2.523-.48.36-1.32.5-1.58.903-.25.4-.343.74-.69.99-.335.246-.802.31-.802.31s-.094 1.377.266 2.073c0 0-.72-.09-1.067-.934 0 0 .165.784-.34 1.337-.493.545-.836.884-1.33 1.033 0 0-1.23-1.163-1.33-1.62 0 0 .137 2.75-.34 2.238 0 0-2.586-2.28-3.108-2.562 0 0-1.115.168-1.558.12-.457-.044-1.99-.64-2.29-1.146 0 0-.05.6.796 1.2 0 0-.77-.12-1.05-.254 0 0-.444.505-1.24.708 0 0 .796.896 1.14 1.235 0 0-1.56-.275-2.272-1.032 0 0-.9.048-1.904-.25-.996-.298-1.604-.195-2.5-.055-.9.15-1.045.057-1.7-.1-.644-.14-2.43-1.14-2.43-1.14s.3.796.6 1.054c0 0-.152.646-1.602.242-1.446-.4-1.496-.84-2.24-1.298-.75-.435-1.248-1.09-1.095-1.634.144-.545.596-.95.596-.95s.44.4 1.236.76c0 0-1.34-1.69-1.495-2.292l1.056.2s.244-.947 2.335-1.39c.704-.152 1.295-.246 1.766-.32-5.762-1.8-13.823-4.043-23.13-5.902l-.395.533-.36.675c-.343.7-.598 1.412-1.144 1.873 0 0-4.33-1.35-5.715-2.04 0 0 2.19 1.786 3.715 2.606 0 0-1.316 2.17-5.89 1.667 0 0-2.12.92-3.787.75-1.643-.18-4.16-1.27-4.68-2.114-.515-.863-.456-2.63 1.323-3.663 0 0 2.42 1.472 3.62 2.145 0 0-2.134-2.65-1.963-3.506 0 0 .755-.628 1.665-1.17-1.062-.15-2.14-.28-3.22-.39-9.793-1.107-18.455-1.27-26.31-.827.62.892.495 1.73.996 2.616.597 1.093-.28 1.594-.28 1.594-.66-.537-3.39-1.69-3.39-1.69 1.04.976 1.92 2.334 1.92 2.334-.655.38-2.39.72-4.26.812-1.865.08-4.52 1.623-4.52 1.623-1.112-.327-2.06-1.456-3-2.326l-.47-.4-.122-.1-.07-.06-.09-.064.11.307.016.03.01.03.185.478.447.93c.474.905 1.04 1.76 1.61 2.6l.03.05.635 1.02.22.33.04.073.07.116.082.12.032.074.057.073c-.236-.298-.98-.44-1.34-.57l-.06-.016c-.62-.248-1.2-.57-1.767-.924l-.03-.024c-.26-.19-1.014-.87-1.32-.75l-.195.054-.124.03-.23.07-.3.07-.31.07-.44.087-.795.095h-.044l-1.075.01c-1.91-.113-4.26-1.74-5.89-3.386-.59-.57-.773-1.21-.78-1.794-1.705.4-3.38.82-5.01 1.26-2.43.57-15.68 3.52-29.22 6.557.08.94-.312 1.945-.312 2.47 0 .94.76 1.645.76 1.645-1.55.123-4.29-.905-4.29-.905.773 1.1 3.01 2.37 3.01 2.37s-.33 1.224-1.35 1.644c-1.02.424-1.796.26-3.067.16-1.275-.073-2.38.517-4 .598-1.62.09-3.603-.91-3.603-.91 1.786.16 3.115-1.04 3.115-1.04-2.29-.26-3.004-1.104-3.26-1.603-.182-.37-.753-.878-1.28-1.25-9.934 2.214-17.63 3.933-17.63 3.933-6.3.845-11.39 1.48-11.39 1.48-1.87.137-3.742.246-5.61.354-10.29.545-20.59.305-30.86.935-1.53.09-3.033.133-4.56.133h-.05c.83.188 1.665.414 2.492.64 1.123.3 2.235.617 3.35.956 3.755 1.128 7.485 2.39 11.154 3.81 1.82.7 3.625 1.44 5.41 2.216 1.906.833 3.786 1.703 5.63 2.63.503-.772 2.785-.772 2.785-.772l-.29-.594c-.002 0 .64.406 1.433.35l.155-.025.58-.217c.26-.164.478-.39.98-.55.847-.3 2.026-.18 2.026-.18.32-.575 1.736-1.13 1.736-1.13l-.62-.534c.57-.1 1.87.172 2.415.23.37-.03.672-.06.78-.127l.05-.023c.155-.124.26-.39.115-.605-.27-.244-.867-.435-1.28-.616-.475-.217-.53-.52-.537-.617l-.02-.045c-.5.103-1.63-.38-1.63-.38s.95-.05 1.192-.217l.63-.28c.35-.163.79-.305 1.202-.36.756-.092 1.656.597 1.656.597s.79.14 1.585-.153c.816-.278 2.48-.247 2.398-.228-.515.09-1.035.44-1.527.44.406 0 .95.276 1.27.504 1.477.99-.395 2.293-1.35 2.753-1.46-.16-2.37.41-2.37.41s1.88 0 1.79.55c-.105.54-.95.89-1.85 1.087-.896.194-1.6 1.09-1.6 1.09.41.044.756.44.756.44s-.95.1-1.09.203c-.16.09-.65 1.196-1.055 1.686-.39.49-1.782.84-1.782.84.64.35 2.685.59 2.685.59-1.13.405-2.446.475-2.9.497l3.55 2.245.02.006c.164.115 2.707 1.7 3.58 2.21 3.7 2.17 7.507 4.15 11.53 5.64 1.22.4 2.42.866 3.65 1.247 1.366.42 2.746.78 4.13 1.102 1.27.28 2.56.51 3.84.703 2.29.337 4.62.472 6.936.41 2.33-.054 4.652-.375 6.95-.795 2.67-.5 5.31-1.07 7.91-1.826l1.28-.366c3.595-1.1 7.075-2.69 10.425-4.394.88-.434 1.752-.878 2.61-1.34l.063-.043.06-.02c-.05.06-6.24 5.18-9.27 7.03-.66.404-1.33.806-2.01 1.193-1.105.63-2.244 1.224-3.38 1.802-.97.5-1.94.96-2.92 1.393l-1.56.655-.08.04c-6.44 2.55-13.003 3.42-19.94 3.914-5.964.426-14.65.66-23.54-.44-14.61-1.82-22.33-6.716-22.33-6.716 13.344 2.33 20.405 1.92 23.615 1.39-4.876-3.095-9.067-6.98-14.515-10.39-13.02-8.102-25.33-13.183-38.642-11.963 0 0 4.367 1.07 7.443 5.175-.966 4.035 4.28 12.988 12.183 19.84 1.373 1.196 2.86 2.48 4.482 3.76l-5.96-.13c4.184 2.71 15.29 6.35 15.29 6.35-2.435.813-6.63 1.48-6.63 1.48.27.31 8.287 4.454 23.23 5.073 8.196.33 16.347-1.1 23.906-4.293l.17-.087.24-.13.06-.017-.594.574c-4.54 4.144-10.34 6.653-16.243 8.27-3.177.862-6.43 1.494-9.703 1.89l-1.516.167c-.205.07-.35.16-.403.28-1.605 5.01-1.657 10.424-1.38 15.63.15 2.792.497 5.592 1 8.355l.01.04c.363-.364.795-.75 1.29-1.153 0 0 1.5-1.24 4.106-1.618l-.11-.1-.12-.106c-.553-.47-1.41-.71-2.16-.827l-.58-.09.496-.084c1.63-.34 3.563-.64 5.14-.295l.115.02c.96.22 1.805.854 2.325 1.677l.133.26.15.337.037.083.1.342.07.34.02.07.017.356c0 .42-.085.844-.27 1.244-.614 1.37-1.746 3.98-1.746 4.968 0 .454-2.34 2.08-2.97 2.715l-.1.116.19-.01.155-.02 2.065-.26 1.01-.06h.028s1.62 2.983 2.868 3.98c1.246.992 2.367 3.1 2.747 4.712l.044.015c.15.01.33-.044.517-.12l.06-.02.22-.09.46-.216.705-.3.67-.34.067-.03s-2.357 3.46-5.104 5.086c.18.025 2.37.345 3.45-.12l.03-.01s.186 4.125-3.85 8.573c-.28.31 3.004 4.19 5.02 6.46l.225.27.174.204.422.464.262.31c.14-.125 1.25-1.07 1.82-1.53.973-.79 2-1.52 3.04-2.218.983-.67 3.252-1.873 3.252-1.873l.03-.017v.023c-.03.32-.04.664-.01 1.052 0 0 1.14-1.235 2.19-1.81 0 0-1.718 2.665-1.91 4.662 0 0-.388 3.32 2.76 5.03 3.14 1.706 7.82 3.043 9.16 4.086 0 0 2.387-1.71 3.71-2.28 0 0-3.15 3.04-4.002 5.888 0 0 1.91-1.8 2.963-2.186 0 0 2.96 2.186 4.76 1.99 1.81-.183 4.39-.095 5.43-2.47 1.05-2.363.86-2.744 1.34-3.51 0 0-1.72 1.05-2.96 2.18 0 0 .58-2.36 2.96-4.18 2.38-1.79 3.53-2.08 3.53-2.08s5.63-7.424-.95-11.035c0 0 3.23-1.61 5.05-2.747 0 0-5.253 1.33-6.964 1.89 0 0-3.9-.76-5.996-.76-2.1 0-5.71-.28-7.34-.76-1.615-.476-3.24-1.04-3.24-1.04s.953-.57 1.72-.77c0 0-3.7-.27-5.886 3.186l-.03-.01c.005-.28.13-1.618 1.142-2.878 0 0-1.94.882-3.035 2.11l-.033-.01c-.72-.27-1.453-.498-2.19-.725-1.16-.343-2.35-.66-3.533-.94-.785-.18-1.586-.363-2.387-.52 6.19-4.08 13.045-7.13 20.095-9.51 2.354-.785 7.348-2.205 7.348-2.205 1.003.945 2.013 1.663 2.013 1.663s3.353-.805 4.964-1.43c0 0-3.366 2.355-5.985 3.49 0 0 3.982-.135 5.36-.385l-.618 1.38s1.743 1.36 5.85.747c4.11-.62 6.73-1.5 6.73-3.614 0-2.11-.505-3.105.12-5.214 0 0-1.494.24-2.62 0 0 0 2.37-1.37 3.24-2.86 0 0-.22-1.335-.87-2.66v-.014c3.284-.36 6.6-.64 9.89-.84-.413-.48-.857-.94-1.33-1.37-3.31-3.04-7.948-4.99-12.108-6.323 8.28-1.104 16.65-1.43 24.972-1.714 4.766-.177 9.54-.295 14.3-.346-1-.83-2.395-1.31-3.584-1.79 2.795-.315 5.716-.046 8.515.157-2.388-1.192-5.09-1.863-7.64-2.62-1.793-.522-3.6-1.027-5.41-1.495l.225.01.2.02.04.01c6.564.87 13.53 1.97 21.155 3.33 48.9 8.684 81.164 21.85 95.215 28.44 3.72 1.68 6.25 2.956 7.54 3.625 1.165.34 2.786.524 3.605-.664.15-.21.264-.44.35-.654l.006-.02.34.02c3.06-.185 6.06-.483 9.03-1.3.838-.222 1.66-.48 2.488-.76 1.683-.575 3.315-1.25 4.92-1.99-.084 0-2.724-3.413-3.038-3.755-2.373-2.65-5.036-5.07-7.97-7.13l1.244-.336c.42-.103.87-.164 1.29-.155-2.35-2.325-5.26-4.18-8.024-5.908-1.026-.657-2.08-1.278-3.12-1.88l-.9-.533-.64-.384c-1.2-.687-2.4-1.37-3.62-2.017l-.04-.027.052-.01h.15c4.395 0 8.843-.18 13.26-.07.5.01 4.864.205 5.1.224 1.28.09 2.55.173 3.816.29 2.755.25 5.51.56 8.25.95l2.04.3c3.477.52 6.95 1.2 10.38 1.963l.107.03c1.89.63 3.97.91 5.906 1.403 1.085.284 2.16.566 3.244.866 2.382.644 4.747 1.34 7.092 2.092 1.496.486 2.99.98 4.48 1.514.393.14 2.244 1.08 2.517.887.74-.528 4.91-3.42 8.173-4.05 3.59-.69 6.95-2.04 6.95-6.073-.365-4.18-3.693-8.542-7.33-11.45M220.78 280.06c-2.17-2.24-4.284-2.984-5.554-1.74 0 0-.64-2.39-2.103-3.035-1.477-.647-2.475-.522-2.475-.522-.002 0-5.742 1.14-8.1 2.592.462-.297 4.26-2.747 5.61-3.612l-3.186.73s-3.357.012-6.473-.233c-3.11-.234-10.29-.978-11.62-.72 0 0 .89-.612 1.43-.936-.15 0-2.5.02-4.06 1.277 0 0-4.78.5-5.7 3.7-.93 3.22 1.44 5.51 2.14 6.01 0 0 .96-1.5 2.89-2.45 0 0-1.108 1.78-1.067 3.27 0 0 4.076 2.15 12.21 3.28 8.142 1.127 7.55.52 10.413 2.3 0 0 3.02-2.132 4.693-2.635 0 0-2.35 3.333-2.57 4.578 0 0 3.78 3.216 6.895 3.45 3.124.25 5.8-.955 5.47-4.162l1.123-1.383-1.99.15.58-1.08s-.098-1.637-1.006-2.904c.16.08 1.717.925 3.196.52l-.433.816s1.7-.195 2.96-2.345l-1.03-.28c-.004 0-.087-2.368-2.264-4.61m-21.16-30.18s-2.86.01-4.952.1c-2.07.1-4.342.302-4.643 2.266-.29 1.98.3 2.964 1.19 3.657.882.69 4.26 2.76 4.95 3.44 0 0 2.275-1.48 4.06-1.863 0 0-3.86 2.754-4.747 4.248 0 0 1.68-.883 2.87-.883-.002 0 3.064 1.87 5.036 1.87 1.98 0 5.733-.6 5.733-.6s2.18-1.47 4.56-1.675c0 0-2.487 1.673-3.077 2.47 0 0 1-.104 1.595.3.59.383 2.57.775 4.35.095 1.78-.694 3.55-1.385 3.46-3.553-.105-2.17-1.38-4.736-1.38-4.736s2.33-1.94 3.616-2.55c-.31.04-2.84.424-4.416 1.07 0 0-1.968-3.95-4.057-5.23-2.086-1.27-4.16-1.474-6.437-.49-2.274.994-5.65 1.95-5.65 1.95s-3.114 1.49-3.53 2.084c.065-.146.63-1.31 1.467-1.966m229.23-33.02s-6.052-13.24-23.27-24.516c4.32-5.51 5.99-12.14 4.003-17.374-2.067-5.444-16.555-15.384-22.02-18.206-5.455-2.808-12.994-6.944-12.994-6.944s-19.36-11.71-34.57-18.328c-18.35-7.962-51.377-18.57-87.31-11.005 0 0-21.56-7.05-60.538 4.956-13.634 3.74-36.787 9.87-49.765 12.03-19.237 3.206-38.75 3.53-53.875 5.124-7.965.85-13.27-.912-15.86 3.566-11.39 19.66 22.56 52.93 34.86 58.19-3.64 20.45.982 44.64 22.51 68.81 23.405 26.3 55.792 31.28 74.78 45.27 21.314 15.69 25.73 35.51 43.53 54.052 16.383 17.053 48.395 31.6 77.074 17.67 31.11-15.117 36.75-40.348 37.874-45.077.377-2.42-1.03-4.87-4.16-6.37-.525-.25-1.565-.76-2.945-1.483 1.24-4.94 4.4-19.794 1.29-32.75 0 0-8.794 12.82-15.44 19.93-1.86-1.742-10.394-10.35-8.976-20.56 3.898-1.54 8.425-3.65 11.887-6.24 2-1.507 3.756-2.997 5.358-4.46 17.506-5 21.437-12.21 21.437-12.21.646 1.77 2.855 4.034 2.855 4.034 2.58-1.45 6.02-4.03 6.02-4.03.332 2.09.29 5.81.29 5.81 1.3-.484 2.564-.6 2.564-.6-1.3 6.45-8.877 17.39-8.877 17.39 26.553-7.58 37.735-27.13 37.735-27.13l-.01-.106c1.002-.208 1.707-.475 1.707-.475s17.815-5.057 26.003-22.47c8.18-17.43-6.615-34.32-11.174-36.51m-77.4 133.682c-2.24 4.215-4.983 8.15-8.185 11.69-5.45 6.03-12.174 10.82-19.54 14.267-7.642 3.58-16.357 6.185-24.87 6.52 1.52-1.617 3.04-3.225 4.535-4.828-8.37 1.452-17.05 1.686-25.432.04 1.03-.75 2.41-1.89 2.563-3.235-.58-.044-1.2-.324-1.73-.51-1.433-.51-2.83-1.116-4.19-1.78-5.026-2.45-9.657-5.7-13.89-9.34-7.41-6.38-13.66-14.06-18.9-22.29-3.17-4.97-5.722-10.314-9.233-15.054-3.013-4.062-6.513-7.753-10.36-11.032-6.03-5.14-12.895-9.23-20.134-12.39-11.673-5.11-23.264-10.62-34.24-17.138-3.082-1.827-6.1-3.77-9.07-5.8-6.29-4.365-12.414-9.248-17.625-14.854l-.35-.373c.142-.124 1.25-1.073 1.814-1.53.98-.788 2-1.52 3.042-2.217.98-.67 3.25-1.874 3.25-1.874l.03-.018v.022c-.03.32-.036.67-.01 1.057 0 0 1.14-1.235 2.19-1.815 0 0-1.71 2.67-1.906 4.66 0 0-.39 3.324 2.76 5.034 3.14 1.707 7.82 3.045 9.16 4.087 0 0 2.385-1.71 3.715-2.277 0 0-3.15 3.04-4.005 5.89 0 0 1.91-1.8 2.966-2.187 0 0 2.95 2.184 4.757 1.99 1.8-.184 4.385-.097 5.428-2.47 1.053-2.365.855-2.746 1.34-3.51 0 0-1.724 1.05-2.96 2.18 0 0 .58-2.366 2.96-4.182 2.372-1.79 3.526-2.08 3.526-2.08s5.626-7.42-.95-11.032c0 0 3.23-1.61 5.05-2.75 0 0-5.254 1.33-6.97 1.9 0 0-3.896-.765-5.994-.765-2.105 0-5.717-.28-7.338-.764-1.62-.473-3.242-1.04-3.242-1.04s.95-.567 1.713-.766c0 0-3.698-.273-5.88 3.186l-.036-.01c.005-.278.13-1.615 1.142-2.875 0 0-1.944.886-3.04 2.11l-.03-.01c-.724-.27-1.456-.5-2.19-.72-1.164-.35-2.354-.66-3.536-.94-.783-.18-1.58-.37-2.384-.52 6.19-4.08 13.044-7.135 20.09-9.51 2.35-.79 7.35-2.214 7.35-2.214 1.003.95 2.013 1.67 2.013 1.67-.006 0 3.35-.8 4.96-1.43 0 0-3.36 2.36-5.986 3.49 0 0 3.997-.13 5.368-.38l-.614 1.378s1.74 1.364 5.85.747c4.11-.62 6.73-1.496 6.73-3.612 0-2.11-.505-3.104.12-5.22 0 0-1.494.248-2.62 0 0 0 2.376-1.364 3.24-2.85 0 0-.22-1.336-.864-2.662l-.006-.012c3.29-.356 6.603-.64 9.894-.835-.413-.484-.86-.94-1.33-1.37-3.31-3.043-7.95-4.994-12.11-6.324 8.28-1.106 16.65-1.43 24.975-1.72 4.77-.173 9.54-.287 14.297-.34-.998-.833-2.39-1.31-3.578-1.79 2.79-.32 5.713-.05 8.51.156-2.385-1.2-5.086-1.87-7.638-2.627-1.79-.527-3.6-1.03-5.403-1.5l.22.01.203.02.044.01c6.56.863 13.53 1.962 21.155 3.324 48.9 8.69 81.163 21.853 95.216 28.44 3.72 1.68 6.245 2.956 7.538 3.63 1.165.336 2.79.52 3.605-.668.153-.21.265-.437.35-.656l.005-.024.345.024c3.062-.188 6.06-.49 9.03-1.3.84-.23 1.66-.48 2.49-.76 1.682-.58 3.314-1.26 4.913-2-.08 0-2.72-3.416-3.03-3.757-2.37-2.654-5.035-5.075-7.964-7.13l1.24-.335c.414-.11.864-.17 1.29-.16-2.35-2.32-5.26-4.18-8.03-5.907-1.02-.66-2.08-1.28-3.12-1.88l-.9-.532-.64-.385c-1.2-.69-2.4-1.37-3.614-2.015 7.47 2.53 14.88 5.432 22.14 8.55l1.653.707c6.07 2.625 12.217 5.444 17.687 9.15 1.21.814 2.354 1.708 3.396 2.693l.12.1c2.15 1.62 3.63 4.04 4.58 6.525.456 1.203.79 2.47.96 3.747.06.43.23 4.703-.063 4.69l-1.17-.04c-3.114-.043-6.234.287-9.29.884-5.46 1.08-10.55 3.14-15.734 5.06-3.766 1.404-7.345 3.25-11.16 4.528-5.412 1.816-11.12 2.688-16.84 2.257-5.903-.445-11.67-2.128-16.64-5.35-3.773-2.45-7.01-5.626-9.76-9.146-1.962-2.516-3.68-5.216-5.133-8.06 7.5 2.7 13.4 5.13 17.657 7.016 3.753 1.597 6.313 2.807 7.612 3.448 1.165.32 2.793.46 3.594-.73 1.647-2.494-1.37-4.474-1.37-4.474s-37.15-18.08-105.23-25.54c-8-.87-15.41-1.492-22.242-1.915 6.72.72 13.973 1.66 21.806 2.874 11.96 1.85 22.94 4 32.91 6.266-1.09.145-2.162.346-3.23.63-2.055.543-4.01 1.38-5.846 2.48-3.397 2.054-6.138 5.042-8.22 8.38-4.215 6.755-6.2 15.103-6.495 22.982-.35 9.814 2.13 19.55 5.34 28.75 3.79 10.906 8.7 21.413 14.78 31.237 3.03 4.89 6.33 9.615 10.05 13.975 3.96 4.61 8.474 9.1 13.93 11.905 5.8 2.96 12.22 2.94 18.512 2 4.43-.67 8.723-2.43 12.935-3.88 9.892-3.37 20.254-7.004 30.883-5.86 3.51.38 7.24 1.1 10.4 2.747.48.24.415.26.154.776M220.77 280.07c-2.168-2.24-4.283-2.985-5.553-1.74 0 0-.64-2.39-2.103-3.036-1.477-.646-2.475-.52-2.475-.52-.01 0-5.75 1.14-8.11 2.59.46-.296 4.26-2.746 5.61-3.61l-3.19.73s-3.36.01-6.47-.234c-3.11-.233-10.29-.977-11.62-.72 0 0 .9-.61 1.43-.935-.15 0-2.5.02-4.06 1.277 0 0-4.78.494-5.698 3.7-.93 3.22 1.44 5.505 2.136 6.01 0 0 .96-1.505 2.9-2.454 0 0-1.106 1.782-1.065 3.265 0 0 4.075 2.15 12.21 3.273 8.14 1.124 7.55.523 10.412 2.297 0 0 3.02-2.133 4.692-2.636 0 0-2.35 3.334-2.57 4.58 0 0 3.78 3.213 6.896 3.447 3.127.25 5.8-.956 5.47-4.163l1.126-1.38-1.99.15.58-1.08s-.095-1.63-1-2.9c.16.08 1.712.93 3.19.52l-.435.82s1.7-.19 2.96-2.34l-1.03-.28c-.006 0-.09-2.366-2.266-4.61m-29.563-24.16c.885.69 4.264 2.76 4.95 3.446 0 0 2.278-1.48 4.06-1.867 0 0-3.86 2.755-4.744 4.25 0 0 1.68-.886 2.87-.886 0 0 3.062 1.87 5.034 1.87 1.98 0 5.734-.593 5.734-.593s2.18-1.47 4.565-1.673c0 0-2.488 1.676-3.078 2.474 0 0 1-.105 1.595.3.585.38 2.57.774 4.35.094 1.78-.69 3.55-1.38 3.46-3.55-.107-2.17-1.38-4.735-1.38-4.735s2.33-1.94 3.614-2.55c-.31.04-2.84.423-4.416 1.07 0 0-1.97-3.95-4.06-5.23-2.085-1.27-4.16-1.475-6.434-.49-2.28.992-5.65 1.95-5.65 1.95s-3.116 1.49-3.53 2.08c.063-.14.63-1.31 1.463-1.96 0 0-2.86.01-4.957.1-2.076.1-4.347.3-4.65 2.265-.286 1.98.3 2.963 1.2 3.654" fill="#000"/><path d="M389.575 252.668c-.164-1.277-.506-2.548-.96-3.747-.955-2.48-2.436-4.9-4.582-6.52l-.118-.1c-1.047-.98-2.188-1.88-3.393-2.69-5.474-3.7-11.622-6.52-17.688-9.15l-1.655-.7c-7.27-3.11-14.68-6.02-22.15-8.55 1.21.65 2.42 1.33 3.62 2.02l.63.385.9.53c1.04.61 2.09 1.227 3.11 1.88 2.77 1.73 5.68 3.586 8.034 5.91-.427-.007-.877.048-1.296.153l-1.24.34c2.932 2.057 5.596 4.478 7.967 7.134.314.334 2.96 3.75 3.04 3.75-1.61.745-3.244 1.418-4.924 1.994-.82.284-1.65.538-2.49.765-2.967.814-5.967 1.116-9.023 1.295l-.34-.02-.01.02c-.077.22-.196.45-.35.66-.818 1.185-2.44 1.006-3.604.66-1.29-.67-3.82-1.944-7.537-3.62-14.056-6.59-46.32-19.757-95.22-28.45-7.625-1.36-14.59-2.46-21.153-3.32l-.045-.01-.2-.02-.22-.018c1.806.475 3.616.98 5.413 1.504 2.55.755 5.25 1.427 7.64 2.63-2.8-.214-5.72-.48-8.52-.16 1.2.48 2.58.956 3.584 1.79-4.76.054-9.528.166-14.296.34-8.33.285-16.7.616-24.98 1.72 4.16 1.326 8.8 3.28 12.11 6.33.48.425.92.88 1.33 1.37-3.29.19-6.604.48-9.895.83l.01.01c.65 1.33.87 2.665.87 2.665-.87 1.48-3.24 2.85-3.24 2.85 1.124.245 2.62 0 2.62 0-.63 2.11-.12 3.104-.12 5.215 0 2.12-2.626 2.992-6.73 3.61-4.11.615-5.85-.744-5.85-.744l.62-1.38c-1.375.247-5.37.385-5.37.385 2.62-1.132 5.985-3.49 5.985-3.49-1.607.63-4.964 1.43-4.964 1.43s-1.012-.72-2.01-1.67c0 0-4.994 1.42-7.353 2.216-7.042 2.377-13.89 5.422-20.09 9.508.807.158 1.6.34 2.387.53 1.188.274 2.377.587 3.54.937.73.23 1.466.46 2.187.72l.035.01c1.093-1.23 3.033-2.11 3.033-2.11-1.01 1.26-1.137 2.6-1.143 2.878l.03.014c2.19-3.462 5.883-3.184 5.883-3.184-.76.2-1.702.77-1.702.77s1.617.567 3.24 1.04c1.62.483 5.236.767 7.338.767 2.098 0 5.997.76 5.997.76 1.717-.563 6.97-1.9 6.97-1.9-1.816 1.14-5.05 2.75-5.05 2.75 6.577 3.62.954 11.036.954 11.036s-1.153.29-3.53 2.083c-2.383 1.81-2.96 4.176-2.96 4.176 1.24-1.13 2.966-2.18 2.966-2.18-.49.766-.287 1.142-1.34 3.51-1.045 2.372-3.62 2.283-5.43 2.466-1.806.2-4.757-1.984-4.757-1.984-1.05.38-2.967 2.18-2.967 2.18.86-2.85 4.007-5.89 4.007-5.89-1.33.57-3.72 2.28-3.72 2.28-1.33-1.045-6.01-2.38-9.15-4.09-3.15-1.71-2.764-5.03-2.764-5.03.194-1.994 1.903-4.663 1.903-4.663-1.05.59-2.188 1.82-2.188 1.82-.024-.39-.02-.73.01-1.054v-.03l-.03.02s-2.27 1.206-3.243 1.876c-1.045.7-2.06 1.43-3.05 2.21-.56.465-1.664 1.414-1.81 1.54l.35.377c5.21 5.6 11.34 10.49 17.63 14.85 2.964 2.033 5.985 3.97 9.07 5.802 10.97 6.51 22.56 12.025 34.24 17.13 7.235 3.166 14.11 7.255 20.13 12.4 3.846 3.27 7.343 6.962 10.36 11.036 3.51 4.735 6.07 10.077 9.24 15.05 5.237 8.233 11.486 15.91 18.89 22.29 4.233 3.64 8.865 6.89 13.892 9.34 1.365.665 2.758 1.274 4.197 1.777.53.184 1.15.467 1.73.513-.16 1.336-1.54 2.48-2.56 3.23 8.375 1.65 17.06 1.414 25.43-.04-1.5 1.603-3.018 3.21-4.536 4.825 8.51-.33 17.226-2.93 24.872-6.512 7.355-3.44 14.08-8.23 19.535-14.264 3.2-3.54 5.94-7.477 8.185-11.69.264-.52.33-.534-.157-.762-3.157-1.645-6.898-2.37-10.4-2.75-10.635-1.14-20.99 2.494-30.89 5.867-4.21 1.44-8.5 3.2-12.93 3.87-6.29.945-12.72.963-18.517-2.006-5.45-2.795-9.97-7.286-13.923-11.89-3.73-4.36-7.03-9.087-10.054-13.98-6.09-9.82-10.99-20.33-14.787-31.236-3.204-9.19-5.69-18.923-5.34-28.743.29-7.88 2.28-16.23 6.49-22.974 2.086-3.346 4.83-6.33 8.23-8.386 1.825-1.097 3.786-1.93 5.836-2.477 1.07-.282 2.145-.483 3.238-.63-9.97-2.263-20.95-4.414-32.913-6.27-7.833-1.21-15.087-2.145-21.81-2.864 6.835.422 14.25 1.04 22.25 1.914 68.08 7.46 105.224 25.544 105.224 25.544s3.02 1.98 1.37 4.47c-.794 1.193-2.42 1.05-3.59.73-1.3-.64-3.86-1.85-7.613-3.44-4.253-1.89-10.153-4.316-17.66-7.015 1.455 2.84 3.178 5.54 5.14 8.06 2.75 3.518 5.99 6.69 9.757 9.14 4.973 3.23 10.74 4.91 16.64 5.35 5.72.43 11.433-.44 16.84-2.255 3.82-1.27 7.398-3.13 11.158-4.52 5.18-1.924 10.274-3.982 15.735-5.06 3.054-.6 6.17-.93 9.285-.89l1.174.047c.294.003.123-4.274.07-4.7zm-165.22 32.275c-1.258 2.15-2.963 2.345-2.963 2.345l.432-.816c-1.476.405-3.032-.44-3.186-.523.91 1.27 1 2.9 1 2.9l-.578 1.08 1.987-.15-1.123 1.38c.33 3.21-2.34 4.41-5.472 4.16-3.118-.24-6.894-3.45-6.894-3.45.22-1.25 2.574-4.58 2.574-4.58-1.674.5-4.698 2.634-4.698 2.634-2.86-1.777-2.27-1.175-10.415-2.3-8.14-1.12-12.21-3.268-12.21-3.268-.04-1.487 1.06-3.268 1.06-3.268-1.94.95-2.9 2.45-2.9 2.45-.69-.5-3.07-2.784-2.14-6.004.91-3.215 5.69-3.7 5.69-3.7 1.56-1.26 3.91-1.28 4.05-1.28-.534.32-1.436.933-1.436.933 1.334-.254 8.52.486 11.63.72 3.113.25 6.466.24 6.466.24l3.19-.737c-1.35.87-5.15 3.32-5.613 3.61 2.36-1.445 8.1-2.59 8.1-2.59s1.004-.124 2.474.525c1.464.646 2.107 3.035 2.107 3.035 1.27-1.24 3.386-.5 5.553 1.74 2.174 2.237 2.26 4.61 2.26 4.61l1.04.282zm-16.73-37.135c2.268-.98 4.345-.78 6.43.492 2.084 1.28 4.057 5.232 4.057 5.232 1.58-.65 4.107-1.032 4.42-1.067-1.29.604-3.62 2.548-3.62 2.548s1.278 2.564 1.383 4.736c.09 2.16-1.687 2.86-3.462 3.55-1.782.68-3.766.29-4.35-.1-.596-.41-1.594-.3-1.594-.3.59-.79 3.07-2.47 3.07-2.47-2.39.2-4.57 1.68-4.57 1.68s-3.75.59-5.74.59c-1.97 0-5.038-1.87-5.038-1.87-1.19 0-2.874.89-2.874.89.89-1.5 4.75-4.25 4.75-4.25-1.783.39-4.06 1.87-4.06 1.87-.687-.69-4.06-2.76-4.95-3.45-.884-.69-1.477-1.68-1.185-3.66.3-1.96 2.566-2.17 4.642-2.27 2.092-.09 4.955-.1 4.955-.1-.84.65-1.41 1.82-1.47 1.96.413-.59 3.53-2.082 3.53-2.082s3.375-.954 5.653-1.947z" fill="#FFF"/><path d="M413.204 210.008s-5.246 6.457-7.85 4.478c-2.612-1.99 1.366-4.65.526-9.816-.827-5.167-17.823-22.575-39.292-35.415 0 0 9.932 4.086 19.527 9.165 11.734 1.923 14.477-1.122 15.107-2.382-.356-.623-.788-1.26-1.295-1.912-.423-.286-1.044-.65-1.735-.914-1.354-.516-2.635-.735-3.54-1.18 0 0-2.06-2.075-2.742-3.08 0 0-.22.915.347 1.994 0 0-1.587-1.39-3.044-1.69-1.452-.303-3.212-.885-3.664-1.224l-1.34-1.124s.03.71.25 1.233c0 0-1.5-.11-1.76-1.67-.27-1.56.96-2.2.96-2.2s-.11-.45 0-1c0 0 1.34 1.48 1.98 1.87 0 0 .293-.94-.26-2.57l-.497-.28c-.497-.26-.98-.507-1.44-.714-.377-.18-22.496-12.675-32.975-17.923-.78-.074-1.84-.24-2.966-.614 0 0-1.755-.82-2.05-1.658 0 0-.12.434.134.905.444.805 1.39 1.66 1.67 2.77 0 0-1.755-1.03-3.18-1.77-1.26-.65-3.9-1.4-5.4-2.512-.317-.225-.54-.464-.718-.69l-.15-.204c-.16-.225-.246-.45-.314-.65l-.06-.255-.03-.112-.017-.28.01-.19.07.06.087.067.106.08c.616.533 1.285 1.13 2.075 1.34l.2.055-.07-.1-.08-.093-.2-.223c-.404-.448-.956-1.156-1.413-2.066-8.57-4.22-18.806-8.71-32.664-11.434-19.92-3.926-33.3-.616-33.3-.616s3.93.23 12.13 3.092c.52-.164 1.2-.444 1.81-.873 1.177-.845 1.94-1.01 2.447-1.01.506 0 2.684 2.593 2.684 2.593s-.24-2.007-.66-3.695c0 0 2.15-.18 2.97 0 1.202.28 2.19.68 2.615.68.42 0 .6-.5.6-.5s.745.49.745 1.09c0 0 1.698 1.17 1.698 2.277 0 1.083-.258 2.52 0 3.2 0 0-.425.24-1.105-.85 0 0-1.094.93-2.193.93-.51 0-.975.12-1.34.26 3.78 1.68 8.053 3.75 12.856 6.31l.956.684s.386-1.596.647-1.843c0 0 .5.44.594.7 0 0 .1-.7-.045-1.494 0 0 1.34-1.09 2.39-1.19 1.05-.106 1.46-.096 1.79-.3 0 0 .24-.835-.11-1.72 0 0 1.753 1.017 2.102 2.316 0 0 .158-.79.1-1.6 0 0 1.84-.3 3.195.054 1.344.35 2.24.807 2.542 1.295.3.5 1.135 2.163.67 2.522-.48.36-1.325.5-1.57.9-.245.39-.348.74-.703.99-.34.25-.79.31-.79.31s-.093 1.38.258 2.076c0 0-.72-.092-1.062-.934 0 0 .16.79-.344 1.34-.493.55-.835.89-1.33 1.038 0 0-1.23-1.166-1.328-1.62 0 0 .134 2.75-.34 2.235 0 0-2.59-2.285-3.108-2.567 0 0-1.12.165-1.56.115-.453-.042-1.986-.637-2.29-1.142 0 0-.05.598.796 1.195 0 0-.77-.12-1.05-.257 0 0-.442.508-1.234.71 0 0 .79.9 1.147 1.24 0 0-1.57-.28-2.282-1.03 0 0-.902.044-1.9-.255-1-.298-1.602-.195-2.5-.055-.9.15-1.035.056-1.69-.1-.65-.14-2.44-1.144-2.44-1.144s.306.8.598 1.053c0 0-.144.65-1.6.247-1.44-.402-1.495-.842-2.24-1.3-.743-.434-1.243-1.086-1.09-1.635.15-.546.6-.95.6-.95s.44.406 1.236.756c0 0-1.34-1.69-1.49-2.29l1.054.198s.24-.94 2.336-1.385c.705-.15 1.3-.25 1.77-.32-5.77-1.796-13.825-4.04-23.14-5.9l-.392.534-.365.673c-.337.705-.592 1.42-1.142 1.877 0 0-4.33-1.346-5.72-2.033 0 0 2.19 1.786 3.716 2.6 0 0-1.31 2.17-5.883 1.656 0 0-2.12.92-3.786.745-1.65-.175-4.16-1.254-4.69-2.11-.51-.86-.45-2.622 1.327-3.66 0 0 2.43 1.478 3.628 2.15 0 0-2.134-2.65-1.963-3.504 0 0 .76-.63 1.67-1.176-1.06-.147-2.14-.28-3.22-.39-9.79-1.107-18.46-1.27-26.32-.827.62.89.5 1.725.995 2.614.6 1.094-.28 1.593-.28 1.593-.645-.536-3.372-1.69-3.372-1.69 1.038.98 1.915 2.34 1.915 2.34-.65.376-2.384.715-4.253.81-1.87.08-4.524 1.625-4.524 1.625-1.114-.334-2.06-1.46-3-2.327l-.464-.404-.13-.103-.07-.06-.095-.06.11.3.01.025.015.032.19.48c.13.306.274.627.443.925.475.906 1.04 1.76 1.61 2.6l.028.046.64 1.02.217.33.046.073.08.11.075.12.045.07.05.08c-.235-.3-.976-.44-1.336-.563l-.06-.02c-.62-.25-1.205-.575-1.77-.93l-.034-.02c-.26-.176-1.016-.867-1.32-.75l-.194.06-.12.04-.237.067-.304.074-.31.06-.44.087-.798.096h-.048c-.33.02-.705.03-1.075.01-1.91-.113-4.258-1.74-5.89-3.38-.59-.572-.78-1.21-.78-1.797-1.71.402-3.385.822-5.015 1.27-2.435.56-15.685 3.513-29.22 6.545.08.937-.313 1.94-.313 2.466 0 .943.754 1.65.754 1.65-1.55.123-4.29-.905-4.29-.905.773 1.103 3.01 2.373 3.01 2.373s-.32 1.223-1.35 1.643c-1.02.422-1.795.26-3.065.164-1.282-.086-2.385.51-4.005.595-1.62.084-3.6-.916-3.6-.916 1.78.162 3.11-1.04 3.11-1.04-2.29-.26-3.004-1.108-3.26-1.61-.19-.366-.755-.874-1.268-1.248-9.948 2.218-17.64 3.94-17.64 3.94-6.3.84-11.39 1.478-11.39 1.478-.31.39-.725 1.016-.185 1.196 0 0 1.04.34 2.34.432 1.237.08 2.61 0 2.61 0-.005 0-5.03 2.335-5.64 2.504-.61.172-1.4.953-1.4.953l-.04.04-.09.076-.055.044-.09.09c.354-.155.797-.3 1.207-.35.753-.107 1.653.593 1.653.593s.79.15 1.585-.15c.81-.29 2.48-.246 2.4-.226-.517.08-1.037.437-1.53.437.403 0 .95.276 1.27.5 1.48 1-.397 2.3-1.35 2.76-1.465-.16-2.376.416-2.376.416s1.886 0 1.796.55c-.104.544-.955.892-1.853 1.09-.898.2-1.6 1.095-1.6 1.095.4.048.753.438.753.438s-.953.104-1.095.21c-.15.09-.65 1.193-1.052 1.685-.39.497-1.78.847-1.78.847.64.352 2.69.592 2.69.592-1.13.403-2.45.475-2.91.495.32.2 3.44 2.174 3.554 2.25l.02.01 1.983.46c7.5 1.715 15.18 3.472 22.87 3.91 4.65.264 9.35-.428 13.91-1.235 2.8-.48 5.59-1.05 8.335-1.727-1.25 1.36-2.61 2.74-4.182 3.717l.228-.06c9.28-2.275 18.56-4.58 27.867-6.765 5.827-1.37 11.747-1.925 17.676-2.04.653-.417 1.486-.78 2.64-.822 2.142-.07 4.174.436 5.62.93 2.39.104 4.78.237 7.155.41-.89-1.503-2.232-2.93-3.85-3.634 2.14 0 4.275.05 6.415.14 11.975.433 24.036 1.312 35.82 3.6 2.9.56 5.81 1.19 8.705 1.89.032-.02.216-.08.36-.37.143-.33.073-1.05.74-1.195.674-.15 1.874.442 2.172.6.3.14 1.995 1.2 2.528 1.46.318.143.447.66.5 1.1 1.595.45 3.17.9 4.75 1.38l-.02-.02-.09-.06-.13-.095-.11-.083-.277-.196-.02-.01-.36-.24-.096-.07-.29-.2-.137-.08-.278-.183-.136-.08-.4-.246c4.88-3.525 11.74-2.752 11.74-2.752s1.576.208 2.72.6c0 0 1.58-.777 2.75-.647 1.163.12 3.27 1.21 3.47 1.88.183.67-.396 2.734-.778 3.57-.4.833-2.49 2.11-3.68 2.513l-.143-.257-.11-.166c-.24-.36-.67-.88-1.256-1.29l.043.193.064.195.033.18.046.155.167.725.09.605-.605.382c7.025 2.933 13.34 7 19.38 11.613 3.526 2.69 7.13 5.57 11.107 7.555l.727.34c.668.278 1.348.51 2.007.744 3.97 1.35 8.102.88 11.97-.53h.006l.22-.19c.26-.25.5-.5.71-.773l.594-.81v-.01l.29-.52c1.26-2.345 1.34-5.086.928-7.608l-.052-.35-.18-.938c-.225-.93-.475-1.8-.76-2.61-.28-.803-.562-1.524-.82-2.12l-.24-.558-.138-.258-.206-.43-.11-.207-.08-.176-.104-.187-.07-.116c1.04.87 1.947 1.71 2.774 2.567 2.477 2.275 6.554 6.468 9.068 11.48 3.797 7.55 5.19 12.52 5.19 13.91 0 1.39-3.19 1-5.586.796-2.383-.2-14.55.997-18.74 2.98h.02c2.78-.65 5.58-1.08 8.15-1.11 7.443-.093 17.863 2.053 20.977 4.816l.14.05s2.24 1.65 1.74 3.67c-.43 1.673-2.09 2.995-4.96 3.174 0 0-.11 1.87 1.03 3.643 1.134 1.76 3.53 3.92 3.53 3.92 3.48.526 6.94 1.21 10.38 1.96l.11.03c1.885.63 3.976.91 5.9 1.406 1.088.286 2.17.56 3.25.86 2.378.65 4.74 1.34 7.09 2.097 1.498.49 2.99.98 4.476 1.52.396.13 2.257 1.08 2.524.887.74-.527 4.895-3.42 8.17-4.05 3.593-.688 6.95-2.044 6.95-6.067-.348-4.205-3.68-8.57-7.316-11.48M162.23 154.27s1.247.7 1.323 2.39c.07 1.683-.345 2.42.07 3.58.4 1.15-.28 1.955-1.898 2.9 0 0-1.635.342-3.263.21 0 0 1.222.604 1.76.676 0 0-1.76 1.488-4.274.878 0 0-3.04 1.826-5.356 1.493-2.306-.334-2.84-1.284-2.84-1.284s2.746-.495 4.707-.768c0 0-3.58-.823-4.74-1.49 0 0 .36-1.665 1.12-2.41.74-.755.57-.935.57-.935s-2.95-.692-4.03-1.093c0 0 3.46-.524 4.54-.926 0 0-.42-.83.94-1.91 1.36-1.08 2.51-2.16 3.05-2.77.55-.61 3.19-.67 4.68-.27 1.493.415 1.485.415 2.3.415.82 0 4.29-.333 4.29-.333s-.69 1.07-2.96 1.67m48.992-8.21c-.208 1.78-2.497 3.36-3.118 3.76-.61.41-1.76 1.22-2.095 2.37-.344 1.148-1.566 1.89-2.32 1.966-.74.06-1.754 1.14-1.754 1.14 1.067.26 2.56-.192 2.76-.255-.16.133-1.45 1.17-2.02 1.62-.604.47-2.635.94-3.38.865l-3.8-.053c-2.314-.08-4.956-.285-5.75-1.735-.755-1.375-1.08-1.42-1.106-1.42-1.63.743-5.02.71-5.02.71 3.26-1.35 6.055-4.395 6.055-4.395-1.756.74-3.75 1.04-3.75 1.04-.28-.474-.327-.97-.268-1.988.07-1.01 1.023-1.553 1.023-1.553s.06-.54.74-1.42c.68-.88 2.982-2.09 4.27-2.17 1.297-.07 2.912-.74 3.803-1.344.877-.61 3.99-1.894 5.55-1.767 1.56.135 2.18.402 2.18.402.88-.06 2.84-.403 2.84-.403-2.57 2.03-4.202 2.77-4.202 2.77 2.987-.34 5.57-1.55 5.57-1.55 3.05.202 4 1.622 3.79 3.4m38.79-2.62c-.132.963-.82 3.446-2.14 4.002-1.316.544-1.67.647-1.67.647v2.87s-1.964-1.747-2.37-2.31c0 0-.53.03-1.91-.18-1.39-.207-3.053 2.14-5.613 1.935 0 0-4.21-.896-4.9-2.624-.69-1.72-.42-3.17-.136-3.66 0 0 1.45 1.87 2.48 2.42 0 0-.96-2.204-.96-3.59 0 0 .83-.61.96-1.24.15-.62 1.74-1.584 2.71-1.79.97-.205 1.92.21 1.92.21s1.14 2.573 1.968 3.54c0 0-.35-5.057.06-6.85 0 0 1.056 2.327 1.61 3.086 0 0 1.158-.12 2.823-.4 1.66-.274 3.105-.132 4.077.826.974.97 1.25 2.14 1.105 3.11m37.23 2.98c-1.112.92-2.474 1.458-2.474 1.458s.164 1.14.82 1.8c0 0-1.253-.118-2.297-.71 0 0-.93 1.04-1.035 1.472-.105.43-1.472 2.17-2.29 2.77-.82.592-2.51 1.244-2.51 1.244s1.507 2.156 2.76 3.033c-.32-.136-4.525-1.966-6.25-3.74 0 0-.16 1.31.268 1.96 0 0-2.06.93-4.413.38-2.21-.516-4.414-2.09-4.667-2.28.26.043 2.305.423 3.63.423 0 0-3-1.464-3.544-2.94-.55-1.46-.38-3.15 1.26-3.91 1.63-.76 3.044-.645 3.044-.645s3.93 1.84 6.214 2.383c0 0-2.986-1.95-3.756-3.21 0 0 2.123.06 2.72-.32.597-.383 1.03-1.352 2.18-1.742 1.144-.376 2.344-.49 2.344-.49s-1.09-.6-1.36-.925c0 0 2.237.593 2.95.593 0 0 1.964.11 2.826.22.88.108 2.512-.44 3.88-.01 1.364.45.82 2.25-.3 3.176m28.31 6.8s-1.375-.34-1.91-.522c.103.15.917 1.325 1.114 1.966 0 0-1.25.82-2.21 1.036-.954.223-1.23.48-1.753 1.07-.525.6-1.854 1.323-3.18 1.126-1.266-.187-3.8-.93-4.01-.98.14.14 1.266 1.232 1.768 2.1 0 0-1.45.72-3.84 1.06 0 0-2.173 0-3.1-.266-.933-.267-1.78-.737-1.854-1.32-.07-.594.464-1.255.464-1.255s1.91.73 3.04.923c0 0-2.84-2.635-3.843-3.37 0 0 1.99.33 3.18.735 0 0-.14-.734-.6-1.52-.46-.783.405-1.577.8-1.78.393-.2 2.245-.92 2.712-1.243 0 0-1.19-.99-2.525-1.72 0 0 2.583.27 3.904.658 0 0 1.063.074 2.19-.39 1.122-.466 1.52-.466 2.442-.33.922.136 1.034.396 1.642.453.604.07 1.2.015 1.2.015s-.4-.535-1.39-.93c0 0 2.125.27 3.11.93 0 0 1.716.297 2.708 1.26 1 .966-.06 2.296-.06 2.296m14.467 11.94s1.74 1.577 2.19 2.43c0 0-.895.73-1.178 1.256-.28.514-1.06 1.71-1.922 2.04 0 0-.922 1.185-1.91 1.26-.99.057-1.67-.164-2.325-.2-.66-.03-3.31 0-5.29-1.977 0 0 2.83.395 3.57.395 0 0-2.52-1.85-3.047-2.64 0 0 .73-.467.657-1.127-.06-.66-.26-1.26.41-1.975 0 0 2.313.795 3.7.99 0 0-1.52-1.53-3.04-2.77 0 0 .94-.097 2.055.343 0 0 .46-.094 1.52-.945 1.05-.853 3.11-.63 4.296.155 1.19.77 2.32 2.358 2.32 2.358s1.39.725 2.31 2.236c0 0-2.406-1.566-4.31-1.83m11.063-13.53c-.07.914-.73 1.65-1.86 1.78-1.125.12-1.785-.334-2.176.196-.393.525-.99 1.05-1.59 1.176 0 0-3.83-2.36-5.497-3.22 0 0 1.4 1.77 1.73 2.502 0 0-2.316.2-3.91-.46-1.585-.664-2.656-1.218-3.764-1.7-1.13-.478-2.315-2.06-2.315-2.06s1.85.854 2.84 1.13c0 0-1.66-1.858-1.72-2.446 0 0 1.25-.33 1.847-1.06.56-.68 2.2-1.127 3.445-1.186h.262c1.26 0 4.37 1.645 5.883 2.765 0 0-1.32-1.84-2.31-2.767 0 0 2.376 0 2.975-.196.597-.207 1.98-.343 2.978.125.924.43 1.453 1.384 1.512 1.51-.13-.06-1.108-.47-1.848-.65 0 0 0 .79 1.585 1.912 1.6 1.104 1.98 1.7 1.924 2.63m13.698 16.554s-1.59-.656-2.98-.656c0 0-.625.94-2.097.63-1.48-.298-2.925-1.423-2.925-1.423s1.33.06 2.378.06c0 0-.463-.52-1.716-.786-1.257-.26-2-.478-2.89-1.167 0 0-.22.7.374 1.168 0 0-1.975.52-2.31-1.452-.33-1.974-1.46-1.84-.66-3.293.78-1.424 2.425-1.435 2.476-1.435 0 0-1.413-.87-2.344-1.4 0 0 3.24.86 5.75 2.37 0 0-.196-.984-.79-1.51 0 0 1.726-.527 3.646.795 1.905 1.32 1.976 2.5 3.437 3.49 1.453.987.584 2.51-.077 2.9 0 0 .46 1.19.734 1.72m10.73-8.944l-2.913-2.55s1.056 2.49 1.222 3.026c0 0-2.04.07-3.14-.78-1.113-.853-2.7-1.866-2.282-1.866l.91.093s-1.26-1.518-3.42-1.64c0 0-1.316.302-2.82-.466-1.51-.77-2.14-1.56-2.14-1.56s-.83-.907-.98-2.084c0 0 1.477 1.03 2.205 1.32 0 0-1.31-1.85-1.31-2.96 0 0 .934-.186 2.095.256 1.184.448 1.51.096 1.51.096s-.516-.66-.712-1.324c0 0 1.49 1.23 2.12 1.51 0 0 1.834-.568 3.234.03 1.39.597 2.97 2.14 3.22 2.426.24.272 1.177.972 1.3 1.062-.1-.13-.83-1.107-1.03-1.874.115.072 1.04.667 1.453.87.435.228 1.284 1.114 1.45 1.678.154.574-.77 1.488-.77 1.488s1.21 1.547 1.21 2.17l-.41 1.07m2.293 3.35c.85-.22 1.27-.22 1.602-.185 0 0 .04-.52-.375-.973 0 0 2.426 1.454 3.55 2.62l-.3-1.05s1.94.487 2.84 1.35c.9.856 1.34 1.82 1.6 2.265.26.454.975 1.948.68 2.39-.304.45-.745.45-.745.45s-2.7-1.603-3.41-1.944c0 0 1.35 2.087 1.54 2.577 0 0-2.32-.343-2.923-1.16 0 0-2.61-.63-3.554-1.26-.926-.635-1.685-1.604-1.685-2.132 0 0 1.508.71 2.26 1.048 0 0-2.028-2.43-2.658-3.013.005 0 .707-.75 1.58-.975" fill="#D7A22A"/><path d="M370.963 210.69c-1.843 3.782-11.596-1.295-22.07-2.233-10.46-.936-24.546 3.115-24.546 3.115l.337-.276c1-.737 2.098-1.336 3.21-1.888.926-.463 1.868-.9 2.81-1.314 3.332-1.43 6.807-2.573 10.338-3.408h.02c2.784-.648 5.58-1.077 8.148-1.112 7.45-.087 17.865 2.048 20.978 4.817.83.74 1.152 1.52.775 2.3" fill="#000"/><path d="M367.11 215.288s-.105 1.87 1.03 3.645c1.14 1.754 3.534 3.918 3.534 3.918l-2.043-.29c-2.74-.39-5.5-.7-8.25-.95-1.27-.12-2.54-.21-3.82-.29-.24-.02-4.59-.22-5.09-.23-4.41-.11-8.87.08-13.27.08h-.22c-1.47-1.98-7.01-9.87-14.63-9.59 0 0 14.09-4.05 24.55-3.12 10.47.95 20.23 6.02 22.07 2.24.39-.79.06-1.56-.77-2.3l.14.05s2.24 1.65 1.74 3.67c-.42 1.68-2.083 3.01-4.95 3.18" fill="#9F792C"/><path d="M363.814 243.293c-1.61.74-3.238 1.415-4.923 1.993-.82.282-1.64.533-2.48.763-2.97.8-5.96 1.11-9.02 1.29l-.34-.02.07-.23.07-.41c.19-1.83-1.77-3.19-1.77-3.19l-.063-.04-.17-.08-.077-.03c-1.264-.595-2.54-1.175-3.83-1.75-2.226-1-4.464-1.954-6.724-2.87l-1.3-.527-.96-.394c-5.197-2.05-10.46-3.913-15.786-5.617-3.21-1.036-6.43-2-9.66-2.917l-1.55-.44c-5.438-1.56-11.4-3.14-17.88-4.694-4.255-3.98-8.448-7.973-12.94-11.633 29.9 7.933 50.362 16.694 60.763 21.7 3.7 1.72 6.225 3.01 7.5 3.706 1.158.35 2.78.542 3.61-.626 1.728-2.43-1.22-4.51-1.22-4.51s-26.224-13.824-75.44-23.917c-4.86-3.435-9.99-6.31-15.04-9.42-1.74-1.062-3.54-2.19-5.04-3.595-.76-.706-1.58-1.605-1.68-2.694v-.63l.01-.04.062-.403.03-.122.03-.094.117-.34.08-.195c.44-1.025 1.237-1.966 2.037-2.624l.35-.31.24-.21.32-.266.34-.288.02-.01.127-.11.07-.06.018-.022.1-.08.05-.035.053-.007h.006l.013-.01.302-.077.45-.11c2.1-.52 4.33-1.055 6.59-1.42.76-.12 1.515-.215 2.27-.3.81 2.64 4.43 6.538 4.43 6.538-1.716.125-3.913-.485-3.913-.485 3.18 4.26 11.987 9.62 18.83 10.96 6.853 1.334 13.078 1.09 13.078 1.09-.97.494-2.565 1.106-2.565 1.106s2.686-.126 6.35.6c.476.1.99.225 1.547.373 2.44.623 5.44 1.627 7.2 2.244l.57.2.03.007.02.01c.556.36 1.08.71 1.598 1.07 3.056 2.03 5.968 4.285 8.74 6.67.81.688 1.598 1.39 2.38 2.097 1.256 1.156 2.39 2.403 3.63 3.56-.103-.087-.125-.564-.166-.704l-.28-.803-.67-1.66c-.465-1.1-.99-2.18-1.56-3.23-1.147-2.11-2.46-4.13-3.89-6.06-.808-1.085-1.65-2.157-2.53-3.196-.64-.74-1.31-1.46-1.98-2.19-.53-.588-1.188-1.645-1.978-1.905l-.025-.01-.047-.02c.654.02 1.263.07 1.85.144l.57.068.75.13c.646.106 1.243.265 1.81.445l.63.203.596.223c.394.15.762.325 1.113.5l.52.27.48.282.465.3.426.31.25.185.484.393.52.47.276.273c.746.75 1.317 1.53 1.77 2.26l.227.42c.554.985.87 1.85 1.035 2.4l.06.22.11.41c7.62-.285 13.15 7.6 14.63 9.583h.063l-.054.012.04.02c1.224.646 2.426 1.324 3.62 2.016l.64.387.9.53c1.04.61 2.093 1.227 3.118 1.885 2.77 1.73 5.678 3.585 8.04 5.906-.43-.01-.88.05-1.296.153l-1.245.34c2.93 2.06 5.6 4.48 7.97 7.13.3.35 2.947 3.77 3.028 3.77" fill="#D7A22A"/><path d="M330.628 332.558l-4.82-3.124-.63-6.914c-.004 0 6.83 4.453 5.45 10.038m-16.3-15.166s-3.84 14.906-21.746 24.502c0 0-13.65-4.613-21.118-21.717-6.032-13.82-.28-39.712-8.364-54.357-5.356-9.73-14.85-11.994-14.85-11.994s5.913-3.373 18.222.592c20.263 6.53 22.472 32.95 22.797 38.376.63 10.66 2.47 24.44 9.51 28.177 0 0-4.15-5.71-4.27-19.2-.37-40.13-14.3-45.8-14.3-45.8s17.01 2.79 21.58 17.13c4.56 14.37-2.8 36.38 12.52 44.3m89.03-80.8c-.6 5.37-8.978 13.12-8.978 13.12-1.2-2.97-5.678-10.12-5.678-10.12s1.2-2.99-3.298-6.87c-4.48-3.87-16.75-3.87-16.75-3.87s3.31-1.873 7.48-1.495c10.97 1 27.22 9.25 27.22 9.25" fill="#006778"/><path d="M128.97 153.927c.144.225.043.48-.113.606l-.055.03c-.107.064-.41.097-.78.125-.547-.06-1.85-.326-2.416-.234l.62.534c-.002 0-1.417.555-1.74 1.133 0 0-1.173-.12-2.02.18-.496.17-.713.39-.972.56l-.577.22-.156.02c-.79.05-1.43-.35-1.43-.35l.29.6s-2.28 0-2.79.774c-1.85-.93-3.72-1.796-5.62-2.632-1.78-.77-3.59-1.51-5.41-2.213-3.66-1.41-7.39-2.674-11.15-3.8-1.12-.337-2.23-.66-3.36-.96-.82-.22-1.66-.447-2.49-.633h.06c1.53 0 3.04-.04 4.568-.13 10.277-.635 20.57-.394 30.856-.94 1.87-.102 3.747-.22 5.614-.353-.31.385-.72 1.015-.184 1.196 0 0 1.04.34 2.34.43 1.23.088 2.603 0 2.603 0s-5.03 2.34-5.632 2.51c-.61.17-1.4.954-1.4.954l-.04.03-.09.08-.05.042-.09.09-.63.29c-.247.152-1.2.203-1.2.203s1.142.482 1.634.39l.02.044c.014.084.062.395.534.605.414.18 1.013.37 1.28.614m43.502 25.727l-.816.424c-1.777 1.1-3.598 2.13-5.494 3.014l-.084.048c-.63.297-1.264.588-1.906.86l-.04.02-.05.025c-1.725.76-3.49 1.43-5.247 2.06-1.387.49-2.79.94-4.217 1.34-10.087 2.934-16.235 2.864-16.235 2.864.682.31 1.6.585 2.44.77 3.034.68 10.3 1.316 10.64 1.43l-.234.124-.174.088c-7.56 3.19-15.71 4.62-23.91 4.29-14.945-.62-22.963-4.766-23.24-5.075 0 0 4.197-.67 6.63-1.48 0 0-11.1-3.646-15.293-6.34l5.965.126c-1.625-1.28-3.11-2.565-4.484-3.762-7.91-6.86-13.15-15.81-12.19-19.84-3.074-4.107-7.45-5.18-7.45-5.18 13.313-1.225 25.637 3.865 38.653 11.976 5.454 3.395 9.64 7.287 14.51 10.38-3.21.53-10.263.946-23.614-1.39 0 0 7.724 4.9 22.333 6.724 8.895 1.094 17.577.86 23.547.437 6.94-.492 13.495-1.37 19.944-3.922M436.57 242.9c-.155 1.697-.5 3.5-1.063 5.41-.6 1.98-1.044 4.146-3.438 4.275-1.73.095-3.46-.09-5.2-.193-1.01-.064-3.03-.372-3.6.757-1.71 3.39 5.05 3.21 6.807 3.27h.776c-7.15 7.86-18.707 9.93-19.425 10.06l-.043.01-.32-.446c-1.85-2.358-7.514-7.21-19.04-8.485l-.08-.016c.565-.82 1.2-1.625 1.87-2.41 4.79-5.47 12.27-10.058 20.42-14 11.37-5.497 15.7-16.297 15.7-16.297s1.56 1.32 3.18 3.823c-.496 1.44-1.716 3.646-4.733 5.818 0 0-2.04 1.216-1.3 2.62.733 1.43 2.343.946 3.17.477.55-.304 2.115-1.3 3.375-3.434.57-.854.974-1.62 1.213-2.2.75 1.71 1.35 3.74 1.636 6.04.03.28-.906 1.03-1.08 1.2-.644.62-1.347 1.16-2.088 1.65-2.056 1.38-4.296 2.25-6.58 3.18-.805.33-2.08 1.11-2.25 2.03-.278 1.506 1.796 1.825 2.862 1.664l.27-.043c1.553-.28 6.304-1.416 8.95-4.77m-93.14 100.64c-3.623.26-6.162-2.502-6.162-2.502-9.17-1.242-19.6.69-19.6.69s-5.38 5.665-13 6.645c-7.623.97-7.537-2.443-7.12-3.38.41-.957 3.97-2.68 10.46-9.41 6.492-6.733 12.122-20.507 12.122-20.507 1.525 4.477 2.137 9.28 1.65 13.99-.136 1.37-.373 2.73-.702 4.067-.547 2.175-1.304 4.235-2.302 6.24 1.247-2.5 3.994-4.538 6.368-5.938.82.983 1.51 2.07 2.18 3.163.12.22 1.32 1.866 1.195 2.096 1.183-2.2 7.14-6.208 7.14-6.208 1.435 1.4 2.603 4.233 2.603 4.233 4.894-3.587 15.76-20.92 15.76-20.92.563 13.354-6.976 27.494-10.6 27.744m62.875-70.36c-.872 3.9-14.39 18.25-21.473 20.91 0 0 6.05-9.675 7.94-19.64-1.708 1.43-4.348 3.32-7.3 4.28 0 0 .21-4.88-1.08-7.21 0 0-3.74 3.774-7.93 6.37 0 0-2.61-4.177-3.26-7.26-3.024 4.59-7.99 10.96-13.994 14.05 0 0 .33-4.22-.73-10.22 5.647-1.36 10.76-3 14.637-4.35 2.606-1.46 7.03-2.86 8.087-2.94.14-.02 3.703-.76 3.33 1.83 0 0 4.425-3.4 8-2.194 1.182.41 1.816 1.02 2.15 1.704 1.75-1.12 4.89-2.785 7.44-2.2 3.754.847 5.04 2.967 4.184 6.87m-48.12 1.35c-.137.4-.36 1.02-.66 1.77-2.84 5.076-12.106 19.22-29.745 24.153 0 0 10.88-11.03 9.672-23.25 6.89.08 14.16-1.11 20.725-2.675" fill="#FFF"/><path d="M365.508 159.236l-2.916-2.55s1.056 2.493 1.222 3.025c0 0-2.034.07-3.137-.78-1.108-.85-2.7-1.86-2.282-1.86l.908.1s-1.26-1.51-3.42-1.63c0 0-1.315.3-2.824-.46-1.51-.773-2.14-1.56-2.14-1.56s-.83-.91-.98-2.086c0 0 1.47 1.035 2.2 1.32 0 0-1.32-1.855-1.32-2.96 0 0 .932-.18 2.1.26 1.18.443 1.502.093 1.502.093s-.516-.66-.71-1.33c0 0 1.49 1.237 2.12 1.517 0 0 1.837-.57 3.234.03 1.393.6 2.967 2.14 3.22 2.43.234.27 1.173.97 1.296 1.055-.1-.124-.83-1.1-1.033-1.868.12.07 1.04.663 1.46.87.433.23 1.29 1.11 1.45 1.68.152.57-.77 1.483-.77 1.483s1.21 1.542 1.21 2.17c0 .623-.41 1.067-.41 1.067m11.9 9.76c-.3.453-.746.453-.746.453s-2.698-1.604-3.41-1.94c0 0 1.355 2.084 1.54 2.574 0 0-2.324-.346-2.923-1.15 0 0-2.61-.644-3.552-1.274-.93-.634-1.69-1.603-1.69-2.13l2.253 1.05s-2.02-2.433-2.65-3.015c0 0 .694-.756 1.57-.983.853-.212 1.27-.212 1.6-.18 0 0 .043-.52-.367-.97 0 0 2.423 1.45 3.544 2.613l-.3-1.05s1.94.49 2.84 1.35c.894.86 1.344 1.83 1.605 2.27.27.455.98 1.943.68 2.382m-31.06 68.31c-.84 1.172-2.466.975-3.618.625-1.278-.683-3.8-1.983-7.496-3.704-10.408-5.004-30.877-13.76-60.77-21.697-10.288-2.73-21.667-5.364-34.147-7.71-7.8-1.462-15.02-2.65-21.71-3.59 6.826.653 14.2 1.506 22.17 2.637 10.38 1.482 20 3.184 28.89 5.002 49.236 10.096 75.45 23.92 75.45 23.92s2.954 2.085 1.228 4.516m-57.53-59.18s-1.443-.924-2.26-1.15c.168.165 1.818 1.86.895 2.07 0 0-.83-.96-2.33-1.63s-4.25-2.02-5.08-2.76c-.77-.7-1.273-2.184-1.323-2.366.09.12.547.726.962.8.41.07 1.624.86 1.782.96-.05-.13-.475-1.145-.967-1.554-.52-.46-1.79-1.05-2.467-1.87l.744-.22s.21-1.46-.126-2.905l-.03-.154c-.373-1.493-.2-2.355.174-2.66 0 0 2.51.09 3.257.356-.27-.12-1.394-.692-2.14-1.276.03-.015.22-.07.36-.365.15-.325.077-1.047.746-1.19.67-.154 1.875.443 2.17.596.304.14 1.995 1.205 2.53 1.46.314.15.446.66.494 1.1 1.596.45 3.173.9 4.753 1.38l.09.07.015.01.06.04c-.94-.222-2.88-.49-3.79-.61-.27.265-.87.86-1.12 1.17 0 0-.542.71-.862 2.53-.1.59.23 1.94.83 2.46.59.52 2.47 2.237 2.76 3.05.31.83-.234 2.104-.113 2.66m-1.57-31.71c-1.118.914-2.48 1.45-2.48 1.45s.162 1.142.814 1.804c0 0-1.25-.11-2.29-.71 0 0-.93 1.04-1.038 1.47-.115.43-1.48 2.178-2.29 2.777-.82.598-2.515 1.248-2.515 1.248s1.5 2.156 2.76 3.037c-.327-.13-4.53-1.97-6.25-3.74 0 0-.16 1.314.27 1.96 0 0-2.068.93-4.42.384-2.204-.514-4.415-2.09-4.668-2.277.26.04 2.305.42 3.63.42 0 0-3-1.464-3.54-2.936-.55-1.46-.385-3.15 1.26-3.91 1.63-.767 3.044-.65 3.044-.65s3.93 1.84 6.21 2.387c0 0-2.982-1.96-3.754-3.21 0 0 2.13.06 2.73-.32.59-.38 1.02-1.357 2.174-1.745 1.14-.378 2.34-.49 2.34-.49s-1.09-.597-1.362-.927c0 0 2.243.593 2.95.593 0 0 1.966.114 2.83.227.876.106 2.515-.44 3.877-.014 1.37.45.82 2.25-.295 3.173m21.27 21.43c-.396.834-2.49 2.11-3.674 2.514l-.15-.26-.11-.165c-.236-.36-.66-.877-1.26-1.29l.052.193.06.2.04.176.046.153.163.724.09.6-.606.384c-.492.34-1.212.877-1.87 1.53-.514.49-.992 1.05-1.32 1.643-1.04 1.914-.96 3.367-.96 3.367s-.9-.378-1.71-1c0 0 .41 1.722 1.88 2.46 0 0 .836 1.1.48 1.93 0 0-2.57-.208-3.173-.69-.6-.497-2.5-1.18-2.5-1.18s.64-.105 1.314-.06c0 0-.682-1.68-1.35-2.24-.66-.56-2-1.58-1.695-2.87 0 0 1.57.11 2.32.41 0 0-2.473-2.146-3.99-2.485l2.07-.117s-.29-1.46 2.35-2.74c2.65-1.28 3.46-2.09 4.02-2.91.55-.83.774-1.67 1.467-2.16 0 0 1.295.73 2.31 1.5 0 0-.582-1.74-2.452-3.02 0 0 1.575.206 2.72.6 0 0 1.575-.78 2.743-.65 1.17.114 3.275 1.21 3.477 1.88.18.662-.4 2.73-.783 3.57m7.034-14.63s-1.37-.34-1.906-.526c.106.15.924 1.33 1.117 1.968 0 0-1.253.824-2.216 1.04-.96.222-1.23.484-1.752 1.066-.525.604-1.86 1.32-3.18 1.13-1.27-.185-3.8-.93-4.01-.98.138.134 1.266 1.233 1.768 2.1 0 0-1.446.72-3.84 1.06 0 0-2.17 0-3.1-.27-.93-.264-1.783-.73-1.855-1.318-.065-.598.464-1.26.464-1.26s1.913.73 3.043.926c0 0-2.845-2.637-3.845-3.37 0 0 1.99.33 3.18.733 0 0-.137-.738-.595-1.52-.466-.787.4-1.58.794-1.787.4-.196 2.25-.916 2.713-1.24 0 0-1.19-.99-2.527-1.72 0 0 2.58.265 3.904.655 0 0 1.067.077 2.19-.39 1.13-.46 1.52-.46 2.45-.33.918.137 1.03.397 1.638.45.61.074 1.206.015 1.206.015s-.4-.538-1.39-.93c0 0 2.125.27 3.11.925 0 0 1.715.3 2.71 1.27 1 .96-.064 2.29-.064 2.29m38.5 13.243s.46 1.19.734 1.72c0 0-1.59-.656-2.984-.656 0 0-.62.94-2.096.627-1.48-.294-2.924-1.417-2.924-1.417s1.323.057 2.372.057c0 0-.466-.52-1.72-.784-1.254-.26-2-.477-2.886-1.166 0 0-.22.697.372 1.165 0 0-1.984.514-2.315-1.46-.33-1.977-1.46-1.84-.66-3.298.78-1.424 2.423-1.435 2.474-1.435 0 0-1.415-.87-2.346-1.397 0 0 3.24.86 5.75 2.37 0 0-.197-.99-.79-1.51 0 0 1.725-.53 3.64.79 1.91 1.32 1.984 2.5 3.445 3.49 1.45.986.58 2.513-.08 2.9m-21.84 1.125s-.887.734-1.18 1.26c-.28.51-1.05 1.703-1.92 2.033 0 0-.923 1.19-1.908 1.26-.998.058-1.667-.16-2.328-.2-.657-.03-3.307 0-5.29-1.98 0 0 2.838.4 3.57.4 0 0-2.52-1.846-3.044-2.634 0 0 .73-.46.66-1.126-.06-.66-.27-1.255.404-1.974 0 0 2.312.79 3.7.983 0 0-1.516-1.525-3.045-2.77 0 0 .946-.09 2.06.35 0 0 .455-.09 1.516-.94 1.05-.857 3.115-.634 4.295.15 1.194.773 2.32 2.36 2.32 2.36s1.4.72 2.32 2.23c0 0-2.41-1.568-4.317-1.835 0 .003 1.74 1.575 2.19 2.43m8.875-15.96c-.07.916-.737 1.65-1.86 1.783-1.126.12-1.784-.333-2.177.2-.4.52-.99 1.047-1.597 1.17 0 0-3.83-2.36-5.492-3.22 0 0 1.398 1.778 1.727 2.51 0 0-2.31.2-3.902-.455-1.59-.663-2.655-1.22-3.77-1.702-1.125-.475-2.31-2.06-2.31-2.06s1.85.857 2.84 1.13c0 0-1.66-1.857-1.712-2.443 0 0 1.243-.33 1.844-1.06.56-.68 2.2-1.125 3.44-1.18h.27c1.26 0 4.37 1.644 5.885 2.764 0 0-1.315-1.84-2.306-2.765 0 0 2.376 0 2.97-.2.595-.21 1.982-.345 2.98.123.922.43 1.45 1.388 1.506 1.515-.122-.06-1.1-.47-1.845-.654 0 0 0 .793 1.59 1.917 1.595 1.103 1.988 1.7 1.928 2.63M218.91 255.01s1.275 2.565 1.38 4.737c.09 2.168-1.682 2.86-3.46 3.55-1.78.683-3.765.296-4.353-.09-.594-.406-1.59-.3-1.59-.3.592-.8 3.076-2.473 3.076-2.473-2.388.203-4.566 1.673-4.566 1.673s-3.752.6-5.73.6c-1.976 0-5.037-1.873-5.037-1.873-1.19 0-2.872.886-2.872.886.886-1.494 4.746-4.248 4.746-4.248-1.782.392-4.06 1.868-4.06 1.868-.686-.687-4.065-2.754-4.947-3.443-.89-.69-1.483-1.682-1.19-3.655.3-1.964 2.568-2.168 4.64-2.266 2.097-.092 4.958-.1 4.958-.1-.838.653-1.402 1.82-1.464 1.963.42-.6 3.53-2.09 3.53-2.09s3.38-.96 5.66-1.95c2.27-.98 4.35-.78 6.43.49 2.09 1.28 4.06 5.23 4.06 5.23 1.58-.66 4.11-1.03 4.42-1.08-1.29.61-3.62 2.55-3.62 2.55m-48.44-50.98c-.8.524-.87 1.08-1.5 1.872-.63.805-4.45.974-4.45.974-2.31-.79-5.33-.79-5.33-.79 1.516.436 3.56 1.06 3.56 1.06s-2.14.354-3.913.18c-1.78-.18-2.76-2.134-3.724-3.46-.983-1.326.175-3.365.175-3.365-.54-.363-1.16-.534-1.16-.534 1.954-.17 5.6.09 5.6.09-1.683-.53-3.59-.9-3.59-.9s.216-.96.655-1.94c.44-.965 2.58-.704 3.47-.615.885.09 2.042-.977 2.682-1.184.64-.217 2.65.48 3.72.833 1.06.35 1.154 1.152 1.154 1.152-.98-.097-2.41.172-2.41.172l3.47.97s2.32 1.15 2.664 2.307c.36 1.154-.25 2.665-1.07 3.18m20.87 31.07c-.622 2.114-.12 3.107-.12 5.218 0 2.124-2.62 3-6.724 3.61-4.11.616-5.855-.74-5.855-.74l.615-1.38c-1.373.25-5.362.39-5.362.39 2.62-1.14 5.99-3.498 5.99-3.498-1.61.63-4.964 1.43-4.964 1.43s-1.012-.715-2.014-1.67c-.7-.642-1.396-1.403-1.745-2.114-.88-1.74.615-4.35 1.24-5.34.63-1-.5-1.61-.5-1.61 1-.76 1.74-1.99 1.74-1.99l-.05.01c-2.222.49-4.302.61-4.302.61l-.01-.01c-1.24-.99-1.738-3.1-1.49-4.22.25-1.11.742-2.868.742-2.868h-.05c-.41.046-.86.013-1.286-.048-.726-.09-1.35-.27-1.52-.31l-.007-.01c4.72-.62 7.09-2.355 7.09-2.355l-.06.006c-1.256.236-3.42.36-3.42.36v-.01c.02-.13.172-1.386 1.11-2.012.35-.233 1.084-.233 1.966-.11.49.07 1.03.17 1.576.31l.776.197c.95.25 1.86.53 2.506.746l.04.017c1.862.627 2.75 3.106 2.75 3.106.5 1.606 1.29 2.772 2.23 3.64l.033.025c.436.38.9.7 1.38.985l.59.305.6.275c.595.25 1.21.44 1.798.6l1.122.26.545.13c.33.07.63.194.91.354.836.48 1.45 1.34 1.86 2.193l.007.01c.65 1.33.87 2.666.87 2.666-.87 1.48-3.24 2.846-3.24 2.846 1.128.256 2.62 0 2.62 0m-29.1-80.84s1.247.7 1.32 2.39c.074 1.687-.34 2.42.074 3.58.402 1.157-.28 1.955-1.9 2.9 0 0-1.633.34-3.267.207 0 0 1.23.606 1.76.683 0 0-1.765 1.483-4.27.875 0 0-3.046 1.82-5.36 1.49-2.3-.337-2.84-1.287-2.84-1.287s2.747-.495 4.71-.77c0 0-3.587-.82-4.74-1.49 0 0 .36-1.66 1.114-2.41.74-.75.57-.93.57-.93s-2.94-.69-4.027-1.094c0 0 3.46-.522 4.55-.925 0 0-.416-.834.95-1.917 1.353-1.08 2.51-2.164 3.044-2.778.55-.61 3.196-.67 4.68-.28 1.5.42 1.494.42 2.31.42.814 0 4.28-.34 4.28-.34s-.69 1.073-2.955 1.67m184.942 92.44l-.074.4-.064.23-.01.02c-.09.22-.2.442-.357.66-.816 1.184-2.44 1-3.605.66-1.287-.67-3.814-1.948-7.536-3.628-14.05-6.59-46.317-19.756-95.215-28.447-7.63-1.36-14.596-2.46-21.158-3.327l-.044-.012-.208-.014-.093-.02c1.216.1 2.47.213 3.717.34l.597.044c7.13.75 14.24 1.552 21.33 2.53 8.95 1.23 17.845 2.74 26.7 4.484 8.06 1.59 16.1 3.57 24.07 5.562 3.36.846 6.71 1.73 10.045 2.666l1.55.44c3.23.92 6.45 1.89 9.66 2.92 5.32 1.707 10.588 3.57 15.78 5.62l.962.39 1.3.523c2.26.917 4.5 1.87 6.73 2.87 1.28.58 2.564 1.156 3.827 1.755l.07.03.17.08.07.037s1.962 1.355 1.78 3.18M213.16 214.16c-.867 1.32-4.37 1.775-6.25 1.545 0 0-3.51 1.574-5.513 1.31-1.995-.267-5.63-1.626-5.63-1.626s1.12-.58 2.213-.75c0 0-.676-1.35-2.308-2.87-1.628-1.55-3.724-3.45-4.086-4.72 0 0 2.15-.9 3.695-1.26 0 0-2.59.07-4.04-.56 0 0-.1-2.71.45-3.8.55-1.08.91-1.99.91-2.54s-.1-.5.71-.77c.82-.278 4.75-.956 4.75-.956s-.362-.895-2.82-1.26c0 0 2.18-.817 4.64-.46 2.44.36 4.074 3.26 4.894 4.803.82 1.53 2.36 3.247 3.363 3.98 1 .72 4.756-.186 4.756-.186s-2.37 2.346-3.88 2.24c0 0 .75 2.74 2.02 3.843 1.274 1.07 3.008 2.704 2.14 4.023m-56.85 17.016c-1.11.87-3.983 3.235-5.48 4.97-1.505 1.74-3.11 3.6-6.474 2.725-3.367-.856-3.876-5.7-3.876-5.7.873-1.24 4.86-3.1 4.86-3.1-2.114 0-4.802.472-4.802.472.053-1.015.2-3.95.2-6.324 0-2.36-1.254-4.59-1.254-4.59.87-.876 3-1.987 3-1.987-4.12.62-6.24.125-6.24.125 1.13 0 2.746-.877 2.746-.877-.244-1.233.252-2.97.87-3.6.62-.62 2.5-2.98 3.364-3.61.87-.613 3.12-.243 5.36.13 2.24.372 2.613 1.74 2.613 1.74 1.126.244 2.25.13 2.25.13-1.37.99-4.865 2.1-4.865 2.1 1.624.26 2.996.26 2.996.26s.99 3.606 1.495 5.467c.225.805.635 1.474 1.16 2.11-.97.58-2.63 1.495-4.025 1.987 0 0 2.402-.07 4.98-.955l1.626 1.57c1.75 1.74.627 6.095-.503 6.96m100.31-63.607s.985 1.08.805 2.194c-.17 1.11-.558 1.33-.878 2.06-.304.73-1.25 1.358-2.23 1.808 0 0 1.27.55 2.595 1.323l-3.502-.44s-1.398.832-2.034 1.77c-.63.95-1.75 1.78-3.36 1.85 0 0-2.02-.594-2.825-.775 0 0 1.054.91 1.47 1.366 0 0-1.147.45-2.277.216-1.113-.25-3.665-1.3-4.44-1.537 0 0 1.86.13 2.423.202 0 0-3.71-2.966-4.27-3.62 0 0 1.6.26 2.313.44-.256-.16-2.35-1.432-2.42-3.094-.04-1.017.66-1.78 1.5-2.23.847-.46 1.786-.5 2.137-1.128.35-.63.413-1.39.413-1.39s2.75.52 3.975.805c0 0-1.084-1.61-1.788-1.89 0 0 .227-.624 1.14-1.047.906-.41 2.477-.835 3.425-1.57.94-.73 1.994-.523 2.696-.38.696.135 2.06.975 3.67 1.467 0 0-.84-.707-1.12-1.295 0 0 1.75.102 2.63.485.867.38 1.315 1.284.9 1.956-.42.66-.945.73-.974 1.184-.044.45 1.19 1.25 1.71 1.71-.003 0-.773-.26-1.684-.46" fill="#000"/><path d="M287.402 224.16c-4.25-3.98-8.443-7.973-12.94-11.632-10.287-2.726-21.66-5.364-34.146-7.716-7.796-1.465-15.02-2.644-21.708-3.58 6.823.645 14.202 1.502 22.17 2.63 10.382 1.484 19.998 3.19 28.9 5.01-4.856-3.436-9.994-6.304-15.04-9.415-1.747-1.065-3.538-2.19-5.036-3.602-.764-.703-1.582-1.602-1.683-2.695v-.628l.01-.035.06-.403.02-.124.03-.097.11-.334.08-.2c.44-1.03 1.24-1.97 2.034-2.63l.356-.31.243-.21.32-.27.34-.29.02-.01.125-.107.07-.065.017-.027.1-.08.27-.56c6.868-12.28 24.045-15.42 24.045-15.42-1.78-2.48-3.88-3.83-3.88-3.83 2.32-.807 5.218-.306 6.33-.06l-.033-.15c-.368-1.492-.195-2.354.18-2.656 0 0 2.51.085 3.25.35-.27-.125-1.394-.69-2.14-1.274-2.885-.69-5.8-1.33-8.7-1.886-11.784-2.28-23.85-3.16-35.82-3.6-2.135-.08-4.275-.132-6.418-.132 1.624.693 2.96 2.128 3.855 3.63-2.383-.174-4.78-.31-7.166-.41 1.105.38 1.87.75 2.066.844 0 0-1.98-.3-3.325-.33 0 0 .67.37 1.046.782 0 0 .07.783-.04 1.225-.104.454-.334 1.12-.073 1.864.26.75 1.016 2.417 1.13 3.016 0 0-2.293-.19-3.632-.22 0 0 3.704 1.79 4.834 2.47 0 0-.76-.04-1.24 0 0 0-1.27.745-1.526 1.224-.274.49 0 2.69-1.244 3.656-1.228.963-2.878.744-3.39 1.34-.53.593.3 1.415.3 1.415s-2.686-.602-3.51-.676c0 0 1.276 1.283 2.093 1.88 0 0-1.057-.234-2.14-.09-1.087.15-4.448.41-6.256-1-1.793-1.423-.856-2.54-.443-2.983.415-.44.52-1.004-.67-2.384-1.195-1.385-1.012-1.385-.784-2.126 0 0 4.187.01 5.68.424 0 0-4.08-2.296-5.68-2.633 0 0 .08-.515.975-1.193.897-.676 2.097-1.205 2.5-2.88 0 0 3.01.574 4.73.832-1.87-.71-2.736-1.764-5.8-2.61 0 0 2.134-.107 2.935-.177 0 0 1.467-.26 2.147-.896.284-.26.635-.59 1.076-.88-5.93.112-11.845.67-17.68 2.04-9.31 2.18-18.577 4.484-27.865 6.755l-.225.063c1.57-.98 2.93-2.36 4.18-3.71-2.75.675-5.532 1.24-8.334 1.725-4.56.805-9.254 1.505-13.912 1.238-7.68-.447-15.374-2.197-22.863-3.916l-1.984-.465c.167.117 2.708 1.7 3.586 2.217 3.696 2.165 7.5 4.144 11.526 5.632 1.22.4 2.42.866 3.65 1.247 1.366.42 2.75.78 4.13 1.1 1.27.29 2.56.518 3.84.71 2.29.34 4.624.478 6.94.414 2.33-.057 4.65-.378 6.95-.798 2.663-.5 5.31-1.07 7.91-1.82l1.28-.37c3.592-1.1 7.07-2.69 10.42-4.397.88-.435 1.754-.88 2.61-1.34l.064-.045.064-.02c-.055.06-6.236 5.18-9.275 7.03-.66.405-1.33.807-2.013 1.196-1.1.63-2.234 1.224-3.37 1.8-.97.505-1.94.964-2.92 1.397l-1.56.65-.08.045-.817.424c-1.77 1.096-3.59 2.126-5.49 3.01l-.08.044c-.63.3-1.26.59-1.9.862l-.04.025-.05.024c-1.722.746-3.495 1.426-5.244 2.05-1.39.49-2.797.95-4.22 1.34-10.08 2.94-16.23 2.87-16.23 2.87.68.31 1.596.586 2.44.77 3.038.68 10.303 1.32 10.643 1.424l.06-.02-.6.575c-4.534 4.143-10.34 6.657-16.24 8.27-3.17.86-6.43 1.495-9.696 1.89l-1.517.165c-.21.076-.35.165-.407.28-1.61 5.01-1.66 10.43-1.38 15.63.15 2.796.49 5.59.993 8.36l.01.04c.365-.36.795-.75 1.29-1.15 0 0 1.5-1.238 4.11-1.62l-.113-.098-.113-.104c-.556-.47-1.41-.71-2.166-.824l-.577-.09.5-.08c1.628-.343 3.56-.64 5.14-.297l.113.014c.96.22 1.807.856 2.323 1.68l.13.26.158.34.03.085.105.343.07.34.017.07.02.35c0 .416-.085.843-.27 1.245-.61 1.37-1.74 3.98-1.74 4.97 0 .45-2.34 2.076-2.97 2.713l-.1.115.19-.01.157-.02 2.065-.255 1.01-.06h.026s1.616 2.98 2.864 3.98c1.243.99 2.364 3.096 2.74 4.71l.05.01c.146.02.324-.04.51-.11l.056-.02.225-.094.464-.22.704-.3.668-.34.068-.03s-2.353 3.456-5.1 5.08c.18.03 2.36.35 3.45-.116l.03-.01s.187 4.13-3.85 8.578c-.276.303 3.006 4.184 5.018 6.454l.23.276.175.2.42.47.27.31c.14-.13 1.25-1.077 1.813-1.54.98-.785 2.002-1.516 3.045-2.214.98-.67 3.25-1.875 3.25-1.875l.03-.018c.11-1.02.456-1.605.74-1.966.39-.47.96-.574 1.44-.85.197-.114.41-.234.62-.46l.22-.26.118-.193.15-.276.106-.25c.11-.257.216-.565.31-.935.16-.635.687-1.217.687-1.217l-.03-.01c-.72-.27-1.453-.5-2.185-.722-1.16-.35-2.35-.66-3.536-.94-.783-.18-1.58-.37-2.386-.523 6.19-4.08 13.045-7.13 20.09-9.51 2.36-.79 7.353-2.21 7.353-2.21-.7-.64-1.4-1.41-1.744-2.124-.874-1.737.618-4.35 1.24-5.34.63-.995-.497-1.605-.497-1.605 1-.757 1.742-1.995 1.742-1.995l-.05.017c-2.22.484-4.303.61-4.303.61l-.01-.02c-1.24-.98-1.734-3.096-1.49-4.21.25-1.11.743-2.866.743-2.866h-.04c-.416.046-.866.013-1.29-.05-.724-.09-1.35-.263-1.52-.307l-.007-.01c4.72-.62 7.09-2.36 7.09-2.36l-.06.01c-1.25.236-3.42.36-3.42.36v-.01c.02-.134.18-1.39 1.115-2.017.35-.235 1.084-.235 1.962-.11.49.065 1.03.17 1.58.306l.77.196c.95.25 1.852.536 2.51.75l.04.01c1.863.63 2.745 3.11 2.745 3.11.503 1.607 1.3 2.77 2.236 3.643l.033.024c.44.38.9.7 1.39.99l.59.303.6.276c.6.244 1.205.44 1.795.59l1.12.27.55.124c.33.074.63.2.908.356.84.48 1.448 1.34 1.86 2.195 3.29-.355 6.608-.64 9.895-.834-.41-.48-.856-.94-1.33-1.37-3.31-3.04-7.94-4.992-12.105-6.322 8.277-1.107 16.645-1.437 24.976-1.72 4.765-.18 9.537-.29 14.296-.34-1-.834-2.386-1.31-3.584-1.792 2.796-.32 5.72-.05 8.516.16-2.386-1.2-5.087-1.87-7.636-2.627-1.795-.524-3.603-1.027-5.41-1.5l.22.01-.094-.02c1.22.1 2.466.22 3.712.34l.6.05c7.132.747 14.24 1.555 21.33 2.53 8.95 1.234 17.845 2.74 26.7 4.487 8.06 1.593 16.1 3.57 24.07 5.57 3.36.84 6.705 1.724 10.045 2.663-5.44-1.553-11.4-3.13-17.885-4.685m-47.906-55.04c.843-.464 1.78-.505 2.133-1.133.347-.628.412-1.39.412-1.39s2.757.523 3.973.8c0 0-1.08-1.6-1.785-1.88 0 0 .227-.627 1.14-1.05.9-.41 2.475-.83 3.425-1.563.945-.73 1.996-.523 2.704-.38.684.135 2.053.975 3.655 1.46 0 0-.838-.698-1.11-1.285 0 0 1.744.104 2.62.483.87.383 1.32 1.286.904 1.955-.42.66-.95.736-.978 1.185-.045.455 1.19 1.257 1.71 1.71 0 0-.77-.25-1.68-.453 0 0 .98 1.08.8 2.2-.17 1.115-.555 1.32-.875 2.06-.306.732-1.245 1.362-2.23 1.81 0 0 1.272.55 2.59 1.32l-3.5-.444s-1.402.837-2.036 1.77c-.626.95-1.743 1.78-3.364 1.85 0 0-2.02-.595-2.823-.774 0 0 1.053.904 1.47 1.36 0 0-1.15.456-2.277.213-1.11-.247-3.66-1.297-4.43-1.53 0 0 1.86.133 2.42.21 0 0-3.7-2.97-4.267-3.63 0 0 1.594.266 2.31.445-.26-.16-2.356-1.43-2.42-3.098-.05-1.025.66-1.786 1.493-2.228m-17.5 21.41c.21-.45.454-.786 1.106-.786.638 0 1.988.184 2.433-.156.45-.34.55-1.24 1.35-1.73.79-.5 2.24-.11 3.54.24 1.3.36 2.89.95 2.89.95-1.5.105-3.05.105-3.05.105 1.85.45 3.64 1.344 5.33 2.383 1.73 1.07 1.05 2.09 2.5 2.637 1.44.545.88 1.044.88 1.044-1.69-.35-4.63-.594-4.63-.594l3.837 1.48s-.3.26-.69.3c-.405.05-1.11-.39-1.7-.3-.59.108-1.05 1.108-1.7 1.65-.64.547-1.484.387-1.484.387s-.206.805-.847 1.3c-.65.496-1.71.25-3.057.05-1.344-.203-1.8-3.036-1.8-3.036-1.39-1.233-3.526-2.377-3.526-2.377.9.047 2.043.248 2.043.248-.45-.75-3.09-1.982-3.09-1.982-.446-.202-1.793-.944-1.793-.944 1.35.1 5.48 1.04 5.48 1.04-1.346-.85-4.038-1.89-4.038-1.89m-65.69 40.684c-1.115.874-3.983 3.235-5.484 4.97-1.5 1.74-3.11 3.6-6.467 2.727-3.37-.867-3.887-5.71-3.887-5.71.88-1.24 4.866-3.1 4.866-3.1-2.115 0-4.807.47-4.807.47.047-1.01.194-3.95.194-6.33 0-2.35-1.246-4.59-1.246-4.59.87-.87 3.007-1.982 3.007-1.982-4.123.62-6.25.13-6.25.13 1.13 0 2.75-.876 2.75-.876-.243-1.23.25-2.97.87-3.596.62-.615 2.51-2.98 3.378-3.604.868-.613 3.117-.244 5.355.13 2.24.37 2.615 1.736 2.615 1.736 1.13.25 2.254.13 2.254.13-1.375 1-4.866 2.1-4.866 2.1 1.623.264 2.994.264 2.994.264l1.493 5.467c.218.805.63 1.47 1.16 2.11-.97.576-2.633 1.49-4.024 1.98 0 0 2.403-.07 4.97-.953l1.633 1.57c1.744 1.75.62 6.104-.505 6.964m14.153-27.152c-.805.527-.875 1.08-1.5 1.88-.63.808-4.45.97-4.45.97-2.314-.8-5.33-.8-5.33-.8l3.55 1.076s-2.14.353-3.92.18c-1.776-.18-2.76-2.14-3.724-3.47-.98-1.327.17-3.36.17-3.36-.53-.366-1.15-.54-1.15-.54 1.95-.176 5.605.093 5.605.093-1.68-.54-3.603-.9-3.603-.9s.22-.968.66-1.94c.455-.97 2.583-.71 3.48-.62.89.09 2.04-.98 2.684-1.19.64-.21 2.65.484 3.71.84 1.07.346 1.166 1.15 1.166 1.15-.986-.095-2.41.174-2.41.174l3.47.97s2.307 1.15 2.66 2.3c.362 1.16-.257 2.67-1.07 3.18m20-14.89c-1.2 1.39-3.986.928-3.986.928s-2.8 2.064-5.86 1.61c-3.065-.454-5.514-1.61-5.514-1.61s-2.79-.633-4.322-1.454c0 0 3.79.376 6.77.196 0 0-3.2-.97-4.13-2.12 0 0 1.08-.68.885-1.665-.21-1-.5-2.39-.05-3.18 0 0 2.793 1.34 4.184 1.69 0 0-1.79-1.493-2.44-2.828 0 0 1.21 0 2.3-.894s2.264-2.5 4.296-2.47c0 0 .942-.96 1.89-1.16.94-.2 1.73-.2 1.73-.2s1.103.495 2.992.85c-.003 0-2.54-1.69-3.143-2.428 0 0 1.146.39 2.1.33 0 0 1.043-.29 2.74.157 1.69.44 2.83 1.742 2.83 2.825 0 1.1-1.54 2.537-.99 3.484.502.86 4.02 1.745 4.53 1.87-.39-.035-2.678-.22-4.04-.04 0 0-.843.84-1.795.89-.95.05-1.14.75-.95 1.3.21.54 1.16 2.54-.035 3.926m22.696 25.026c-.864 1.32-4.364 1.778-6.244 1.548 0 0-3.507 1.573-5.51 1.304-1.993-.262-5.622-1.62-5.622-1.62s1.112-.58 2.21-.753c0 0-.676-1.335-2.318-2.87-1.63-1.543-3.72-3.44-4.08-4.715-.004 0 2.144-.903 3.69-1.264 0 0-2.59.07-4.05-.56 0 0-.1-2.704.45-3.79.547-1.084.91-1.99.91-2.54 0-.542-.11-.5.705-.763.82-.274 4.75-.95 4.75-.95s-.36-.898-2.823-1.264c0 0 2.188-.81 4.648-.45 2.44.356 4.07 3.252 4.89 4.792.823 1.534 2.36 3.25 3.364 3.98.96.69 4.425-.103 4.73-.175-.24.253-2.43 2.325-3.855 2.233 0 0 .75 2.747 2.02 3.84 1.277 1.08 3.01 2.71 2.144 4.028" fill="#9F792C"/><path d="M179.13 265.188s-1.155.293-3.527 2.082c-2.387 1.816-2.964 4.185-2.964 4.185 1.23-1.136 2.96-2.186 2.96-2.186-.49.76-.29 1.14-1.34 3.51s-3.62 2.28-5.43 2.47c-1.81.19-4.76-1.99-4.76-1.99-1.05.38-2.97 2.18-2.97 2.18.86-2.86 4-5.9 4-5.9-1.33.57-3.72 2.272-3.72 2.272-1.33-1.043-6.016-2.38-9.15-4.084-3.15-1.71-2.768-5.034-2.768-5.034.195-1.995 1.904-4.664 1.904-4.664-1.05.58-2.185 1.815-2.185 1.815-.03-.39-.02-.73.01-1.054v-.022c.115-1.023.457-1.61.75-1.97.376-.47.956-.57 1.427-.85.2-.112.414-.233.625-.465l.218-.26.123-.192.144-.275.105-.244c.11-.26.22-.57.31-.937.165-.63.69-1.215.69-1.215 1.097-1.228 3.03-2.11 3.03-2.11-1.01 1.262-1.13 2.596-1.14 2.874l.034.014c2.19-3.46 5.88-3.19 5.88-3.19-.76.2-1.71.77-1.71.77s1.62.564 3.24 1.036c1.62.487 5.237.767 7.34.767 2.095 0 5.997.76 5.997.76 1.71-.56 6.964-1.896 6.964-1.896-1.814 1.14-5.044 2.75-5.044 2.75 6.57 3.613.945 11.03.945 11.03zm45.226 19.755c-1.26 2.15-2.964 2.343-2.964 2.343l.43-.814c-1.474.402-3.03-.44-3.184-.523.904 1.27.996 2.9.996 2.9l-.574 1.08 1.99-.15-1.126 1.38c.33 3.21-2.34 4.41-5.47 4.16-3.12-.24-6.896-3.45-6.896-3.45.22-1.25 2.57-4.58 2.57-4.58-1.67.5-4.694 2.63-4.694 2.63-2.86-1.77-2.27-1.17-10.413-2.29-8.13-1.12-12.2-3.27-12.2-3.27-.04-1.487 1.06-3.27 1.06-3.27-1.94.95-2.9 2.452-2.9 2.452-.69-.5-3.06-2.785-2.13-6.005.92-3.21 5.7-3.704 5.7-3.704 1.56-1.254 3.91-1.28 4.06-1.28-.535.325-1.435.94-1.435.94 1.33-.256 8.52.484 11.627.72 3.117.245 6.47.236 6.47.236l3.187-.733-5.61 3.61c2.36-1.45 8.1-2.59 8.1-2.59s1.005-.126 2.475.52c1.462.65 2.103 3.04 2.103 3.04 1.27-1.244 3.386-.5 5.556 1.74s2.255 4.607 2.255 4.607l1.04.284zm-1.538-116.388s3.704 1.776 4.834 2.46c0 0-.757-.043-1.24 0 0 0-1.266.738-1.527 1.226-.272.49 0 2.69-1.242 3.66-1.226.97-2.88.74-3.392 1.34-.52.6.3 1.42.3 1.42s-2.68-.6-3.51-.68c0 0 1.28 1.29 2.1 1.89 0 0-1.06-.24-2.14-.09s-4.45.41-6.24-1c-1.79-1.42-.86-2.54-.44-2.98.41-.44.52-1-.67-2.384-1.2-1.377-1.01-1.377-.786-2.125 0 0 4.18.01 5.67.43 0 0-4.07-2.295-5.67-2.63 0 0 .08-.514.97-1.2.9-.662 2.085-1.2 2.49-2.87 0 0 3.015.565 4.73.83-1.865-.713-2.736-1.765-5.79-2.614 0 0 2.124-.104 2.936-.172 0 0 1.46-.256 2.142-.893.28-.266.63-.59 1.07-.887.655-.417 1.49-.776 2.65-.82 2.14-.07 4.17.436 5.616.93 1.1.38 1.865.75 2.063.844 0 0-1.98-.3-3.324-.33 0 0 .667.374 1.04.78 0 0 .07.78-.04 1.23-.103.45-.333 1.125-.072 1.866.26.747 1.016 2.416 1.128 3.016 0 0-2.292-.19-3.63-.22zM239 195.168c-1.694-.352-4.625-.593-4.625-.593l3.83 1.474s-.298.26-.69.3c-.4.04-1.107-.4-1.692-.31-.597.1-1.058 1.11-1.71 1.65-.638.54-1.48.39-1.48.39s-.21.8-.848 1.29c-.656.493-1.702.244-3.05.05-1.338-.21-1.794-3.04-1.794-3.04-1.39-1.235-3.53-2.384-3.53-2.384.91.05 2.05.252 2.05.252-.46-.76-3.1-1.99-3.1-1.99-.44-.206-1.8-.95-1.8-.95 1.36.1 5.49 1.043 5.49 1.043-1.34-.85-4.04-1.886-4.04-1.886.21-.453.46-.788 1.11-.788.64 0 1.99.19 2.44-.16.46-.345.55-1.245 1.35-1.737.79-.5 2.24-.1 3.54.245 1.3.354 2.89.946 2.89.946-1.5.1-3.04.1-3.04.1 1.84.446 3.64 1.345 5.33 2.38 1.74 1.07 1.058 2.09 2.5 2.64 1.44.54.89 1.048.89 1.048zm-27.767-49.12c-.21 1.78-2.5 3.357-3.12 3.758-.61.41-1.757 1.225-2.093 2.37-.342 1.147-1.562 1.89-2.32 1.963-.74.06-1.75 1.14-1.75 1.14 1.062.26 2.558-.2 2.758-.26-.158.13-1.453 1.17-2.014 1.61-.613.47-2.644.94-3.388.87l-3.8-.06c-2.315-.08-4.957-.287-5.75-1.737-.76-1.376-1.078-1.418-1.105-1.418-1.63.74-5.02.71-5.02.71 3.27-1.35 6.06-4.398 6.06-4.398-1.75.74-3.75 1.04-3.75 1.04-.28-.473-.33-.97-.27-1.985.08-1.01 1.03-1.55 1.03-1.55s.06-.54.75-1.42c.687-.88 2.984-2.095 4.274-2.17 1.295-.07 2.91-.736 3.803-1.345.877-.61 3.993-1.89 5.553-1.76 1.56.136 2.18.4 2.18.4.88-.06 2.84-.4 2.84-.4-2.567 2.028-4.204 2.77-4.204 2.77 2.98-.34 5.564-1.553 5.564-1.553 3.043.205 3.993 1.625 3.79 3.404zm38.78-2.612c-.133.967-.822 3.452-2.136 4.003-1.32.54-1.676.64-1.676.64v2.87s-1.96-1.75-2.37-2.31c0 0-.52.02-1.91-.19-1.38-.21-3.05 2.14-5.6 1.94 0 0-4.21-.9-4.9-2.63-.69-1.723-.42-3.173-.13-3.658 0 0 1.45 1.86 2.48 2.41 0 0-.96-2.205-.96-3.58 0 0 .83-.62.96-1.25.145-.62 1.738-1.588 2.708-1.793.97-.2 1.92.21 1.92.21s1.14 2.576 1.966 3.54c0 0-.35-5.054.063-6.844 0 0 1.055 2.33 1.61 3.086 0 0 1.157-.125 2.82-.403 1.66-.28 3.106-.13 4.078.823.975.97 1.25 2.144 1.106 3.11zm-52.732 39.626c-.39-.035-2.66-.22-4.02-.046 0 0-.84.847-1.8.895-.95.06-1.14.76-.95 1.31.21.54 1.16 2.53-.04 3.92-1.19 1.39-3.98.92-3.98.92s-2.8 2.07-5.86 1.62c-3.062-.45-5.51-1.61-5.51-1.61s-2.78-.63-4.32-1.44c0 0 3.796.36 6.767.185 0 0-3.19-.972-4.12-2.11 0 0 1.084-.68.89-1.665-.21-1.008-.51-2.39-.052-3.19 0 0 2.79 1.34 4.184 1.69 0 0-1.79-1.495-2.44-2.83-.005 0 1.2 0 2.29-.9 1.09-.896 2.262-2.5 4.296-2.47 0 0 .94-.96 1.89-1.17.94-.19 1.733-.19 1.733-.19s1.1.493 2.99.843c-.003 0-2.54-1.686-3.145-2.43 0 0 1.15.4 2.094.34 0 0 1.046-.294 2.74.154 1.694.445 2.84 1.745 2.84 2.83 0 1.09-1.54 2.537-.993 3.487.514.86 4.02 1.75 4.53 1.876z" fill="#000"/><path d="M365.37 200.91c0 1.39-3.188 1-5.586.796-2.383-.2-14.55.996-18.74 2.982-3.528.833-7.008 1.973-10.34 3.406-.942.413-1.884.85-2.805 1.314-1.12.554-2.22 1.15-3.21 1.888l-.34.276s-.56-3.008-3.2-5.705l-.47-.46c-.32-.297-.68-.58-1.06-.86-1.13-.833-2.53-1.58-4.25-2.097-.57-.18-1.18-.324-1.82-.446-.975-.184-2.02-.298-3.167-.34h-.018l-.15-.023c5.35-2.53 11.91-5.04 17.47-5.36 11.64-.65 26.99 2.53 26.99 2.53s8.6-10.71-3.583-23.28c2.475 2.27 6.558 6.47 9.07 11.48 3.798 7.55 5.187 12.53 5.187 13.91m34.83-13.52c-1.933-1.7-4.52-3.47-7.4-5.22-2.09-1.29-4.334-2.57-6.447-3.64l-.228-.11c11.73 1.92 14.48-1.12 15.105-2.38l.074.126c.172.32.336.644.466.95 2.33 5.54-1.57 10.288-1.57 10.288" fill="#9F792C"/><path d="M317.41 194.013s-10.612 6.66-18.3 4.685c-7.697-1.975-20.884-12.374-20.884-12.374s5.053-.652 13.393.73l.21.046c1.51.335 3.14 1.564 4.36 2.415.74.528 1.41 1.147 2.13 1.704.14.11 1.99 1.24 2.08 1.24l-.03.41c0 1.95 1.59 3.53 3.55 3.53 1.96 0 3.54-1.59 3.54-3.53 0-.77-.25-1.49-.67-2.06 7 1.98 10.61 3.19 10.61 3.19" fill="#006778"/><path d="M302.855 190.972c-.06 1.022-.737 1.636-1.65 1.636-.26 0-.54-.056-.8-.148-.082 0-1.938-1.13-2.08-1.243-.716-.558-1.38-1.174-2.125-1.706-1.222-.84-2.832-2.06-4.353-2.41.933.18 4.568.89 6.7 1.46 1.08.28 2.077.55 3.064.82 0 0 1.31.58 1.25 1.6" fill="#FFF"/><path d="M341.908 194.06c2.238-.557 4.678-1.662 6.422-3.22h-.004l.03-.038c-3.867 1.417-8.003 1.885-11.968.527-.66-.23-1.34-.47-2.006-.75l-.732-.34c-3.974-1.99-7.577-4.87-11.1-7.56-6.043-4.61-12.362-8.68-19.383-11.61-.487.34-1.21.87-1.868 1.52v.15c0 1.89 1.37 5.86 4.29 8.23 3.79 3.087 10.84 6.176 10.84 6.176-.35-1.19-.18-2.74-.18-2.74 1.03 1.712 3.27 4.286 6.71 6.18l.7.35c1.06.502 2.46 1.1 3.85 1.646 1.012.4 2.16.755 3.043.995 3.7.77 7.63 1.385 11.334.462" fill="#9F792C"/><path d="M298.004 202.577c-3.454-1.818-7.008-3.52-10.655-4.96-2.28-1.154-4.51-2.37-6.71-3.637-2.98-1.715-5.93-3.528-8.74-5.515-1.33-.938-2.89-1.72-4.04-2.87l-.24-.164c-.727-.11-1.45-.17-2.13-.19-.92-.02-1.85 0-2.77.07l-1.125.11c.81 2.64 4.43 6.53 4.43 6.53-1.72.13-3.917-.48-3.917-.48 3.18 4.26 11.976 9.63 18.824 10.97 6.842 1.34 13.074 1.09 13.074 1.09-.97.498-2.567 1.108-2.567 1.108s2.685-.127 6.35.6c.475.09.993.22 1.545.37 2.434.62 5.435 1.62 7.2 2.238l.57.194c-.85-.57-1.7-1.124-2.583-1.65-1.79-1.115-4.264-2.605-6.55-3.8m-33.676-21.67c2.73-.81 5.92-1.45 8.757-1.72 9.576-.9 19.06.69 27.95 3.697 8.65 2.923 16.61 7.406 25.476 9.773 1.132.3 2.266.57 3.416.82l.64.12c-.876-.24-2.02-.6-3.033-.994-1.396-.55-2.79-1.144-3.857-1.647l-.7-.35c-3.43-1.89-5.676-4.468-6.71-6.178 0 0-.16 1.546.177 2.738 0 0-7.058-3.083-10.845-6.17-2.924-2.373-4.29-6.34-4.29-8.24v-.15c-.517.49-1 1.05-1.324 1.645-1.04 1.915-.96 3.37-.96 3.37s-.906-.38-1.715-1.01c0 0 .41 1.727 1.876 2.46 0 0 .837 1.1.477 1.937 0 0-2.568-.203-3.17-.69-.6-.5-2.51-1.18-2.51-1.18s.643-.1 1.32-.06c0 0-.686-1.68-1.348-2.24-.66-.56-2-1.58-1.696-2.87 0 0 1.56.11 2.32.41 0 0-2.478-2.14-4-2.49l2.077-.11s-.28-1.46 2.354-2.737c2.644-1.28 3.46-2.093 4.02-2.915.548-.83.77-1.67 1.465-2.16 0 0 1.29.73 2.305 1.5 0 0-.58-1.74-2.453-3.013 0 0-6.86-.773-11.74 2.75l.4.25.135.08.28.18.135.084.29.2.09.06.367.246.017.01.28.2.11.087.13.094.094.055.02.02.096.07.02.01.053.04c-.94-.22-2.888-.492-3.79-.612-.27.262-.87.86-1.117 1.17 0 0-.557.71-.875 2.53-.1.586.23 1.938.825 2.463.602.52 2.472 2.237 2.774 3.046.3.83-.248 2.11-.127 2.66 0 0-1.45-.92-2.265-1.15.17.16 1.816 1.86.892 2.07 0 0-.83-.953-2.33-1.63-1.494-.66-4.25-2.01-5.075-2.76-.775-.69-1.28-2.18-1.33-2.36.093.12.55.725.96.8.415.07 1.63.86 1.786.96-.05-.125-.474-1.145-.97-1.55-.52-.46-1.79-1.058-2.463-1.87l.746-.226s.21-1.46-.13-2.9c-1.11-.245-4.01-.75-6.325.06 0 0 2.1 1.35 3.877 3.82 0 0-17.174 3.14-24.04 15.416l-.28.57-.09.083.145-.118.05-.007h.005l.015-.01c.27-.227 2.975-2.54 4.63-3.46 2.4-1.34 5.087-2.163 7.706-2.96" fill="#FFF"/><path d="M351.113 175.522c-.823-.858-1.736-1.695-2.774-2.568l.07.118.1.186.08.177.11.206.21.44.12.26.24.56c.25.6.55 1.32.82 2.13.28.8.54 1.68.754 2.6l.183.94.053.35c.22 2.484.36 4.807-.7 7.15-.43.957-1.06 1.84-1.82 2.57l-.253.22c-1.74 1.56-4.18 2.666-6.415 3.218-3.707.925-7.637.31-11.336-.46l-.02-.002-.63-.12c-1.15-.244-2.285-.517-3.42-.82-8.868-2.366-16.83-6.85-25.48-9.766-8.885-3.01-18.373-4.6-27.954-3.7-2.83.27-6.02.91-8.746 1.72-2.62.793-5.31 1.615-7.71 2.956-1.655.916-4.356 3.236-4.632 3.46l.315-.07.45-.12c2.106-.52 4.34-1.06 6.6-1.42.76-.12 1.51-.213 2.273-.3l1.12-.11c.92-.07 1.855-.09 2.768-.07.685.03 1.41.08 2.133.2l.232.16c1.153 1.153 2.7 1.94 4.036 2.875 2.81 1.985 5.76 3.798 8.734 5.515 2.2 1.266 4.423 2.482 6.7 3.637 3.65 1.44 7.2 3.14 10.652 4.966 2.29 1.19 4.755 2.68 6.55 3.792.87.53 1.73 1.084 2.58 1.65l1.643 1.094c3.052 2.03 5.962 4.28 8.74 6.675.807.686 1.593 1.39 2.38 2.1 1.25 1.15 2.392 2.4 3.62 3.56-.105-.088-.127-.567-.16-.707l-.287-.805c-.213-.55-.43-1.12-.67-1.67-.46-1.1-.99-2.18-1.56-3.235-1.14-2.11-2.444-4.127-3.88-6.06-.806-1.088-1.65-2.148-2.533-3.188-.64-.736-1.31-1.455-1.985-2.19-.526-.584-1.18-1.645-1.974-1.904l-.082-.03-.15-.02c5.35-2.53 11.91-5.042 17.47-5.362 11.64-.65 26.99 2.523 26.99 2.523s8.597-10.72-3.586-23.284m-51.99 23.17c-7.69-1.972-20.88-12.37-20.88-12.37s5.05-.654 13.39.73c.095.014 4.484.843 6.926 1.492 1.078.28 2.078.56 3.066.827 0 0 1.314.574 1.246 1.603-.06 1.02-.737 1.63-1.65 1.63-.26 0-.54-.06-.795-.15l-.03.416c0 1.946 1.59 3.53 3.557 3.53 1.954 0 3.534-1.586 3.534-3.53 0-.77-.248-1.49-.67-2.062 6.994 1.995 10.605 3.205 10.605 3.205s-10.605 6.658-18.293 4.684" fill="#000"/></g></svg>