<svg width="512" height="512" viewBox="0 0 512 512" xmlns="http://www.w3.org/2000/svg"><title>st-louis-rams</title><g fill="none" fill-rule="evenodd"><path d="M351.024 397.63c.126-.03 9.742-2.487 9.742-2.487 11.947-2.98 19.55-4.946 24.01-7.072 0-.01 3.902-1.89 3.902-1.89l2.238-3.71c.65-1.08 15.555-26.26 22.92-61.29 2.085-1.89 9.888-8.99 9.888-8.99l.22-2.35.298-3.21c.272-2.88.403-5.8.403-8.7 0-5.23-.433-10.66-1.27-16.19 17.236-9.59 24.702-23.462 29.27-34.73 3.732-9.19 5.6-19.514 5.6-30.232 0-10.58-1.827-21.54-5.45-32.142-5.88-17.162-19.22-41.366-49.424-59.197-18.81-11.11-45.31-15.818-70.93-12.6-29.75 3.722-55.36 17.78-72.11 39.56-1.3 1.7-2.54 3.504-3.73 5.37l-.58.1c-95 14.796-170.32 76.66-173.473 79.28l-27.27 22.633 35.32 2.84c62.254 5.008 106.323 26.786 132.323 44.17 28.483 19.05 42.192 37.14 42.33 37.33l9.19 12.515 11.82-10.14c2.002-1.73 3.814-3.7 5.454-5.87l.41.36 2.67 2.225c1.76 1.422 3.2 2.64 5.03 4.696.44 1.005.71 2.125.71 3.403 0 3.185-.39 4.094-1.237 6.075l-.42.956c-1.01 2.426-2.92 5.927-2.957 5.97l-2.89 5.294 52.59 29.544" fill="#FFF"/><path d="M297.596 326.6l.615.542-.02-.178-.59-.364zm89.05-86.69l-.876.882.522-.506.354-.375z" fill="#13264B"/><path d="M400.253 130.677C366.58 110.79 300.143 110.63 265.16 156.11c-1.748 2.287-3.37 4.68-4.863 7.153-1.51.3-2.655.512-3.32.625-93.278 14.527-167.438 75.367-170.55 77.95l-15.706 13.04 20.35 1.635c123.31 9.92 178.52 83.202 179.06 83.954l5.33 7.222 6.8-5.85c3.726-3.21 6.28-6.97 8.08-10.64 1.668 1.52 3.54 3.18 5.81 5.18 3.1 2.7 5.44 4.08 8.896 8.2 1.163 2.17 1.594 4.51 1.594 6.71 0 5.01-.967 6.62-2.12 9.38-1.15 2.76-3.225 6.542-3.225 6.542l45.12 25.332 3.043-.847 9.807-2.518c11.268-2.797 18.957-4.79 22.877-6.66l2.26-1.092 1.29-2.14c.645-1.093 15.62-26.477 22.57-61.33 2.468-2.254 9.616-8.746 9.616-8.746l.304-3.197c.242-2.745.364-5.45.364-8.13 0-6.78-.745-13.4-1.927-19.568 17.89-8.46 25.48-21.57 30.38-33.654 13-32.07 2.626-84.864-46.73-114.01" fill="#B3995D"/><path d="M435.31 181.997C406.78 113.015 328.4 126.79 328.4 126.79l.62-.06c4.012-.322 27.24-1.663 50.51 7.943 20.434 8.435 43.26 29.444 48.78 57.203 1.312 6.595 1.823 12.703 1.823 18.23l-.005 1.396c-.258 17.004-5.37 28.432-7.104 32.014-2.323 4.824-8.054 11.91-11.926 14.733-3.25 2.38-6.25 3.38-8.538 3.38-.443 0-.848-.05-1.226-.12h-.025c-.39-.06-.76-.18-1.09-.33-2.17-.99-2.91-3.58-7.85-10.52-3.27-4.62-7.43-9.077-7.43-9.077.41-.356.78-.747 1.16-1.12l.54-.588c.45-.485.87-1.034 1.3-1.6 1.19-1.635 2.21-3.537 3.02-5.688l.084-.25c.262-.69.48-1.4.696-2.12 4.01-14.294-.42-36.423-18.414-50.82-19.127-15.313-39.8-16.58-56.548-9.866-28.187 11.3-45.24 45.22-25.11 72.968 9.757 13.46 25.622 14.323 35.48 6.776 9.226-7.08 15.422-28.74-7.293-40.34 18.25-1.544 40.394 20.22 29.496 48.316-.8 2.055-1.74 3.97-2.785 5.764-15.8 26.638-58.93 23.684-79.665-1.09-20.196-24.127-23.63-56.477-13.93-83.405.705-1.955 1.49-3.906 2.34-5.806-83.315 18-137.22 68.39-137.22 68.39 116.49 24.17 158.72 94.42 158.72 94.42 4.316-3.714 6.66-8.69 7.975-12.79-8.08-13.234-4.54-25.63-4.54-25.63 1.767 8.91 5.02 15.44 8.27 20.122 1.395 1.945 7.813 8.242 9.065 9.342l.59.362.026.18c5.84 5.16 12.77 10.984 14.006 13.202 6.27 11.272-.28 24.07-.28 24.07l35.26 19.314c7.86-2.22 26.263-6.246 31.34-8.68 0 0 15.63-26.13 22.12-61.39l9.24-8.4c3.42-9.686-2.625-30.858-2.625-30.858.747-.194 1.518-.415 2.287-.68 1.84-.61 3.67-1.43 5.51-2.44 19.968-11.066 38.327-45.665 20.26-89.285" fill="#024"/><path d="M430.13 210.106c0-5.527-.51-11.635-1.823-18.228-5.52-27.76-28.345-48.77-48.78-57.203-23.272-9.607-46.497-8.264-50.51-7.943-.948.12-1.908.236-2.848.365-31.72 4.49-50.99 27.14-50.99 27.14 28.7-22.435 71.78-25.083 100.29-13.396 28.48 11.7 49.19 35.41 54.64 70.67l.01-.32v-1.08zm-92.582 138.452c.3-1.422 4.395-1.708 4.395-1.708 2.905 10.282-1.6 16.882-1.874 17.864-.22-4.675.61-13.325-2.53-16.156zm-70.632-86.61c-20.196-24.126-23.63-56.478-13.93-83.404-5.795 8.92-19.093 35.382-2.636 71.83 19.963 44.193 74.598 45.94 92.976 18.28 1.242-1.875 2.32-3.756 3.255-5.613-15.8 26.64-58.93 23.69-79.66-1.09zm104.838 40.228c0-3.642 2.943-6.6 6.593-6.6l.348.02c-.78-3.655-2.405-7.646-5.474-11.568 0 0 .25 3.91-.59 7.256-3.36 1.784-5.66 5.294-5.66 9.38 0 5.842 4.76 10.584 10.61 10.584 0 0 .39-.906.81-2.473h-.024c-3.65.003-6.592-2.955-6.592-6.6z" fill="#FFF"/><path d="M379.09 305.06l-.216.506c-1.334.545-3.597.06-4.473-2.052 2.47 1.448 4.36-.098 4.87-.565l.15-.14s.11 1.03-.32 2.25" fill="#13264B"/><path d="M379.414 302.813l-.152.136c-.504.46-2.396 2.01-4.86.56.876 2.11 3.14 2.59 4.473 2.05l.217-.51c.423-1.22.322-2.25.322-2.25zm20.4-1.75c.82-33.493-27.145-55.775-27.145-55.775s20.49 25.556 18.11 55.606l-5.58 5.2c.09 8.157-.3 23.64-8.2 40.994-8.19-14.798-26.24-24.597-33.68-26.36-5.06 2.848-16.29 9.026-22.84 16.29 1.147 1.572 2.75 5.83 2.997 7.215 1.487 8.232.37 14.205-.913 18.52.02.016 12.504 6.985 12.327 6.64 3.418-11.827-1.13-17.16-4.597-23.233 3.37-2.05 11.212-6.443 14.87-7.968 3.7 5.094 5.6 13.525 1.625 25.524-1.197 3.593-2.926 7.252-3.967 9.78.016.132 4.876 2.726 4.847 2.57 6.32-1.27 12.095-5.59 14.33-11.648.665-1.8.37-3.19.15-4.607-.622.8-1.47 2.06-2.495 2.75-1.62-3.75-1.64-6.74.41-8.99 1.06-1.16 2.245-1.59 3.664-1.63 2.095-.07 3.782 1.29 4.45 2.89 3.135 7.71-4.138 15.81-4.138 15.81s6.96-.32 8.965-1.3c4.1-8.28 16.783-35.26 20.382-62.5l6.41-5.76z" fill="#FFF"/></g></svg>