<svg width="512" height="512" viewBox="0 0 512 512" xmlns="http://www.w3.org/2000/svg"><title>new-england-patriots</title><g fill="none" fill-rule="evenodd"><path d="M489.243 157.203c-45.947 13.338-83.803-18.43-140.832-17.464l-.08-.01s-78.38-2.32-153.73 26.04c-75.92 27.14-127.94 47.73-177.07 53.64-11.54 1.81-12.63 19.39 1.18 20.3 45.44 1.72 76.16-1.49 106.19-7.5-4.272 13.2 9.02 14.53 9.216 14.54 35.67 4.47 64.61.79 92.806-5.08-7.196 8.7-1.37 16.5 4.835 17.81 106.37 18.85 146.88 72.81 185.8 111.16 10.92-1.43 34.245-15.33 26.73-43.448 0 0 2.868-6.24 2.864-11.16L460.58 308s-5.684-28.406-6.384-31.673c7.367-3.848 20.744-10.55 20.744-10.55s24.24-85.516 27.163-96.525c2.614-9.877-7.6-13.58-12.86-12.053zm-470.34 72.312c84.97-11.594 155.1-52.006 227.28-68.34 2.27 8.825 6.385 26.448 6.385 26.448-103.272 21.763-114.183 45.707-233.664 41.892zm115.224 7.018c56.463-8.245 90.586-29.312 122.57-36.044 1.89 7.89 4.34 15.98 5.934 22.38-83.96 22.89-128.5 13.66-128.5 13.66zM466.33 258.73c-8.062 3.87-15.98 7.947-23.822 12.29 2.74 10.437 4.228 21.675 6.7 32.058l-12.282 7.177.042 7.56-3.864 10.096c4.533 6.01 3.257 14.71-.298 20.78-2.99 4.9-7.802 8.57-12.58 11.28 0 0-69.057-94.01-186.7-110.51 33.114-5.24 45.67-20.41 102.866-20.25-20.306-11.21-46.303-12.1-70.07-6.762-1.274-5.02-5.712-23.11-5.712-23.11 15.31-4.377 31.14-6.19 47.328-7.34-15.466-5.892-32.615-6.545-50.427-4.99-2.13-8.897-3.96-17.53-6.34-26.83 30.43-6.98 64.43-10.45 96.97-10.214 38.12.27 89.15 17.544 89.15 17.544 17.25 4.794 37.3 4.78 54.89-.51-2.53 11.06-25.83 91.75-25.83 91.75zm-22.908-56.036c-1.14-4.65-3.393-17.9-4.055-19.167l-11.605 15.052s-15.663-4.11-24.376-5.87c5.47 5.76 10.853 10.99 15.712 16.71-4.606 7-10.513 13.64-15.335 20.37 8.913-3.03 17.978-5.72 26.89-8.81 6.448 6.54 13.342 13.67 19.717 19.94-1.102-8.53-3.63-17.076-4.436-25.14l20.24-6.895c-7.302-2.36-15.247-3.938-22.752-6.21z" fill="#FFF"/><path d="M437.28 167.483s-51.027-17.278-89.145-17.544c-32.55-.24-66.54 3.23-96.97 10.21 2.38 9.3 4.21 17.93 6.342 26.83 17.812-1.56 34.96-.91 50.43 4.99-16.196 1.15-32.02 2.96-47.33 7.34 0 0 4.434 18.09 5.71 23.11 23.767-5.34 49.764-4.45 70.07 6.76-57.196-.16-69.753 15.01-102.866 20.26 117.65 16.5 186.71 110.52 186.71 110.52 4.78-2.72 9.59-6.39 12.58-11.29 3.56-6.06 4.83-14.77.3-20.77l3.87-10.1-.04-7.56 12.28-7.18c-2.47-10.38-3.96-21.62-6.7-32.056 7.846-4.344 15.767-8.42 23.83-12.29 0 0 23.305-80.688 25.835-91.753-17.58 5.29-37.626 5.304-54.88.51zm-14.013 131.29l-2.97 3.732c3.31 1.227 7.008 3.42 10.258 4.724l-.24 4.11-8.964.24-11.38 8.98s8.78-1.5 13.33-2.74l8.45-.01c-.91 2.484-1.912 4.64-2.98 6.86l-8.34.35s5.07 6.04 8.565 9.926c3.92 6.667-6.865 14.85-6.865 14.85-19.31-21.597-40.293-44.28-65.913-58.876 2.604-4.037 6.475-6.192 11.05-5.703 9.53 1.857 17.72 8.29 20.005 10.717 2.968 3.16 8.367 11.257 9.976 12.415-.806-6.5-3.12-13.08-4.68-19.616l-28.91-19.84c3.037-8.088 13.49-13.74 22.6-14 8.833-.26 17.46-.183 23.997 4.99-15.07-.205-20.5 7.39-22.73 14.36-.11.546 30.79-.122 30.79-.122 1.16-3.18 1.63-6.6 3.9-9.283 2.37-3.437 6.74-4.636 10.54-4.727.72 2.55 7.5 38.287 7.5 38.287-5.91.11-11.02-.01-16.98.37zm27.105-57.835c-6.375-6.272-13.27-13.406-19.716-19.947-8.914 3.09-17.977 5.79-26.89 8.81 4.82-6.73 10.728-13.38 15.334-20.37-4.86-5.72-10.24-10.94-15.71-16.71 8.707 1.77 24.375 5.87 24.375 5.87l11.604-15.05c.66 1.27 2.91 14.52 4.05 19.17 7.5 2.276 15.45 3.856 22.75 6.21l-20.24 6.898c.8 8.067 3.33 16.61 4.43 25.14z" fill="#024"/><path d="M422.204 264.847c-2.265 2.68-2.74 6.103-3.898 9.283 0 0-30.896.668-30.786.122 2.225-6.97 7.652-14.564 22.725-14.36-6.538-5.174-15.168-5.248-23.996-4.99-9.11.26-19.57 5.91-22.6 14l28.89 19.847c1.56 6.53 3.87 13.11 4.68 19.61-1.61-1.16-7.01-9.26-9.97-12.42-2.29-2.42-10.48-8.86-20.01-10.71-4.58-.49-8.45 1.66-11.05 5.7 25.62 14.59 46.6 37.27 65.91 58.87 0 0 10.78-8.19 6.86-14.85-3.49-3.89-8.56-9.93-8.56-9.93l8.34-.35c1.06-2.22 2.06-4.38 2.98-6.866l-8.45.002c-4.557 1.24-13.33 2.733-13.33 2.733l11.39-8.98 8.962-.24.24-4.12c-3.25-1.3-6.95-3.496-10.26-4.723l2.97-3.732c5.962-.38 11.067-.256 16.972-.366 0 0-6.776-35.74-7.5-38.29-3.797.09-8.166 1.29-10.537 4.725" fill="#B0B7BC"/><path d="M256.586 205.937c-28.797 6.06-59.522 25.03-110.36 32.454 0 0 40.105 8.31 115.703-12.3-1.44-5.75-3.65-13.05-5.35-20.15zm-9.47-35.4c-64.99 14.71-128.134 51.095-204.64 61.534 107.58 3.44 117.406-18.12 210.388-37.71 0 0-3.702-15.87-5.747-23.81z" fill="#C60C30"/></g></svg>