<svg width="512" height="512" viewBox="0 0 512 512" xmlns="http://www.w3.org/2000/svg"><title>philadelphia-eagles</title><g fill="none" fill-rule="evenodd"><path d="M288.136 141.248l-19.784 21.088c32.548-14.71 103.397-40.764 103.397-40.764l-22.65 22.685c62.08-20.946 109.15-31.79 109.15-31.79s-13.44 31.524-33.6 63.375c3.9-.642 29.58-4.925 29.58-4.925s-22.92 38.414-49.55 66.594l14.95 2.82s-23.12 33.82-53.898 61.95c-44.037 40.57-66.96 35.79-66.96 35.79-32.838 24.81-59.26 14.4-59.26 14.4s11.11-28.48-.566-30.68c-10.79-2.22-26.89 6.67-28.853 10.07-1.96 7.12-10.73 25.35-19.758 36.62-17.35 21.64-36.777 31.07-36.777 31.07s-15.37-11.92-15.678-33.3c0 0-10.35 11.218-27.443 15.606-11.998 3.177-28.35 1.94-45.068-10.62-11.387-8.54-13.68-38.99-13.68-38.99s10.41-19.98 30.66-38.056c-4.583-3.55-7.368-8.108-8.18-10.97 53.88-25.567 53.85-47.4 96.603-76.07 42.265-28.257 68.816-41.684 117.34-65.886" fill="#ACC0C6"/><path d="M261.89 161.05l-16.9 18.037c33.525-16.002 104.26-43.01 104.26-43.01l-20.497 20.556C401.34 131.21 447.5 121.46 447.5 121.46s-14.86 33.198-34.754 61.86c9.606-1.47 29.933-4.712 29.933-4.712s-20.13 33.832-49.76 63.17c3.24.29 16.9 2.56 16.9 2.56s-17.91 26.857-49.1 55.002c-39.77 35.935-57.69 32.774-57.69 32.774s.45-1.33.28-3.402c.075-1.134-.186-2.174-.217-2.277-30.595 29.722-56.35 21.433-56.35 21.433s11.17-27.22-6.42-31.696c-13.54-3.512-34.14 8.254-35.816 14.05-1.68 6.38-10.29 24.14-18.706 34.704-14.747 18.416-31.076 27.312-31.076 27.312s-14.893-10.33-9.915-43.012c1.014-7.137-.47-9.858-1.245-10.905-2.55-3.49-21.557 1.37-26.12 11.87-3.19 7.48 15.794 12.6 15.794 12.6s-8.72 9.83-24.007 13.68c-9.58 2.25-24.5 2.42-40.154-9.83-9.267-7.24-11.38-33.32-11.38-33.32S69 312.49 91.08 293.94c-4.38-2.64-7.77-7.15-8.574-8.93 44.74-20.88 50.644-47.62 101.077-79.7 23.45-14.91 48.24-29.77 78.285-44.25" fill="#004953"/><path d="M381.61 246.05c1.795.25 9.11 1.135 13.272 2.59-15.254 24.902-61.066 74.607-86.678 77.913-.38-4.267-1.98-7.632-4.065-9.924-9.48 17.53-38.9 29.46-51.2 27.42 14.56-53.52-48.36-30.19-53.13-15.52-12.14 38.17-43.99 57.3-43.99 57.3s-10.28-10.63-6.09-36.06c3.14-18.73-9-17.49-9-17.49-4.92-.12-23.32 3.022-29.09 15.746-4.604 10.205 11.8 16.47 11.8 16.47s-23.466 19.427-51.07-1.77c-6.74-5.3-9.45-28.606-9.45-28.606 13.08-21.78 30.365-36.1 37.555-41.45-7.645-2.516-10.03-6.143-10.03-6.143 36.725-18.273 50.895-46.135 82.13-67.81 34.424-23.94 60.74-36.3 60.74-36.3l-9.846 12.755s8.3-3.89 11.854-5.877c32.84-17.22 88.495-37.037 88.495-37.037l-17.263 17.09s28.713-10.975 64.974-20.28c19.28-4.97 59.655-15.226 59.655-15.226s-9.35 27.38-29.304 55.84c12.19-1.47 25.306-2.794 25.306-2.794s-13.964 28.195-45.59 59.15M231.63 217.1c-.444.195-.724.34-1.187.58.383-.24.692-.398 1.082-.56l.105-.02m-1.485.535l.298.044-.298-.05" fill="#000"/><path d="M274.084 278.49s-17.663-7.412-45.44 2.763c0 0 38.143-23.944 86.7-17.112-31.49-8.42-59.85-2.21-76.494 4.1-9.804 4.16-15.666 7.38-15.666 7.38s2.47-1.81 7.132-4.69c11.26-8.622 26.804-18.13 42.162-25.11 10.686-4.73 31.984-11.37 40.646-12.27 0 0-22.286-2.484-42.66 3.447 0 0 32.107-13.78 63.398-16.06 10.535-.615 34.472-.707 34.472-.707-34.602-8.115-70.455-8.26-94.92-3.395-13.843 3.927-24.894 7.868-24.894 7.868s1.995-.95 5.68-2.69c8.728-5.52 44.813-26.208 111.946-39.73 0 0-8.523-.538-19.043-.005-10.708.548-31.958 5.127-31.958 5.127 15.357-7.49 44.19-15.584 79.863-20.674 0 0-54.614-3.504-120.503 19.79-.62.24-.837.43-.837.43s6.85-5.14 14.816-10.54c5.677-4.102 14.054-10.3 14.054-10.3s-33.83 9.425-79.548 32.93c-12.858 6.59-19.677 10.384-19.677 10.384 1.995-2.2 11.11-10.582 13.282-13.43-33.922 17.93-46.283 29.12-66.31 50.88-17.987 19.42-17.136 22.66-44.42 38.346 0 0 20.21 6.96 40.56-6.91 3.536-2.33 6.79-5.74 9.96-9.168 7.206-8.417 4.765-16.635 14.374-23.073-1.41 3.19-3.62 7.11-3.82 11.2 4.57-6.39 13.57-14.91 23.65-21.354 25.78-16.085 42.88-19.542 42.88-19.542-.76.2-1.27.58-1.95.775-35.1 15.95-40.75 34.76-40.92 36.77-.34 4.2 12.69-5.845 23.34-7.693-11.27 4.44-20.81 14.18-25.41 25.16-1.95 4.647-2.52 9.838-8.14 14.14-1.57 1.518-3.578 3.02-6.35 4.334-7.34 3.628-12.51 2.188-14.28 1.18-1.053-.594-1.63-1.786-1.63-1.786 3.576.856 8.47-.29 12.885-3.197 3.277-2.165 5.7-4.905 6.97-7.67.68-1.568 2.07-4.43.04-7.89-1.014-1.667-3.1-2.59-5.517-2.79.196-.456 1.293-3.564 5.25-8.273-5.26 4.005-8.546 8.56-10.31 10.685 2.43.156 4.61 1.11 5.83 2.942 2.385 3.7.17 9.43-4.853 12.45-5.06 3.318-11.24 2.896-13.53-.775-.33-.57-.51-.914-.72-1.47-.21.114-.55.29-.85.4-1.543.88-4.76 2.306-4.76 2.306 1.464.334 3.49.31 4.827.09.487 5.345 4.01 13.906 23.684 8.064-5.616 5.44-19.114 5.86-27.34 2.08 1.17.81 2.42 1.57 3.91 2.402 24.78 13.53 53.02-1.82 59.9-6.108 1.77-1.036 3.504-2.087 5.19-2.99 0 0-7.13 6.45-11.94 16.255 8.533-11.17 33.59-29.497 67.27-27.253" fill="#FFF"/><path d="M183.776 259.563c.966 3.454 7.174-.453 7.174-.453s-8.453 7.376-11.72 15.09c-.12.453-.116 1.9-1.223 4.155.89.13 1.746.196 2.416.125 2.208-.438 4.834-2.023 4.834-2.023s.105 4.447-4.85 9.04c5.613-4.304 6.18-9.494 8.132-14.14 4.59-10.98 14.14-20.723 25.4-25.16-10.65 1.848-23.68 11.893-23.34 7.692.17-2.01 5.82-20.82 40.92-36.77-.39.16-1.19.57-1.38.51-32.13 13.28-48.96 32.73-46.37 41.93" fill="#BACAD3"/><path d="M170.388 274.53c1.688 2.66.073 6.66-3.666 9.06-3.722 2.274-8.12 2.112-9.74-.574-.317-.388-.475-.852-.53-1.33-.727.572-1.544 1.03-2.258 1.55.21.558.387.9.722 1.472 2.29 3.672 8.465 4.093 13.53.775 5.02-3.02 7.236-8.746 4.854-12.448-1.22-1.836-3.402-2.788-5.83-2.943-.585.69-1.276 1.477-1.967 2.345 2.15-.095 3.965.616 4.885 2.093" fill="#004D55"/><path d="M166.726 283.59c3.735-2.4 5.35-6.398 3.665-9.06-.91-1.477-2.73-2.188-4.88-2.095-1.36 1.76-3 3.82-5.05 5.694-.02 1.62.31 3.48 2.32 4.8 0 0-2.3.24-3.74-.66-.78-.54-1.19-1.26-1.33-1.66-.44.35-.86.83-1.24 1.07.057.48.217.94.53 1.33 1.62 2.68 6.02 2.85 9.746.57" fill="#000"/><path d="M159.03 282.27c1.443.902 3.746.66 3.746.66-2.013-1.317-2.343-3.18-2.32-4.8-.848.866-1.77 1.733-2.756 2.48.13.4.542 1.126 1.33 1.66" fill="#FFF"/><path d="M368.336 220.205s-23.936.092-34.474.708c-31.29 2.28-63.393 16.06-63.393 16.06 20.36-5.93 42.65-3.445 42.65-3.445-8.66.903-29.96 7.544-40.65 12.27-15.36 6.98-30.91 16.488-42.17 25.11 18.042-11.258 69.5-38.427 135.29-28.272 0 0 4.28-3.345 15.67-16.074 11.99-13.428 14.457-21.475 14.457-21.475s-55.686-2.992-95.984 5.07c-8.68 1.81-18.058 4.143-26.34 6.652 24.465-4.87 60.32-4.72 94.92 3.39m-128.17 70.45c45.446-13.3 77.17-1.63 81.13 12.19l.46-.36c1.81-1.05 8.885-4.31 19.476-14.9 11.052-11.27 18.03-20.19 20.77-26.11-46.69-20.17-98.018-3.988-123.154 6.75 16.646-6.32 45.005-12.53 76.496-4.1-48.56-6.83-86.7 17.11-86.7 17.11 27.78-10.173 45.44-2.76 45.44-2.76-33.688-2.245-58.74 16.08-67.27 27.255-.686 1.33-1.29 2.74-1.847 4.085 7.78-7.46 16-13.62 35.19-19.173M395 166.702c-35.674 5.09-64.506 13.188-79.863 20.676 0 0 21.25-4.58 31.957-5.13 10.52-.534 19.043.003 19.043.003-67.132 13.527-103.217 34.21-111.944 39.73 8.917-4.09 28.172-12.22 55.92-18.89 26.005-6.29 56.398-9.09 68.664-10.83 17.296-17.19 23.956-38.16 23.956-38.16s-30.254 3.93-64.71 11.8c-35.76 8.42-58.94 18.58-63.525 20.59 65.89-23.3 120.505-19.79 120.505-19.79m-180.34 142.94s11.428-8.99 30.905-6.94c28.835 3.02 28.172 20.63 28.172 20.63s12.865-6.04 19.4-17.48c0 0-8.144-7-22.934-8.84-38.353-4.61-55.54 12.633-55.54 12.633" fill="#ACC0C6"/><path d="M136.68 302.804c-5.89-.172-8.07-1.278-10.175-2.78-4.886 2.68-8.612 4.797-8.612 4.797-2.888 4.35 3.25 3.26 6.088 2.31 2.33-.8 12.7-4.32 12.7-4.32m63.92 2.59c-1.78 3.16-2.57 6.62-3.83 10.79-8.79 41.77-39.59 61.26-39.59 61.26-5.79-12.2-2.6-24.23-1.73-28.7 2.2-10.3-2.97-17.653-2.97-17.653 20.338-.154.514 25.42 8.23 35.65 13.567-8.405 21.67-35.88 23.648-45.63.087-.36-1.984-1.72-3.64-2.194-19.723-5.18-52.62 1.765-64.42 9.263-37.227 23.816-2.2 37-2.2 37s-22.91 8.61-36.117-10.82c-3.356-5.196-4.195-14.79-5.01-22.36 13.533-23.03 35.054-33.035 40.976-37.34 5.14 1.152 14.563 1.26 21.974-1.31 0 0 25.09 29.15 64.69 12.05" fill="#ACC0C6"/><path d="M117.893 304.824c-2.888 4.35 3.246 3.253 6.086 2.3 2.32-.804 12.7-4.32 12.7-4.32-5.89-.172-8.07-1.278-10.18-2.78-4.89 2.683-8.61 4.8-8.61 4.8" fill="#000"/></g></svg>