<svg width="512" height="512" viewBox="0 0 512 512" xmlns="http://www.w3.org/2000/svg"><title>seattle-seahawks</title><g fill="none" fill-rule="evenodd"><path d="M407.37 317.65c-20.24-4.04-46.815-5.11-58.036-5.11l-267.072.053c-16.616 0-33.8 0-42.62-13.544-8.943-13.75-4.08-27.28 11.002-54.34 1.123-2.01 46.87-87.79 46.87-87.79s4.672 5.79 9.38 9.47c4.653 3.63 9.435 5.57 22.18 5.57 22.634 0 168.66-.32 170.15-.33 29.64 0 59.58 3.056 78.98 24.28 10.074 1.07 42.586 5.356 69.373 18.14 15.683 7.47 26.028 18.633 29.937 32.264 1.182 4.126 1.77 8.46 1.77 12.955 0 12.937-4.86 27.27-14.382 42.167-20.12 31.48-38.682 42.48-39.513 43.07-11.44 8.02-22.51 8.4-22.51 8.4s9.97-11.315 13.33-22.63c3.36-11.31-8.86-12.65-8.86-12.65" fill="#FFF"/><path d="M444.283 220.97c-30.544-14.568-69.78-17.716-69.78-17.716-17.116-20.865-46.043-23.958-75.277-23.958 0 0-147.246.323-170.15.323-26.662 0-29.34-10.55-29.34-10.55l-35.74 66.75h92.814c29.21 0 30.676-2.92 50.048-17.13 20.58-15.11 37.005-20.56 56.45-20.56 19.436 0 32.302 4.37 53.934 13.93 21.643 9.55 33.14 14.2 46.016 8.74 0 0-10.134 13.65-40.804.81-30.668-12.84-38.877-15.57-57.507-15.57-18.375 0-39.417 8.79-65.767 35.02l31.4 25.2s-7.263 11.192-12.047 18.34c-4.767 7.15-4.32 11.92-1.78 15.41 2.55 3.495 5.762 5.08 17.386 5.08 11.62 0 104.77-.21 115.19-.21 9.06 0 37.4.84 59.53 5.25 29.38 5.86 10.43 30.574 10.43 30.574s19.67-12.915 39.15-43.37c21.72-33.98 16.37-61.815-14.16-76.38" fill="#024"/><path d="M390.32 226.444c-13.89-3.315-2.015-11.343-2.015-11.343-19.99 4.04-27.43 20.3-29.145 24.85-.318.62-.652 1.25-.986 1.92-11.06 22.2-21.022 21.01-39.904 21.01h-32.34c-26.197 0-38.398 12.95-50.954 35.01h14.795c13.53-20.08 23.73-25.5 50.48-27 61.12.037 109.84 17.528 135.58 30.89 36.62-61.33-17.72-71.48-45.5-75.314h.01" fill="#FFF"/><path d="M276.577 297.635c6.83-10.3 20.73-13.804 43.134-12.518 55.3 3.195 87.09 13.935 111.79 23.117-30.46-17.786-84.73-30.604-122.46-30.484-18.44.056-34.54 3.27-43.99 19.885h11.54" fill="#FFF"/><path d="M335.918 236.794c-7.205 10.027-16.697 13.453-43.615 11.618-31.318-2.123-23.238-15.284-19.59-21.765l-.106-.008c.994-1.84 2.704-4.95 4.432-8.08-24-1.48-41.53 16.94-41.53 16.94 17.89 17.66 29.82 19.5 46.01 19.5h30.25c28.13 0 34.93-12.63 37.5-18.24-4.85.6-9.228.55-13.367.03" fill="#FFF"/><path d="M322.262 233.807l-1.756-.712c-2.76 2.896-7.516 4.58-12.127 3.987-6.07-.775-9.57-5.173-7.84-9.813.24-.68.6-1.32 1.03-1.94-3.11-1.22-6.24-2.39-9.28-3.44-6.23 10.05-9.89 16.72 11.74 18.54 13.47 1.15 17.12-1.16 19.95-5.99-.58-.22-1.145-.41-1.74-.65" fill="#69BE28"/><path d="M213.63 272.018c-11.157 19.317-15.588 23.76-7.75 32.926H82.263c-18.236 0-30.086-.69-36.187-10.064-5.928-9.103-4.708-17.79 11.27-46.45h105.108c18.096 0 22.75 1.027 32.568 8.63 9.822 7.607 18.608 14.957 18.608 14.957" fill="#A5ACAF"/></g></svg>