<svg width="512" height="512" viewBox="0 0 512 512" xmlns="http://www.w3.org/2000/svg"><title>washington-redskins</title><g fill="none"><path d="M193.096 338.65c-1.136.344-3.467-.235-3.467-.235.78 5.67 1.64 7.61 1.64 7.61l-1.36 1.53 1.63 1.16c-1.76 11.223 3.41 18.947 5.8 26.47-1.89.58-4.04.48-5.66-.33.64 6.37.05 18.627-5.53 23.95-1.06-.63-1.84-.808-2.25-1.39-.83 1.79-1.47 2.49-3.156 7.06-.94 3.06-1.76 7.346-2.2 11.97-4.59-2.174-9.596-4.452-14.11-11.467-1.003-1.663-1.71-3-4.16-5.222-.567 1.05-.66 1.36-1.794 2.338-1.197 1.04-4.3 2.312-4.323 2.21-.63-2.825-1.38-5.44-3.2-8.62-1.74-3.525-7.72-8.214-12.608-19.666-2.007-4.394-3.01-8.312-3.845-12.833-.374.168-.633.28-.88.335-1.816.47-3.12.35-3.747-.914-1.536 3.814-3.45 5.947-5.08 6.98-.748 2.2-.63 2.782-2.26 4.573-1.493 2.07-2.003 2.6-3.046 6.53-1.69 3.99-4.22 5.96-4.6 6.99-.63-1.27-.878-1.03-1.505-1.97-6.145 7.52-6.9 9.48-20.82 12.15 3.51-6.374 5.893-17.01 5.644-19.205-1.76-14.93-3.39-18.05-4.273-29.62-.52-5.786-1.997-20.014-.615-38.977 1.5-22.9 8.524-42.69 14.55-57.618 7.777-20.817 25.58-54.364 38.576-74.86l.054-18.602h5.02l5.27-11.103 2.378 1.623 9.03-22.216 6.396 16.773 10.94-6.365c4.37-3.695 35.475-45.11 101.34-45.024 63.836-.083 129.566 45.96 129.566 119.53 0 66.857-59.214 118.45-127.547 118.45-52.957 0-87.06-24.87-105.15-47.66 1.152 11.455-1.257 34.247 9.35 55.646" fill="#fff"/><path d="M193.054 338.65l-1.022.11-1.14-.097-.925-.163-.38-.08.585 3.58.526 2.354.38 1.283.147.393-1.358 1.532 1.627 1.16-.172 7.812 1.52 6.81 2.293 6.117 2.162 5.74-2.928.36-2.73-.683.19 5.68-.63 6.686-1.79 6.494-3.3 5.09-1.37-.71-.88-.68-.61 1.215-.644 1.27-.81 1.79-1.085 2.78-1.29 5.394-.906 6.573-3.506-1.725-3.576-2.2-3.564-3.1-3.46-4.445-.73-1.2-.806-1.2-1.075-1.3-1.54-1.52-.69 1.197-1.108 1.14-1.18.8-1.43.735-1.206.52-.517.155-1.152-4.18-2.04-4.44-2.02-2.952-3.105-3.91-3.698-5.39-3.786-7.41-2.36-6.372-1.48-6.463-.88.333-2.32.194-1.427-1.11-2.51 4.538-2.576 2.45-.44 1.393-.36 1.047-.52.976-.938 1.16-.964 1.344-.73 1.224-.647 1.577-.707 2.39-1.38 2.63-1.41 1.98-1.17 1.42-.64.967-.752-1.11-.75-.852-2.09 2.57-1.793 2.123-1.73 1.75-1.875 1.45-2.24 1.226-2.82 1.07-3.62.985-4.637.983 2.39-5.38 1.833-5.79 1.12-5.005.285-3.03-1.29-9.304-1.18-6.77-1.02-6.14-.79-7.41-.513-5.865-.51-8.68-.154-11.15.56-13.274 2.06-16.57 3.515-15.233 4.36-13.736 4.61-12.076 3.35-8.35 4.126-9.245 4.71-9.83 5.14-10.125 5.373-10.1 5.45-9.79 5.346-9.167 5.063-8.246.05-18.6h5.016l5.27-11.108 2.373 1.63 9.03-22.216 6.392 16.776 10.936-6.366 1.136-1.12 1.77-1.884 2.42-2.537 3.086-3.072 3.752-3.49 4.44-3.79 5.14-3.983 5.85-4.05 6.57-4.01 7.293-3.854 8.054-3.58 8.8-3.18 9.566-2.675 10.346-2.05 11.136-1.306 11.94-.444 11.97.516 11.917 1.575 11.757 2.6 11.51 3.604 11.156 4.57 10.704 5.52 10.16 6.43 9.506 7.32 8.76 8.19 7.91 9.02 6.966 9.837 5.92 10.613 4.786 11.37 3.535 12.096 2.193 12.79.753 13.47-.685 12.35-1.997 11.935L410.37 248l-4.405 10.956-5.497 10.382-6.518 9.76-7.467 9.09-8.336 8.355-9.136 7.566-9.86 6.73-10.52 5.844-11.1 4.9-11.61 3.9-12.04 2.858-12.4 1.754-12.69.6-18.973-1.117-17.24-3.13-15.54-4.83-13.875-6.214-12.24-7.28-10.64-8.036-9.065-8.474-7.537-8.59.297 4.8.16 5.712.216 6.48.464 7.095.908 7.56 1.54 7.878 2.37 8.05 3.408 8.07" stroke="#fff" stroke-width="2.584"/><path d="M287.03 325.127c67.956 0 123.046-50.8 123.046-113.475 0-62.673-55.09-113.48-123.045-113.48S164 148.977 164 211.652c0 62.676 55.084 113.475 123.04 113.475" fill="#FFB612"/><path d="M287.03 309.29c58.462 0 105.868-43.713 105.868-97.638 0-53.925-47.406-97.636-105.867-97.636-58.46 0-105.86 43.715-105.86 97.636 0 53.925 47.4 97.638 105.86 97.638" fill="#fff"/><path d="M220.382 202.398s-8.65 19.323-8.277 34.59c0 0 2.692-5.718 3.643-4.74 0 0-7.778 24.06-1.885 37.83 0 0 1.255-3.82 3.384-6.138 0 0 3.26-4.742 4.525-8.56 0 0 .62 1.62.99 4.512 0 0 2.89-3.353 3.51-5.67.488-1.81 1.758-3.81 2.638-6.13l.998.47s5.9-6.598 8.154-12.618c0 0 1.754-.224.882 4.518 0 0 4.89-4.397 5.017-11.225l1 1.048c4.14 4.742 4.14 12.03 4.02 16.54-1 14.457-9.04 22.207-19.07 30.652l.89.695c14.92-2.54 24.75-4.03 39.89 0 5.76 1.54 19.69 7.405 26.46 11.342 0 0 15.05 6.012 25.59 6.012 0 0 .503.227.503-.29 0 0-1.13-3.584-.126-17.062 0 0 1.13-6.24 2.01-10.525 0 0 1.13-2.89 1.258-8.79.015-.49-.51-4.06 2.13-3.71 5.71.74 8.904-.46 13.297-1.16 0 0 4.65-1.27 6.537-1.39 0 0 4.4.65 5.76.23 1.5-.46 3.13-1.63 5.143-3.36 0 0 2.25-2.2.75-7.177 0 0-1.5-4.515-.63-5.903 0 0 1.33-3.066 3.264-4.863 0 0 1.38-2.07-.5-3.11 0 0-1-1.047.686-1.45 0 0 1.26.112 2.067-.29 0 0 .438-.17.504-1.038.08-.937.51-5.44-2.752-9.38 0 0 .94.235 1.633.47 0 0 4.01.34 6.088-.585 1.82-.928 4.45-2.08 4.08-7.64-1.023-4.62-3.02-7.404-5.03-12.606-2.38-5.55-2.75-8.33-7.763-12.137-3.013-1.275-4.395-3.355-2.14-5.44 1.756-2.436 1.127-6.823-1.995-9.834-3.015-2.78-5.27-7.06-6.41-9.26-1.5-2.31-3.133-4.86-4.63-6.364-1.52-1.733-3.766-2.77-7.77-7.17 0 0-2.4-1.964-2.77-4.04-3.39-4.86-12.8-11.69-23.584-12.38-3.14-.35-3.14-.35-5.4-.585-3.75-1.27-15.54-1.62-23.57.467-2.593.51-7.776 1.387-7.776 1.387-2.754.81-6.64 1.51-10.906 3.934-3.137 1.5-7.77 5.09-11.29 7.4-3.77 3.476-12.17 8.57-16.81 11.46-9.03 6.124-16.81 14.23-21.322 19.32 0 0-11.404 13.182-17.05 35.973-.375 3.47-1.373 6.824-.76 10.64 0 0 5.03-10.06 9.67-13.192 0 0-.64 1.86-1.01 4.86 0 0 2.38-4.043 3.377-4.74 0 0 1.756-1.735 4.27-4.505 0 0 5.273-6.365 6.772-7.06-1.94 3.356-2.38 5.553-2.57 9.02.818-.69 1.32-1.217 1.57-1.62 0 0 .49-.926 1-.697.258.6-.125 1.053-.125 1.053h-.002" fill="#000"/><path d="M370.877 204.482c-1.132-1.735-1.88-3.7-2.76-6.126-.373-.987-1.125-3.01-1.998-4.74-.06-.7-1.64-3.934-2.64-5.212-2.52-3.353-4.58-3.644-5.96-5.033l-.52-.01c-1.46.9-1.48 2.88-2.73 4.38-.13.17-.55.37-.83.25-.4-.18-.56-.5-1.01-1.09-.41-.56-.74-.16-1.19.31-.29 0-.5.21-.73.42-.39.38-.09.576.22.998.31.437 0 .437.2.66-.06.18-.118.25-.18.33-.165.23-.57.175-.864.125-.83-.125-.64-.07-1.38-.396-.916-.4-1.35-1.5-2.056-1.84-.207-.114-.922-.235-1.467.098-.404.25-.58.8-.24 1.09.59.5 1.052 1.08 1.68 1.52.856.59 1.79 1.026 1.903 1.85.15 1.055-1.535 1.437-2.33.88-.41-.283-.898-.604-1.34-1.036-.07-.06-.14-.414-.236-.478-.353-.25-.77-.547-.97-.807-.354-.497-.825-1.02-1.47-1.25-.15-.053-.27-.25-.384-.426-.295-.475.023-1.03-.19-1.47-.18-.36-.264-.948-.815-.72-.51.465-.44.465-1.02.42-.73-.06-.15-1.31-.15-1.14.01.07-.03-.027.22-.438-.5-.15-1.257-.52-.68-1.207.496-.58.982.27 1.17-.08.066-.132.494-.86.655-.96.562-.303.725.11.804.22-.24.63.477 1.05 1.17.71l.114-.64c.64-1.03 1.63-1.57 2.64-2.275l.41-.194c.305-.56.654-1.366.012-1.62-.537-.21-1.64-.02-1.41-.895.104-.41.684-.57 1.013-.703 1.19-.515 2.424-1.026 3.663-1.473.297-.11.806-.53 1.18-.557 1.566-.117 1.2-.084 3.11.224.34.055.99.385 1.325.49 1.013.33 2.462.224 3.13-.79.663-.99.476-2.67-.198-3.83-.795-1.412-2.016-2.63-3.07-3.6-1.347-1.242-3.097-1.88-3.445-3.59-.43-2.09-2.19-4.86-3.185-6.52-1.05-1.71-1.97-2.85-3.294-4.433-.31-.367-2.248-2.187-2.58-2.487-2.21-1.988-3.16-2.647-5.517-3.43-1.21-.398-5.91-.14-8.36-.43-.77-.094-3.13-.146-3.777-1.3-.58-1.05-1.31-2.55-2.53-3.26-.44-.25-1.11-.518-1.57-.736-2.206-1.023-4.486-2.735-6.87-2.65-.877.03-.037.905.19 1 1.08.527 1.568 1.114 2.16 1.748.616.668 1.957.693 3.108 1.13 1.096.417 2.004 1.064 3.024 1.56.964.467 2.256 2.01 1.19 2.643-.967.57-1.986-.122-3.266.176-.26.066-.646.22-2.13.22-1.978.25-2.665-.624-4.187-1.62-1.52-1.005-2.48-2.54-3.945-3.496-1.8-1.174-3.625-2.15-5.688-2.818-.457-.15-1.057.086-1.46-.11-.71-.368-1.256-1.154-2.15-1.22-1.53-.097-1.53-.213-3.05 0-.215.042-.776.63-.96.627-.9-.035-1.946-.264-2.4.193-.696.73.16.65 1.052 1.05.5.21 1.56.74 2.16.728 2.54-.043 4.164-.06 6.152.93.212.115 1.103.923 1.153 1.226-1.884-.03-4.863-.72-7.044-.55 3.667-.27-3.74.094-5.356.04-.485-.017-.485.9.27 1.405.2.13 1.32-.06 1.47.27.66-.32 2.54-.166 3.08.027.946.31.41.178 1.24.577.5.25.982.58 1.572.52.764-.08.81-1.13 1.58-.79.265.113.853.45.98.44 4.35-.08 4.45 1.18 6.48 1.15.522 0 1.302-.194 1.673.04.814.525 1.58.59 2.835.122 0 0 2.895 7.17 2.14 20.243-.75 5.553-1.127 6.6-2.51 11.11 0 0-2 7.168-1.26 12.14.765 16.776-4.766 30.66-10.775 39.914-2.26 2.543-3.52 3.93-1.255 5.773 4.77 4.054 8.66 4.978 15.42 6.372 2.397.69 3.895.92 6.146.92 3.51 0 9.045 1.384 11.546 3.125 2.378 1.16 8.78 3.36 12.665 2.78 3.385.232 4.394.464 6.035 1.042 1.12.457 2.26.457 3.513.115l1.937-1.33c.25-.57 2.07-1.325 1.696-3.645-.125-1.73-.88-3.53-1.244-5.14-1.083-1.43-1.014-2.49-.64-3.99 1.13-2.09 2.45-3.127 3.146-4.168 1.498-1.564.63-2.655-1.448-3.186-1-.4-2.94-.23-4.953-.4-1.065 0-1.945-.403-3.447-.12 0 0-1.016.64-1.567 1.11l-.767-.41s.7-1.85 2.126-2.95c1.446.23 3.558.385 4.65.12 1.3-.546 2.794-.77 3.888-1.165 1.89-.17 2.766-.056 5.02.064 0 0 1.13-4.51-2.82-7.927-.94-.8-1.707-1.85-3.065-1.906-4.79.52-7.41-1.27-8.17-1.74-1.18-.06-1.55.41-2.19 1.106-1.64 2.534-3.575 3.404-3.575 3.404l-1.01-.114s.88-1.383 2.877-3.7c.896-1.854 2.14-4.162 3.266-5.323.684-1.098.88-3.584 2.57-4.277.82 0 .952-.175 1.56.176-1.24 1.096-4.756 5.03-1.112 7.456 1.498 1.16 3.764 1.16 4.317-.056.274-.666.88-1.096 1.193-1.332 1.883-.345 3.454.523 4.073.99 1.504 1.62 2.385 2.37 3.13 2.713.822.586 2.334.465 3.08.465 2.445-.39 3.76-1.672 4.2-2.48 1.31-2.545 1.063-5.034-.818-8.04z" fill="#5B2B2F"/><path d="M345.474 185.383c.758.353 1.066.244 2.605.445 0 0 1.34.2 2.56-.782.19-.16 1.22-.634 1.18-1.015-.13-1.76.16 1.15-.22-1.5-.09-.56-.06-1.07-.3-1.67-.12-.31-.65-.84-1.43-.6-.146.06-1.387.99-1.41 1.03-.684 1.22-1.75 1.36-2.227 2.18l-.885 1.34c-.084.21-.198.43.104.58" fill="#5B2B2F"/><path d="M357.017 202.808c2.152-.65 3.196.274 5.57 1.77.416.26.76.936.158 1.306-.196.124-.646.102-.782-.018-2.085-1.84-2.758-1.855-5.036-2.23-.113-.008-.468-.66.09-.827v-.01" fill="#0C130F"/><path d="M344.22 223.15c-.327.905-.654 1.71-1.073 2.573-.428.9-.225 2.01-.89 2.818-.29.36-1.095.22-1.216-.2-.42-1.58-.21-3.24.61-4.69.44-.74 1.52-1.12 2.46-.83l.13.47v-.124" fill="#0C130F"/><path d="M322.65 212.513c-.713-.217-1.098-.83-1-1.503.242.062.04-.256.252-.237 1.496.086 2.895.643 4.392.675 1.705.03 3.416-.265 4.976-.946 1.936-.853 3.61-1.763 5.47-2.905.83-.508 2.025-.81 3.055-1.014 1.626-.34 1.52-1.183 2.73-1.846 1.772-.95 1.64-1.654 2.63-1.29.28.103-.288.68-.59.94-.67.55-1.55 1.103-2.154 2.083-.13.197-1.06 1.114-1.24 1.25-2.03 1.384-2.48 2.59-4 4.29-.85.97-1.13 2.234-1.7 3.356-.34.663-.55 1.35-.99 1.96-.18.252-.86.128-1.1.344-1.25 1.106-2.45 2.168-3.37 3.61-.15.235-.68.225-.75.098-.8-1.423-1.92-2.497-3.83-2.55-.34-.01-.7-.715-.68-1.338.01-.138-.15-.396-.33-.433-.296-.045-.43-.3-.74-.315-.325-.016-.583-.48-.64-.675-.387-1.123-.246-2.372-.496-3.552h.13v-.003" fill="#000"/><path d="M294.85 244.62c-.317-1.157-2.34-1.054-3.788-.92-2.202.22-4.208.567-6.343 1.603 1.4-1.96 3.13-2.08 6.42-3.245.74-.264.56-1.477.08-2.185-.55-.813-1.27-.855-1.55-.905-2.71-.486-3.58.09-5.02.432-4.97 1.18-9.85 4.64-12.58 7.953-.79.968-.53 1.987-.367 2.2.51.627 1.296 2.376 1.51 2.164 2.015-2.01 4.46-3.862 7.097-3.28-1.126.335-5.082 2.185-6.34 4.863-.076.17.51 1.146 1.257 1.665 1.01 1.562 1.38 2.195 1.95 2.486.35-.03 1.09-.7 1.294-.99 2.77-3.4 5.536-5.48 13.185-6.4 2.196-.34 3.45-.92 3.64-2.77 0 0 .435-.92-.44-2.772" fill="#fff"/><path d="M285.713 255.367c.13 1.74-.144 2.52.38 3.653.52 1.07 1.586 1.996 1.986 3.104.31.842 1.39 1.917 1.39 2.502.51.455.57.867.57.867.66.81 2.65 1.782 1.95 2.253-.83.586-3.27.174-4.74-.053-1.9-.287-.8 1.3-.4 1.46 1.92.732 5.96.98 7.28 1.652.8.406 1.85 1.022 2.18 1.747.25.543.7 1.014 1.095 1.484 1.27 1.577 1.725 2.26 3.04 3.255.654.5 1.41 1.35 1.18 2.11-.274.89-.886 1.08-1.805.96-.29-.04-1.21-.29-2.087-.64-1.753-.5-2.127-1.1-3.387-.5-.673.32.32 1.387 1.088 1.77 3.15 1.54 6.95 1.58 10.01 3.21 2.613 1.4 4.207 3.11 4.066 6.72 0 .066.943.54 1 .463.897-1.296 3.16.313 4.26 0 .105-.032.13-.577-.02-.8l-2.12-1.47c-.508-.746.22-1.55-.03-2.206-.26-.66-1.48.49-1.936.05-2.01-1.92-3.32-4.204-6.023-5.316 1.13-2.884 1.627-6.123 1.37-7.63-.742-.574-1.054.35-1.24.465-.62.548-.375 1.738-1.096 2.64-.126.15-1.097-.03-1.37-.25-1.846-1.45-3.57-3.18-4.433-5.24-.03-.073-.4-.5-.48-.6-1.35-1.75-1.27-4.2.3-5.96.17-.19.43-1.27.27-1.392-.285-.202-.914.21-1.17.45-.86.81-1.6 2.43-3.047 2.287-1.64-.16-2.262-1.69-3.263-2.688-.32-.984-.91-1.61-.76-1.74-1.38-1.85-1.5-3.356-2.78-5.664-.28-.52-.68-.77-1.235-.93h-.005" fill="#fff"/><path d="M295.25 286.605c1.638.77-.247-.987-.247-.987-.63-.403-2.102-2.504-2.39-3-.703-1.127-1.208-1.997-1.63-2.893-.616-1.394-1.843-2.378-3.866-4.18-1.013-.904-2.58-2.503-3.217-3.67-.99-1.812-1.555-5.06-3.937-6.58-1.836-1.18-1.396-2.52-2.978-4.804-.61-.86-1.85-.97-2.764-1.83-2.29-2.13-.84-2.95-2.84-4.91-.89-.85-1.27-1.03-2.03-2.34-1-1.68-.24-3.89-1.94-4.66-1.5-.69-2.67-.94-3.68-1.25-1.58-.48-4.1-1.67-5.52-2.69-1.49-1.07-4.56-3.43-7.83-6.05 2.003 14.23-.765 26.38-16.06 39.1 28.346-4.86 40.758 1.27 60.95 10.76" fill="#5B2B2F"/><path d="M305.96 268.446c.086 1.164.52.954 1.22 2.552.35.802 1.333 2.206 1.846 2.604 2.903 2.246 4.907 5.713 4.704 9.287.14 1.74.24 1.63 2.09 2.84.316.21.505.23 1.495 1.09l3.457 3.24c-.066-1.05.113-2.81.087-3.36-.17-5.46.97-11.1-1.04-15.87-1.5-3.57-4.89-7.596-6.22-11.33l-.67-2.04c-.7-2.9-.77-5.927-.77-5.927l-4.2-1.846c-3.303-1.22-7.02-2.336-10.346-3.47 0 1.62.242 2.77-1.067 4.394.88 1.97 1.62 6.31 2.626 7.353 2.193 1.9 3.95 3.403 5.396 7.975.325 1.09 1.31 1.68 1.37 2.49" fill="#5B2B2F"/><path d="M254.997 145.254s-2.502-.227-8.404 3.933c-6.513 3.7-15.168 9.024-21.448 16.08-4.57 4.218-11.034 10.64-13.414 15.155 0 0-3.89 5.668-6.4 14.92 0 0 .89 3.01 3.39-.925 4.38-6.876 21.07-30.025 44.9-46.905l1.14-.06c-11.8 9.363-27.09 21.98-41.96 43.44-.55.796-1.27 2.213-1.33 2.32-.663 1.147 1.04 1.324.17 1.13 1.36.305 1.86-1.433 2.73-1.778.538-.217.77 1.268 1.62.887 3.04-1.35 5.288-4.24 6.53-5.98.07.5.77 1.97.77 1.97 1.37.35 5.645-5.08 7.897-8.79.634.69-.15 2.39.68 1.66 2.577-2.24 4.878-4.65 6.247-6.84 1.6-2.56 3.36-3.72 3.99-8.23 1 .58.98.83 1.253 1.04.63-.69.67-1.42 1.67-2.45 1.08-1.13 1.3-2.01 2.622-2.804.47-.29 1.51-2.1 1.72-3.04.198-.9 2.355-3.805 2.51-4.77 1.75-3.01 4.77-4.627 6.896-6.94 2.01-1.612.5-4.507-3.76-3.003" fill="#fff"/><path d="M232.924 235.597c.88.927 1.625-.29 1.625-.29 1.45-2.022 1.76-2.546 2.76-5.262.63-1.794 1.38-2.43 2-9.943 1.76 2.426 2 7.05 2 7.05l.503-.113s1.633-4.29 4.39-5.67c0 0 .25-2.89 3.005-5.78-.37-1.74-.63-3.13-.995-5.91-1.13-4.63-1.76-12.38-.63-17.7 2.25 11.1 3.575 12.72 3.575 12.72l.5.17c.945-1.33 1.2-3.64 1.46-5.725 1.11-4.395 3.122-3.93 3.122-4.86-.63-3.585-1.626-9.253-1.005-14.114 1.26 5.32 1.882 4.978 2.75 6.95 1.13 2.42 1.257-.59 1.257-.59-.246-3.12 2.14-6.245-.128-13.534-.875-4.97-3.386-15.616-2.38-18.05.63-3-.504-1.965-.504-1.965s-3.267.7-8.15 13.428c-7.146 21.17-13.295 43.723-19.946 62.003 2-9.602 12.66-43.496 15.805-55.752 0 0-.44-.872-1.125.11-.824.87-1.635 1.965-2.077 2.716.06-.044-.378.063-.87.3l-1.58 2.193s-3.127 4.043-11.72 12.26c-1.45 2.09-2.07 3.043-3.64 6.363-.567 1.217.31 1.39 1.253.7 2.31-2.083 2.44-2.083 5.64-4.342.14-.1 2.72-.956 2.72-.997-.41.475-.955.79-1.15.975-.89.773-3.06 3.025-3.65 3.982-1.467 2.322-3.05 5.21-5.15 8.714-2.63 4.387-4.63 9.475-4.63 9.475-1.38 3.587-1.004 3.933-1.004 3.933 1.877.694.854 1.57.854 1.57-.853 1.44-1.232 2.59.216 2.074.943-.176 1.443-.616 1.83-1.064.743-.843 1.365-1.424 1.88-2.008.84-.97.676-1.264 1.584-2.217 1.17-1.25 1.91-2.29 3.11-2.8-2.08 2.6-2.2 4.45-2.2 4.45l.508.572.363.235s-2.122 2.425-3.12 7.933c-.482 2.615-.383 2.94-.82 4.392.21-.184 1.45 0 2.55-1.033-.473 1.61-.57 2.42-.57 2.42-.21 1.32-.21 1.092-.21 2.6 0 1.39 0 .8.5 2.422 2.25-.926 2.75-.81 4.88-3.12 1.006-.87 1.78-2.983 2.085-2.84.56.238.086 1.414-.17 1.93-.34.73-.644 1.27-.77 1.795-.07.27-.354.66.1 1.025.2.164.06.14.707.124.38-.01.738-.55.738-.55s.2-.046.4-.448c.14-.34.43-.53.68-.695 0-.007.38-.35.82-.24" fill="#fff"/><path d="M174.86 164.343h-2.632l8.655-18.164-10.663 7.69-2.45-11.51-5.574 15.68-2.7-1.91-4.07 8.43h-3.018v9.132h18.438l4.013-9.368" fill="#0C130F"/><path d="M159.188 173.246l9.778 6.012 1.002-2.664-5.77-3.463-5.01.12" fill="#0C130F"/><path d="M161.95 171.975l5.262 4.974s-4.135 16.07-3.385 24.87c7.657 6.82 13.3 13.42 12.42 28.22 0 0 .5.34-2.757-.58 1.632 1.62 2.127 2.89 3.508 5.66.626 4.51 1.012 8.56.626 12.72 0 0 .387 10.29.757 13.53 1.51.46.63 4.167.76 9.028 0 0-.13 3.006-.64 5.322-3.12-2.318-2.88-2.197-3.75-1.967.75 2.303 1.25 2.303 2.77 4.16 0 13.77.5 27.996 1.5 34.245.5 4.51 1.38 9.71 1.76 11.336.75 2.08.75 3.923 3.01 8.325-.75 0-2.85.06-4.264-1.61 2.01 3.464 2.01 2.774 3.266 3.93l1.75 12.03-2 2.08 2.764 1.62s-.63 5.44.12 10.41c.37 2.312 1.125 4.63 2.89 7.864-3.646.122-4.27-2.655-4.27-2.655-1-1.05-2.76-3.37-3.264-3.37-.25 3.367 1.755 4.64 2.63 6.605 2.56 5.65 2.896 11.107.63 21.625-2.507-2.192-2.63-4.166-4.517-5.2-.242 6.006-.494 7.86-1.75 10.513-2.63 4.747-3.39 7.19-3.51 11.817-4.39-3.364-5.52-7.987-8.53-10.646-2.135-1.964-6.393-5.67-7.9-8.1-.254 2.89 0 3.94-1.257 6.71-1.002-3.21-1.122-4.16-3.51-6.816-3.132-4.055-10.16-13.074-11.786-22.676-.38-1.623-1.38-6.364-2.506-12.846-.885 2.207-2.38 3.938-3.89 4.286-.76.35-.76-.575-.76-.575.63-2.09.88-4.4.63-6.134-.373-2.55-1.127-8.21-2.51-9.6h-.633c.13 3.813-1.503 5.55-2.504 6.82-.127-3.01 0-5.315-.75-6.82-.38-1.05-1.257-1.966-1.51-.93-.626 3.01-.877 3.59-.877 6.36-.248 4.17-.248 5.56-.758 9.03-.246 2.545-1.126 5.664-3.63 8.783-.5-2.766-2.383-4.968-2.383-4.968 0 3.352.755 8.324-1.5 10.99-2.768 3.467-3.146 5.202-4.02 7.75-.38-3.012-1.38-2.084-1.877-3.706-2.013 7.86-8.29 13.877-10.543 15.26 1.507-3.226 2.765-6.935 3.015-9.25 0 0-.38-8.56-1.767-13.41-3.43-15.148-5.09-50.12-2.5-63.4 6.265-47.658 33.11-91.39 55.685-130.718l6.27-.91v-.002" fill="#0C130F"/><path d="M164.58 176.714s-3.892 15.385-3.135 26.147c5.272 4.17 10.913 9.84 11.165 21.52-.44.18-.5.06-.883-.23-1.497-1.78-5.513-2.37-8.523-6.87.44 2.84 9.29 14.177 9.912 16.37.12 7.06 1.25 17.297.618 19.317l-3.01-1.85c1.634 3.874 3.01 7.29 4.957 10.123 0 0 .2 10-.19 8.61h-.5c-1.75-1.162-3.51-2.546-4.82-3.7-.82-.404-.94-1.384-2.45-2.726-2.25-1.905-3.51-3.525-4.45-3.874-2.39-1.558-4.01-2.08-5.39-2.48-.43 0-1.31-.12-1.31-.12s4.52 3.53 7.4 7.52c3.456 3.816 4.896 6.07 6.08 8.375 1.32 2.324 3.205 4.63 4.708 6.596 0 3.19-.25 13.768-.062 15.56l-.94-.64c-2.25-1.27-4.7-4.11-6.773-7.81-1.125 5.33 5.018 11.57 7.84 13.65.94 9.89.94 14.51 2.703 24.92l-.13.81c-2.516-1.61-5.143-4.17-8.28-8.32-.25 4.048 4.14 9.37 8.78 14.458.61.68.45 1.57.78 2.346.55 1.277 1.1 2.865 1.79 3.73.564 2.25.814 5.264.69 6.536l-1.882 3.355 2.507 2.78c.25 3.003-.373 3.81 0 7.165 0 0-2.88-.23-4.14-3.245-2.253 5.793.256 12.272 2.26 15.624 1.505 3.93 2.38 6.355 2.13 10.635l-.505 1.267c-1.5-2.77-3.63-5.08-5.77-6.584l-.87-.223c2.11 12.17 1.38 16.186-2.63 23.95l-.633-.585c-2.254-4.057-6.515-7.18-9.52-10.064-.51-.116-5.77-6.25-6.156-11.228l-.62.12c-.25 1.738-1.01 5.44-.5 6.13l-.507-.23c-3.007-1.276-8.466-11.1-9.4-16.766 0 0-.2-1.106-.633-3.36-.19-2.195-1.44-8.907-1.692-9.835-.44-2.485-1.584-5.627-2.062-7.283.065-.58-.374-.755-.69-.29-.693.91-1.25 1.786-1.633 1.21-.313-.577-.06-1.5.19-2.774-.5.344-1.625.49-1.755-.346-1.385-5.668-2.13-12.725-2.13-18.51.63-1.5 2.38-4.27 3.762-7.29l-.127-.688c-1.51.686-4.02 3.004-4.52 4.27l-.63-.804c-.5-2.32-1-6.83-1-11.57-.25-.87.12-1.383.506-2.085.996-2.192 2.134-4.65 3.005-7.056.76-2.44 4.96-9.946 6.22-11.69l-.826.69c-2.31.76-8.27 7.408-9.02 7.87l-.566.05c.31-6.65 2.32-21.452 3.697-30.54 1.384-3.41 12.17-13.82 9.656-11.97-4.882 1.62-6.512 3.24-7.523 3.7l-1.502.468c1.5-6.46 4.616-29.8 7.907-36.092 2.38-3.82 4.768-4.86 6.52-9.027l-1.26.576c-.872.815-4.766 3.475-7.143 6.485l-.763.11c1.13-3.005 1.51-6.24 3.766-10.41.62-1.74 1.63-2.43 2.39-3.932 1.874-2.204 2.63-3.013 4.387-3.82.87-.34 2.507-.92 2.507-.92-5.004 18.942-6.77 34.343-8.28 55.403-1.505 33.55 1.547 74.147 13.806 99.256-9.79-29.38-13.553-61.304-12.298-93.695 1-27.77 5.51-49.98 15.305-87.455l2.13 1.27.004.004" fill="#fff"/><path d="M157.934 173.822c-3.133 3.937-24.71 41.416-26.84 48.245-19.054 35.278-30.353 70.442-29.598 105.037 0 15.15 1.763 25.565 3.76 36.666.882 4.276 2.133 10.06 1.882 13.76l.634-.345c.874-1.505 3.255-6.242 4.015-10.174.253-1.5 1.128 0 1.128 0 .368 1.04 1.126 1.51 1.252 2.54 0 .93.493.82.75.12 1.378-2.54 1.756-4.05 1.25-6.7-.5-2.19-.87-11.33.253-14.69 0-.93.876 0 .876 0 .633 1.39 1.635 3.94 3.885 6.02 0 0 .95.58 1.01 0-.24-2.43-.49-18.28 3.52-20.02 1.5.35 1.63 1.28 2.76 2.32 1.26-1.27 1.77-6.71 1.39-10.872.13-6.475-.88-12.96-1.503-17-.526-1.275 0-1.51.75-1.744.186-.125 3.01-3.353 3.01-5.083-2.373 1.503-3.01 1.85-5.27 3.245-.25-4.98-2.63-12.843-5.26-18.983 2.76 2.327 4.508 4.98 5.39 7.18 1-5.09 1.38-8.104 1.506-10.533-1.375-4.51-4.01-14.336-3.76-21.63 1.63 5.32 3.13 11.107 4.767 14.58.752-2.553 1.377-7.063 2.38-10.88 1.374-.926 3.01-1.85 3.51-2.654-.504-.817-2.64.694-3.01.8.25-3.586.873-10.525-1.756-21.86l.37-.35c1.13.467 2.51 2.547 3.01 4.75 2.26-2.43 3.77-14.46 4.39-19.2-2.38 0-3.504 2.425-5.14 2.19.25-1.506.377-.804 1-2.19.63-1.626 2.14-3.25 2.765-5.443 1.38-1.85 1.38-4.05 1.51-6.13 0-1.967-.25-4.857 1.5-7.404.382 1.032.13 1.736 1 3.93 0 0 3.52-7.056 5.4-8.67 2.5-10.066 8.522-21.404 14.172-28.81" fill="#fff"/><path d="M159.06 180.183c-4.14 5.445-7.152 14-8.66 20.132 1.882-.927 2.008-.816 3.765-1.388.63-2.896 5.575-19.634 4.895-18.744" fill="#fff"/><path d="M117.576 312.273c.075.336.658.127.35.462.752 0 1.536.135 2.232-.062.353-.094.593-.603.655-.88.205-.968.722-2.202-.22-2.88-.83-.62-.685-1.6-1.27-2.075-.27-.218-.845-.366-1.235-.727-.29-.27-.817.34-.815.62.015.76.56 1.53.546 2.34-.02 1.24-.65 1.59-.25 3.22" fill="#FFB612"/><path d="M108.522 301.642c-.085-1.34-.564-3.23 1.6-2.7.68.16.837 1.092.853 1.542.036 1.213.335 2.18.893 3.242.32.6-.22 1.123-.547 1.552-.83 1.145-2.56 1.792-3.55.664-.6-.685-1.33-1.712-.79-2.65.43-.735.77-1.135 1.42-1.777" fill="#FFB612"/><path d="M110.694 315.412c-1.138-1.51-.605-2.916.727-3.812.85-.564 1.87-.185 2.11.48l1.52 3.937c.48 1.41-1.46 2.774-2.82 2.16-.97-.457-.9-1.937-1.52-2.765" fill="#FFB612"/><path d="M111.86 320.894c-.544-.157-.596.276-.865.5-.566.446-.568 1.384-1.06 2-.92 1.14-.643 2.755-.28 3.844.242.747 1.453 1.836 2.483 1.753 1.628-.12 2.832-2.91 1.59-3.58-1.615-.88-1.047-3.1-1.642-4.31-.044-.08-.43-.03-.684-.03" fill="#FFB612"/><path d="M122.21 318.04c-.417-.512-.435-1.2.043-1.53.44-.295 1.2-.152 1.644.2l.72.475c1.348.987 2.173 2.31 1.444 3.823-.19.425-1 .828-1.56.44-.43-.3-1.03-.32-1.34-.832-.48-.836-.28-1.78-.95-2.576" fill="#FFB612"/><path d="M107.385 308.69c-.242-.738-.92-.376-1.296.16-.89 1.27-1.34 2.5-1.46 4.35.25 1.037 1.86 1.236 2.65.774 1.79-1.038.51-5.02.42-4.47.05-.357-.33-.892-.33-.812v-.002" fill="#FFB612"/><path d="M142.265 320.14c-.366-.257-.972 0-1.006.414-.14 1.187-.16 3.438 1.79 3.072.69-.125 1.15-.786.99-1.457-.24-.97-1.01-1.5-1.79-2.04" fill="#FFB612"/><path d="M146.953 324.357c-.476-.437-1.317-.367-1.67-.12-.715.512-.982 1.593-.727 2.41.28.89.608 1.84 1.322 2.528.46.442 1.413.954 1.666.635.586-.766 1.132-1.787.872-2.89-.24-.98-.726-1.856-1.463-2.562" fill="#FFB612"/><path d="M164.89 322.97c-.35.03-.792.074-.935.272-.7 1.014.068 2.194.998 2.618.975.462 2.205-1.056 1.482-1.893-.46-.546-1.187-1.014-2.043-.996" fill="#FFB612"/><path d="M156.282 333.613c-.362-.17-.93-1.24-.652-1.958.256-.642 1.048-.9 1.723-.792.777.135 1.274.64 1.713 1.17 1.15 1.363 1.473 3.49-.017 4.63-.61.475-1.7.363-2.13-.305-.55-.834-.14-1.503-.56-2.396l-.09-.348" fill="#FFB612"/><path d="M166.7 334.36c-1.024-.738-.6-2.22-1.728-2.885-.63-.38-1.465-.472-2.05-.022-.613.493-.61 1.2-.768 1.94-.085.41.202.772.397 1.127.83 1.555 2.83 1.606 4.39 2.484.21.117.62-.28.77-.53.49-.777-.29-1.6-1.01-2.114" fill="#FFB612"/><path d="M150.103 332.903c-.53-.59-1.44-.396-1.985-.055-.187.115-.372.42-.372.65-.012 1.504-.555 3.063.04 4.486.36.86 1.188 1.9 2.26 1.46.77-.314 1.246-1.172.988-1.997-.476-1.528.23-3.252-.933-4.544h.01" fill="#FFB612"/><path d="M178.49 333.362c-.328-1.054-2.383.016-3.12-.66-.648-.592-1.427-1.123-1.544-2.057-.523 1.1-.107 2.238.447 3.21.315.554 1.044.852 1.513 1.343.536.53.724 1.265 1.026 1.936.383.875-.547 1.38-1.13 1.485-1.837.31-1.89-2.12-2.468-3.3-.406-.84-1.576-1.18-2.197-1.95-.15-.18-.42-.37-.562-.59-.518-.86-1.572-1.46-2.03-2.37-.083.39.06.783.188 1.133.874 2.556 2.282 4.81 3.492 7.22.34.67.716 1.33.923 2.06.186.625.085 1.373-.308 1.76-.387.4-1.31-.463-1.498-.174-.666 1.08.373 2.372.967 3.43.42.75 1.17 1.5.82 2.36-.07.167-.32.395-.58.46-.89.22-1.67-.31-2.14-.77-1.85-1.784-3.47-3.58-4.93-5.724-.57-.82-.26-1.89-.88-2.7-.36-.464-1.05-1.215-1.67-.703-.2.178-.45.41-.49.67-.2 1.056-.43 2.04-1.12 2.82-.2.22-.59.58-.66.716-.95 1.61-1.16 3.47-1.47 5.36-.08.45-.2 1.01-.7 1.24-.53.26-.887-.26-1.17-.596-.767-.865-1.07-1.897-1.6-2.886-.318-.62-.33-1.376-.75-2.026l-.23-.015c.07.175-.1.333-.18.444-.504.8-1.326 1.163-2.225 1.48-.493.173-1.05-.16-1.16-.55-.605-2.25-2.28-3.84-2.96-5.997-1.04 0-2.06.22-2.74-.716-1.498-2.04-1.198-4.333-1.395-6.574-.333.266-.74.453-.983.817-2.38 3.535-3.293 7.21-4.31 11.21-.2.8-.33 1.1-.6 1.85-.567 1.57.31 1.794 1.19.752 1.54-1.83 1.22-.32 1.377.117.38 2.673 1.88 5.323 2.5 9.835.51 4.39 1.51 8.79 2.01 10.985 1.332 7.22 6.52 14.578 9.66 16.4-.377-3.005.75-4.14.5-6.46l.634-.114c.115 4.053 3.38 9.26 7.14 12.153 3.01 3.233 4.642 3.925 7.18 7.28.75 1.157 1.35 1.69 1.98 2.614 1.375-2.617 3.886-7.24 3.886-12.33 0-3.91-.13-8.33-1.253-11.81 2.26.935 4.77 4.285 6.65 7.185 1.13-2.21.5-8.33-1.25-11.34-1.756-3.7-4.64-8.79-2.635-16.31 1.25 2.655 2.13 2.54 4.14 3.003.38-2.78-.13-6.71 0-7.17-.76-1.266-2.506-2.788-2.506-2.788l1.877-3.348c.88-3.355-.87-6.02-.685-6.536-.95-1.91-1.592-3.543-1.99-4.81v.003" fill="#FFB612"/><path d="M156.797 314.778c-.273-.716-1.037-1.246-.63-1.958.112-.2.527-.15.83-.215.893-.22 1.95-.09 2.54.493.464.46.78 1.005 1.166 1.577.39.59.496 1.297.75 1.95.288.72-.028 1.517-.638 1.858-.708.395-1.01.734-2.048.305-.39-.16-.63-.934-.815-1.233-.24-.4-.222-1.533-.54-1.905-.29-.32-.448-.432-.616-.87h.002" fill="#FFB612"/><path d="M156.12 318.685c-.304-.27-.706-.255-1.024-.277-.152-.007-.594.024-.577.282.1 1.402-1.66 2.06-2.2 3.165-.54 1.146.56 2.23 1.47 3.003.73.618 1.88.2 2.76-.05 1.452-.404 1.64-2.286 1.3-3.554-.264-.958-.92-1.815-1.75-2.57" fill="#FFB612"/><path d="M172.787 167.237h-17.242v3.7h15.74l1.502-3.7" fill="#fff"/><path d="M170.843 156.884l.63 2.72 3.264-5.85-3.893 3.13" fill="#fff"/><path d="M158.933 164.396l1.752-3.988 5.024 3.988h-6.78" fill="#fff"/><path d="M164.7 160.002l2.323-7.634 1.622 10.755-3.945-3.12" fill="#fff"/><path d="M101.87 313.37c.128 1.038.11.405.654 1.272.503.778.222 1.827.607 2.72.33-.385.94-.562 1-1.15.48 1.79-.93 3.515-.24 5.315.77-.635 1.9-.78 2.51-1.626-.05.72-.26 1.41-.37 2.11-.193 1.21.335 2.42.49 3.68.185 1.59 2.323 2.78 1.714 4.35-.99 2.54-1.516 5.23-.62 7.63.19.508.466 1.35 1.098 1.62.48.2 1.207.21 1.677 0 .257-.12.474-.5.522-.86.195-1.113-.34-2.16-.125-3.22.27-1.386.536-2.77 1.49-3.88.195-.225.927-.152 1.094.195.63 1.304.375 2.86 1.21 4.057.285.407 1.274.695 1.8.247 1.17-1.007.74-2.58.894-3.89.25-2.17-.854-3.33-1.17-5.54-.29-2.07.13-2.38.844-3.23.753 1.94.76 4.05 2.278 5.77.327.362.92.374 1.174.182 1.1-.875.88-2.777.08-4.01-1.216-1.88-2.21-4.85-.01-6.57-.14.95-.128 2.022.402 2.73.73.97 2.08 2.97 2.27 4.893.077.682 1.138.957 1.79.42.114-.1-.03-.556.315-.594 1.05-.136 1.55 1.01 1.496 1.8.418 0 .974.134 1.187-.064 1.013-.956.767-3.233.83-4.555.11-2.44.744-1.51 1.178-1.75 0 0 .19 1.167-.06 4.516.378 4.17-.12 9.61-1.382 10.874-1.125-1.036-1.25-1.966-2.752-2.317-4.01 1.74-3.76 17.594-3.515 20.016-.06.58-1.006 0-1.006 0-2.25-2.08-3.253-4.63-3.884-6.01 0 0-.875-.93-.875 0-1.124 3.35-.75 12.49-.25 14.69.5 2.653.125 4.156-1.253 6.7-.25.7-.746.816-.746-.114-.13-1.037-.89-1.498-1.255-2.55 0 0-.873-1.494-1.125 0-.76 3.93-3.14 8.68-4.017 10.183l-.634.346c.25-3.697-1-9.48-1.88-13.765-2-11.11-4.015-21.514-4.015-36.67 0-6.83.404-14.165.404-14.165l.22.22h-.002" fill="#FFB612"/><path d="M153.89 341.643c1.782 5.214 4.036 12.268 5.55 14.93-.382-3.008-4.77-14.93-4.646-15.73.125-.814-.903.8-.903.8" fill="#FFB612"/><path d="M292.155 145.792c-.375-.387-1.727-.185-1.964-.716-.16-.36-.36-.776-.6-.956-.41-.306-.99.114-1.56.2-.77.11-1.6-.042-2.38-.28-1.34 1.428-4.93.48-6.62.596-.21.008 1.07.677 1.3.858 1.188.937 3.148.854 4.595.9.24.01.71-.226.893-.246 1.557-.194 3.105.302 4.747.56.512.08 2.126-.414 1.61-.913v-.003" fill="#fff"/><path d="M316.535 147.796l-3.72-1.964c-.227-.337-.515-.747-.872-1.053-.837-.71-1.278-1.55-2.244-2.11-1.28-.76-2.34-1.73-3.74-2.21l-.49-.03c-.11-.02-.17-.11-.15-.227-.12 0-.28.044-.36-.016-.19-.2-.487-.313-.67-.37-.727-.22-1.56.18-2.203-.34-.364-.3-.79-.48-1.2-.715-1.11-.66-2.38-.26-3.57-.087-.24.032-.59.322-.84.524-.454.362-1.195-.287-1.794-.1-.525.16-1.106.722-.604 1.18.543.5 1.245.844 1.984 1.01 2.154.5 4.42.01 6.453.84.588.236 1.31.51 1.55 1.204-.205.035-.43.21-.61.085-.5-.33-1.04-.323-1.53-.36-3.43-.26-6.85-.52-10.28-.08 0 .81.345 1.66 1.144 1.76 1.066.13 2.21-.175 3.23-.1 1.12.074 2.313.74 3.43 1.32.15.08.415.075.59 0 .504-.186.94-.85 1.498-.615.34.154.696.29 1.053.35.79.12 1.35-.01 2.1.09 1.58.215 2.94 1.193 4.5.983 1.18-.16 1.72.2 2.3.69-.34-.275 2.16 1.37 2.37.962.09-.154 2.627-.29 2.65-.646h.004" fill="#fff"/><path d="M325.61 147.088c-1.01-.587-1.124-1.747-1.665-2.606-.412-.656-.966-1.186-1.625-1.5-2.948-1.41-6.386-3.86-8.58-3.674-.69.062-.97.75-.576 1.106.755.673 2.085.903 2.2 2.008 2.936 1.353 8.098 2.26 7.855 5.214-.02.286 1.89-.61 2.39-.55v.002" fill="#fff"/><path d="M155.546 167.237l18.495-.028c-1.01 1.84-1.61 3.74-1.61 3.74l-16.88-.02v-3.7" fill="#FFB612"/></g></svg>