<?xml version="1.0" encoding="UTF-8"?>
<svg width="332px" height="79px" viewBox="0 0 332 79" version="1.1" xmlns="http://www.w3.org/2000/svg" xmlns:xlink="http://www.w3.org/1999/xlink">
    <!-- Generator: Sketch 59.1 (86144) - https://sketch.com -->
    <title>logo/postlight</title>
    <desc>Created with Sketch.</desc>
    <g id="logo/postlight" stroke="none" stroke-width="1" fill="none" fill-rule="evenodd">
        <g id="Group">
            <path d="M64.5256,62.5282 C64.5256,66.2992 62.2956,69.3102 57.5736,69.3102 C52.9316,69.3102 50.5206,66.2992 50.5206,62.5282 L50.5206,30.9062 C50.5206,27.1352 52.9316,24.2942 57.4836,24.2942 C61.8546,24.2942 64.5256,26.8052 64.5256,30.7362 L64.5256,62.5282 Z M98.8443,15.9897 C104.1983,15.9897 108.5333,17.8707 110.6743,20.1447 C113.4393,23.0827 114.5773,25.8547 115.2973,31.6747 L106.6483,31.6747 C105.5563,26.7447 102.7823,24.2067 99.0003,24.2067 C94.6413,24.2067 92.2883,27.1197 92.2883,30.9337 C92.2883,33.3307 93.1353,35.4067 96.2873,38.0887 L106.7993,46.5237 C112.2653,51.3337 115.2973,55.5887 115.2973,63.3417 C115.2973,71.5117 109.1163,78.0547 99.2633,78.0547 C91.2353,78.0547 83.5133,74.2627 82.5343,62.5917 L90.9853,62.5917 C91.5893,65.7837 93.9863,69.5767 98.2063,69.5767 C102.6363,69.5767 105.5363,66.6677 105.7933,62.6787 C106.0213,59.1317 104.5313,56.9677 100.5133,53.6587 L90.0013,45.2237 C86.4313,42.5397 82.7843,38.5517 82.7843,30.3747 C82.7843,22.7887 88.7423,15.9897 98.8443,15.9897 Z M57.5636,15.8712 C66.4766,15.8712 73.5296,20.5232 73.5296,30.7462 L73.5296,30.7462 L73.5296,62.2682 C73.5296,72.7422 66.4766,77.8942 57.4836,77.8942 C47.9906,77.8942 41.5176,72.9122 41.5176,62.5182 L41.5176,62.5182 L41.5176,31.2572 C41.5176,21.1932 48.4106,15.8712 57.5636,15.8712 Z M233.5049,16.1626 C242.1589,16.1626 249.5779,21.1196 249.5779,29.3546 L249.5779,35.3966 L240.5659,35.3966 L240.5659,30.1956 C240.5659,26.4136 237.3689,24.1446 233.5049,24.1446 C228.9669,24.1446 226.5609,27.0866 226.5609,31.1196 L226.5609,62.7996 C226.5609,67.0846 229.3029,69.6896 233.5049,69.6896 C240.2129,69.6896 241.5939,66.6086 241.5939,60.1126 L241.5939,55.0316 L233.5859,55.0316 L233.5859,47.0106 L249.5779,47.0106 L249.5509,77.0116 L241.5939,77.0116 L241.5939,73.0106 L240.5659,73.0106 C238.8229,77.0116 236.7119,77.8406 231.0389,77.8406 C224.2029,77.8406 217.5939,72.7986 217.5939,63.2196 L217.5939,30.7836 C217.5939,21.6246 224.2609,16.1626 233.5049,16.1626 Z M208.558,17.0002 L208.558,77.0172 L199.146,77.0172 L199.146,17.0002 L208.558,17.0002 Z M153.3361,16.9945 L153.3361,24.9975 L141.8321,24.9975 L141.8321,77.0165 L132.8281,77.0165 L132.8281,24.9975 L121.3241,24.9975 L121.3241,16.9945 L153.3361,16.9945 Z M171.3838,16.9995 L171.3838,68.9335 L189.3908,68.9335 L189.3908,77.0165 L162.3808,77.0165 L162.3808,16.9995 L171.3838,16.9995 Z M18.7669,16.9942 C28.6309,16.9942 33.0119,23.7272 33.0119,34.8412 C33.0119,35.0112 33.0119,35.1912 33.0019,35.3612 L33.0019,35.3612 L33.0019,37.7722 C32.8519,49.1162 28.2809,56.2692 18.2569,56.2692 L18.2569,56.2692 L9.0029,56.2692 L9.0029,77.0162 L-0.0001,77.0162 L-0.0001,16.9942 Z M268.3056,16.9896 L268.3056,43.0096 L282.3106,43.0096 L282.3106,16.9896 L291.3146,16.9896 L291.3146,77.0116 L282.3106,77.0116 L282.3106,51.0116 L268.3056,51.0116 L268.3056,77.0116 L259.3026,77.0116 L259.3026,16.9896 L268.3056,16.9896 Z M331.8312,16.9999 L331.8312,25.0429 L320.3272,25.0429 L320.3272,77.0119 L311.3242,77.0119 L311.3242,25.0429 L299.8192,25.0429 L299.8192,16.9999 L331.8312,16.9999 Z M15.9859,24.9472 L9.0029,24.9472 L9.0029,48.2662 L15.9859,48.2662 C20.4569,48.2662 23.1489,45.4252 23.2289,37.7722 L23.2289,37.7722 L23.2189,35.3612 L23.2289,35.3612 C23.2389,35.2612 23.2389,35.1612 23.2389,35.0512 C23.2389,27.9982 20.7069,24.9472 15.9859,24.9472 L15.9859,24.9472 Z" id="Combined-Shape" fill="#FFFFFF"></path>
            <polygon id="Overline" fill="#A66EFF" points="0.002 8.0032 32.014 8.0032 32.014 0.0002 0.002 0.0002"></polygon>
        </g>
    </g>
</svg>
