<svg xmlns="http://www.w3.org/2000/svg" viewBox="0 0 83.19 83.19"><defs><style>.cls-1{fill:none;stroke:#967926;stroke-miterlimit:10;}.cls-2{fill:#967926;}</style></defs><title>資產 10</title><g id="圖層_2" data-name="圖層 2"><g id="Arrows"><circle class="cls-1" cx="30.26" cy="31.94" r="9.21"/><path class="cls-1" d="M26.64,47.82a3.68,3.68,0,0,1,7.23,0A16.93,16.93,0,0,0,40,45.14a3.67,3.67,0,0,1,4.89-5.28,16.9,16.9,0,0,0,2-5.07,3.68,3.68,0,0,1,0-7.23,16.93,16.93,0,0,0-2.42-5.75,3.67,3.67,0,0,1-5.24-5.09,16.91,16.91,0,0,0-5.32-2.18,3.67,3.67,0,0,1-7.33,0,16.92,16.92,0,0,0-5.52,2.3A3.67,3.67,0,0,1,15.93,22a16.92,16.92,0,0,0-2.3,5.52,3.67,3.67,0,0,1,0,7.35,17.06,17.06,0,0,0,2.18,5.31,3.67,3.67,0,0,1,5.09,5.24A17,17,0,0,0,26.64,47.82Z"/><circle class="cls-1" cx="37.63" cy="60.14" r="4.93"/><path class="cls-1" d="M35.69,68.64a2,2,0,0,1,3.87,0,9.07,9.07,0,0,0,3.29-1.44,2,2,0,0,1,2.62-2.83,9.05,9.05,0,0,0,1.07-2.71,2,2,0,0,1,0-3.87,9.07,9.07,0,0,0-1.29-3.08A2,2,0,0,1,42.44,52a9.06,9.06,0,0,0-2.85-1.17,2,2,0,0,1-3.93,0,9.06,9.06,0,0,0-3,1.23A2,2,0,0,1,30,54.81a9.06,9.06,0,0,0-1.23,3,2,2,0,0,1,0,3.93,9.13,9.13,0,0,0,1.17,2.84,2,2,0,0,1,2.73,2.81A9.1,9.1,0,0,0,35.69,68.64Z"/><path class="cls-2" d="M67.52,45.63a2.52,2.52,0,0,1,2-2.47,11.6,11.6,0,0,0-1.65-3.93,2.51,2.51,0,0,1-3.59-3.49,11.58,11.58,0,0,0-3.64-1.49,2.51,2.51,0,0,1-5,0,11.58,11.58,0,0,0-3.78,1.57,2.51,2.51,0,0,1-3.52,3.52,11.58,11.58,0,0,0-1.57,3.78,2.52,2.52,0,0,1,0,5,11.68,11.68,0,0,0,1.49,3.64,2.51,2.51,0,0,1,3.49,3.59A11.63,11.63,0,0,0,55.69,57a2.52,2.52,0,0,1,4.95,0,11.59,11.59,0,0,0,4.2-1.84,2.51,2.51,0,0,1,3.35-3.62,11.58,11.58,0,0,0,1.37-3.47A2.52,2.52,0,0,1,67.52,45.63Zm-9.35,6.83a6.31,6.31,0,1,1,6.31-6.31A6.31,6.31,0,0,1,58.17,52.47Z"/><circle class="cls-1" cx="41.59" cy="41.59" r="41.09"/></g></g></svg>